<?xml version="1.0" standalone="no"?>
<!DOCTYPE svg PUBLIC "-//W3C//DTD SVG 1.1//EN" "http://www.w3.org/Graphics/SVG/1.1/DTD/svg11.dtd" >
<svg xmlns="http://www.w3.org/2000/svg" xmlns:xlink="http://www.w3.org/1999/xlink" version="1.1">
<metadata>
Created by FontForge 20170731 at Wed Jan  5 12:23:38 2022
 By Aleksey,,,
</metadata>
<defs>
<font id="BagerichRegular" horiz-adv-x="550" >
  <font-face 
    font-family="Bagerich"
    font-weight="400"
    font-stretch="normal"
    units-per-em="2048"
    panose-1="0 0 0 0 0 0 0 0 0 0"
    ascent="1638"
    descent="-410"
    x-height="1016"
    cap-height="1426"
    bbox="-167.131 -459 2465 2149"
    underline-thickness="102"
    underline-position="-307"
    unicode-range="U+000A-FB06"
  />
<missing-glyph horiz-adv-x="1079" 
d="M102 1434h875v-1434h-875v1434zM160 1393l379 -633l381 633h-760zM514 717l-369 614v-1231zM541 674l-379 -631h758zM565 717l371 -621v1239z" />
    <glyph glyph-name=".notdef" horiz-adv-x="1079" 
d="M102 1434h875v-1434h-875v1434zM160 1393l379 -633l381 633h-760zM514 717l-369 614v-1231zM541 674l-379 -631h758zM565 717l371 -621v1239z" />
    <glyph glyph-name=".null" horiz-adv-x="0" 
 />
    <glyph glyph-name=".null" horiz-adv-x="0" 
 />
    <glyph glyph-name="nonmarkingreturn" horiz-adv-x="682" 
 />
    <glyph glyph-name="controlLF" unicode="&#xa;" horiz-adv-x="0" 
 />
    <glyph glyph-name="controlCR" unicode="&#xd;" horiz-adv-x="0" 
 />
    <glyph glyph-name="space" unicode=" " horiz-adv-x="634" 
 />
    <glyph glyph-name="exclam" unicode="!" horiz-adv-x="335" 
d="M238 317h-141l-45 1007q0 1 -0.5 3t-0.5 3q0 48 34.5 82t82.5 34t82 -34t34 -82v-6zM49 100q0 49 35 84t84 35t83.5 -35t34.5 -84t-34.5 -83.5t-83.5 -34.5t-84 34.5t-35 83.5z" />
    <glyph glyph-name="quotedbl" unicode="&#x22;" horiz-adv-x="559" 
d="M111 1106l-62 337h206l-45 -337h-99zM465 1106h-99l-62 337h206z" />
    <glyph glyph-name="numbersign" unicode="#" horiz-adv-x="1402" 
d="M1021 1427h224l-77 -470h185v-50h-194l-63 -387h162v-50h-170l-77 -470h-223l77 470h-407l-77 -470h-223l77 470h-186v50h194l63 387h-162v50h170l77 470h224l-77 -470h406zM936 907h-407l-63 -387h407z" />
    <glyph glyph-name="dollar" unicode="$" horiz-adv-x="1101" 
d="M651 805q16 -10 48 -32q64 -42 97 -65t88.5 -67.5t82 -76.5t55.5 -81t31 -93.5t-13 -101t-55 -115.5q-59 -86 -168 -130t-241 -51v-182h-50v181q-66 0 -132 11q-78 12 -143.5 37.5t-114 66t-71.5 90.5t-13 117t58 141q69 -81 184 -162.5t232 -130.5v445q-89 56 -129.5 83
t-105 73.5t-100.5 84.5t-54 74q-43 86 -34 179q12 134 103 217.5t226 109.5q44 8 94 10v181h50v-182q116 -7 226.5 -52.5t190.5 -116.5l-143 -187q-150 158 -274 230v-453q43 -30 75 -52zM526 893v443q-26 12 -61 21q-54 11 -98.5 5.5t-72.5 -31.5t-40 -60.5t0.5 -80.5
t48.5 -93q72 -92 223 -204zM576 575v-433q97 -38 183 -33.5t128 60.5q24 31 26.5 64.5t-17 68t-47 66.5t-76 69.5t-92 67.5t-105.5 70z" />
    <glyph glyph-name="percent" unicode="%" horiz-adv-x="1734" 
d="M716 1043q0 -165 -100 -284t-233 -119t-233.5 119t-100.5 284t100.5 284t233.5 119t233 -119t100 -284zM464 749q54 14 71.5 109t-15.5 218q-33 120 -99 197.5t-119 63.5q-54 -14 -71.5 -109t15.5 -218q33 -120 99 -197.5t119 -63.5zM1020 1427h178l-484 -1427h-178z
M1352 787q133 0 233.5 -119t100.5 -284t-100.5 -283.5t-233.5 -118.5t-233 118.5t-100 283.5t100 284t233 119zM1433 90q54 14 71.5 109t-15.5 218q-33 121 -99 198.5t-119 63.5q-54 -14 -71.5 -109.5t15.5 -218.5q33 -120 99 -197.5t119 -63.5z" />
    <glyph glyph-name="ampersand" unicode="&#x26;" horiz-adv-x="1341" 
d="M911 757q99 78 208 42q67 -22 101.5 -70t36 -108t-15.5 -122.5t-51 -121.5q-44 -77 -110 -140l212 -237h-318l-71 89q-140 -107 -344 -107q-118 0 -216.5 37t-161.5 98.5t-97.5 138t-34.5 158.5q0 131 73 227t196 151q-265 311 -67 524q56 60 137 95t171 35
q102 0 197.5 -43.5t156 -119t60.5 -162.5q0 -102 -59.5 -184.5t-152.5 -118.5t-187 -13l417 -467q37 106 15.5 224.5t-95.5 194.5zM859 139l-490 591q-43 -52 -60.5 -133.5t-0.5 -175.5q16 -89 53.5 -158.5t85.5 -110t105 -63t112.5 -22t106.5 18.5t88 53zM599 845h3
q70 -3 116 76t29 190t-88.5 197t-141.5 89t-116.5 -76t-29.5 -190q17 -117 98 -208q64 -72 128 -78h2z" />
    <glyph glyph-name="quotesingle" unicode="'" horiz-adv-x="305" 
d="M210 1106h-99l-62 337h206z" />
    <glyph glyph-name="parenleft" unicode="(" horiz-adv-x="632" 
d="M583 -404q-81 0 -160 57t-145.5 161.5t-118 243t-80.5 312t-30 357.5q1 184 30 357.5t80.5 312t118 243t145.5 161.5t160 57v-44q-52 4 -97 -47t-75.5 -134.5t-55 -192.5t-38.5 -217t-23.5 -213t-12.5 -175t-3 -108q0 -46 5 -134t16.5 -217t35 -256t55 -238.5t82 -179
t111.5 -63.5v-43z" />
    <glyph glyph-name="parenright" unicode=")" horiz-adv-x="632" 
d="M583 727q-1 -184 -30 -357.5t-80.5 -312t-118 -243t-145.5 -161.5t-160 -57v43q61 -4 111.5 63.5t82 179t55 238.5t35 256t16.5 217t5 134q0 38 -3 108t-12.5 175t-23.5 213t-38.5 217t-55 192.5t-75.5 134.5t-97 47v44q81 0 160 -57t145.5 -161.5t118 -243t80.5 -312
t30 -357.5z" />
    <glyph glyph-name="asterisk" unicode="*" horiz-adv-x="460" 
d="M361 1365q14 5 26 -1t17 -20v-1l5 -15q5 -16 -2 -27q-6 -11 -20 -16h-1v-1h-1h-1h-1l-1 -1h-1h-1h-1l-1 -1h-1h-2v0l-2 -1h-1l-2 -1v0h-2v0l-1 -1h-1h-1h-1h-1l-1 -1h-1h-1h-1v-1h-2h-1l-1 -1h-1h-1h-1h-1v-1h-1l-6 -1h-1l-2 -1v0h-1q-28 -7 -63 -10q21 -19 45 -46v0
l1 -1h1v-1l1 -1l1 -1l1 -1v-1h1l1 -2l1 -1v0l1 -1l1 -1v0l1 -2h1v-1h1v-1h1v-1h1v-1h1v-1l1 -1v0l2 -2v0v-1h1v-1l1 -1l1 -1l1 -1l1 -1l1 -1v-1h1l1 -2l1 -1l1 -1v0l1 -1v-1h1q9 -10 7 -26q-1 -14 -14 -23l-11 -8q-12 -9 -26 -6q-15 3 -22 14v1h-1v1l-1 1v1l-1 1l-1 1v1
l-1 1l-1 1v1h-1v1v1h-1v1l-1 1l-1 1v1l-2 2l-1 2v0l-1 2h-1v1v1l-1 1l-1 1v1h-1v1l-1 2v0l-1 2l-2 3h-1v1l-1 1v1l-1 1v1l-1 1l-1 2l-1 1v0l-1 1v1q-13 20 -30 50q-18 -35 -28 -52l-1 -1v-1h-1v-1l-1 -1v-1l-1 -1v0l-1 -2l-1 -1v-1l-1 -1l-1 -1v-1l-1 -2l-1 -1v0l-1 -2v0
l-1 -2l-1 -1v-1l-2 -2v-1l-1 -1v0l-1 -1v-1h-1v-1l-2 -4l-1 -1l-1 -1v-1l-1 -1l-2 -3l-1 -1v-1l-1 -1v0q-7 -12 -22 -15q-12 -3 -26 6l-11 8q-12 9 -13 23q-2 16 7 26l1 1v0l1 2h1v1l3 3l1 1l2 2l1 2v0l5 6v0l1 1l1 1l3 3v1l1 1l1 1v0v1l2 2h1v1l1 1h1v1l1 1l2 2v1l2 1v1
q32 36 40 43q-40 8 -59 12h-1l-1 1h-1h-1h-1h-1v1h-1h-1v0h-2l-1 1v0h-1h-1h-1l-1 1h-1h-1h-1l-1 1h-1h-1h-1v0l-2 1v0h-1h-1h-1l-1 1h-1h-1h-1l-1 1h-1h-1h-1l-2 1v0h-2v0l-2 1h-1h-1h-1l-1 1h-1v0q-12 3 -21 17q-8 12 -3 26v1l4 13q5 14 18 20q14 6 26 2l1 -1h1l3 -1v0
l2 -1l3 -1l2 -1v0l2 -1h1v0l2 -1h1l1 -1h1h1l1 -1h1h1v-1h2l4 -2h1v0l1 -1h1h1l1 -1v0l2 -1h1h1v-1h1l1 -1h1h1l1 -1h1h1l1 -1q33 -13 53 -25q-3 33 -6 60v1v1v1v1v1l-1 1v0v2v1v1v1v1v1v1v0v2h-1v1v1v1v1v1v1v1v0v2v1v1v1l-1 2v1v1v1v1v1v1v1v1v1v1v1l-1 1v1v0v2v0v1v1v0
q-1 15 9 25q11 11 25 11h12q14 0 25 -11q10 -10 9 -25v-1v-1v-1v-1v-1v-1v-1v-1v-1v0v-1v-1h-1v-1v-1v-2v-1v-1v-1v-1v-1v-1v-1l-1 -1v-1v-2v0v-1v-1v0v-3v-1v-1l-1 -1v-1v-1v-1v0v-2v-1v-1v-1v-1l-1 -1v-2v0v-1q-4 -42 -7 -60q21 11 54 25l1 1h1h1v1h1h1v1h2h1l1 1h1l1 1h1
l1 1h1l2 1v0h1l1 1h1h1v1h1h1l1 1h1h1v1h1h1h1v1h1l2 1v0h2v1h1h1h1v1h1h1l1 1h1v0l2 1h1l1 1h1l2 1v0h1h1z" />
    <glyph glyph-name="plus" unicode="+" horiz-adv-x="872" 
d="M492 671v-332h-111v332h-332v111h332v332h111v-332h332v-111h-332z" />
    <glyph glyph-name="comma" unicode="," horiz-adv-x="335" 
d="M49 100q0 49 35 84t84 35t83.5 -35t34.5 -84q0 -88 -50.5 -149.5t-121.5 -61.5q-24 0 -48 8q52 31 74 88q-39 9 -65 41t-26 74z" />
    <glyph glyph-name="hyphen" unicode="-" horiz-adv-x="872" 
d="M824 742v-112h-775v112h775z" />
    <glyph glyph-name="period" unicode="." horiz-adv-x="335" 
d="M168 -18q-49 0 -84 34.5t-35 83.5t35 84t84 35t83.5 -35t34.5 -84t-34.5 -83.5t-83.5 -34.5z" />
    <glyph glyph-name="slash" unicode="/" horiz-adv-x="759" 
d="M711 1427l-484 -1427h-178l484 1427h178z" />
    <glyph glyph-name="zero" unicode="0" horiz-adv-x="1165" 
d="M583 1450q102 0 199.5 -58t171 -155.5t118.5 -234t45 -284.5t-45 -284.5t-118.5 -234t-171 -155.5t-199.5 -58t-199.5 58t-171 155.5t-118.5 234t-45 284.5t45 284.5t118.5 234t171 155.5t199.5 58zM888 710q-1 189 -45.5 354.5t-115.5 261.5t-148 96t-147 -91.5
t-112.5 -253.5t-41.5 -351t45.5 -355t115.5 -262t148 -96t147 91.5t112.5 254t41.5 351.5z" />
    <glyph glyph-name="one" unicode="1" 
d="M380 98q0 -32 22.5 -54.5t53.5 -22.5h47v-21h-454v21h46q31 0 54 22.5t23 54.5v1163h-123v21q63 14 123 37q119 45 171 108q2 2 13 19h24v-1348z" />
    <glyph glyph-name="two" unicode="2" horiz-adv-x="976" 
d="M174 1364q125 80 265 80q102 0 189.5 -27t147.5 -72t96.5 -106t43 -126t-19.5 -134t-85 -129q-46 -47 -121 -108t-140 -110t-136 -113.5t-122 -125t-85 -138t-36 -157.5q-1 -31 21.5 -54t54.5 -23h247q126 0 240.5 69.5t161.5 181.5h32l-23 -272h-855v74v75.5t2.5 72
t8 75t17 71t28 74.5t42 72t58.5 75q42 46 120.5 111.5t150 124.5t141 124t110 130.5t39.5 123.5q-2 57 -49 101t-119.5 54t-160.5 -30q-54 -27 -99.5 -74.5t-72.5 -97t-45.5 -94t-26 -74t-6.5 -28.5q-91 44 -122.5 121.5t-1 154.5t109.5 128z" />
    <glyph glyph-name="three" unicode="3" horiz-adv-x="1103" 
d="M198 1314q61 62 149 98.5t180 36.5q184 0 310.5 -95t126.5 -230q0 -93 -76.5 -173.5t-183.5 -122.5q142 -41 227 -123t110 -186q13 -53 13.5 -107t-13.5 -106.5t-40.5 -99.5t-70.5 -87.5t-101 -70t-134.5 -46t-167.5 -16.5q-128 0 -230 39q-64 24 -116.5 60.5t-90 85.5
t-40.5 105t33 120q28 45 77 72t110 28q-9 -105 29 -187.5t118 -168.5q41 -44 83 -69t78.5 -29t71.5 6t62 35t49 59t33 78t14.5 91.5t-6.5 99.5q-28 153 -126.5 268t-193.5 117h-109v53l219 -1q70 -3 116.5 76t29.5 190q-10 63 -46.5 127t-85.5 105t-103.5 52.5t-99.5 -30.5
q-73 -71 -73 -166t66 -191q-43 -11 -84 -12.5t-73.5 12t-58.5 33t-39 50.5t-13.5 64.5t17.5 74.5t53 81z" />
    <glyph glyph-name="four" unicode="4" horiz-adv-x="1024" 
d="M816 98q0 -32 23 -54.5t54 -22.5h46v-21h-453v21h46q32 0 54.5 22.5t22.5 54.5v178h-560v58q186 287 250 537q69 268 -41 364q-58 50 -162 46q15 87 77 132t148.5 34.5t134.5 -70.5q39 -48 50.5 -125t1.5 -150t-34 -141q-29 -80 -72.5 -166t-105.5 -182.5t-95.5 -145.5
t-98.5 -142h476q21 0 31 1v993q119 45 171 108q2 2 13 19h23v-1041q101 78 136 206l1 4h22l-31 -339h-128v-178z" />
    <glyph glyph-name="five" unicode="5" horiz-adv-x="964" 
d="M359 1427h410l17 -272h-32q-44 112 -157 182t-239 70l-44 -370q98 44 165 47q86 5 159 -20t123.5 -71.5t86 -110.5t51.5 -137t16 -153t-16.5 -155.5t-50.5 -146.5t-82 -126q-72 -82 -168 -128.5t-200 -46.5q-108 0 -210 52q-15 7 -32 17q-50 32 -78.5 81.5t-28.5 107.5
q0 62 33 114.5t90 83.5q53 -146 141 -248.5t171 -120.5q69 -15 115 36t61.5 140.5t9 200t-35.5 213.5q-66 234 -184.5 280.5t-310.5 -80.5h-49l2 21l1 9l63 531h203z" />
    <glyph glyph-name="six" unicode="6" horiz-adv-x="1058" 
d="M614 1449q99 0 182 -46t123 -129q28 -57 4.5 -127.5t-84.5 -92.5q1 -1 -11 22.5t-34.5 58.5t-52 74t-71 77t-83.5 59q-95 47 -168 19t-119 -100t-61 -170q-18 -115 -3 -244q61 88 149 140.5t187 52.5q83 0 159 -37.5t132.5 -100t94 -148t48.5 -176.5t-9.5 -190
t-73.5 -186q-60 -98 -152.5 -158.5t-198.5 -60.5q-136 0 -256.5 97.5t-193.5 267.5t-73 367q0 109 22.5 214t69 199t112 164.5t159 112t202.5 41.5zM694 69q83 22 108.5 171.5t-23.5 324.5q-50 182 -149.5 299t-180.5 96q-53 -14 -84.5 -86t-32.5 -177.5t32 -231.5
q22 -80 58 -154q59 -122 135 -190t137 -52z" />
    <glyph glyph-name="seven" unicode="7" horiz-adv-x="894" 
d="M611 188q-32 -110 -114 -162q-68 -45 -158.5 -40t-149.5 61q-39 37 -60 92t-20 137t31 180q37 119 89.5 228.5t123.5 213.5t136 185.5t160 190.5h-210q-78 0 -126 -3.5t-91.5 -14.5t-69.5 -32.5t-46 -55.5t-34 -86l-1 -4h-22l25 353h772v-20q-135 -146 -271 -381
q-193 -334 -211 -557q-22 -261 219 -283q14 -2 28 -2z" />
    <glyph glyph-name="eight" unicode="8" horiz-adv-x="1118" 
d="M597 849h2h3q70 -3 116 76t29 190t-88.5 197t-141.5 89t-116.5 -76t-29.5 -190q17 -109 87 -194.5t139 -91.5zM811 412q-28 153 -126.5 267.5t-193.5 116.5q-61 1 -110 -47.5t-70 -135.5t-3 -188q28 -153 126.5 -267.5t193.5 -116.5q61 -1 110 47.5t70 135.5t3 188z
M973 1125q0 -93 -76 -174t-183 -122q158 -46 257 -151.5t99 -259.5q0 -82 -34.5 -158.5t-98 -138t-162 -98.5t-216.5 -37t-216.5 37t-161.5 98.5t-97.5 138t-34.5 158.5q0 154 99 259.5t257 151.5q-107 42 -183.5 122.5t-76.5 173.5q0 87 60.5 162.5t156 119t197.5 43.5
t197.5 -43.5t156 -119t60.5 -162.5z" />
    <glyph glyph-name="nine" unicode="9" horiz-adv-x="1058" 
d="M445 -14q-99 0 -183 46t-123 129q-28 57 -4.5 127.5t84.5 92.5q-1 1 11 -22.5t34.5 -58.5t52.5 -74t71.5 -77t83.5 -59q95 -47 168 -19t119 100t61 170q17 111 2 245q-61 -88 -148.5 -141t-186.5 -53q-83 0 -159 37.5t-132.5 100.5t-94 148t-49 176.5t9 190.5t73.5 186
q60 98 153 158t199 60q102 0 198 -58t167 -156t114 -234t43 -284q0 -109 -22 -214t-68.5 -199t-112.5 -164.5t-159 -112t-202 -41.5zM364 1366q-83 -22 -108 -171t24 -324q50 -182 149 -299.5t180 -96.5q53 14 84.5 86.5t32.5 178t-32 231.5q-22 83 -57 153
q-59 122 -135.5 190t-137.5 52z" />
    <glyph glyph-name="colon" unicode=":" horiz-adv-x="333" 
d="M167 1046q49 0 83.5 -34.5t34.5 -83.5t-34.5 -83.5t-83.5 -34.5t-83.5 34.5t-34.5 83.5t34.5 83.5t83.5 34.5zM49 499q0 49 34.5 84t83.5 35t83.5 -35t34.5 -84t-34.5 -83.5t-83.5 -34.5t-83.5 34.5t-34.5 83.5z" />
    <glyph glyph-name="semicolon" unicode=";" horiz-adv-x="335" 
d="M231 599q55 -35 55 -100q0 -88 -50.5 -149.5t-121.5 -61.5q-24 0 -48 8q52 31 74 88q-39 9 -65 41t-26 74q0 65 55 100q29 19 64 19q34 0 63 -19zM50 928q0 49 34.5 83.5t83.5 34.5t83.5 -34.5t34.5 -83.5t-34.5 -83.5t-83.5 -34.5t-83.5 34.5t-34.5 83.5z" />
    <glyph glyph-name="less" unicode="&#x3c;" horiz-adv-x="866" 
d="M816 996l-551 -303l551 -303l-50 -90l-609 334l-108 59l108 59l609 335z" />
    <glyph glyph-name="equal" unicode="=" horiz-adv-x="755" 
d="M707 605v-112h-658v112h658zM707 934v-111h-658v111h658z" />
    <glyph glyph-name="greater" unicode="&#x3e;" horiz-adv-x="866" 
d="M601 693l-552 303l50 91l609 -335l108 -59l-108 -59l-609 -334l-50 90z" />
    <glyph glyph-name="question" unicode="?" horiz-adv-x="964" 
d="M438 1448q102 0 189.5 -27t147.5 -72t96.5 -106t43 -126t-19.5 -134t-85 -129q-24 -24 -93.5 -71t-114.5 -90.5t-45 -87.5v-288h-207v334q0 102 79 166q16 13 52 42.5t54 44.5t50 42.5t49.5 45l42.5 42.5t38 44.5t26.5 42.5t19 44t5.5 42q-2 57 -49 101t-119.5 53.5
t-160.5 -30.5q-54 -27 -99.5 -74.5t-72.5 -97t-45.5 -94t-26 -73.5t-6.5 -28q-91 44 -122.5 121.5t-1 154.5t109.5 128q125 80 265 80zM335 100q0 49 35 84t84 35t83.5 -35t34.5 -84t-34.5 -83.5t-83.5 -34.5t-84 34.5t-35 83.5z" />
    <glyph glyph-name="at" unicode="@" horiz-adv-x="2056" 
d="M1336 1250h72v-982q0 -65 49 -110.5t118 -45.5q48 0 86.5 29t61.5 75.5t39.5 104.5t24.5 118t12.5 114t6.5 93v9q10 185 -23 363t-103 325t-167 260t-222.5 175.5t-262.5 62.5q-212 0 -391.5 -147.5t-284 -401t-104.5 -552.5t104.5 -552.5t284 -401t391.5 -147.5
q154 0 293.5 80.5t246.5 224.5l73 -96q-128 -121 -285 -186.5t-328 -65.5q-133 0 -260 41t-234.5 115t-198 179.5t-153.5 231t-98 273.5t-35 304q0 233 77.5 444.5t208.5 364.5t312.5 243.5t380.5 90.5t380.5 -90.5t312.5 -243.5t208.5 -364.5t77.5 -444.5q0 -350 -168 -543
q-115 -133 -272 -152q-141 -17 -245 64q-108 83 -120 234h-1q-48 -72 -118.5 -105t-144.5 -26.5t-148.5 47.5t-133 107.5t-95 164.5t-36.5 209q0 143 61 265t161.5 192.5t214.5 70.5q129 0 239 -102h10q15 37 49 60.5t76 23.5zM1085 294q62 17 90 102t26 196q-3 97 -31 198
q-50 182 -149.5 299t-180.5 96q-53 -14 -84.5 -86t-32.5 -177.5t32 -231.5q50 -182 149.5 -299.5t180.5 -96.5z" />
    <glyph glyph-name="A" unicode="A" horiz-adv-x="1277" 
d="M281 1426h433l7 -20l364 -1272q22 -67 55 -89.5t88 -24.5v-21h-484v20q37 -1 61 6t42 32q28 37 14 81l-60 211q-54 -87 -132 -115.5t-157 -3t-152 94.5l-43 45l-65 -232q-16 -48 9 -81q28 -38 97 -38v-20h-309v21q51 2 83 27t53 94l82 289q-105 142 -158 342
q-30 112 -36 226.5t11.5 210.5t68 156.5t128.5 60.5zM639 389q44 88 47.5 217t-22 246t-68.5 219q-19 44 -50 101l-221 -776q53 -59 108.5 -87t112 -11t93.5 91zM498 1247q-11 16 -35 44q-118 135 -220 108t-137 -203q-33 -169 16.5 -379.5t152.5 -357.5z" />
    <glyph glyph-name="B" unicode="B" horiz-adv-x="1148" 
d="M673 782q27 -10 62 -21q100 -31 169 -68q170 -93 192 -284q16 -133 -69.5 -247.5t-252.5 -158.5q-46 -12 -100 -13t-124 4t-104 5h-397v21h46q31 0 54 23t23 54v1232q0 31 -23 54t-54 23h-46v20h451q164 52 296 -37q102 -70 140 -192q41 -135 -23 -249
q-70 -122 -240 -166zM496 20q87 0 156.5 23.5t113.5 64t69 95.5t28.5 116t-12.5 126.5t-50.5 127t-88.5 118.5t-123 99q-59 36 -84 64q-58 64 -91.5 162.5t-33.5 191.5v-1111q0 -32 22.5 -54.5t53.5 -22.5h40zM420 1066q24 -92 70 -160t97 -90q37 -14 66.5 -6t49.5 40.5
t30 76.5t7 102t-19 118q-29 108 -86.5 181t-115.5 78q-52 4 -84 -46t-34 -127t19 -167z" />
    <glyph glyph-name="C" unicode="C" horiz-adv-x="976" 
d="M910 223l17 -29l-110 -109q-112 -103 -245 -103q-136 0 -256.5 97.5t-193.5 267.5t-73 367t73 367t193.5 267.5t256.5 97.5q113 0 202 -67t125 -174t1 -218q-20 -64 -61 -111q-14 -16 -27 -26q-102 330 -252 449q-106 84 -197 33t-123 -208q-42 -202 35 -481
q61 -224 177.5 -384t227.5 -182q10 -5 24.5 -2t24 4t24.5 9.5t24 13t23.5 16.5t23 19.5t22.5 21t22 21.5t21 21.5t21 21.5z" />
    <glyph glyph-name="D" unicode="D" horiz-adv-x="1171" 
d="M380 1329v-1232q0 -32 22.5 -54.5t53.5 -22.5h82q104 1 188.5 109t128.5 272t45 344q0 111 -11.5 206t-42.5 184t-79 150t-125 93.5t-177 24.5q-85 -7 -85 -74zM380 1426q104 16 193 18t176.5 -30.5t162.5 -102.5q100 -93 153.5 -242t55.5 -318q2 -112 -19 -220
t-66.5 -204.5t-110 -169.5t-156.5 -115.5t-200 -42.5h-520v21h46q31 0 54 23t23 54v1232q0 31 -23 54t-54 23h-46v20h331z" />
    <glyph glyph-name="E" unicode="E" horiz-adv-x="1083" 
d="M1010 306l1 4h22l-19 -311h-965v21h46q31 0 54 23t23 54v1232q0 31 -23 54t-54 23h-46v20h893l31 -311h-22l-2 4q-35 129 -137.5 208t-235.5 79h-120h-2h-2h-2l-2 -1h-1h-2h-2l-2 -1h-2l-2 -1h-2l-2 -1h-1l-2 -1l-2 -1h-2l-1 -1l-2 -1l-2 -1l-1 -1h-2l-1 -1q-1 -1 -2 -1
l-2 -1l-1 -1l-2 -2l-1 -1l-1 -1l-2 -1l-1 -1l-2 -1l-1 -2l-1 -1l-1 -1l-2 -2l-1 -1l-1 -2l-1 -1l-1 -2l-1 -1l-1 -2l-1 -1q-1 -1 -1 -2l-1 -1l-1 -2l-1 -2l-1 -1v-2l-1 -2l-1 -2v-1l-1 -2l-1 -2v-2v-2l-1 -2v-1l-1 -2v-2v-2v-2v-2v-2v-2v-518h147h2h1q88 1 151 63.5
t64 151.5v1h24v-453h-24v1q-1 89 -64 151.5t-151 63.5h-1h-149v-693q0 -32 22.5 -54.5t53.5 -22.5h146q137 0 255.5 80.5t152.5 205.5z" />
    <glyph glyph-name="F" unicode="F" horiz-adv-x="1021" 
d="M380 97q0 -32 22.5 -54.5t53.5 -22.5h47v-21h-454v21h46q31 0 54 23t23 54v1232q0 31 -23 54t-54 23h-46v20h893l31 -311h-22l-2 4q-35 128 -137.5 207.5t-235.5 79.5h-120h-2h-2h-2l-1 -1h-2h-2h-2l-2 -1h-2l-2 -1h-2l-1 -1h-2l-2 -1l-2 -1h-2l-1 -1l-2 -1l-2 -1l-1 -1
h-2l-1 -1q-1 -1 -2 -1l-2 -1l-1 -1l-2 -2l-1 -1l-1 -1l-2 -1l-1 -1l-2 -1l-1 -2l-1 -1l-1 -1l-2 -2l-1 -1l-1 -2l-1 -1l-1 -2l-1 -1l-1 -2l-1 -1q-1 -1 -1 -2l-1 -1l-1 -2l-1 -2l-1 -1v-2l-1 -2l-1 -2v-1l-1 -2l-1 -2v-2v-2l-1 -2v-1l-1 -2v-2v-2v-2v-2v-2v-2v-518h147h2h1
q88 1 151 63.5t64 151.5v1h24v-453h-24v1q-1 89 -64 151.5t-151 63.5h-1h-149v-693z" />
    <glyph glyph-name="G" unicode="G" horiz-adv-x="1042" 
d="M49 714q0 197 73 367t193.5 267.5t256.5 97.5q113 0 202 -67t125 -174t1 -218q-20 -64 -61 -111q-12 -15 -27 -27q-102 330 -252 449q-106 84 -197 33t-123 -208q-42 -202 35 -481q47 -171 130.5 -309.5t175 -207t166.5 -49.5q50 14 86 63q-50 41 -114 48v439
q0 31 -21.5 52t-51.5 21h-185v21h531v-21q-28 -3 -46.5 -24t-18.5 -49v-634h-9q-12 76 -65 129l-36 -36q-112 -103 -245 -103q-136 0 -256.5 97.5t-193.5 267.5t-73 367z" />
    <glyph glyph-name="H" unicode="H" horiz-adv-x="1269" 
d="M1097 97q0 -32 22.5 -54.5t53.5 -22.5h47v-21h-454v21h46q32 0 54.5 23t22.5 54v693h-436q-31 0 -52 -21t-21 -52v-620q0 -32 22.5 -54.5t53.5 -22.5h47v-21h-454v21h46q31 0 54 23t23 54v1232q0 31 -23 54t-54 23h-46v20h454v-20h-47q-31 0 -53.5 -22.5t-22.5 -54.5
v-518h436q31 0 52 21.5t21 51.5v445q0 31 -22.5 54t-54.5 23h-46v20h454v-20h-47q-31 0 -53.5 -22.5t-22.5 -54.5v-1232z" />
    <glyph glyph-name="I" unicode="I" horiz-adv-x="552" 
d="M380 97q0 -32 22.5 -54.5t53.5 -22.5h47v-21h-454v21h46q31 0 54 23t23 54v1232q0 31 -23 54t-54 23h-46v20h454v-20h-47q-31 0 -53.5 -22.5t-22.5 -54.5v-1232z" />
    <glyph glyph-name="J" unicode="J" horiz-adv-x="1048" 
d="M952 1406q-32 0 -54.5 -23t-22.5 -54v-983q0 -72 -29.5 -133.5t-80 -103.5t-112 -70t-130.5 -40q-58 -9 -117 -8q-67 2 -123 14q-85 22 -145.5 74.5t-80.5 119.5t9 136q28 67 88 104q50 -121 123 -213.5t151 -135.5q56 -31 106 -31q16 0 29 3q69 14 107 85.5t37.5 182
t-39.5 234.5v765q0 31 -23 54t-54 23h-46v20h453v-20h-46z" />
    <glyph glyph-name="K" unicode="K" horiz-adv-x="1187" 
d="M172 1329q0 31 -23 54t-54 23h-46v20h454v-20h-47q-31 0 -53.5 -22.5t-22.5 -54.5v-661q57 28 119.5 76.5t122 109t101.5 130t60 136t-5.5 131t-92.5 111.5q29 41 83 62.5t109.5 16.5t102 -51.5t59.5 -129.5q36 -238 -405 -504l322 -628q28 -52 75 -80t106 -28v-21h-496
v21h28q38 0 57 32q19 31 1 65l-276 541q-25 -12 -71 -32v-529q0 -32 22.5 -54.5t53.5 -22.5h47v-21h-454v21h46q31 0 54 23t23 54v1232z" />
    <glyph glyph-name="L" unicode="L" horiz-adv-x="1048" 
d="M976 306l1 4h22l-19 -311h-931v21h46q31 0 54 23t23 54v1232q0 31 -23 54t-54 23h-46v20h454v-20h-47q-31 0 -53.5 -22.5t-22.5 -54.5v-1232q0 -32 22.5 -54.5t53.5 -22.5h146q133 0 236 79t138 207z" />
    <glyph glyph-name="M" unicode="M" horiz-adv-x="1540" 
d="M49 1428h357l78 -199h1l86 -213l209 -546l14 -34l13 34l286 725l67 173l24 60h307v-20h-46q-31 0 -54 -23t-23 -54v-1233q0 -31 22.5 -53.5t54.5 -22.5h46v-21h-454v21h46q32 0 54.5 22.5t22.5 53.5v1112l-369 -944l-3 -8l-91 -233l-92 233l-4 8h2l-9 20l-366 924v-1112
q0 -31 22.5 -53.5t54.5 -22.5h46v-21h-302v21h46q32 0 54.5 22.5t22.5 53.5v1233q0 31 -23 54t-54 23h-46v20z" />
    <glyph glyph-name="N" unicode="N" horiz-adv-x="1224" 
d="M228 97q0 -31 23 -54t54 -23h46v-21h-302v21h46q31 0 54 23t23 54v1232q0 31 -23 54t-54 23h-46v20h159l788 -1053v956q0 31 -23 54t-54 23h-46v20h302v-20h-46q-31 0 -54 -23t-23 -54v-1330h-36l-788 1054v-956z" />
    <glyph glyph-name="O" unicode="O" horiz-adv-x="1144" 
d="M572 1445q102 0 198 -58t167 -156t114 -234t43 -284t-43 -284t-114 -234t-167 -156t-198 -58q-136 0 -256.5 97.5t-193.5 267.5t-73 367t73 367t193.5 267.5t256.5 97.5zM868 784q-47 171 -130.5 309.5t-175 207t-166.5 49.5t-120 -122.5t-46 -254.5t45 -332
q47 -171 130.5 -309.5t175 -207t166.5 -49.5t120 122.5t46 254.5t-45 332z" />
    <glyph glyph-name="P" unicode="P" horiz-adv-x="1198" 
d="M380 854v-757q0 -32 22.5 -54.5t53.5 -22.5h47v-21h-454v21h46q31 0 53 21.5t24 53.5v2v1232v2l-3 18q-7 25 -27 41t-47 16h-46v21h501q87 18 100 18q121 0 217.5 -42.5t154 -112t90.5 -159t35 -183.5t-20 -186t-68 -166q-60 -97 -138 -142t-157 -34.5t-153.5 61.5
t-135.5 148.5t-95 224.5zM394 940q31 -190 131 -326t210 -138q109 -1 164.5 132t23.5 324q-31 190 -131.5 325.5t-210.5 137.5q-85 1 -139 -82.5t-59 -218.5q-1 -78 11 -154z" />
    <glyph glyph-name="Q" unicode="Q" horiz-adv-x="1153" 
d="M571 1445q136 0 256.5 -97.5t193.5 -267.5t73 -367q0 -195 -71.5 -362.5t-188.5 -266.5q-33 -31 -114.5 -95.5t-118.5 -98.5q46 25 109 50q194 74 309 -1q74 -48 83 -134q10 -84 -47 -140q-34 -32 -84 -43q-16 77 -62 119.5t-108 49.5t-138.5 -9t-150 -47.5t-144.5 -75.5
l-7 13l-22 39q48 41 130.5 110t146 122t67.5 56q-54 -18 -111 -18q-136 0 -256.5 97.5t-193.5 267.5t-73 367q0 148 43 284t114 234t167 156t198 58zM747 75q16 4 32 14q1 1 2 1t2 1q96 59 122.5 254t-37.5 439q-47 171 -130.5 309.5t-175 207t-166.5 49.5t-120 -122.5
t-46 -254.5t45 -332q47 -171 130.5 -309.5t175 -207t166.5 -49.5z" />
    <glyph glyph-name="R" unicode="R" horiz-adv-x="1208" 
d="M1059 596q-71 -115 -166.5 -156t-190 -8.5t-174.5 125.5q90 -132 190.5 -217.5t192.5 -85.5q125 0 191 70q24 -23 38.5 -57t18 -70.5t-8 -73.5t-35 -66.5t-66.5 -48t-100 -18.5q-27 0 -63 9q-85 23 -163.5 101t-134 176t-101 212.5t-70.5 204t-37 157.5v-753
q0 -32 22.5 -54.5t53.5 -22.5h47v-21h-454v21h46q31 0 53 21.5t24 53.5v2v1232v2l-3 18q-7 25 -27 41t-47 16h-46v21h501q87 18 100 18q121 0 217.5 -42.5t154 -112t90.5 -159t35 -183.5t-20 -186t-68 -166zM394 940q31 -190 131 -326t210 -138q109 -1 164.5 132t23.5 324
q-31 190 -131.5 325.5t-210.5 137.5q-85 1 -139 -82.5t-59 -218.5q-1 -78 11 -154z" />
    <glyph glyph-name="S" unicode="S" horiz-adv-x="1034" 
d="M496 1363q-71 17 -141 -1.5t-99.5 -69.5t19.5 -136q13 -20 30 -42.5t41.5 -48t45 -46.5t54.5 -51t55 -49t61.5 -52.5t59 -49t62 -51t57.5 -46.5q50 -41 75.5 -63t62.5 -62t60 -78q92 -152 -6 -324q-12 -21 -15 -26q-23 -34 -48 -58q-46 -45 -109 -74q-93 -44 -215 -52
q-96 -6 -181 9q-72 13 -132.5 38.5t-104.5 66.5t-65 92.5t-10.5 119t56.5 143.5q83 -202 270 -308q145 -83 286 -75q119 6 159 73q51 85 -57 218q-15 19 -34 38q-64 67 -141.5 134.5t-175.5 148t-149 124.5q-114 100 -146 183q-18 52 -15.5 107t21.5 104q36 91 111 149.5
t161 79.5t186 17q110 -5 213 -73.5t130 -169.5q19 -70 -15 -132t-102 -86q-22 135 -106.5 242t-208.5 137z" />
    <glyph glyph-name="T" unicode="T" horiz-adv-x="1185" 
d="M1114 1115l-1 4q-36 133 -123 210t-217 77q-31 0 -54 -23t-23 -54v-1232q0 -31 23 -54t54 -23h46v-21h-453v21h46q32 0 54.5 23t22.5 54v1232q0 31 -22.5 54t-54.5 23q-130 0 -217 -77t-123 -210l-1 -4h-22l20 312h1047l20 -312h-22z" />
    <glyph glyph-name="U" unicode="U" horiz-adv-x="1269" 
d="M524 -1q-69 12 -130.5 40t-112 70t-80 103.5t-29.5 133.5v983q0 31 -23 54t-54 23h-46v20h454v-20h-47q-31 0 -53.5 -22.5t-22.5 -54.5v-992q0 -71 36.5 -126t94.5 -83t128.5 -40.5t141 1.5t128.5 43.5t94.5 85.5t36.5 127v984q0 31 -23 54t-54 23h-46v20h302v-20h-46
q-31 0 -53.5 -22.5t-22.5 -54.5v-984q0 -69 -26.5 -127.5t-70.5 -98t-102.5 -69.5t-122 -42.5t-128.5 -16.5t-123 8z" />
    <glyph glyph-name="V" unicode="V" horiz-adv-x="1277" 
d="M193 1292q-21 67 -55 89.5t-89 24.5v20h484v-20q-37 1 -61 -6t-42 -31q-27 -36 -13 -81l37 -134l38 -133h1l66 -226l161 -579l220 769h-1l44 153v1l42 149q16 48 -9 81q-28 38 -97 38v19h309v-20q-51 -2 -83 -27t-53 -94l-320 -1131q-14 -51 15.5 -92.5t81.5 -41.5h71
v-21h-377l-7 21z" />
    <glyph glyph-name="W" unicode="W" horiz-adv-x="1761" 
d="M193 1292q-21 67 -55 89.5t-89 24.5v20h1179v-20q-51 -2 -83 -27t-53 -94l-94 -334l45 -156l161 -579l219 769l44 153v1l42 149q16 48 -9 81q-28 38 -97 38v19h309v-20q-51 -2 -83 -27t-53 -94l-320 -1131q-14 -51 15.5 -92.5t81.5 -41.5h71v-21h-377l-7 21l-154 538
l-114 -404q-14 -51 15.5 -92.5t81.5 -41.5h71v-21h-377l-7 21zM420 1277l9 -34l28 -99l1 -1l34 -122h1l66 -226l161 -579l132 462l-161 564l-12 39q-21 62 -66.5 92t-96.5 26q-52 -4 -82 -38t-14 -84zM963 1068l20 70v1l38 133l4 16q22 71 -25 102q-35 23 -72 4
q-45 -21 -35 -78q1 -8 4 -17l6 -21l35 -124z" />
    <glyph glyph-name="X" unicode="X" horiz-adv-x="1212" 
d="M813 1428h309v-24h-32q-43 0 -78 -24.5t-54 -68.5l-250 -569l13 -28l261 -565q28 -59 75.5 -92t105.5 -33v-23h-485v23h28q38 0 57 37q19 36 1 75l-246 532l-243 -551q-14 -31 2 -62t48 -31h32v-23h-308v23h31q43 0 77.5 25t54.5 69l274 621l-13 27l-237 513
q-28 59 -75.5 92t-105.5 33v24h484v-24h-28q-37 0 -56 -37t-2 -74l222 -481l220 499q14 32 -2 63q-16 30 -47 30h-33v24z" />
    <glyph glyph-name="Y" unicode="Y" horiz-adv-x="1148" 
d="M193 1292q-21 67 -55 89.5t-89 24.5v20h484v-20q-37 1 -61 -6t-42 -31q-27 -36 -13 -81l239 -683l240 683q15 47 -10 81q-28 38 -97 38v19h309v-20q-51 -2 -83 -27t-53 -94l-170 -497l-84 -245l-27 -78v-368q0 -31 22.5 -54t54.5 -23h46v-21h-453v21h46q31 0 54 23t23 54
v367z" />
    <glyph glyph-name="Z" unicode="Z" horiz-adv-x="946" 
d="M874 306l1 4h22l-20 -311h-828l591 1407h-175q-133 0 -236 -79.5t-138 -207.5l-1 -4h-22l31 311h775l-591 -1406h183q136 0 255 80.5t153 205.5z" />
    <glyph glyph-name="bracketleft" unicode="[" horiz-adv-x="638" 
d="M257 -255q0 -32 22.5 -54.5t53.5 -22.5h257l-5 -71h-536v2251h536l5 -71h-257q-31 0 -53.5 -22.5t-22.5 -54.5v-1955z" />
    <glyph glyph-name="backslash" unicode="\" horiz-adv-x="759" 
d="M227 1428l484 -1427h-178l-484 1427h178z" />
    <glyph glyph-name="bracketright" unicode="]" horiz-adv-x="638" 
d="M54 1848h536v-2251h-536l-5 71h257q32 0 54.5 23t22.5 54v1955q0 32 -22.5 54.5t-54.5 22.5h-257z" />
    <glyph glyph-name="asciicircum" unicode="^" horiz-adv-x="659" 
d="M404 2131l207 -351h-150l-130 228l-132 -228h-150l211 351h144z" />
    <glyph glyph-name="underscore" unicode="_" horiz-adv-x="872" 
d="M824 112v-112h-775v112h775z" />
    <glyph glyph-name="grave" unicode="`" horiz-adv-x="407" 
d="M358 1155h-141l-168 272h235z" />
    <glyph glyph-name="a" unicode="a" horiz-adv-x="1017" 
d="M451 731q89 113 68 173q-15 41 -71 31q-75 -14 -149 -105q-66 -81 -105 -200q-69 43 -95.5 97.5t-8.5 106t64 95.5t124.5 72t170.5 29q113 2 189 -28q207 -80 207 -345v-559q0 -32 22.5 -54.5t54.5 -22.5h46v-21h-195q-51 0 -89 33.5t-45 83.5q-1 6 -1 18v159
q-31 -93 -93.5 -169.5t-140.5 -113.5q-60 -29 -122 -29q-100 0 -167 60.5t-66 173.5q1 70 28.5 130.5t75 109t97 89t108 91t93.5 95.5zM400 964q27 5 56.5 1t53.5 -12.5t38 -32t10 -57.5q-11 -99 -179 -294q-5 -6 -7 -8q-63 -73 -91 -140.5t-21 -112t31.5 -79.5t67 -42
t84.5 0q81 21 138 111t57 244v262q0 102 -71 150t-167 10z" />
    <glyph glyph-name="b" unicode="b" horiz-adv-x="1085" 
d="M1031 561q17 -168 -28 -312q-38 -119 -107 -188.5t-147 -79.5t-159.5 48t-141.5 179q-37 77 -68 164v-237q0 -56 -40 -95.5t-96 -39.5h-195v21h46q31 0 54 22.5t23 54.5v1175q0 29 -28.5 37.5t-59.5 2.5v23q60 6 157 39t117 70l22 1v-518q91 104 228 106
q151 2 276.5 -134t146.5 -339zM534 955q-45 1 -77.5 -27.5t-48.5 -71.5t-22.5 -97t-5.5 -102t8 -88q26 -161 106.5 -277t167.5 -117t130 112.5t17 274.5t-107 276t-168 117z" />
    <glyph glyph-name="c" unicode="c" horiz-adv-x="835" 
d="M49 506q0 143 61 265t162 192.5t215 70.5q93 0 181 -50q18 -10 27 -16q43 -31 67.5 -78.5t24.5 -102.5q0 -59 -28.5 -109.5t-76.5 -80.5q-46 140 -121.5 238t-147.5 116q-26 6 -49 0q-53 -14 -84 -86t-32 -177.5t32 -231.5q34 -124 93.5 -222t125.5 -144q67 -46 113 -34
q38 10 137 68l14 -24l8 -13l-92 -53l-19 -11q-86 -46 -173 -46q-114 0 -215 70.5t-162 193t-61 265.5z" />
    <glyph glyph-name="d" unicode="d" horiz-adv-x="1103" 
d="M725 1112v161q0 29 -28.5 37.5t-59.5 2.5v23q60 6 157 39t117 70l22 1v-1354q0 -32 22.5 -54.5t54.5 -22.5h46v-20h-196q-51 0 -89 33t-45 83q-43 -65 -105.5 -99t-133.5 -34q-114 0 -215 70.5t-162 192.5t-61 265t61 265t162 192.5t215 70.5q128 0 238 -102v180z
M725 358q-3 97 -31 198q-50 182 -149.5 299.5t-180.5 96.5q-53 -14 -84 -86.5t-32 -178t32 -231.5q50 -182 149 -299.5t180 -96.5q50 13 81 79.5t35 166.5v52z" />
    <glyph glyph-name="e" unicode="e" horiz-adv-x="860" 
d="M487 1034q128 0 224.5 -81.5t99.5 -208.5q3 -149 -170 -255q-26 -16 -66.5 -33t-67.5 -30t-54.5 -33t-41.5 -53t-14 -80q0 -67 43 -116l9 -9q33 -33 50 -45q31 -22 65 -32q26 -8 48 -2q14 4 32 13q32 11 56 28q31 17 49 27l14 -24l8 -13l-92 -53l-19 -11
q-84 -45 -173 -45q-114 0 -215 70.5t-162 192.5t-61 265t61 265t162 192.5t215 70.5zM379 383q13 25 38.5 51.5t51.5 48.5t54.5 47.5t49 55t33.5 65t10 82.5t-23 102q-33 90 -108 120q-76 30 -143 -21q-89 -69 -94 -240q-1 -28 1 -57q5 -89 46 -231l14 -39q20 -51 44 -97v8
q0 58 26 105z" />
    <glyph glyph-name="f" unicode="f" horiz-adv-x="813" 
d="M177 979v152q0 103 45 178t122 111q50 24 116 27.5t128 -11.5t110 -56.5t61 -101.5q12 -56 -13.5 -102.5t-77.5 -59t-127 26.5q35 54 34 106.5t-32 93.5q-29 39 -71.5 53t-79.5 2.5t-62 -51.5t-20 -100q5 -58 32 -120.5t70 -110.5h204v-50h-236v-868q0 -32 22.5 -54.5
t53.5 -22.5h47v-21h-454v21h46q31 0 54 22.5t23 54.5q0 146 5 881z" />
    <glyph glyph-name="g" unicode="g" horiz-adv-x="1067" 
d="M469 1034q91 0 175 -45q7 75 42 139q63 114 163 131q77 13 130 -35q54 -49 34 -121q-13 -45 -53 -87q-36 44 -79 56.5t-78.5 -2.5t-62.5 -47t-36 -72q84 -65 134 -166.5t50 -217.5q0 -106 -45.5 -205t-121.5 -164t-175 -90t-206 16q-69 20 -99 1q-24 -15 14 -42
q17 -12 45 -23q61 -26 228.5 -46t199.5 -27q53 -11 86 -28q64 -34 74.5 -109.5t-31.5 -132.5q-35 -52 -92 -82q-64 -33 -144 -49t-143 -16q-33 0 -53.5 0.5t-64.5 3t-74 7.5t-70.5 15.5t-66.5 24.5t-51 37t-33.5 52t-4 69.5t27.5 88.5q37 -44 87.5 -80t103.5 -59t109.5 -39
t107.5 -22t94.5 -5t74.5 9q62 17 60 50q-1 19 -15.5 33t-37 22t-43 12t-42.5 7q-6 1 -9 1q-18 3 -112.5 15t-154.5 23.5t-105 28.5q-70 25 -105.5 71.5t-31.5 93.5t49 89t124 60q-88 65 -140.5 167.5t-52.5 221.5q0 126 58.5 234t155 170.5t206.5 62.5zM580 165
q79 21 107.5 153t-15.5 299q-45 164 -140 268.5t-174 83.5q-52 -13 -84 -79.5t-35 -162t26 -209.5q45 -164 140.5 -269t174.5 -84z" />
    <glyph glyph-name="h" unicode="h" horiz-adv-x="1107" 
d="M729 98v722q-3 82 -46.5 117t-108.5 7q-61 -27 -114.5 -99.5t-79.5 -160.5v-586q0 -32 22.5 -54.5t53.5 -22.5h47v-21h-454v21h46q31 0 54 22.5t23 54.5v1175q0 29 -28.5 37.5t-59.5 2.5v23q60 6 157 39t117 70l22 1v-636q44 74 107.5 129t137.5 79q53 18 104 16
q92 -4 149.5 -70t57.5 -172v-694q0 -32 23 -54.5t54 -22.5h46v-21h-453v21h46q32 0 54.5 22.5t22.5 54.5z" />
    <glyph glyph-name="i" unicode="i" 
d="M172 98v763q0 29 -28.5 37.5t-59.5 2.5v23q60 6 157 39t117 70l22 1v-936q0 -32 22.5 -54.5t53.5 -22.5h47v-21h-454v21h46q31 0 54 22.5t23 54.5zM157 1187q0 49 35 84t84 35t83.5 -35t34.5 -84t-34.5 -83.5t-83.5 -34.5t-84 34.5t-35 83.5z" />
    <glyph glyph-name="j" unicode="j" horiz-adv-x="419" 
d="M147 167v694q0 29 -28.5 37.5t-59.5 2.5v23q60 6 157 39t117 70l22 1v-1194q0 -107 -82.5 -187.5t-225.5 -80.5q-99 0 -159.5 51.5t-54 124.5t84.5 129q26 -54 73.5 -100.5t95.5 -70t94 -30t69 18.5q33 35 27 111.5t-41.5 173.5t-88.5 187zM132 1187q0 49 35 84t84 35
t84 -35t35 -84t-35 -83.5t-84 -34.5t-84 34.5t-35 83.5z" />
    <glyph glyph-name="k" unicode="k" horiz-adv-x="1130" 
d="M172 1273q0 29 -28.5 37.5t-59.5 2.5v23q60 6 157 39t117 70l22 1v-1004q72 36 134.5 79.5t114 101t70.5 114.5t-8.5 121t-109.5 120q40 43 102.5 57t119 0.5t98.5 -53.5t44 -97q5 -152 -277 -349l233 -407q28 -52 75 -80t106 -28v-21h-496v21h28q38 0 57 32q19 31 1 65
l-187 320q-11 -5 -52 -28t-53 -28v-284q0 -32 22.5 -54.5t53.5 -22.5h47v-21h-454v21h46q31 0 54 22.5t23 54.5v1175z" />
    <glyph glyph-name="l" unicode="l" 
d="M172 1273q0 29 -28.5 37.5t-59.5 2.5v23q60 6 157 39t117 70l22 1v-1348q0 -32 22.5 -54.5t53.5 -22.5h47v-21h-454v21h46q31 0 54 22.5t23 54.5v1175z" />
    <glyph glyph-name="m" unicode="m" horiz-adv-x="1527" 
d="M1148 414v389q-6 143 -71 150q-53 6 -118 -80q-58 -79 -91 -189v126q4 7 19.5 34t20.5 34.5t19.5 30t21 30t21 25t25 24t26.5 18t31 15.5t34 8t40 5h17h5q92 -4 150 -70t58 -172v-694q0 -32 23 -54.5t54 -22.5h46v-21h-454v21h47q31 0 53.5 22.5t22.5 54.5v316zM660 414
v389q-6 143 -71 150q-53 6 -118 -80q-58 -79 -91 -189v-586q0 -32 22.5 -54.5t53.5 -22.5h47v-21h-454v21h46q31 0 54 22.5t23 54.5v763q0 29 -28.5 37.5t-59.5 2.5v23q60 6 157 39t117 70l22 1v-224q61 105 81 131q67 86 164 93q17 1 35 0q92 -4 150 -70t58 -172v-694
q0 -32 23 -54.5t54 -22.5h46v-21h-454v21h46q31 0 54 22.5t23 54.5v316z" />
    <glyph glyph-name="n" unicode="n" horiz-adv-x="1107" 
d="M729 98v722q-3 82 -46.5 117t-108.5 7q-61 -27 -114.5 -99.5t-79.5 -160.5v-586q0 -32 22.5 -54.5t53.5 -22.5h47v-21h-454v21h46q31 0 54 22.5t23 54.5v763q0 29 -28.5 37.5t-59.5 2.5v23q60 6 157 39t117 70l22 1v-224q44 74 107.5 129t137.5 79q53 18 104 16
q92 -4 149.5 -70t57.5 -172v-694q0 -32 23 -54.5t54 -22.5h46v-21h-453v21h46q32 0 54.5 22.5t22.5 54.5z" />
    <glyph glyph-name="o" unicode="o" horiz-adv-x="972" 
d="M487 1034q114 0 214.5 -70.5t161.5 -192.5t61 -265t-61 -265t-161.5 -192.5t-214.5 -70.5t-215 70.5t-162 192.5t-61 265t61 265t162 192.5t215 70.5zM694 556q-50 182 -149.5 299.5t-180.5 96.5q-53 -14 -84 -86.5t-32 -178t32 -231.5q50 -182 149 -299.5t180 -96.5
q53 14 84.5 86.5t32.5 178t-32 231.5z" />
    <glyph glyph-name="p" unicode="p" horiz-adv-x="1085" 
d="M1031 561q17 -168 -28 -312q-38 -119 -107 -188.5t-147 -79.5t-159.5 48t-141.5 179q-37 77 -68 164v-686q0 -32 22.5 -54.5t53.5 -22.5h47v-21h-454v21h46q31 0 54 22.5t23 54.5v1175q0 29 -28.5 37.5t-59.5 2.5v23q60 6 157 39t117 70l22 1v-106q91 104 228 106
q151 2 276.5 -134t146.5 -339zM534 955q-45 1 -77.5 -27.5t-48.5 -71.5t-22.5 -97t-5.5 -102t8 -88q26 -161 106.5 -277t167.5 -117t130 112.5t17 274.5t-107 276t-168 117z" />
    <glyph glyph-name="q" unicode="q" horiz-adv-x="1103" 
d="M487 1034q128 0 238 -102h10q15 37 49 60.5t76 23.5h73v-1330q0 -32 22.5 -54.5t53.5 -22.5h47v-20h-454v20h46q32 0 54.5 22.5t22.5 54.5v423q-43 -64 -105 -97.5t-133 -33.5q-114 0 -215 70.5t-162 192.5t-61 265t61 265t162 192.5t215 70.5zM725 358q-3 97 -31 198
q-50 182 -149.5 299.5t-180.5 96.5q-53 -14 -84 -86.5t-32 -178t32 -231.5q50 -182 149 -299.5t180 -96.5q50 13 81 79.5t35 166.5v52z" />
    <glyph glyph-name="r" unicode="r" horiz-adv-x="956" 
d="M373 930q8 -18 9 -37q41 40 87.5 70.5t99 51t109 19.5t106.5 -26q22 -10 45 -28q52 -39 71 -94q7 -22 7 -52q0 -73 -51 -124t-124 -51q-20 0 -30 2q13 88 -17.5 174t-97.5 99q-32 6 -66 -6q-82 -29 -117 -120q-20 -50 -21 -121q0 -10 -0.5 -29t-0.5 -27v-533q0 -16 6 -29
q21 -48 71 -48h1q26 -14 45 -21h-456v21h46q31 0 54 22.5t23 54.5q0 1 3 601v219q0 32 -22.5 54.5t-54.5 22.5h-46v21h195q42 0 76.5 -24t49.5 -62z" />
    <glyph glyph-name="s" unicode="s" horiz-adv-x="864" 
d="M439 1034q68 0 129 -14t116 -53.5t73 -101.5q15 -62 -24 -116.5t-104 -61.5q-69 171 -190 239q-82 46 -143 24q-50 -19 -45 -71q6 -66 99 -144q58 -49 185.5 -135.5t182.5 -133.5q51 -44 75.5 -98.5t21.5 -107.5t-32.5 -103.5t-79.5 -89t-126 -62t-167 -23.5
q-137 0 -250 60q-71 38 -98 107.5t-3 138t90 105.5q41 -77 128 -157.5t183 -117.5q47 -18 86 -22t62.5 4.5t38.5 24.5t13.5 40t-13.5 50.5t-41 55.5t-70 55q-12 8 -61.5 38t-78 48t-75.5 50.5t-77 58t-59.5 57t-44.5 59.5q-43 81 -33.5 153.5t53.5 126t118.5 85.5t160.5 32z
" />
    <glyph glyph-name="t" unicode="t" horiz-adv-x="722" 
d="M419 1276v-1l-1 -261h255v-49h-255l-2 -775q1 -86 64.5 -120.5t143.5 -5.5q27 10 49 27v-40q-113 -70 -260 -70q-33 0 -65.5 9.5t-65.5 31.5t-53.5 66.5t-20.5 105.5v771h-159v50q121 4 215 86.5t124 207.5h31v-33z" />
    <glyph glyph-name="u" unicode="u" horiz-adv-x="1073" 
d="M344 601v-406q3 -82 46.5 -117t108.5 -7q61 27 114.5 99.5t79.5 160.5v530q0 29 -28 37.5t-59 2.5v22q59 6 156 39.5t117 70.5l22 1v-937q0 -31 22.5 -54t54.5 -23h46v-20h-195q-56 0 -96 39.5t-40 95.5v70q-44 -74 -107.5 -129t-137.5 -79q-126 -41 -218.5 23t-92.5 203
v638q0 29 -28.5 37.5t-59.5 2.5v22q60 6 157 39.5t117 70.5l21 1v-433z" />
    <glyph glyph-name="v" unicode="v" horiz-adv-x="1060" 
d="M193 881q-21 67 -55 89.5t-89 24.5v21h189q64 0 110 -32.5t65 -92.5l209 -665l186 651q16 48 -9 81q-28 38 -97 38v20h309v-21q-51 -2 -83 -27t-53 -94l-83 -294q-129 -456 -162 -580h-162l-6 21z" />
    <glyph glyph-name="w" unicode="w" horiz-adv-x="1579" 
d="M193 881q-21 67 -55 89.5t-89 24.5v21h189q64 0 110 -32.5t65 -92.5l209 -665l141 491l-52 164q-22 67 -55 89.5t-88 24.5v21h189q64 0 110 -32.5t65 -92.5l209 -665l186 651q16 48 -9 81q-28 38 -97 38v20h309v-21q-51 -2 -83 -27t-53 -94l-83 -294q-129 -456 -162 -580
h-162l-7 21l-182 582l-6 -23q-129 -456 -162 -580h-162l-6 21z" />
    <glyph glyph-name="x" unicode="x" horiz-adv-x="1050" 
d="M230 867q-30 59 -76.5 92t-104.5 33v24h239q43 0 78 -21.5t54 -59.5l27 -54l88 -175l51 -100l142 297q12 29 -4 59t-47 30h-32v24h308v-24h-31q-43 0 -78 -24.5t-54 -68.5l-169 -359l199 -391q30 -59 76.5 -92t104.5 -33v-24h-485v24h9.5h10t9 0.5t9.5 1l9 1.5t9 3l7.5 5
t8 6.5t7 8.5t6.5 11q20 38 1 75l-145 284l-158 -307q-12 -29 4 -59t47 -30h32v-24h-308v24h31q85 0 132 93l186 370z" />
    <glyph glyph-name="y" unicode="y" horiz-adv-x="1060" 
d="M193 881q-21 67 -55 89.5t-89 24.5v21h189q64 0 110 -32.5t65 -92.5l209 -665l186 651q16 48 -9 81q-28 38 -97 38v20h309v-21q-51 -2 -83 -27t-53 -94l-83 -294q-120 -420 -175 -627q-64 -242 -208 -337q-104 -69 -206 -36q-88 28 -125 118q-50 119 20 279
q50 -96 109.5 -145.5t113 -50.5t102 26t83.5 79t52 114h-90l-6 21z" />
    <glyph glyph-name="z" unicode="z" horiz-adv-x="837" 
d="M771 0h-722l503 995q-22 0 -66.5 0.5t-63.5 0.5t-56.5 -1.5t-55 -5.5t-47 -12t-45 -19.5t-37 -29t-35 -40.5t-27.5 -54t-24 -70h-22l16 252h699l-502 -995h125q289 0 355 244h22z" />
    <glyph glyph-name="braceleft" unicode="{" horiz-adv-x="753" 
d="M495 22q0 -187 54 -278.5t155 -120.5l-3 -26q-94 11 -165.5 37.5t-130 75t-89.5 127t-31 185.5v298q0 56 -4 102t-9 80.5t-16 63t-20 47.5t-25.5 34t-27 23.5t-32 16t-32.5 10t-35.5 8t-34.5 7.5v28q10 3 34.5 8.5t35 8.5t32.5 11.5t32 17.5t27.5 26t25.5 37t19.5 50.5
t16.5 67.5t9 86.5t4 108.5v298q0 107 31 185.5t89.5 127t130 75t165.5 37.5l3 -26q-101 -31 -155 -121.5t-54 -277.5v-367q0 -80 -22 -145t-56 -105t-79.5 -67t-89.5 -38t-88 -11q45 0 88 -8t89 -31.5t80 -59.5t56 -97.5t22 -141.5v-367z" />
    <glyph glyph-name="verticalbar" unicode="|" horiz-adv-x="225" 
d="M177 -403h-128v2269h128v-2269z" />
    <glyph glyph-name="braceright" unicode="}" horiz-adv-x="753" 
d="M468 1162q0 -59 4 -108.5t9 -86.5t16.5 -67.5t19.5 -50.5t25.5 -37t27.5 -26t32 -17.5t32.5 -11.5t35 -8.5t34.5 -8.5v-28q-10 -2 -34.5 -7.5t-35.5 -8t-32.5 -10t-32 -16t-27 -23.5t-25.5 -34t-20 -47.5t-16 -63t-9 -80.5t-4 -102v-298q0 -107 -31 -185.5t-89.5 -127
t-130 -75t-165.5 -37.5l-3 26q101 29 155 120.5t54 278.5v367q0 80 22 141.5t56 97.5t80 59.5t89 31.5t88 8q-44 0 -88 11t-89.5 38t-79.5 67t-56 105t-22 145v367q0 187 -54 277.5t-155 121.5l3 26q94 -11 165.5 -37.5t130 -75t89.5 -127t31 -185.5v-298z" />
    <glyph glyph-name="asciitilde" unicode="~" horiz-adv-x="739" 
d="M679 830l11 -7q-20 -69 -45.5 -121t-50 -79.5t-49 -44t-45 -19.5t-37 -2.5t-25.5 3.5l-9 4l-153 86q-18 11 -47 17t-62.5 6t-63 -19t-41.5 -56l-13 8q20 71 46 124t50.5 80.5t49.5 43.5t46 18t37 1t26 -5l9 -5l153 -86q18 -11 47 -17.5t62 -5.5t62.5 20t41.5 56z" />
    <glyph glyph-name="nonbreakingspace" unicode="&#xa0;" horiz-adv-x="634" 
 />
    <glyph glyph-name="exclamdown" unicode="&#xa1;" horiz-adv-x="335" 
d="M277 1162q-19 -45 -64.5 -64.5t-90.5 -0.5t-64 64.5t0 90.5t64.5 64t90.5 0t64 -64t0 -90zM238 990l46 -1007v-5q0 -48 -34 -82.5t-82 -34.5t-82.5 34.5t-34.5 82.5v5l46 1007h141z" />
    <glyph glyph-name="cent" unicode="&#xa2;" horiz-adv-x="835" 
d="M487 1075q37 0 69 -7l65 193h78l-73 -215q28 -12 42 -20q9 -5 27 -17q43 -31 67.5 -78.5t24.5 -102.5q0 -59 -28.5 -109t-76.5 -80q-42 129 -116 230l-198 -584q61 -103 131 -153q68 -47 113 -35q38 10 137 68l14 -23l8 -14l-92 -53l-19 -11q-84 -45 -173 -45
q-100 0 -191 55l-81 -241h-78l97 286q-85 74 -135 186.5t-50 241.5q0 143 61 265t162 192.5t215 70.5zM322 377l188 556q-50 47 -97 59q-28 7 -49 1q-53 -14 -84 -86.5t-32 -178t32 -231.5q18 -63 42 -120z" />
    <glyph glyph-name="sterling" unicode="&#xa3;" horiz-adv-x="1097" 
d="M635 1446q67 0 129 -26t106.5 -70t74.5 -103t34 -125t-15 -135q-20 -64 -61 -111q-10 -12 -27 -26q-70 225 -164 354q-122 168 -240 144q-85 -17 -138 -126q-61 -124 -42 -277q6 -56 24 -107q11 -32 22 -59h359v-104h-318q21 -59 30.5 -110t8 -117.5t-27.5 -144
t-76 -164.5q-2 -2 -4.5 -6.5t-3.5 -6.5t-2.5 -4.5t-2.5 -3.5q70 32 164 42.5t175.5 8t157.5 -2t130 22t74 71.5l14 -6q29 -65 32.5 -115.5t-12.5 -79t-46.5 -47t-62 -25t-65.5 -6.5q-52 0 -159.5 20.5t-193 37t-174.5 6t-133 -62.5l-51 57q60 46 90.5 96t36 95t-7 102.5
t-31.5 104t-45 116t-40 122.5h-105v104h86q-22 208 110 415q75 117 177 184.5t213 67.5z" />
    <glyph glyph-name="currency" unicode="&#xa4;" horiz-adv-x="929" 
d="M465 1034q134 0 245 -77l94 94l74 -73l-91 -90q93 -109 93 -250q0 -140 -93 -249l91 -90l-74 -74l-94 94q-111 -77 -245 -77q-135 0 -246 77l-94 -94l-73 74l90 90q-93 109 -93 249q0 141 93 250l-90 90l73 73l94 -94q111 77 246 77zM679 638q0 130 -62.5 222.5
t-151.5 92.5t-152 -92.5t-63 -222.5t63 -222.5t152 -92.5t151.5 92.5t62.5 222.5z" />
    <glyph glyph-name="yen" unicode="&#xa5;" horiz-adv-x="1146" 
d="M193 1293q-21 67 -55 89.5t-89 24.5v21h484v-20q-37 1 -61 -6t-42 -32q-27 -36 -13 -81l239 -683l240 683q15 47 -10 81q-28 38 -97 38v20h309v-21q-51 -2 -83 -27t-53 -94l-170 -497l-84 -245l-7 -18h198v-104h-218v-169h218v-103h-218v-52q0 -32 22.5 -54.5t54.5 -22.5
h46v-21h-453v21h46q31 0 54 22.5t23 54.5v52h-226v103h226v169h-226v104h205z" />
    <glyph glyph-name="brokenbar" unicode="&#xa6;" horiz-adv-x="225" 
d="M177 -403h-128v915h128v-915zM177 951h-128v915h128v-915z" />
    <glyph glyph-name="section" unicode="&#xa7;" horiz-adv-x="1046" 
d="M719 296q44 -35 73.5 -60t63.5 -60.5t52.5 -65.5t33 -70t12.5 -79t-17.5 -87t-47.5 -99q-58 -92 -171.5 -137.5t-232 -41.5t-230.5 47t-172 114l170 175q74 -66 151 -116t153 -80.5t140 -23t100 59.5q16 24 16.5 51.5t-14.5 57.5t-37.5 60t-58.5 64t-72 65.5t-83.5 68
t-88 67.5t-90 69t-85.5 67q-113 88 -175 171.5t-60 182.5q-2 86 58 188q1 -1 3 -4q0 1 2 2.5t2 2.5q53 84 148 129t212 55q-24 19 -73.5 58t-73.5 58q-44 35 -73.5 60t-63.5 60.5t-52.5 65.5t-33 70t-12.5 79t17.5 87t47.5 99q58 92 171.5 138t232 41.5t230.5 -47
t172 -113.5l-169 -176q-74 66 -151.5 116t-153.5 80.5t-140 23t-100 -59.5q-16 -24 -16.5 -51.5t14.5 -57.5t37.5 -60t58.5 -64t72 -65.5t83.5 -68t88 -67.5t90 -69t85.5 -67q113 -88 175 -171.5t60 -182.5q2 -86 -58 -188l-2 2t-1 2q0 -1 -1 -2.5t-2 -2.5
q-52 -84 -148 -129t-213 -55q24 -19 73.5 -58t73.5 -58zM206 889q-44 -68 57 -164q95 -91 248 -148q173 -65 271 -28q38 15 58 43q44 68 -57 164q-95 91 -248 148q-173 65 -271 28q-38 -14 -58 -43z" />
    <glyph glyph-name="dieresis" unicode="&#xa8;" horiz-adv-x="645" 
d="M168 1783q49 0 83.5 -35t34.5 -84t-34.5 -83.5t-83.5 -34.5t-84 34.5t-35 83.5t35 84t84 35zM359 1664q0 49 35 84t84 35t83.5 -35t34.5 -84t-34.5 -83.5t-83.5 -34.5t-84 34.5t-35 83.5z" />
    <glyph glyph-name="copyright" unicode="&#xa9;" horiz-adv-x="1187" 
d="M594 2149q148 0 273.5 -73t198 -198.5t72.5 -273.5q0 -111 -43 -211.5t-116 -173.5t-173.5 -116t-211.5 -43q-148 0 -273.5 72.5t-198.5 198t-73 273.5t73 273.5t198.5 198.5t273.5 73zM594 1125q130 0 240.5 64t174.5 174.5t64 240.5t-64 240.5t-174.5 175t-240.5 64.5
t-240.5 -64.5t-175 -175t-64.5 -240.5t64.5 -240.5t175 -174.5t240.5 -64zM757 1397l8 8l7 -12l-44 -44q-45 -42 -100 -42q-85 0 -149 87.5t-64 209.5t64 210t149 88q71 0 113 -59t20 -128q-8 -26 -25 -45q-5 -6 -11 -11q-27 87 -69 144.5t-82 61.5l-18 -2
q-47 -12 -62 -96.5t13 -191.5q29 -105 87 -173.5t105 -56.5q22 6 39 32z" />
    <glyph glyph-name="ordfeminine" unicode="&#xaa;" horiz-adv-x="571" 
d="M257 1708q52 65 32 95q-16 23 -57 2q-61 -31 -99 -124q-5 -12 -9 -25q-35 22 -49 50t-4.5 55t33 49.5t64 37t87.5 15.5q57 2 98 -15q107 -42 107 -178v-288q0 -17 11.5 -28.5t27.5 -11.5h24v-11h-101q-26 0 -45.5 17t-23.5 43v10v82q-16 -48 -48.5 -87.5t-72.5 -58.5
q-30 -15 -63 -15q-51 0 -86 31.5t-34 89.5q0 36 14.5 67t39 56t50.5 46t56 47t48 49zM230 1829q22 2 39.5 -1t31.5 -16t11 -36q-1 -10 -5 -21.5t-9 -22t-13.5 -23t-14.5 -21.5t-16 -21.5t-15 -18t-13.5 -16t-9.5 -11.5q-32 -37 -47 -72t-11 -58t16 -41t34 -22t44 0
q42 11 71.5 57.5t29.5 125.5v135q0 53 -37 78t-86 5z" />
    <glyph glyph-name="guillemotleft" unicode="&#xab;" horiz-adv-x="876" 
d="M49 508l222 508h224l-221 -508l221 -508h-224zM381 508l222 508h224l-221 -508l221 -508h-224z" />
    <glyph glyph-name="logicalnot" unicode="&#xac;" horiz-adv-x="987" 
d="M939 1016v-453h-162v354h-728v99h890z" />
    <glyph glyph-name="softhyphen" unicode="&#xad;" horiz-adv-x="0" 
 />
    <glyph glyph-name="registered" unicode="&#xae;" horiz-adv-x="1187" 
d="M594 2149q148 0 273.5 -73t198 -198.5t72.5 -273.5q0 -111 -43 -211.5t-116 -173.5t-173.5 -116t-211.5 -43q-148 0 -273.5 72.5t-198.5 198t-73 273.5t73 273.5t198.5 198.5t273.5 73zM594 1125q130 0 240.5 64t174.5 174.5t64 240.5t-64 240.5t-174.5 175t-240.5 64.5
t-240.5 -64.5t-175 -175t-64.5 -240.5t64.5 -240.5t175 -174.5t240.5 -64zM756 1375q23 -42 69 -42v-8h-190v8h11q14 0 21 12t1 25l-70 131q-77 39 -109 156v-291q0 -12 9 -20.5t21 -8.5h17v-8h-174v8h18q12 0 20 8.5t9 20.5v473v1q0 5 -1 7q-5 22 -28 22h-18v7h184
q55 14 103 0t77.5 -49.5t45.5 -80t10 -95.5t-32 -93q-25 -40 -61 -58zM625 1512q42 -1 63 50.5t9 124.5t-50.5 125t-80.5 53q-32 1 -53 -31.5t-23 -84.5q0 -38 4 -59q9 -54 34 -98.5t56 -65.5q22 -14 41 -14z" />
    <glyph glyph-name="overscore" unicode="&#xaf;" horiz-adv-x="987" 
d="M939 1347h-890v99h890v-99z" />
    <glyph glyph-name="degree" unicode="&#xb0;" horiz-adv-x="710" 
d="M355 1858q127 0 216.5 -89.5t89.5 -216.5t-89.5 -216.5t-216.5 -89.5t-216.5 89.5t-89.5 216.5t89.5 216.5t216.5 89.5zM543 1552q0 78 -55 132.5t-133 54.5t-133 -54.5t-55 -132.5t55 -133t133 -55t133 55t55 133z" />
    <glyph glyph-name="plusminus" unicode="&#xb1;" horiz-adv-x="872" 
d="M824 351v-111h-775v111h775zM492 770v-331h-111v331h-332v112h332v332h111v-332h332v-112h-332z" />
    <glyph glyph-name="twosuperior" unicode="&#xb2;" 
d="M114 1814q66 44 136 44q63 0 115 -20.5t82 -55.5t43 -77t1 -88.5t-49 -85.5q-27 -29 -75.5 -70t-88.5 -75.5t-79.5 -76.5t-62.5 -91t-24 -102q0 -17 11.5 -29.5t27.5 -12.5h127q65 0 124.5 38.5t83.5 99.5h16l-12 -149h-441v53t0.5 57.5t5 50t13 57.5t24 49.5t38.5 56.5
q25 29 80 77.5t98.5 87t77.5 86.5t33 87q-1 50 -52 75t-117 -7q-20 -11 -38.5 -28t-31 -35.5t-23 -38.5t-17 -37.5t-11 -32t-6.5 -22.5l-2 -8q-47 24 -63.5 66.5t-0.5 85.5t57 71z" />
    <glyph glyph-name="threesuperior" unicode="&#xb3;" horiz-adv-x="616" 
d="M126 1788q31 34 77 54.5t93 20.5q95 0 160 -52t65 -127q0 -52 -39.5 -96t-94.5 -67q73 -22 117 -67t57 -103q7 -41 5.5 -82t-21.5 -79.5t-50.5 -67.5t-82 -46.5t-116.5 -17.5q-67 0 -119 21q-72 29 -110 84.5t-1 119.5q31 53 97 55q-5 -58 14.5 -103t61.5 -93
q41 -47 82.5 -52.5t69.5 21.5t41.5 76.5t4.5 104.5q-14 84 -65 147t-100 64h-56v29h113q37 -2 61 41.5t15 104.5q-7 47 -37 91.5t-66.5 60t-69.5 -11.5q-38 -37 -38 -90t34 -106q-52 -17 -92.5 4t-45 64t35.5 98z" />
    <glyph glyph-name="acute" unicode="&#xb4;" horiz-adv-x="407" 
d="M190 1155h-141l75 272h234z" />
    <glyph glyph-name="paragraph" unicode="&#xb6;" horiz-adv-x="1142" 
d="M621 1426h472v-20h-46q-31 0 -54 -23t-23 -54v-1643q0 -32 23 -54.5t54 -22.5h46v-21h-803v21h46q32 0 54.5 22.5t22.5 54.5v1027h-78q-118 0 -202 83.5t-84 201.5v143q0 106 69 185.5t172 96.5v3h331zM621 1329v-1643q0 -30 20.5 -52.5t50.5 -24.5q30 2 50.5 24.5
t20.5 52.5v1643q0 30 -20.5 52t-50.5 24q-30 -2 -50.5 -24t-20.5 -52z" />
    <glyph glyph-name="periodcentered" unicode="&#xb7;" horiz-adv-x="454" 
d="M49 713q0 73 52 125t126 52t126 -52t52 -125t-52.5 -125.5t-125.5 -52.5t-125.5 52.5t-52.5 125.5z" />
    <glyph glyph-name="cedilla" unicode="&#xb8;" horiz-adv-x="710" 
d="M345 -283q34 -13 63 -8q46 7 66 53t3 106l-3 11q-7 20 -10 25q-29 62 -84 106t-107 49l-18 58q35 6 72 6q48 0 97 -11q102 -23 169.5 -86t67.5 -142v-5q0 -2 -0.5 -5.5t-0.5 -5.5q-9 -93 -107 -158t-226 -65q-96 0 -176 37q-20 8 -40 22q-62 44 -62 113q0 49 33.5 88.5
t86.5 53.5q-2 -38 15 -80l5 -11l1 -4q23 -51 66 -91t89 -56z" />
    <glyph glyph-name="onesuperior" unicode="&#xb9;" horiz-adv-x="331" 
d="M220 1116q0 -17 11.5 -29.5t27.5 -12.5h24v-12h-234v12h24q16 0 28 12.5t12 29.5v640h-64v12q43 11 64 20q60 25 88 60q1 1 7 10h12v-742z" />
    <glyph glyph-name="ordmasculine" unicode="&#xba;" horiz-adv-x="765" 
d="M246 1010q33 -120 99 -197.5t119 -63.5q46 12 66 88.5t3 178.5l-3 18q-6 28 -10 42q-33 120 -99 197.5t-119 63.5q-50 -13 -69 -100.5t7 -202.5q2 -12 4 -18q0 -2 2 -6zM716 1043v-9q0 -3 -0.5 -9t-0.5 -9q-9 -157 -106.5 -266.5t-225.5 -109.5t-226 110t-107 266
q0 3 -0.5 9t-0.5 9v9q0 132 67.5 238.5t169.5 145.5q49 19 97 19q47 0 96 -19q102 -39 169.5 -145.5t67.5 -238.5z" />
    <glyph glyph-name="guillemotright" unicode="&#xbb;" horiz-adv-x="876" 
d="M605 1016l222 -508l-222 -508h-224l221 508l-221 508h224zM273 1016l222 -508l-222 -508h-224l221 508l-221 508h224z" />
    <glyph glyph-name="onequarter" unicode="&#xbc;" horiz-adv-x="1171" 
d="M220 1427v-741q0 -17 11.5 -30t27.5 -13h24v-11h-234v11h24q16 0 28 13t12 30v640h-64v11q37 10 64 21q62 25 88 59q1 1 7 10h12zM1041 152v-98q0 -17 12 -29.5t28 -12.5h23v-12h-233v12h23q16 0 28 12.5t12 29.5v98h-289v32q116 192 138 343q23 157 -78 176q-17 3 -36 2
q7 47 40 73q32 25 76.5 19t69.5 -39q20 -26 26 -68.5t0.5 -83t-17.5 -77.5q-41 -122 -192 -350h246q2 0 8 0.5t8 0.5v546q60 25 88 60q1 1 7 10h12v-573q52 44 70 114l1 2h11l-16 -187h-66zM668 1427h178l-484 -1427h-178z" />
    <glyph glyph-name="onehalf" unicode="&#xbd;" horiz-adv-x="1189" 
d="M889 795q63 0 115 -20.5t82 -55.5t43 -77t1 -88.5t-49 -85.5q-30 -33 -96 -88t-111 -95.5t-83.5 -103t-39.5 -127.5q0 -17 11.5 -29.5t27.5 -12.5h128q65 0 124 38t83 100h17l-12 -150h-441v53.5t0.5 57t4.5 50.5t12.5 57t24 50.5t38.5 55.5q25 29 80 77.5t98.5 87
t78 86.5t33.5 87q-1 50 -52.5 75.5t-117.5 -6.5q-20 -11 -38.5 -28t-31 -35.5t-23 -38.5t-17 -37.5t-11 -32t-6.5 -22.5l-2 -8q-47 24 -63.5 66.5t-0.5 85t57 70.5q66 44 136 44zM668 1427h178l-484 -1427h-178zM220 1427v-741q0 -17 11.5 -30t27.5 -13h24v-11h-234v11h24
q16 0 28 13t12 30v640h-64v11q37 10 64 21q62 25 88 59q1 1 7 10h12z" />
    <glyph glyph-name="threequarters" unicode="&#xbe;" horiz-adv-x="1345" 
d="M296 1446q95 0 160 -52t65 -127q0 -52 -39.5 -96t-94.5 -67q73 -22 117 -67t57 -103q7 -41 5.5 -82.5t-21.5 -79.5t-50.5 -67.5t-82 -47t-116.5 -17.5q-64 0 -119 22q-72 29 -110 84.5t-1 119.5q31 53 97 55q-5 -58 14.5 -103t61.5 -93q41 -47 82.5 -53t69.5 21
t41.5 76.5t4.5 104.5q-14 84 -65 147.5t-100 64.5h-56v29h113q36 -2 60 41.5t15 104.5q-7 47 -37 91.5t-66 60t-69 -11.5q-38 -37 -38 -90.5t34 -106.5q-52 -17 -92.5 4.5t-45 64.5t35.5 98q31 34 77 54.5t93 20.5zM1214 152v-98q0 -17 11.5 -29.5t27.5 -12.5h24v-12h-234
v12h24q16 0 28 12.5t12 29.5v98h-289v32q116 192 138 343q23 157 -78 176q-17 3 -36 2q7 47 40 73q32 25 76.5 19t69.5 -39q20 -26 26 -68.5t0.5 -83t-17.5 -77.5q-41 -122 -192 -350h246q3 0 8 0.5t8 0.5v546q60 25 88 60q1 1 7 10h12v-573q52 44 70 114v2h12l-16 -187h-66
zM1019 1427l-484 -1427h-178l484 1427h178z" />
    <glyph glyph-name="questiondown" unicode="&#xbf;" horiz-adv-x="964" 
d="M527 -18q-102 0 -189.5 27t-147.5 72t-96.5 106t-43 126t19.5 134t85 129q24 24 93.5 71t114.5 90.5t45 87.5v287h207v-333q0 -103 -79 -167q-16 -13 -58.5 -47.5t-61 -50t-55 -47.5t-54.5 -51t-43 -47.5t-36.5 -50t-20.5 -47t-8 -48.5q2 -57 49 -101t119.5 -54t160.5 30
q54 27 99.5 74.5t72.5 97t45.5 94t26 74t6.5 28.5q91 -44 122.5 -121.5t1 -154.5t-109.5 -128q-125 -80 -265 -80zM630 1329q0 -49 -35 -83.5t-84 -34.5t-83.5 34.5t-34.5 83.5t34.5 84t83.5 35t84 -35t35 -84z" />
    <glyph glyph-name="Agrave" unicode="&#xc0;" horiz-adv-x="1277" 
d="M1085 135q22 -67 55 -89.5t88 -24.5v-21h-484v20q37 -1 61 6t42 32q28 37 14 80l-60 211q-54 -87 -132 -115.5t-157 -2.5t-152 95l-43 44l-65 -232q-15 -48 9 -80q28 -38 97 -38v-20h-309v21q51 2 83 27t53 94l82 289q-105 142 -158 342q-30 112 -36 226.5t11.5 210.5
t68 156.5t128.5 60.5h433l7 -20zM275 459l223 788q-21 29 -35 45q-118 135 -220 107.5t-137 -203.5q-33 -169 16.5 -379.5t152.5 -357.5zM639 390q44 88 47.5 216.5t-22 246t-68.5 218.5q-21 48 -50 102l-221 -776q53 -59 108.5 -87t112 -11t93.5 91zM657 1585h-102
l-122 254h170z" />
    <glyph glyph-name="Aacute" unicode="&#xc1;" horiz-adv-x="1277" 
d="M1085 135q22 -67 55 -89.5t88 -24.5v-21h-484v20q37 -1 61 6t42 32q28 37 14 80l-60 211q-54 -87 -132 -115.5t-157 -2.5t-152 95l-43 44l-65 -232q-15 -48 9 -80q28 -38 97 -38v-20h-309v21q51 2 83 27t53 94l82 289q-105 142 -158 342q-30 112 -36 226.5t11.5 210.5
t68 156.5t128.5 60.5h433l7 -20zM275 459l223 788q-21 29 -35 45q-118 135 -220 107.5t-137 -203.5q-33 -169 16.5 -379.5t152.5 -357.5zM639 390q44 88 47.5 216.5t-22 246t-68.5 218.5q-21 48 -50 102l-221 -776q53 -59 108.5 -87t112 -11t93.5 91zM751 1839l-122 -254
h-103l54 254h171z" />
    <glyph glyph-name="Acircumflex" unicode="&#xc2;" horiz-adv-x="1277" 
d="M1085 135q22 -67 55 -89.5t88 -24.5v-21h-484v20q37 -1 61 6t42 32q28 37 14 80l-60 211q-54 -87 -132 -115.5t-157 -2.5t-152 95l-43 44l-65 -232q-15 -48 9 -80q28 -38 97 -38v-20h-309v21q51 2 83 27t53 94l82 289q-105 142 -158 342q-30 112 -36 226.5t11.5 210.5
t68 156.5t128.5 60.5h433l7 -20zM275 459l223 788q-21 29 -35 45q-118 135 -220 107.5t-137 -203.5q-33 -169 16.5 -379.5t152.5 -357.5zM639 390q44 88 47.5 216.5t-22 246t-68.5 218.5q-21 48 -50 102l-221 -776q53 -59 108.5 -87t112 -11t93.5 91zM639 1750l-102 -165
h-141l210 254h68l207 -254h-141z" />
    <glyph glyph-name="Atilde" unicode="&#xc3;" horiz-adv-x="1277" 
d="M1085 135q22 -67 55 -89.5t88 -24.5v-21h-484v20q37 -1 61 6t42 32q28 37 14 80l-60 211q-54 -87 -132 -115.5t-157 -2.5t-152 95l-43 44l-65 -232q-15 -48 9 -80q28 -38 97 -38v-20h-309v21q51 2 83 27t53 94l82 289q-105 142 -158 342q-30 112 -36 226.5t11.5 210.5
t68 156.5t128.5 60.5h433l7 -20zM275 459l223 788q-21 29 -35 45q-118 135 -220 107.5t-137 -203.5q-33 -169 16.5 -379.5t152.5 -357.5zM639 390q44 88 47.5 216.5t-22 246t-68.5 218.5q-21 48 -50 102l-221 -776q53 -59 108.5 -87t112 -11t93.5 91zM553 1653
q-23 11 -60.5 16t-79 -6.5t-55.5 -46.5l-11 6q25 71 59.5 116.5t65 59.5t57 17.5t42.5 -1.5l16 -6l140 -62q24 -11 61 -16t77.5 7t54.5 47l11 -5q-25 -69 -59 -114t-64.5 -59.5t-57 -19t-42.5 -0.5l-15 5z" />
    <glyph glyph-name="Adieresis" unicode="&#xc4;" horiz-adv-x="1277" 
d="M1085 135q22 -67 55 -89.5t88 -24.5v-21h-484v20q37 -1 61 6t42 32q28 37 14 80l-60 211q-54 -87 -132 -115.5t-157 -2.5t-152 95l-43 44l-65 -232q-15 -48 9 -80q28 -38 97 -38v-20h-309v21q51 2 83 27t53 94l82 289q-105 142 -158 342q-30 112 -36 226.5t11.5 210.5
t68 156.5t128.5 60.5h433l7 -20zM275 459l223 788q-21 29 -35 45q-118 135 -220 107.5t-137 -203.5q-33 -169 16.5 -379.5t152.5 -357.5zM639 390q44 88 47.5 216.5t-22 246t-68.5 218.5q-21 48 -50 102l-221 -776q53 -59 108.5 -87t112 -11t93.5 91zM751 1585
q-35 0 -60.5 25t-25.5 61t25.5 61t60.5 25q36 0 61 -25t25 -61t-25 -61t-61 -25zM526 1585q-35 0 -60.5 25t-25.5 61t25.5 61t60.5 25q36 0 61 -25t25 -61t-25 -61t-61 -25z" />
    <glyph glyph-name="Aring" unicode="&#xc5;" horiz-adv-x="1277" 
d="M1085 135q22 -67 55 -89.5t88 -24.5v-21h-484v20q37 -1 61 6t42 32q28 37 14 80l-60 211q-54 -87 -132 -115.5t-157 -2.5t-152 95l-43 44l-65 -232q-15 -48 9 -80q28 -38 97 -38v-20h-309v21q51 2 83 27t53 94l82 289q-105 142 -158 342q-30 112 -36 226.5t11.5 210.5
t68 156.5t128.5 60.5h216q-49 54 -49 128q0 79 56 135t135 56t134.5 -56t55.5 -135q0 -55 -27.5 -100t-74.5 -69zM510 1555q0 -53 38 -90.5t91 -37.5t90.5 37.5t37.5 90.5t-37.5 90.5t-90.5 37.5t-91 -37.5t-38 -90.5zM275 459l223 788q-21 29 -35 45q-118 135 -220 107.5
t-137 -203.5q-33 -169 16.5 -379.5t152.5 -357.5zM639 390q44 88 47.5 216.5t-22 246t-68.5 218.5q-21 48 -50 102l-221 -776q53 -59 108.5 -87t112 -11t93.5 91z" />
    <glyph glyph-name="AE" unicode="&#xc6;" horiz-adv-x="1597" 
d="M1107 1406q-1 0 -4 0.5t-4 0.5l358 20l9 -91l22 -220h-22l-1 4q-1 1 -1 4t-1 4l-1 2l-1 2l-1 2v2l-1 3q-1 1 -1 2.5v2.5l-1 3l-2 4l-1 4l-2 4l-1 3l-1 4l-2 4l-2 3l-1 4l-2 4l-1 3l-2 4l-2 3l-1 4l-2 3l-2 4l-2 3l-2 4l-1 3l-3 4l-1 3l-3 3l-1 3l-2 4l-3 3l-2 3l-2 3
l-2 3l-2 4l-2 2l-3 4l-2 3l-2 3l-3 3l-2 3l-2 3l-3 3l-2 3l-3 3l-1 2l-4 4l-5 5q-1 1 -2.5 3t-2.5 3l-3 3l-2 1v1l-2 2t-2 1l-2 2l-3 3l-3 2l-3 3l-2 2l-4 3l-2 2l-3 3l-3 2l-3 2l-3 3l-3 2l-3 2l-3 3l-3 2l-3 2l-3 2l-3 2l-3 2l-4 3l-3 2l-3 2l-3 1l-4 3l-3 1l-3 2l-4 2
l-3 2l-3 2l-4 1l-3 2l-3 2l-4 1l-3 2l-4 2l-4 1l-3 2l-3 1l-5 2l-3 1l-4 2h-3v1q-1 0 -3.5 1t-3.5 1t-3.5 1t-3.5 1h-1l-1 1q-1 1 -3 1t-3 1h-2q-1 0 -2.5 1t-2.5 1l-4 1l-4 1l-4 1l-3 1h-4l-4 1l-4 1l-4 1h-3l-5 1l-3 1h-5l-3 1h-4l-4 1h-4l-4 1h-4h-4l-4 1h-4h-6h-1z
M1527 311h22l-20 -311h-964v21h46q31 0 53.5 22.5t22.5 54.5v143q-79 -35 -164 -11.5t-163 96.5l-37 38l-6 6l-12 -43l-2 -5l-5 -20l-46 -164q-15 -48 9 -80q28 -38 97 -38v-20h-309v21q51 2 83 27t53 94l82 289q-57 78 -100 176q-35 81 -58 166q-34 128 -38.5 257t28 233.5
t100.5 143.5q37 20 82 20h1176l-366 -20h-119h-2h-2l-2 -1h-2h-2h-2l-2 -1h-2h-1l-2 -1h-2l-2 -1h-2l-2 -1l-1 -1h-2l-2 -1l-1 -1l-2 -1l-2 -1l-1 -1l-4 -1l-1 -1l-2 -2l-1 -1l-2 -1l-1 -1l-1 -1l-2 -1l-1 -2l-2 -1l-1 -1l-1 -2l-1 -1l-2 -1l-1 -2l-1 -1l-1 -2l-1 -1l-1 -2
l-2 -3l-1 -2l-1 -1v-2l-1 -2l-1 -1l-1 -2v-2l-1 -2l-1 -1v-2l-1 -2v-2l-1 -2v-2v-2v-1l-1 -2v-2v-2v-2v-2v-518h150q89 1 151.5 63.5t63.5 151.5v1h24v-453h-24v1q-1 88 -63.5 151t-151.5 64h-150v-693q0 -32 22.5 -54.5t54.5 -22.5h146q136 0 255 80.5t153 205.5zM275 459
l223 788l7 26q10 36 -3 69t-43 51q-23 14 -51 14h-71q-42 0 -60.5 -1.5t-47 -10.5t-48.5 -31t-40 -60q-23 -44 -35 -108q-23 -128 -3.5 -272.5t74.5 -280.5q40 -101 98 -184zM687 1083v247q0 31 -21.5 53.5t-52.5 23.5l-67 -234l-208 -732l-13 -44q8 -10 13 -15
q38 -40 78.5 -63t80.5 -27.5t77.5 20t64.5 78.5q10 20 14 31q4 9 7 20q24 70 27 164v478z" />
    <glyph glyph-name="Ccedilla" unicode="&#xc7;" horiz-adv-x="976" 
d="M927 194l-110 -109q-67 -62 -137 -86q78 -53 78 -126v-4v-8q-7 -67 -78 -114.5t-164 -47.5q-68 0 -128 27q-20 10 -29 16q-45 32 -45 82q0 36 24.5 64.5t63.5 38.5q-2 -28 10 -58l4 -8l1 -3q18 -37 48.5 -65.5t63.5 -40.5q24 -9 46 -6q33 5 48 38t2 77l-2 8q-2 6 -8 18
q-31 66 -93 98q-127 18 -235 118.5t-173 262.5t-65 348q0 197 73 367t193.5 267.5t256.5 97.5q113 0 202 -67t125 -174t1 -218q-20 -64 -61 -111q-12 -15 -27 -27q-102 330 -252 449q-106 84 -197 33t-123 -208q-42 -202 35 -481q61 -224 177.5 -384t227.5 -182
q10 -5 24.5 -2t24.5 4t24 9.5t23.5 13.5t23.5 16.5t23 19.5t22.5 21t22 22t21.5 22l21 21z" />
    <glyph glyph-name="Egrave" unicode="&#xc8;" horiz-adv-x="1083" 
d="M653 1585h-102l-122 254h171zM1011 311h22l-19 -311h-965v21h46q32 0 54.5 22.5t22.5 53.5v1233q0 32 -23 54.5t-54 22.5h-46v20h893l31 -311h-22l-2 4q-35 128 -137.5 207.5t-235.5 79.5h-120h-2l-2 -1h-1h-2h-2h-2l-2 -1h-2h-2l-2 -1h-2l-1 -1h-2l-2 -1l-2 -1h-1l-2 -1
l-2 -1l-2 -1l-1 -1l-2 -1l-1 -1q-1 -1 -2 -1l-1 -1l-2 -1l-1 -1l-2 -1l-1 -1l-2 -1l-1 -1l-2 -2l-1 -1l-1 -1l-1 -2l-2 -1l-1 -1l-1 -2l-1 -1l-1 -2l-1 -1l-1 -2q0 -1 -1 -1l-1 -2l-1 -2l-1 -1l-1 -2l-1 -2v-1l-1 -2l-1 -2v-2l-1 -1v-2l-1 -2v-2l-1 -2v-2l-1 -2v-1v-2v-2v-2
v-2v-2v-518h147h2h1q88 1 151 63.5t64 151.5v1h24v-453h-24v1q-1 88 -64 151t-151 64h-1h-149v-693q0 -32 22.5 -54.5t53.5 -22.5h146q136 0 255 80.5t153 205.5z" />
    <glyph glyph-name="Eacute" unicode="&#xc9;" horiz-adv-x="1083" 
d="M653 1839l-121 -254h-103l54 254h170zM1011 311h22l-19 -311h-965v21h46q32 0 54.5 22.5t22.5 53.5v1233q0 32 -23 54.5t-54 22.5h-46v20h893l31 -311h-22l-2 4q-35 129 -137.5 208t-235.5 79h-120h-2l-2 -1h-2h-1h-2h-2l-2 -1h-2h-2l-2 -1h-2l-1 -1h-2l-2 -1l-2 -1h-1
l-2 -1l-2 -1l-2 -1l-1 -1l-2 -1l-1 -1q-1 -1 -2 -1l-2 -1l-1 -1l-2 -1l-1 -1l-1 -1l-2 -1l-1 -1l-2 -2l-1 -1l-1 -1l-1 -2l-2 -1l-1 -1l-1 -2l-1 -1l-1 -2l-1 -1l-1 -2q0 -1 -1 -1l-1 -2l-1 -2l-1 -1l-1 -2l-1 -2v-1l-1 -2l-1 -2v-2l-1 -1l-1 -2v-2v-2l-1 -2v-2l-1 -2v-1v-2
v-2v-2v-2v-2v-518h147h2h1q88 1 151 63.5t64 151.5v1h24v-453h-24v1q-1 88 -64 151t-151 64h-1h-149v-693q0 -32 22.5 -54.5t53.5 -22.5h146q137 0 255.5 80.5t152.5 205.5z" />
    <glyph glyph-name="Ecircumflex" unicode="&#xca;" horiz-adv-x="1083" 
d="M542 1750l-102 -165h-141l210 254h68l207 -254h-142zM1011 311h22l-19 -311h-965v21h46q32 0 54.5 22.5t22.5 53.5v1233q0 32 -23 54.5t-54 22.5h-46v20h893l31 -311h-22l-2 4q-35 128 -137.5 207.5t-235.5 79.5h-120h-2l-2 -1h-1h-2h-2h-2l-2 -1h-2h-2l-2 -1h-2l-1 -1
h-2l-2 -1l-2 -1h-1l-2 -1l-2 -1l-2 -1l-1 -1l-2 -1l-1 -1q-1 -1 -2 -1l-1 -1l-2 -1l-1 -1l-2 -1l-1 -1l-2 -1l-1 -1l-2 -2l-1 -1l-1 -1l-1 -2l-2 -1l-1 -1l-1 -2l-1 -1l-1 -2l-1 -1l-1 -2q0 -1 -1 -1l-1 -2l-1 -2l-1 -1l-1 -2l-1 -2v-1l-1 -2l-1 -2v-2l-1 -1v-2l-1 -2v-2
l-1 -2v-2v-2l-1 -1v-2v-2v-2v-2v-2v-518h147h2h1q88 1 151 63.5t64 151.5v1h24v-453h-24v1q-1 88 -64 151t-151 64h-1h-149v-693q0 -32 22.5 -54.5t53.5 -22.5h146q136 0 255 80.5t153 205.5z" />
    <glyph glyph-name="Edieresis" unicode="&#xcb;" horiz-adv-x="1083" 
d="M654 1585q-35 0 -60.5 25t-25.5 61t25.5 61t60.5 25q36 0 61 -25t25 -61t-25 -61t-61 -25zM429 1585q-36 0 -61 25t-25 61t25 61t61 25q35 0 60.5 -25t25.5 -61t-25.5 -61t-60.5 -25zM1011 311h22l-19 -311h-965v21h46q32 0 54.5 22.5t22.5 53.5v1233q0 32 -23 54.5
t-54 22.5h-46v20h893l31 -311h-22l-2 4q-35 128 -137.5 207.5t-235.5 79.5h-120h-2l-2 -1h-2h-1h-2h-2l-2 -1h-2h-2l-2 -1h-2l-1 -1h-2l-2 -1l-2 -1h-1l-2 -1l-2 -1l-2 -1l-1 -1l-2 -1l-1 -1q-1 -1 -2 -1l-2 -1l-1 -1l-2 -1l-1 -1l-1 -1l-2 -1l-1 -1l-2 -2l-1 -1l-1 -1
l-1 -2l-2 -1l-1 -1l-1 -2l-1 -1l-1 -2l-1 -1l-1 -2q0 -1 -1 -1l-1 -2l-1 -2l-1 -1l-1 -2l-1 -2v-1l-1 -2l-1 -2v-2l-1 -1v-2l-1 -2v-2l-1 -2v-2l-1 -2v-1v-2v-2v-2v-2v-2v-518h147h2h1q88 1 151 63.5t64 151.5v1h24v-453h-24v1q-1 88 -64 151t-151 64h-1h-149v-693
q0 -32 22.5 -54.5t53.5 -22.5h146q136 0 255 80.5t153 205.5z" />
    <glyph glyph-name="Igrave" unicode="&#xcc;" 
d="M380 1329v-1232q0 -32 22.5 -54.5t53.5 -22.5h47v-21h-454v21h46q31 0 54 23t23 54v1232q0 31 -23 54t-54 23h-46v21h454v-21h-47q-31 0 -53.5 -22.5t-22.5 -54.5zM388 1584h-102l-122 254h170z" />
    <glyph glyph-name="Iacute" unicode="&#xcd;" 
d="M380 1329v-1232q0 -32 22.5 -54.5t53.5 -22.5h47v-21h-454v21h46q31 0 54 23t23 54v1232q0 31 -23 54t-54 23h-46v21h454v-21h-47q-31 0 -53.5 -22.5t-22.5 -54.5zM266 1584h-102l54 254h170z" />
    <glyph glyph-name="Icircumflex" unicode="&#xce;" horiz-adv-x="583" 
d="M395 1329v-1232q0 -31 22.5 -54t54.5 -23h46v-21h-453v21h46q31 0 54 23t23 54v1232q0 31 -23 54t-54 23h-46v21h453v-21h-46q-32 0 -54.5 -23t-22.5 -54zM534 1584h-141l-101 165l-102 -165h-141l210 254h68z" />
    <glyph glyph-name="Idieresis" unicode="&#xcf;" 
d="M380 1329v-1232q0 -32 22.5 -54.5t53.5 -22.5h47v-21h-454v21h46q31 0 54 23t23 54v1232q0 31 -23 54t-54 23h-46v21h454v-21h-47q-31 0 -53.5 -22.5t-22.5 -54.5zM163 1756q36 0 61 -25.5t25 -60.5q0 -36 -25 -61t-61 -25t-61 25t-25 61q0 35 25 60.5t61 25.5zM302 1670
q0 35 25 60.5t61 25.5q35 0 60.5 -25.5t25.5 -60.5q0 -36 -25.5 -61t-60.5 -25q-36 0 -61 25t-25 61z" />
    <glyph glyph-name="Eth" unicode="&#xd0;" horiz-adv-x="1171" 
d="M380 667v-570q0 -32 22.5 -54.5t53.5 -22.5h82q104 1 188.5 109t128.5 272t45 344q0 111 -11.5 206t-42.5 184t-79 150t-125 93.5t-177 24.5q-85 -7 -85 -74v-552h114v-110h-114zM70 667v110h102v552q0 31 -23 54t-54 23h-46v21h331q82 14 148 17t134.5 -7t130.5 -41.5
t119 -84.5q100 -93 153.5 -242t55.5 -318q2 -112 -19 -220t-66.5 -204.5t-110 -169.5t-156.5 -115.5t-200 -42.5h-520v21h46q31 0 54 23t23 54v570h-102z" />
    <glyph glyph-name="Ntilde" unicode="&#xd1;" horiz-adv-x="1224" 
d="M228 1053v-956q0 -31 23 -54t54 -23h46v-21h-302v21h46q31 0 54 23t23 54v1232q0 31 -23 54t-54 23h-46v21h159l788 -1054v956q0 31 -23 54t-54 23h-46v21h302v-21h-46q-31 0 -54 -23t-23 -54v-1330h-36zM894 1784l10 -6q-25 -69 -59 -114t-64.5 -59t-57 -18.5
t-41.5 -0.5l-16 5l-140 62q-23 11 -60 16t-78.5 -7t-55.5 -47l-12 6q25 71 59.5 116.5t65 59.5t57 17.5t42.5 -2.5l16 -5l140 -62q24 -11 61 -16t78 7.5t55 47.5z" />
    <glyph glyph-name="Ograve" unicode="&#xd2;" horiz-adv-x="1142" 
d="M572 1445q102 0 198 -58t167 -156t114 -234t43 -284t-43 -284t-114 -234t-167 -156t-198 -58q-136 0 -256.5 97.5t-193.5 267.5t-73 367t73 367t193.5 267.5t256.5 97.5zM630 1838l54 -254h-103l-122 254h171zM868 784q-47 171 -130.5 309.5t-175 207t-166.5 49.5
t-120 -122.5t-46 -254t45 -331.5q47 -171 130.5 -309.5t175 -207t166.5 -49.5t120 122.5t46 254t-45 331.5z" />
    <glyph glyph-name="Oacute" unicode="&#xd3;" horiz-adv-x="1142" 
d="M572 1445q102 0 198 -58t167 -156t114 -234t43 -284t-43 -284t-114 -234t-167 -156t-198 -58q-136 0 -256.5 97.5t-193.5 267.5t-73 367t73 367t193.5 267.5t256.5 97.5zM459 1584l54 254h171l-122 -254h-103zM868 784q-47 171 -130.5 309.5t-175 207t-166.5 49.5
t-120 -122.5t-46 -254t45 -331.5q47 -171 130.5 -309.5t175 -207t166.5 -49.5t120 122.5t46 254t-45 331.5z" />
    <glyph glyph-name="Ocircumflex" unicode="&#xd4;" horiz-adv-x="1142" 
d="M572 1445q102 0 198 -58t167 -156t114 -234t43 -284t-43 -284t-114 -234t-167 -156t-198 -58q-136 0 -256.5 97.5t-193.5 267.5t-73 367t73 367t193.5 267.5t256.5 97.5zM607 1838l207 -254h-141l-101 165l-102 -165h-141l210 254h68zM868 784q-47 171 -130.5 309.5
t-175 207t-166.5 49.5t-120 -122.5t-46 -254t45 -331.5q47 -171 130.5 -309.5t175 -207t166.5 -49.5t120 122.5t46 254t-45 331.5z" />
    <glyph glyph-name="Otilde" unicode="&#xd5;" horiz-adv-x="1142" 
d="M572 1445q102 0 198 -58t167 -156t114 -234t43 -284t-43 -284t-114 -234t-167 -156t-198 -58q-136 0 -256.5 97.5t-193.5 267.5t-73 367t73 367t193.5 267.5t256.5 97.5zM660 1745q24 -11 61 -16t77.5 7.5t54.5 47.5l10 -6q-25 -69 -59 -114t-64 -59t-56.5 -18.5
t-41.5 -0.5l-16 5l-140 62q-23 11 -60.5 16t-79 -7t-55.5 -47l-11 6q25 71 59.5 116.5t65 59.5t57 17.5t42.5 -2.5l16 -5zM868 784q-47 171 -130.5 309.5t-175 207t-166.5 49.5t-120 -122.5t-46 -254t45 -331.5q47 -171 130.5 -309.5t175 -207t166.5 -49.5t120 122.5t46 254
t-45 331.5z" />
    <glyph glyph-name="Odieresis" unicode="&#xd6;" horiz-adv-x="1142" 
d="M572 1445q102 0 198 -58t167 -156t114 -234t43 -284t-43 -284t-114 -234t-167 -156t-198 -58q-136 0 -256.5 97.5t-193.5 267.5t-73 367t73 367t193.5 267.5t256.5 97.5zM459 1756q36 0 61 -25.5t25 -60.5q0 -36 -25 -61t-61 -25t-61 25t-25 61q0 35 25 60.5t61 25.5z
M684 1756q36 0 61 -25.5t25 -60.5q0 -36 -25 -61t-61 -25t-61 25t-25 61q0 35 25 60.5t61 25.5zM868 784q-47 171 -130.5 309.5t-175 207t-166.5 49.5t-120 -122.5t-46 -254t45 -331.5q47 -171 130.5 -309.5t175 -207t166.5 -49.5t120 122.5t46 254t-45 331.5z" />
    <glyph glyph-name="multiply" unicode="&#xd7;" horiz-adv-x="724" 
d="M676 492l-79 -79l-234 235l-235 -235l-79 79l235 235l-235 234l79 79l235 -234l234 234l79 -79l-234 -234z" />
    <glyph glyph-name="Oslash" unicode="&#xd8;" horiz-adv-x="1142" 
d="M918 1255q82 -103 129 -243.5t47 -297.5q0 -148 -43 -284t-114 -234t-167 -156t-198 -58q-167 0 -306 144l-76 -132l-51 29l14 25l72 125q-82 103 -129 243.5t-47 297.5q0 197 73 367t193.5 267.5t256.5 97.5q166 0 305 -144l76 132l51 -30l-14 -24zM275 642
q34 -123 88 -231l384 667q-82 142 -178 217.5t-173 55.5q-75 -19 -120 -122.5t-46 -254.5t45 -332zM747 76q75 19 120 122.5t46 254.5t-45 332q-34 123 -88 231l-384 -666q82 -142 178 -218t173 -56z" />
    <glyph glyph-name="Ugrave" unicode="&#xd9;" horiz-adv-x="1267" 
d="M746 1585h-102l-122 254h170zM917 1427h303v-20h-47q-31 0 -53.5 -22.5t-22.5 -54.5v-984q0 -69 -26.5 -127.5t-70.5 -98t-102.5 -69.5t-122 -42.5t-128.5 -16.5t-123 8q-69 12 -130.5 40t-112 70t-80 103.5t-29.5 133.5v983q0 32 -23 54.5t-54 22.5h-46v20h454v-20h-47
q-31 0 -53.5 -22.5t-22.5 -54.5v-992q0 -71 36.5 -126t94.5 -83t128.5 -40.5t141 1.5t128.5 43.5t94.5 85.5t36.5 127v984q0 32 -23 54.5t-54 22.5h-46v20z" />
    <glyph glyph-name="Uacute" unicode="&#xda;" horiz-adv-x="1267" 
d="M746 1839l-121 -254h-103l54 254h170zM917 1427h303v-20h-47q-31 0 -53.5 -22.5t-22.5 -54.5v-984q0 -69 -26.5 -127.5t-70.5 -98t-102.5 -69.5t-122 -42.5t-128.5 -16.5t-123 8q-69 12 -130.5 40t-112 70t-80 103.5t-29.5 133.5v983q0 32 -23 54.5t-54 22.5h-46v20h454
v-20h-47q-31 0 -53.5 -22.5t-22.5 -54.5v-992q0 -71 36.5 -126t94.5 -83t128.5 -40.5t141 1.5t128.5 43.5t94.5 85.5t36.5 127v984q0 32 -23 54.5t-54 22.5h-46v20z" />
    <glyph glyph-name="Ucircumflex" unicode="&#xdb;" horiz-adv-x="1267" 
d="M635 1750l-102 -165h-141l210 254h68l207 -254h-142zM917 1427h303v-20h-47q-31 0 -53.5 -22.5t-22.5 -54.5v-984q0 -69 -26.5 -127.5t-70.5 -98t-102.5 -69.5t-122 -42.5t-128.5 -16.5t-123 8q-69 12 -130.5 40t-112 70t-80 103.5t-29.5 133.5v983q0 32 -23 54.5
t-54 22.5h-46v20h454v-20h-47q-31 0 -53.5 -22.5t-22.5 -54.5v-992q0 -71 36.5 -126t94.5 -83t128.5 -40.5t141 1.5t128.5 43.5t94.5 85.5t36.5 127v984q0 32 -23 54.5t-54 22.5h-46v20z" />
    <glyph glyph-name="Udieresis" unicode="&#xdc;" horiz-adv-x="1267" 
d="M917 1427h303v-20h-47q-31 0 -53.5 -22.5t-22.5 -54.5v-984q0 -69 -26.5 -127.5t-70.5 -98t-102.5 -69.5t-122 -42.5t-128.5 -16.5t-123 8q-69 12 -130.5 40t-112 70t-80 103.5t-29.5 133.5v983q0 32 -23 54.5t-54 22.5h-46v20h454v-20h-47q-31 0 -53.5 -22.5
t-22.5 -54.5v-992q0 -71 36.5 -126t94.5 -83t128.5 -40.5t141 1.5t128.5 43.5t94.5 85.5t36.5 127v984q0 32 -23 54.5t-54 22.5h-46v20zM747 1585q-36 0 -61 25.5t-25 60.5q0 36 25 61t61 25q35 0 60.5 -25t25.5 -61q0 -35 -25.5 -60.5t-60.5 -25.5zM522 1585q-36 0 -61 25
t-25 61t25 61t61 25t61 -25t25 -61t-25 -61t-61 -25z" />
    <glyph glyph-name="Yacute" unicode="&#xdd;" horiz-adv-x="1146" 
d="M193 1292q-22 67 -55.5 90t-88.5 25v20h484v-20q-37 1 -61 -6t-42 -32q-27 -36 -13 -80l239 -683l240 683q15 47 -10 80q-28 38 -97 38v20h309v-21q-51 -2 -83 -27t-53 -94l-170 -496l-84 -245l-27 -78v-368q0 -32 22.5 -54.5t54.5 -22.5h46v-21h-453v21h46q31 0 54 22.5
t23 54.5v367zM461 1585l54 254h171l-122 -254h-103z" />
    <glyph glyph-name="Thorn" unicode="&#xde;" horiz-adv-x="1171" 
d="M380 262v-164q0 -32 22.5 -54.5t53.5 -22.5h47v-21h-454v21h46q31 0 54 22.5t23 54.5v1232q0 32 -23 54.5t-54 22.5h-46v20h454v-20h-47q-31 0 -53.5 -22.5t-22.5 -54.5v-165h189q131 0 238 -37.5t173.5 -100t102.5 -139.5t38 -160v-29q-2 -83 -38 -160t-102.5 -139.5
t-173.5 -100t-238 -37.5h-189zM380 349q0 -19 22.5 -32.5t53.5 -13.5h82q105 1 189 58.5t128 149.5t45 199v4v3q-1 107 -45 199t-128 149.5t-189 58.5h-82q-31 0 -53.5 -13.5t-22.5 -32.5v-729z" />
    <glyph glyph-name="germandbls" unicode="&#xdf;" horiz-adv-x="1146" 
d="M1096 671q11 -98 -28.5 -189.5t-122.5 -150t-188 -58.5q-100 0 -172.5 55t-90.5 154q64 -71 158 -71q118 0 167.5 68.5t42.5 180.5q-5 78 -33.5 154t-90.5 149.5t-149 119.5v25q59 -25 100.5 17.5t48.5 125.5t-17 188q-37 137 -123 213q-75 66 -137 41q-78 -32 -81 -192
v-5v-6v-1513q0 -32 22.5 -54.5t53.5 -22.5h47v-20h-454v20h46q31 0 54 23t23 54v1644q0 31 -23 54t-54 23h-46v21h451q163 52 295 -37q103 -70 141 -192q41 -135 -23 -249q-69 -123 -240 -167q8 -3 22.5 -9t55.5 -26t79.5 -42.5t86 -59t83 -74.5t63 -89t33.5 -103z" />
    <glyph glyph-name="agrave" unicode="&#xe0;" horiz-adv-x="1017" 
d="M922 20h46v-21h-195q-51 0 -89 33t-45 83q-1 6 -1 19v159q-31 -93 -93.5 -169.5t-140.5 -113.5q-60 -29 -122 -29q-100 0 -167 60.5t-66 173.5q1 70 28.5 130.5t75 108.5t97 88.5t108 91t93.5 95.5q89 113 68 173q-14 41 -70 31q-74 -13 -148 -102q-68 -81 -107 -202
q-69 43 -95.5 97.5t-8.5 106t64 95.5t124.5 72t170.5 29q113 2 189 -28q90 -35 148.5 -117.5t58.5 -227.5v-559q0 -31 22.5 -54t54.5 -23zM443 186q81 21 138 111t57 244v261q0 102 -71 150.5t-167 10.5q27 5 56.5 1t53.5 -12.5t38 -32t10 -57.5q-12 -100 -185 -303
q-63 -73 -91 -140.5t-21 -112t31 -79t66.5 -41.5t84.5 0zM621 1191h-103l-121 254h170z" />
    <glyph glyph-name="aacute" unicode="&#xe1;" horiz-adv-x="1017" 
d="M922 20h46v-21h-195q-51 0 -89 33t-45 83q-1 6 -1 19v159q-31 -93 -93.5 -169.5t-140.5 -113.5q-60 -29 -122 -29q-100 0 -167 60.5t-66 173.5q1 70 28.5 130.5t75 108.5t97 88.5t108 91t93.5 95.5q89 113 68 173q-14 41 -70 31q-74 -13 -148 -102q-68 -81 -107 -202
q-69 43 -95.5 97.5t-8.5 106t64 95.5t124.5 72t170.5 29q113 2 189 -28q90 -35 148.5 -117.5t58.5 -227.5v-559q0 -31 22.5 -54t54.5 -23zM443 186q81 21 138 111t57 244v261q0 102 -71 150.5t-167 10.5q27 5 56.5 1t53.5 -12.5t38 -32t10 -57.5q-12 -100 -185 -303
q-63 -73 -91 -140.5t-21 -112t31 -79t66.5 -41.5t84.5 0zM621 1445l-122 -254h-102l54 254h170z" />
    <glyph glyph-name="acircumflex" unicode="&#xe2;" horiz-adv-x="1017" 
d="M922 20h46v-21h-195q-51 0 -89 33t-45 83q-1 6 -1 19v159q-31 -93 -93.5 -169.5t-140.5 -113.5q-60 -29 -122 -29q-100 0 -167 60.5t-66 173.5q1 70 28.5 130.5t75 108.5t97 88.5t108 91t93.5 95.5q89 113 68 173q-14 41 -70 31q-74 -13 -148 -102q-68 -81 -107 -202
q-69 43 -95.5 97.5t-8.5 106t64 95.5t124.5 72t170.5 29q113 2 189 -28q90 -35 148.5 -117.5t58.5 -227.5v-559q0 -31 22.5 -54t54.5 -23zM443 186q81 21 138 111t57 244v261q0 102 -71 150.5t-167 10.5q27 5 56.5 1t53.5 -12.5t38 -32t10 -57.5q-11 -99 -186 -303
q-63 -73 -91 -140.5t-21 -112t31.5 -79t67 -41.5t84.5 0zM509 1355l-102 -164h-141l210 254h68l207 -254h-141z" />
    <glyph glyph-name="atilde" unicode="&#xe3;" horiz-adv-x="1017" 
d="M922 20h46v-21h-195q-51 0 -89 33t-45 83q-1 6 -1 19v159q-31 -93 -93.5 -169.5t-140.5 -113.5q-60 -29 -122 -29q-100 0 -167 60.5t-66 173.5q1 70 28.5 130.5t75 108.5t97 88.5t108 91t93.5 95.5q89 113 68 173q-14 41 -70 31q-74 -13 -148 -102q-68 -81 -107 -202
q-69 43 -95.5 97.5t-8.5 106t64 95.5t124.5 72t170.5 29q113 2 189 -28q90 -35 148.5 -117.5t58.5 -227.5v-559q0 -31 22.5 -54t54.5 -23zM443 186q81 21 138 111t57 244v261q0 102 -71 150.5t-167 10.5q27 5 56.5 1t53.5 -12.5t38 -32t10 -57.5q-11 -99 -186 -303
q-63 -73 -91 -140.5t-21 -112t31.5 -79t67 -41.5t84.5 0zM423 1259q-23 11 -60.5 16t-79 -6.5t-55.5 -46.5l-11 5q25 71 59.5 116.5t65 59.5t57 17.5t42.5 -2.5l16 -5l140 -62q24 -11 61 -16t77.5 7.5t54.5 47.5l11 -6q-25 -69 -59 -114t-64.5 -59t-57 -18.5t-42.5 -0.5
l-15 5z" />
    <glyph glyph-name="adieresis" unicode="&#xe4;" horiz-adv-x="1017" 
d="M922 20h46v-21h-195q-51 0 -89 33t-45 83q-1 6 -1 19v159q-31 -93 -93.5 -169.5t-140.5 -113.5q-60 -29 -122 -29q-100 0 -167 60.5t-66 173.5q1 70 28.5 130.5t75 108.5t97 88.5t108 91t93.5 95.5q89 113 68 173q-14 41 -70 31q-74 -13 -148 -102q-68 -81 -107 -202
q-69 43 -95.5 97.5t-8.5 106t64 95.5t124.5 72t170.5 29q113 2 189 -28q90 -35 148.5 -117.5t58.5 -227.5v-559q0 -31 22.5 -54t54.5 -23zM443 186q81 21 138 111t57 244v261q0 102 -71 150.5t-167 10.5q27 5 56.5 1t53.5 -12.5t38 -32t10 -57.5q-12 -100 -185 -303
q-63 -73 -91 -140.5t-21 -112t31 -79t66.5 -41.5t84.5 0zM621 1191q-36 0 -61 25.5t-25 60.5q0 36 25 61t61 25q35 0 60.5 -25t25.5 -61q0 -35 -25.5 -60.5t-60.5 -25.5zM396 1191q-36 0 -61 25.5t-25 60.5q0 36 25 61t61 25t61 -25t25 -61q0 -35 -25 -60.5t-61 -25.5z" />
    <glyph glyph-name="aring" unicode="&#xe5;" horiz-adv-x="1017" 
d="M922 20h46v-21h-195q-51 0 -89 33t-45 83q-1 6 -1 19v159q-31 -93 -93.5 -169.5t-140.5 -113.5q-60 -29 -122 -29q-100 0 -167 60.5t-66 173.5q1 70 28.5 130.5t75 108.5t97 88.5t108 91t93.5 95.5q89 113 68 173q-14 41 -70 31q-74 -13 -148 -102q-68 -81 -107 -202
q-63 39 -90.5 89t-16.5 97.5t46.5 91t100 74.5t143.5 42q-59 57 -59 138q0 79 56 135t135 56t135 -56t56 -135q0 -96 -79 -154q12 -4 17 -6q90 -35 148.5 -117.5t58.5 -227.5v-559q0 -31 22.5 -54t54.5 -23zM509 1289q-53 0 -90.5 -37.5t-37.5 -90.5t37.5 -90.5t90.5 -37.5
t90.5 37.5t37.5 90.5t-37.5 90.5t-90.5 37.5zM443 186q81 21 138 111t57 244v261q0 64 -29 108.5t-79 60.5q-7 -1 -21 -1q-28 0 -52 7q-32 -4 -57 -14q27 5 56.5 1t53.5 -12.5t38 -32t10 -57.5q-11 -99 -186 -303q-63 -73 -91 -140.5t-21 -112t31.5 -79t67 -41.5t84.5 0z
" />
    <glyph glyph-name="ae" unicode="&#xe6;" horiz-adv-x="1456" 
d="M1345 123l14 -24l8 -13l-91 -53l-20 -11q-84 -45 -173 -45q-140 0 -256.5 104.5t-160.5 265.5q-54 -124 -115.5 -210t-146.5 -127q-60 -29 -122 -29q-100 0 -167 60.5t-66 173.5q1 70 28.5 130.5t75 108.5t97 88.5t108 91t93.5 95.5q89 113 68 173q-14 41 -70 31
q-74 -13 -148 -102q-68 -81 -107 -202q-69 43 -95.5 97.5t-8.5 106t64 95.5t124.5 72t170.5 29q113 2 189 -28q94 -37 146 -115q61 69 138.5 108t160.5 39q128 0 224.5 -81.5t99.5 -208.5q3 -149 -170 -255q-26 -16 -66.5 -33t-67.5 -29.5t-54.5 -33t-41.5 -53t-14 -79.5
q0 -67 43 -116q2 -2 5 -5.5t4 -4.5q30 -30 50 -44q34 -24 65 -33q26 -8 48 -2q16 5 33 13q30 11 55 28q32 16 49 27zM443 186q81 21 138 111t57 244v261q0 102 -71 150.5t-167 10.5q27 5 56.5 1t53.5 -12.5t38 -32t10 -57.5q-12 -100 -185 -303q-63 -73 -91 -140.5t-21 -112
t31 -79t66.5 -41.5t84.5 0zM949 270v7q0 58 26 105q13 25 38.5 51.5t51.5 48.5t54.5 47.5t49 55t33.5 65t10 82.5t-23 102q-22 58 -63.5 93.5t-88.5 36t-90.5 -24.5t-72.5 -92t-30 -162q0 -5 0.5 -14.5t0.5 -14.5v-20q5 -89 46 -231l14 -39q18 -48 44 -96z" />
    <glyph glyph-name="ccedilla" unicode="&#xe7;" horiz-adv-x="835" 
d="M749 128l14 -23l8 -14l-92 -52l-19 -11q-36 -19 -65 -28q81 -53 81 -128v-4q0 -2 -0.5 -4t-0.5 -4q-7 -67 -77.5 -114.5t-163.5 -47.5q-65 0 -128 28q-26 13 -29 15q-45 32 -45 83q0 36 24.5 64t62.5 38q-1 -25 11 -58l3 -8l1 -2q18 -38 48.5 -67t63.5 -40q24 -9 46 -6
q33 5 48.5 38t2.5 77l-3 8q-4 12 -7 18q-33 68 -96 100q-160 24 -274 174t-114 350q0 143 61 265.5t162 193t215 70.5q93 0 181 -50q9 -5 27 -17q43 -31 67.5 -78t24.5 -102q0 -59 -28.5 -109.5t-76.5 -80.5q-46 140 -121.5 238t-147.5 116q-26 6 -49 0q-53 -14 -84 -86.5
t-32 -178t32 -231.5q34 -123 93.5 -221t125.5 -144q68 -47 113 -35q38 10 137 68z" />
    <glyph glyph-name="egrave" unicode="&#xe8;" horiz-adv-x="860" 
d="M749 128l14 -23l8 -14l-92 -52l-19 -11q-86 -46 -173 -46q-114 0 -215 70.5t-162 192.5t-61 265t61 265.5t162 193t215 70.5q128 0 224.5 -82t99.5 -209q3 -149 -170 -255q-26 -16 -66.5 -33t-67.5 -29.5t-54.5 -33t-41.5 -53t-14 -79.5q0 -67 43 -116q2 -1 5 -4.5
t4 -5.5q30 -30 50 -44q34 -24 65 -33q26 -8 48 -2q9 3 32 14q35 12 56 27q31 16 49 27zM353 275v8q0 57 26 104q13 25 38.5 51.5t51.5 48.5t54.5 47.5t49 55t33.5 65t10 82.5t-23 102q-33 90 -108 120q-77 30 -143 -21q-90 -69 -94 -241q-1 -26 1 -55q5 -89 46 -231l14 -40
q18 -48 44 -96zM542 1191h-102l-122 254h170z" />
    <glyph glyph-name="eacute" unicode="&#xe9;" horiz-adv-x="860" 
d="M542 1445l-121 -254h-103l54 254h170zM749 128l14 -23l8 -14l-92 -52l-19 -11q-86 -46 -173 -46q-114 0 -215 70.5t-162 192.5t-61 265t61 265.5t162 193t215 70.5q128 0 224.5 -82t99.5 -209q3 -149 -170 -255q-26 -16 -66.5 -33t-67.5 -29.5t-54.5 -33t-41.5 -53
t-14 -79.5q0 -67 43 -116q2 -1 5 -4.5t4 -5.5q30 -30 50 -44q34 -24 65 -33q26 -8 48 -2q9 3 32 14q35 12 56 27q31 16 49 27zM353 275v8q0 57 26 104q13 25 38.5 51.5t51.5 48.5t54.5 47.5t49 55t33.5 65t10 82.5t-23 102q-33 90 -108 120q-77 30 -143 -21
q-90 -69 -94 -241q-1 -26 1 -55q5 -91 46 -232l14 -39q18 -48 44 -96z" />
    <glyph glyph-name="ecircumflex" unicode="&#xea;" horiz-adv-x="860" 
d="M431 1355l-102 -164h-141l210 254h68l207 -254h-142zM749 128l14 -23l8 -14l-92 -52l-19 -11q-86 -46 -173 -46q-114 0 -215 70.5t-162 192.5t-61 265t61 265.5t162 193t215 70.5q128 0 224.5 -82t99.5 -209q3 -149 -170 -255q-26 -16 -66.5 -33t-67.5 -29.5t-54.5 -33
t-41.5 -53t-14 -79.5q0 -67 43 -116q2 -1 5 -4.5t4 -5.5q30 -30 50 -44q34 -24 65 -33q26 -8 48 -2q9 3 32 14q35 12 56 27q31 16 49 27zM353 275v8q0 57 26 104q13 25 38.5 51.5t51.5 48.5t54.5 47.5t49 55t33.5 65t10 82.5t-23 102q-33 90 -108 120q-77 30 -143 -21
q-90 -69 -94 -241q-1 -26 1 -55q5 -91 46 -232l14 -39q18 -48 44 -96z" />
    <glyph glyph-name="edieresis" unicode="&#xeb;" horiz-adv-x="860" 
d="M543 1191q-36 0 -61 25.5t-25 60.5q0 36 25 61t61 25q35 0 60.5 -25t25.5 -61q0 -35 -25.5 -60.5t-60.5 -25.5zM318 1191q-36 0 -61 25.5t-25 60.5q0 36 25 61t61 25q35 0 60.5 -25t25.5 -61q0 -35 -25.5 -60.5t-60.5 -25.5zM749 128l14 -23l8 -14l-92 -52l-19 -11
q-86 -46 -173 -46q-114 0 -215 70.5t-162 192.5t-61 265t61 265.5t162 193t215 70.5q128 0 224.5 -82t99.5 -209q3 -149 -170 -255q-26 -16 -66.5 -33t-67.5 -29.5t-54.5 -33t-41.5 -53t-14 -79.5q0 -67 43 -116q2 -1 5 -4.5t4 -5.5q30 -30 50 -44q34 -24 65 -33
q26 -8 48 -2q9 3 32 14q35 12 56 27q31 16 49 27zM353 275v8q0 57 26 104q13 25 38.5 51.5t51.5 48.5t54.5 47.5t49 55t33.5 65t10 82.5t-23 102q-33 90 -108 120q-77 30 -143 -21q-90 -69 -94 -241q-1 -26 1 -55q5 -91 46 -232l14 -39q18 -48 44 -96z" />
    <glyph glyph-name="igrave" unicode="&#xec;" 
d="M388 1191h-102l-122 254h170zM456 20h47v-21h-454v21h46q31 0 54 23t23 54v763q0 29 -28.5 37.5t-59.5 2.5v23q60 6 157 39t117 70l22 1v-936q0 -32 22.5 -54.5t53.5 -22.5z" />
    <glyph glyph-name="iacute" unicode="&#xed;" 
d="M388 1445l-122 -254h-102l54 254h170zM456 20h47v-21h-454v21h46q31 0 54 23t23 54v763q0 29 -28.5 37.5t-59.5 2.5v23q60 6 157 39t117 70l22 1v-936q0 -32 22.5 -54.5t53.5 -22.5z" />
    <glyph glyph-name="icircumflex" unicode="&#xee;" horiz-adv-x="583" 
d="M292 1355l-101 -164h-142l210 254h68l207 -254h-141zM395 97q0 -31 22.5 -54t54.5 -23h46v-21h-453v21h46q31 0 54 23t23 54v763q0 29 -28.5 37.5t-59.5 2.5v23q60 6 157 39t117 70l21 1v-936z" />
    <glyph glyph-name="idieresis" unicode="&#xef;" 
d="M163 1191q-36 0 -61 25.5t-25 60.5q0 36 25 61t61 25t61 -25t25 -61q0 -35 -25 -60.5t-61 -25.5zM388 1191q-36 0 -61 25.5t-25 60.5q0 36 25.5 61t60.5 25q36 0 61 -25t25 -61q0 -35 -25 -60.5t-61 -25.5zM456 20h47v-21h-454v21h46q31 0 54 23t23 54v763
q0 29 -28.5 37.5t-59.5 2.5v23q60 6 157 39t117 70l22 1v-936q0 -32 22.5 -54.5t53.5 -22.5z" />
    <glyph glyph-name="eth" unicode="&#xf0;" horiz-adv-x="991" 
d="M762 1265q96 -128 143 -317.5t36 -376.5t-75 -320q-59 -122 -161 -196t-218 -74q-114 0 -215 70.5t-162 192.5t-61 265t61 265.5t162 193t215 70.5q111 0 211 -69q-43 132 -98 226l-146 -64l-32 74l133 58q-130 169 -294 81l-37 37q90 68 199 68q161 0 283 -120l104 45
l32 -74zM609 64q53 14 84.5 86t32.5 177.5t-32 231.5q-50 182 -149.5 299.5t-180.5 96.5q-53 -14 -84 -86.5t-32 -178t32 -231.5q50 -182 149 -299t180 -96z" />
    <glyph glyph-name="ntilde" unicode="&#xf1;" horiz-adv-x="1107" 
d="M468 1260q-23 11 -60 16t-78.5 -7t-55.5 -47l-12 6q25 71 59.5 116.5t65 59.5t57 17.5t42.5 -1.5l16 -6l140 -62q24 -11 61 -16t78 7.5t55 47.5l10 -6q-25 -69 -59 -114t-64.5 -59.5t-57 -19t-41.5 -0.5l-16 5zM1013 20h46v-20h-453v20h46q32 0 54.5 23t22.5 54v723
q-3 82 -46.5 117t-108.5 7q-61 -27 -114.5 -99.5t-79.5 -160.5v-587q0 -32 22.5 -54.5t53.5 -22.5h47v-20h-454v20h46q31 0 54 23t23 54v764q0 29 -28.5 37.5t-59.5 2.5v22q60 6 157 39.5t117 70.5l22 1v-224q44 74 107.5 129t137.5 79q50 17 104 15q92 -4 149.5 -69.5
t57.5 -171.5v-695q0 -31 23 -54t54 -23z" />
    <glyph glyph-name="ograve" unicode="&#xf2;" horiz-adv-x="972" 
d="M599 1195h-103l-121 254h170zM487 1038q114 0 214.5 -70.5t161.5 -193t61 -265.5t-61 -265t-161.5 -192.5t-214.5 -70.5t-215 70.5t-162 192.5t-61 265t61 265.5t162 193t215 70.5zM609 64q53 14 84.5 86t32.5 177.5t-32 231.5q-50 182 -149.5 299.5t-180.5 96.5
q-53 -14 -84 -86.5t-32 -178t32 -231.5q50 -182 149 -299t180 -96z" />
    <glyph glyph-name="oacute" unicode="&#xf3;" horiz-adv-x="972" 
d="M599 1449l-122 -254h-102l54 254h170zM487 1038q114 0 214.5 -70.5t161.5 -193t61 -265.5t-61 -265t-161.5 -192.5t-214.5 -70.5t-215 70.5t-162 192.5t-61 265t61 265.5t162 193t215 70.5zM609 64q53 14 84.5 86t32.5 177.5t-32 231.5q-50 182 -149.5 299.5t-180.5 96.5
q-53 -14 -84 -86.5t-32 -178t32 -231.5q50 -182 149 -299t180 -96z" />
    <glyph glyph-name="ocircumflex" unicode="&#xf4;" horiz-adv-x="972" 
d="M487 1360l-101 -165h-142l210 254h68l207 -254h-141zM487 1038q114 0 214.5 -70.5t161.5 -193t61 -265.5t-61 -265t-161.5 -192.5t-214.5 -70.5t-215 70.5t-162 192.5t-61 265t61 265.5t162 193t215 70.5zM609 64q53 14 84.5 86t32.5 177.5t-32 231.5
q-50 182 -149.5 299.5t-180.5 96.5q-53 -14 -84 -86.5t-32 -178t32 -231.5q50 -182 149 -299t180 -96z" />
    <glyph glyph-name="otilde" unicode="&#xf5;" horiz-adv-x="972" 
d="M401 1264q-23 11 -60.5 16t-79 -7t-55.5 -47l-11 6q25 71 59.5 116.5t65 59.5t57 17.5t42.5 -1.5l16 -6l140 -62q24 -11 61 -16t77.5 7.5t54.5 47.5l11 -6q-25 -69 -59 -114t-64.5 -59t-57 -18.5t-42.5 0.5l-15 4zM487 1038q114 0 214.5 -70.5t161.5 -193t61 -265.5
t-61 -265t-161.5 -192.5t-214.5 -70.5t-215 70.5t-162 192.5t-61 265t61 265.5t162 193t215 70.5zM609 64q53 14 84.5 86t32.5 177.5t-32 231.5q-50 182 -149.5 299.5t-180.5 96.5q-53 -14 -84 -86.5t-32 -178t32 -231.5q50 -182 149 -299t180 -96z" />
    <glyph glyph-name="odieresis" unicode="&#xf6;" horiz-adv-x="972" 
d="M599 1195q-35 0 -60.5 25t-25.5 61q0 35 25.5 60.5t60.5 25.5q36 0 61 -25.5t25 -60.5q0 -36 -25 -61t-61 -25zM487 1038q114 0 214.5 -70.5t161.5 -193t61 -265.5t-61 -265t-161.5 -192.5t-214.5 -70.5t-215 70.5t-162 192.5t-61 265t61 265.5t162 193t215 70.5zM609 64
q53 14 84.5 86t32.5 177.5t-32 231.5q-50 182 -149.5 299.5t-180.5 96.5q-53 -14 -84 -86.5t-32 -178t32 -231.5q50 -182 149 -299t180 -96zM374 1195q-36 0 -61 25t-25 61q0 35 25 60.5t61 25.5q35 0 60.5 -25.5t25.5 -60.5q0 -36 -25.5 -61t-60.5 -25z" />
    <glyph glyph-name="divide" unicode="&#xf7;" horiz-adv-x="872" 
d="M559 424q0 -51 -35.5 -86.5t-86.5 -35.5t-87 35.5t-36 86.5t36 87t87 36t86.5 -36t35.5 -87zM824 782v-111h-775v111h775zM559 1029q0 -51 -35.5 -87t-86.5 -36t-87 36t-36 87t36 86.5t87 35.5t86.5 -35.5t35.5 -86.5z" />
    <glyph glyph-name="oslash" unicode="&#xf8;" horiz-adv-x="972" 
d="M758 916q77 -75 121.5 -182t44.5 -229q0 -143 -61 -265t-161.5 -192.5t-214.5 -70.5q-120 0 -226 79l-84 -147l-51 30l90 156q-77 75 -122 182t-45 228q0 143 61 265.5t162 193t215 70.5q119 0 225 -79l85 146l51 -29zM280 455q23 -83 56 -152l269 466q-57 96 -122.5 146
t-118.5 36t-84 -86.5t-32 -178t32 -231.5zM609 60q53 14 84.5 86t32.5 177.5t-32 231.5q-23 83 -56 152l-269 -465q57 -96 122 -146t118 -36z" />
    <glyph glyph-name="ugrave" unicode="&#xf9;" horiz-adv-x="1073" 
d="M649 1191h-103l-122 254h171zM978 20h46v-20h-195q-56 0 -96 39.5t-40 95.5v70q-44 -74 -107.5 -129t-137.5 -79q-126 -41 -218.5 23t-92.5 203v638q0 29 -28.5 37.5t-59.5 2.5v22q60 6 157 39.5t117 70.5l21 1v-839q3 -82 46.5 -117t108.5 -7q61 27 114.5 99.5
t79.5 160.5v530q0 29 -28 37.5t-59 2.5v22q59 6 156 39.5t117 70.5l22 1v-937q0 -31 22.5 -54t54.5 -23z" />
    <glyph glyph-name="uacute" unicode="&#xfa;" horiz-adv-x="1073" 
d="M978 20h46v-20h-195q-56 0 -96 39.5t-40 95.5v70q-44 -74 -107.5 -129t-137.5 -79q-126 -41 -218.5 23t-92.5 203v638q0 29 -28.5 37.5t-59.5 2.5v22q60 6 157 39.5t117 70.5l21 1v-839q3 -82 46.5 -117t108.5 -7q61 27 114.5 99.5t79.5 160.5v530q0 29 -28 37.5t-59 2.5
v22q59 6 156 39.5t117 70.5l22 1v-937q0 -31 22.5 -54t54.5 -23zM649 1445l-122 -254h-103l54 254h171z" />
    <glyph glyph-name="ucircumflex" unicode="&#xfb;" horiz-adv-x="1073" 
d="M537 1356l-102 -165h-141l210 254h68l207 -254h-142zM978 20h46v-20h-195q-56 0 -96 39.5t-40 95.5v70q-44 -74 -107.5 -129t-137.5 -79q-126 -41 -218.5 23t-92.5 203v638q0 29 -28.5 37.5t-59.5 2.5v22q60 6 157 39.5t117 70.5l21 1v-839q3 -82 46.5 -117t108.5 -7
q61 27 114.5 99.5t79.5 160.5v530q0 29 -28 37.5t-59 2.5v22q59 6 156 39.5t117 70.5l22 1v-937q0 -31 22.5 -54t54.5 -23z" />
    <glyph glyph-name="udieresis" unicode="&#xfc;" horiz-adv-x="1073" 
d="M978 20h46v-20h-195q-56 0 -96 39.5t-40 95.5v70q-44 -74 -107.5 -129t-137.5 -79q-126 -41 -218.5 23t-92.5 203v638q0 29 -28.5 37.5t-59.5 2.5v22q60 6 157 39.5t117 70.5l21 1v-839q3 -82 46.5 -117t108.5 -7q61 27 114.5 99.5t79.5 160.5v530q0 29 -28 37.5t-59 2.5
v22q59 6 156 39.5t117 70.5l22 1v-937q0 -31 22.5 -54t54.5 -23zM649 1191q-36 0 -61 25t-25 61q0 35 25 60.5t61 25.5t61 -25.5t25 -60.5q0 -36 -25 -61t-61 -25zM424 1191q-36 0 -61 25t-25 61q0 35 25.5 60.5t60.5 25.5q36 0 61 -25.5t25 -60.5q0 -36 -25 -61t-61 -25z
" />
    <glyph glyph-name="yacute" unicode="&#xfd;" horiz-adv-x="1060" 
d="M642 1445l-122 -254h-102l54 254h170zM702 995v20h309v-21q-51 -2 -83 -27t-53 -94l-83 -293q-116 -405 -175 -628q-64 -242 -208 -337q-104 -69 -207 -36q-88 30 -125 120q-48 120 21 278q50 -96 109.5 -145.5t113 -50.5t102 26t83.5 79t52 114h-90l-6 20l-269 860
q-22 67 -55.5 90t-88.5 25v20h189q65 0 110.5 -32t64.5 -92l209 -665l186 651q15 48 -9 80q-28 38 -97 38z" />
    <glyph glyph-name="thorn" unicode="&#xfe;" horiz-adv-x="1085" 
d="M1031 560q17 -168 -28 -312q-38 -119 -107 -188.5t-147 -79.5t-159.5 48t-141.5 179q-31 62 -68 165v-483q0 -32 22.5 -54.5t53.5 -22.5h47v-20h-454v20h46q31 0 54 23t23 54v1232q0 31 -23 54t-54 23h-46v21h454v-21h-47q-31 0 -53.5 -22.5t-22.5 -54.5v-194
q92 105 228 107q151 2 276.5 -134.5t146.5 -339.5zM662 175q87 -1 130 112.5t17 274.5t-107 276t-168 117q-45 1 -77.5 -27.5t-48.5 -72t-22.5 -97.5t-5.5 -102t8 -88q26 -161 106.5 -276t167.5 -117z" />
    <glyph glyph-name="ydieresis" unicode="&#xff;" horiz-adv-x="1060" 
d="M418 1191q-36 0 -61.5 25t-25.5 61q0 35 25.5 60.5t61.5 25.5q35 0 60.5 -25.5t25.5 -60.5q0 -36 -25.5 -61t-60.5 -25zM643 1191q-35 0 -60.5 25t-25.5 61q0 35 25.5 60.5t60.5 25.5q36 0 61 -25.5t25 -60.5q0 -36 -25 -61t-61 -25zM702 995v20h309v-21q-51 -2 -83 -27
t-53 -94l-83 -293q-116 -405 -175 -628q-64 -242 -208 -337q-104 -69 -207 -36q-88 30 -125 120q-48 120 21 278q50 -96 109.5 -145.5t113 -50.5t102 26t83.5 79t52 114h-90l-6 20l-269 860q-22 67 -55.5 90t-88.5 25v20h189q65 0 110.5 -32t64.5 -92l209 -665l186 651
q15 48 -9 80q-28 38 -97 38z" />
    <glyph glyph-name="Amacron" unicode="&#x100;" horiz-adv-x="1277" 
d="M850 1585h-423v111h423v-111zM1085 135q22 -67 55 -89.5t88 -24.5v-21h-484v20q37 -1 61 6t42 32q28 37 14 80l-60 211q-54 -87 -132 -115.5t-157 -2.5t-152 95l-43 44l-65 -232q-15 -48 9 -80q28 -38 97 -38v-20h-309v21q51 2 83 27t53 94l82 289q-105 142 -158 342
q-30 112 -36 226.5t11.5 210.5t68 156.5t128.5 60.5h433l7 -20zM275 459l223 788q-21 29 -35 45q-118 135 -220 107.5t-137 -203.5q-33 -169 16.5 -379.5t152.5 -357.5zM639 390q44 88 47.5 216.5t-22 246t-68.5 218.5q-21 48 -50 102l-221 -776q53 -59 108.5 -87t112 -11
t93.5 91z" />
    <glyph glyph-name="amacron" unicode="&#x101;" horiz-adv-x="1017" 
d="M922 20h46v-21h-195q-51 0 -89 33t-45 83q-1 6 -1 19v159q-31 -93 -93.5 -169.5t-140.5 -113.5q-60 -29 -122 -29q-100 0 -167 60.5t-66 173.5q1 70 28.5 130.5t75 108.5t97 88.5t108 91t93.5 95.5q89 113 68 173q-14 41 -70 31q-74 -13 -148 -102q-68 -81 -107 -202
q-69 43 -95.5 97.5t-8.5 106t64 95.5t124.5 72t170.5 29q113 2 189 -28q90 -35 148.5 -117.5t58.5 -227.5v-559q0 -31 22.5 -54t54.5 -23zM443 186q81 21 138 111t57 244v261q0 102 -71 150.5t-167 10.5q27 5 56.5 1t53.5 -12.5t38 -32t10 -57.5q-12 -100 -185 -303
q-63 -73 -91 -140.5t-21 -112t31 -79t66.5 -41.5t84.5 0zM721 1191h-424v110h424v-110z" />
    <glyph glyph-name="Abreve" unicode="&#x102;" horiz-adv-x="1277" 
d="M1085 135q22 -67 55 -89.5t88 -24.5v-21h-484v20q37 -1 61 6t42 32q28 37 14 80l-60 211q-54 -87 -132 -115.5t-157 -2.5t-152 95l-43 44l-65 -232q-15 -48 9 -80q28 -38 97 -38v-20h-309v21q51 2 83 27t53 94l82 289q-105 142 -158 342q-30 112 -36 226.5t11.5 210.5
t68 156.5t128.5 60.5h433l7 -20zM275 459l223 788q-21 29 -35 45q-118 135 -220 107.5t-137 -203.5q-33 -169 16.5 -379.5t152.5 -357.5zM639 390q44 88 47.5 216.5t-22 246t-68.5 218.5q-21 48 -50 102l-221 -776q53 -59 108.5 -87t112 -11t93.5 91zM639 1585
q-92 0 -157.5 65t-65.5 157q0 17 3 32h87q-4 -20 -4 -32q0 -56 40.5 -96t96.5 -40t96 40t40 96q0 12 -4 32h87q3 -15 3 -32q0 -92 -65 -157t-157 -65z" />
    <glyph glyph-name="abreve" unicode="&#x103;" horiz-adv-x="1017" 
d="M922 20h46v-21h-195q-51 0 -89 33t-45 83q-1 6 -1 19v159q-31 -93 -93.5 -169.5t-140.5 -113.5q-60 -29 -122 -29q-100 0 -167 60.5t-66 173.5q1 70 28.5 130.5t75 108.5t97 88.5t108 91t93.5 95.5q89 113 68 173q-14 41 -70 31q-74 -13 -148 -102q-68 -81 -107 -202
q-69 43 -95.5 97.5t-8.5 106t64 95.5t124.5 72t170.5 29q113 2 189 -28q90 -35 148.5 -117.5t58.5 -227.5v-559q0 -31 22.5 -54t54.5 -23zM443 186q81 21 138 111t57 244v261q0 102 -71 150.5t-167 10.5q27 5 56.5 1t53.5 -12.5t38 -32t10 -57.5q-12 -100 -185 -303
q-63 -73 -91 -140.5t-21 -112t31 -79t66.5 -41.5t84.5 0zM509 1191q-92 0 -157 65t-65 157q0 22 2 32h87q-4 -20 -4 -32q0 -56 40.5 -96.5t96.5 -40.5t96 40.5t40 96.5q0 12 -4 32h87q3 -15 3 -32q0 -92 -65 -157t-157 -65z" />
    <glyph glyph-name="Aogonek" unicode="&#x104;" horiz-adv-x="1277" 
d="M920 -131l-3 -8q-13 -44 2 -77t48 -38q22 -3 46 6q33 12 64 40.5t49 65.5l1 3l3 8q12 33 11 58q38 -10 62.5 -38.5t24.5 -64.5q0 -50 -45 -82q-9 -6 -29 -16q-60 -27 -128 -27q-93 0 -163.5 47.5t-77.5 114.5q0 1 -0.5 4t-0.5 4v4q0 74 80 127h-120v20q37 -1 61 6t42 32
q28 37 14 80l-60 211q-54 -87 -132 -115.5t-157 -2.5t-152 95l-43 44l-65 -232q-15 -48 9 -80q28 -38 97 -38v-20h-309v21q51 2 83 27t53 94l82 289q-105 142 -158 342q-30 112 -36 226.5t11.5 210.5t68 156.5t128.5 60.5h433l7 -20l364 -1272q22 -67 55 -89.5t88 -24.5v-21
h-162q-38 -4 -78 -35.5t-61 -77.5q-3 -6 -7 -18zM275 459l223 788q-21 29 -35 45q-118 135 -220 107.5t-137 -203.5q-33 -169 16.5 -379.5t152.5 -357.5zM639 390q44 88 47.5 216.5t-22 246t-68.5 218.5q-21 48 -50 102l-221 -776q53 -59 108.5 -87t112 -11t93.5 91z" />
    <glyph glyph-name="aogonek" unicode="&#x105;" horiz-adv-x="1017" 
d="M660 -132l-3 -8q-13 -44 2.5 -77t48.5 -38q22 -3 46 6q33 11 63.5 40t48.5 67l1 2l3 8q12 33 11 58q38 -10 62.5 -38t24.5 -64q0 -51 -45 -83q-9 -6 -29 -16q-60 -27 -128 -27q-93 0 -163.5 47.5t-77.5 114.5q0 2 -0.5 4t-0.5 4v4q0 54 44.5 98.5t113.5 63.5
q-35 32 -43 81q-1 6 -1 19v159q-31 -93 -93.5 -169.5t-140.5 -113.5q-60 -29 -122 -29q-100 0 -167 60.5t-66 173.5q1 70 28.5 130.5t75 108.5t97 88.5t108 91t93.5 95.5q89 113 68 173q-14 41 -70 31q-74 -13 -148 -102q-68 -81 -107 -202q-69 43 -95.5 97.5t-8.5 106
t64 95.5t124.5 72t170.5 29q113 2 189 -28q90 -35 148.5 -117.5t58.5 -227.5v-559q0 -31 22.5 -54t54.5 -23h46v-21h-162q-38 -4 -78 -35.5t-61 -77.5q-3 -6 -7 -18zM443 186q81 21 138 111t57 244v261q0 102 -71 150.5t-167 10.5q27 5 56.5 1t53.5 -12.5t38 -32t10 -57.5
q-12 -100 -185 -303q-63 -73 -91 -140.5t-21 -112t31 -79t66.5 -41.5t84.5 0z" />
    <glyph glyph-name="Cacute" unicode="&#x106;" horiz-adv-x="976" 
d="M756 1839l-121 -254h-103l54 254h170zM910 223l17 -29l-110 -109q-112 -103 -245 -103q-136 0 -256.5 97.5t-193.5 267.5t-73 367t73 367t193.5 267.5t256.5 97.5q113 0 202 -67t125 -174t1 -218q-20 -64 -61 -111q-17 -19 -27 -27q-102 330 -252 449q-106 84 -197 33
t-123 -208q-42 -202 35 -481q61 -224 177.5 -384t227.5 -182q10 -5 24.5 -2t24.5 4t24 9.5t23.5 13.5t23.5 16.5t23 19.5t22.5 21t22 22t21.5 22z" />
    <glyph glyph-name="cacute" unicode="&#x107;" horiz-adv-x="835" 
d="M530 1445l-122 -254h-102l54 254h170zM749 128l14 -23l8 -14l-92 -52l-19 -11q-86 -46 -173 -46q-114 0 -215 70.5t-162 192.5t-61 265t61 265.5t162 193t215 70.5q93 0 181 -50q9 -5 27 -17q43 -31 67.5 -78t24.5 -102q0 -59 -28.5 -109.5t-76.5 -80.5
q-46 140 -121.5 238t-147.5 116q-26 6 -49 0q-53 -14 -84 -86.5t-32 -178t32 -231.5q34 -123 93.5 -221t125.5 -144q68 -47 113 -35q38 10 137 68z" />
    <glyph glyph-name="Ccaron" unicode="&#x10c;" horiz-adv-x="976" 
d="M636 1585h-68l-210 254h141l102 -165l101 165h141zM910 223l17 -29l-110 -109q-112 -103 -245 -103q-136 0 -256.5 97.5t-193.5 267.5t-73 367t73 367t193.5 267.5t256.5 97.5q113 0 202 -67t125 -174t1 -218q-20 -64 -61 -111q-17 -19 -27 -27q-102 330 -252 449
q-106 84 -197 33t-123 -208q-42 -202 35 -481q61 -224 177.5 -384t227.5 -182q10 -5 24.5 -2t24.5 4t24 9.5t23.5 13.5t23.5 16.5t23 19.5t22.5 21t22 22t21.5 22z" />
    <glyph glyph-name="ccaron" unicode="&#x10d;" horiz-adv-x="835" 
d="M749 128l14 -23l8 -14l-92 -52l-19 -11q-86 -46 -173 -46q-114 0 -215 70.5t-162 192.5t-61 265t61 265.5t162 193t215 70.5q93 0 181 -50q9 -5 27 -17q43 -31 67.5 -78t24.5 -102q0 -59 -28.5 -109.5t-76.5 -80.5q-46 140 -121.5 238t-147.5 116q-26 6 -49 0
q-53 -14 -84 -86.5t-32 -178t32 -231.5q34 -123 93.5 -221t125.5 -144q68 -47 113 -35q38 10 137 68zM453 1191h-67l-210 254h141l102 -165l100 165h142z" />
    <glyph glyph-name="Dcaron" unicode="&#x10e;" horiz-adv-x="1171" 
d="M912 1312q100 -93 153.5 -242t55.5 -318q2 -112 -19 -220t-66.5 -204.5t-110 -169.5t-156.5 -115.5t-200 -42.5h-520v21h46q31 0 54 22.5t23 54.5v1232q0 32 -23 54.5t-54 22.5h-46v20h331q104 16 193 18t176.5 -30.5t162.5 -102.5zM538 21q104 1 188.5 109t128.5 272
t45 344q0 111 -11.5 206t-42.5 184t-79 149.5t-125 93t-177 24.5q-85 -7 -85 -73v-1232q0 -32 22.5 -54.5t53.5 -22.5h82zM621 1585h-68l-210 254h141l102 -165l100 165h142z" />
    <glyph glyph-name="dcaron" unicode="&#x10f;" horiz-adv-x="1243" 
d="M933 97q0 -31 22.5 -54t54.5 -23h46v-21h-196q-51 0 -89 33.5t-45 83.5q-43 -65 -106 -99.5t-133 -34.5q-114 0 -215 70.5t-162 192.5t-61 265t61 265.5t162 193t215 70.5q127 0 238 -103v342q0 29 -28.5 37.5t-59.5 2.5v22q60 6 157 39.5t117 70.5h22v-1353zM725 311v52
q-3 96 -31 197q-50 182 -149.5 299.5t-180.5 96.5q-53 -14 -84 -86.5t-32 -178t32 -231.5q50 -182 149 -299t180 -96q50 13 81 79.5t35 166.5zM1023 1445h171l-122 -254h-103z" />
    <glyph glyph-name="dmacron" unicode="&#x111;" horiz-adv-x="1103" 
d="M1010 20h46v-21h-196q-51 0 -89 33.5t-45 83.5q-43 -65 -106 -99.5t-133 -34.5q-114 0 -215 70.5t-162 192.5t-61 265t61 265.5t162 193t215 70.5q127 0 238 -103v255h-158v75h158v12q0 29 -28.5 37.5t-59.5 2.5v22q60 6 157 39.5t117 70.5h22v-184h57v-75h-57v-1094
q0 -31 22.5 -54t54.5 -23zM725 311v52q-3 96 -31 197q-50 182 -149.5 299.5t-180.5 96.5q-53 -14 -84 -86.5t-32 -178t32 -231.5q50 -182 149 -299t180 -96q50 13 81 79.5t35 166.5z" />
    <glyph glyph-name="Emacron" unicode="&#x112;" horiz-adv-x="1083" 
d="M753 1585h-424v111h424v-111zM1011 311h22l-19 -311h-965v21h46q32 0 54.5 22.5t22.5 53.5v1233q0 32 -23 54.5t-54 22.5h-46v20h893l31 -311h-22l-2 4q-35 128 -137.5 207.5t-235.5 79.5h-120h-2l-2 -1h-1h-2h-2h-2l-2 -1h-2h-2l-2 -1h-2l-1 -1h-2l-2 -1l-2 -1h-1l-2 -1
l-2 -1l-2 -1l-1 -1l-2 -1l-1 -1q-1 -1 -2 -1l-1 -1l-2 -1l-1 -1l-2 -1l-1 -1l-2 -1l-1 -1l-2 -2l-1 -1l-1 -1l-1 -2l-2 -1l-1 -1l-1 -2l-1 -1l-1 -2l-1 -1l-1 -2q0 -1 -1 -1l-1 -2l-1 -2l-1 -1l-1 -2l-1 -2v-1l-1 -2l-1 -2v-2l-1 -1v-2l-1 -2v-2l-1 -2v-2l-1 -2v-1v-2v-2v-2
v-2v-2v-518h147h2h1q88 1 151 63.5t64 151.5v1h24v-453h-24v1q-1 88 -64 151t-151 64h-1h-149v-693q0 -32 22.5 -54.5t53.5 -22.5h146q136 0 255 80.5t153 205.5z" />
    <glyph glyph-name="emacron" unicode="&#x113;" horiz-adv-x="860" 
d="M642 1191h-424v110h424v-110zM749 128l14 -23l8 -14l-92 -52l-19 -11q-86 -46 -173 -46q-114 0 -215 70.5t-162 192.5t-61 265t61 265.5t162 193t215 70.5q128 0 224.5 -82t99.5 -209q3 -149 -170 -255q-26 -16 -66.5 -33t-67.5 -29.5t-54.5 -33t-41.5 -53t-14 -79.5
q0 -67 43 -116q2 -1 5 -4.5t4 -5.5q30 -30 50 -44q34 -24 65 -33q26 -8 48 -2q9 3 32 14q35 12 56 27q31 16 49 27zM353 275v8q0 57 26 104q13 25 38.5 51.5t51.5 48.5t54.5 47.5t49 55t33.5 65t10 82.5t-23 102q-33 90 -108 120q-77 30 -143 -21q-90 -69 -94 -241
q-1 -26 1 -55q5 -91 46 -232l14 -39q18 -48 44 -96z" />
    <glyph glyph-name="Edot" unicode="&#x116;" horiz-adv-x="1083" 
d="M541 1585q-35 0 -60.5 25t-25.5 61t25.5 61t60.5 25q36 0 61 -25t25 -61t-25 -61t-61 -25zM1011 311h22l-19 -311h-965v21h46q32 0 54.5 22.5t22.5 53.5v1233q0 32 -23 54.5t-54 22.5h-46v20h893l31 -311h-22l-2 4q-35 128 -137.5 207.5t-235.5 79.5h-120h-2l-2 -1h-2h-1
h-2h-2l-2 -1h-2h-2l-2 -1h-2l-1 -1h-2l-2 -1l-2 -1h-1l-2 -1l-2 -1l-2 -1l-1 -1l-2 -1l-1 -1q-1 -1 -2 -1l-2 -1l-1 -1l-2 -1l-1 -1l-1 -1l-2 -1l-1 -1l-2 -2l-1 -1l-1 -1l-1 -2l-2 -1l-1 -1l-1 -2l-1 -1l-1 -2l-1 -1l-1 -2q0 -1 -1 -1l-1 -2l-1 -2l-1 -1l-1 -2l-1 -2v-1
l-1 -2l-1 -2v-2l-1 -1l-1 -2v-2v-2l-1 -2v-2l-1 -2v-1v-2v-2v-2v-2v-2v-518h147h2h1q88 1 151 63.5t64 151.5v1h24v-453h-24v1q-1 88 -64 151t-151 64h-1h-149v-693q0 -32 22.5 -54.5t53.5 -22.5h146q136 0 255 80.5t153 205.5z" />
    <glyph glyph-name="edot" unicode="&#x117;" horiz-adv-x="860" 
d="M749 128l14 -23l8 -14l-92 -52l-19 -11q-86 -46 -173 -46q-114 0 -215 70.5t-162 192.5t-61 265t61 265.5t162 193t215 70.5q128 0 224.5 -82t99.5 -209q3 -149 -170 -255q-26 -16 -66.5 -33t-67.5 -29.5t-54.5 -33t-41.5 -53t-14 -79.5q0 -67 43 -116q2 -1 5 -4.5
t4 -5.5q30 -30 50 -44q34 -24 65 -33q26 -8 48 -2q9 3 32 14q35 12 56 27q31 16 49 27zM353 275v8q0 57 26 104q13 25 38.5 51.5t51.5 48.5t54.5 47.5t49 55t33.5 65t10 82.5t-23 102q-33 90 -108 120q-77 30 -143 -21q-90 -69 -94 -241q-1 -26 1 -55q5 -89 46 -231l14 -40
q18 -48 44 -96zM430 1191q-35 0 -60.5 25.5t-25.5 60.5q0 36 25.5 61t60.5 25q36 0 61 -25t25 -61q0 -35 -25 -60.5t-61 -25.5z" />
    <glyph glyph-name="Eogonek" unicode="&#x118;" horiz-adv-x="1083" 
d="M946 -73q38 -10 62.5 -38.5t24.5 -64.5q0 -50 -45 -82q-12 -8 -28 -16q-60 -27 -128 -27q-93 0 -164 47.5t-78 114.5v8v4q0 74 79 127h-620v21h46q32 0 54.5 22.5t22.5 53.5v1233q0 32 -23 54.5t-54 22.5h-46v20h893l31 -311h-22l-1 4q-35 128 -138 207.5t-236 79.5h-120
h-2l-2 -1h-1h-2h-2h-2l-2 -1h-2h-2l-2 -1h-2l-1 -1h-2l-2 -1l-2 -1h-1l-2 -1l-2 -1l-2 -1l-1 -1l-2 -1l-1 -1q-1 -1 -2 -1l-1 -1l-2 -1l-1 -1l-2 -1l-1 -1l-2 -1l-1 -1l-2 -2l-1 -1l-1 -1l-1 -2l-2 -1l-1 -1l-1 -2l-1 -1l-1 -2l-1 -1l-1 -2q0 -1 -1 -1l-1 -2l-1 -2l-1 -1
l-1 -2l-1 -2v-1l-1 -2l-1 -2v-2l-1 -1v-2l-1 -2v-2l-1 -2v-2l-1 -2v-1v-2v-2v-2v-2v-2v-518h147h2h1q88 1 151 63.5t64 151.5v1h24v-453h-24v1q-1 88 -64 151t-151 64h-1h-149v-693q0 -32 22.5 -54.5t53.5 -22.5h146q136 0 255 80.5t153 205.5l1 4h22l-19 -311h-143
q-38 -4 -78 -35.5t-61 -77.5q-3 -6 -7 -18l-2 -8q-13 -44 2 -77t48 -38q22 -3 46 6q33 12 63.5 40.5t48.5 65.5l1 3l3 8q12 33 11 58z" />
    <glyph glyph-name="eogonek" unicode="&#x119;" horiz-adv-x="860" 
d="M749 128l14 -23l8 -14l-92 -52l-19 -11q-86 -46 -173 -46q-21 0 -42 3q-64 -33 -94 -99q-3 -6 -7 -18l-3 -8q-13 -44 2.5 -77t48.5 -38q21 -3 45 6q33 12 64 41t49 66l1 2l3 8q12 33 11 58q38 -10 62.5 -38t24.5 -64q0 -51 -45 -83q-9 -6 -29 -16q-60 -27 -128 -27
q-93 0 -163.5 47.5t-77.5 114.5q0 2 -0.5 4t-0.5 4v4q0 46 32.5 85.5t86.5 62.5q-122 60 -200 193.5t-78 296.5q0 143 61 265.5t162 193t215 70.5q128 0 224.5 -82t99.5 -209q3 -149 -170 -255q-26 -16 -66.5 -33t-67.5 -29.5t-54.5 -33t-41.5 -53t-14 -79.5q0 -67 43 -116
q2 -1 5 -4.5t4 -5.5q30 -30 50 -44q34 -24 65 -33q26 -8 48 -2q9 3 32 14q35 12 56 27q31 16 49 27zM379 387q13 25 38.5 51.5t51.5 48.5t54.5 47.5t49 55t33.5 65t10 82.5t-23 102q-33 90 -108 120q-77 30 -143 -21q-90 -69 -94 -241q-1 -26 1 -55q5 -89 46 -231l14 -40
q18 -48 44 -96v8q0 57 26 104z" />
    <glyph glyph-name="Ecaron" unicode="&#x11a;" horiz-adv-x="1083" 
d="M577 1585h-68l-210 254h141l102 -165l100 165h142zM1012 311h21l-19 -311h-965v21h46q32 0 54.5 22.5t22.5 53.5v1233q0 32 -23 54.5t-54 22.5h-46v20h893l31 -311h-22l-2 4q-35 129 -137.5 208t-235.5 79h-120h-2l-2 -1h-1h-2h-2h-2l-2 -1h-2h-2l-2 -1h-2l-1 -1h-2
l-2 -1l-2 -1h-1l-2 -1l-2 -1l-2 -1l-1 -1l-2 -1l-1 -1q-1 -1 -2 -1l-1 -1l-2 -1l-1 -1l-2 -1l-1 -1l-2 -1l-1 -1l-2 -2l-1 -1l-1 -1l-1 -2l-2 -1l-1 -1l-1 -2l-1 -1l-1 -2l-1 -1l-1 -2q0 -1 -1 -1l-1 -2l-1 -2l-1 -1l-1 -2l-1 -2v-1l-1 -2l-1 -2v-2l-1 -1v-2l-1 -2v-2l-1 -2
v-2v-2l-1 -1v-2v-2v-2v-2v-2v-518h147h2h1q88 1 151 63.5t64 151.5v1h24v-453h-24v1q-1 88 -64 151t-151 64h-1h-149v-693q0 -32 22.5 -54.5t53.5 -22.5h146q136 0 255 80.5t153 205.5z" />
    <glyph glyph-name="ecaron" unicode="&#x11b;" horiz-adv-x="860" 
d="M466 1191h-68l-210 254h141l102 -165l100 165h142zM749 128l14 -23l8 -14l-92 -52l-19 -11q-86 -46 -173 -46q-114 0 -215 70.5t-162 192.5t-61 265t61 265.5t162 193t215 70.5q128 0 224.5 -82t99.5 -209q3 -149 -170 -255q-26 -16 -66.5 -33t-67.5 -29.5t-54.5 -33
t-41.5 -53t-14 -79.5q0 -67 43 -116q2 -1 5 -4.5t4 -5.5q30 -30 50 -44q34 -24 65 -33q26 -8 48 -2q9 3 32 14q35 12 56 27q31 16 49 27zM353 275v8q0 57 26 104q13 25 38.5 51.5t51.5 48.5t54.5 47.5t49 55t33.5 65t10 82.5t-23 102q-33 90 -108 120q-77 30 -143 -21
q-90 -69 -94 -241q-1 -26 1 -55q5 -91 46 -232l14 -39q18 -48 44 -96z" />
    <glyph glyph-name="Gbreve" unicode="&#x11e;" horiz-adv-x="1042" 
d="M572 1445q113 0 202 -67t125 -174t1 -218q-20 -64 -61 -111q-10 -12 -27 -26q-102 330 -252 449q-106 84 -197 33t-123 -208q-42 -202 35 -481q47 -171 130.5 -309.5t175 -207t166.5 -49.5q50 14 86 63q-48 39 -114 47v439q0 31 -21.5 52.5t-51.5 21.5h-185v21h531v-21
q-28 -3 -46.5 -24t-18.5 -49v-635h-9q-12 76 -65 129l-36 -36q-112 -103 -245 -103q-136 0 -256.5 97.5t-193.5 267.5t-73 367t73 367t193.5 267.5t256.5 97.5zM741 1838q2 -10 2 -32q0 -92 -65 -157t-157 -65t-157 65t-65 157q0 22 2 32h87q-4 -20 -4 -32q0 -56 40.5 -96
t96.5 -40t96 40t40 96q0 12 -4 32h88z" />
    <glyph glyph-name="gbreve" unicode="&#x11f;" horiz-adv-x="1067" 
d="M534 1191q-92 0 -157.5 65t-65.5 157q0 2 3 32h87q-4 -20 -4 -32q0 -56 40 -96.5t96 -40.5t96.5 40.5t40.5 96.5q0 12 -4 32h87q3 -15 3 -32q0 -92 -65 -157t-157 -65zM686 1127q63 114 163 131q77 13 130 -35q54 -49 34 -121q-13 -45 -53 -87q-36 44 -79 56t-78.5 -3
t-62.5 -47t-36 -72q84 -65 134 -166t50 -217q0 -106 -45.5 -205t-121.5 -164t-175 -90t-206 16q-69 20 -99 1q-24 -15 14 -42q17 -12 45 -23q61 -26 228.5 -46t199.5 -27q53 -11 86 -28q64 -34 74.5 -109.5t-31.5 -132.5q-35 -52 -92 -82q-64 -33 -144 -49t-143 -16
q-33 0 -53.5 0.5t-64.5 3t-74 7.5t-70.5 15.5t-66.5 24.5t-51 37t-33.5 52t-4 69.5t27.5 88.5q37 -44 87.5 -80t103.5 -59t109.5 -39t107.5 -22t94.5 -5t74.5 9q62 17 60 50q-2 25 -27 41t-51.5 22t-57.5 10q-8 1 -11 1q-26 4 -88.5 12.5t-103.5 14.5t-93 17t-87 24
q-70 25 -105.5 71.5t-31.5 93.5t49 89t124 60q-88 65 -140.5 167.5t-52.5 221.5q0 126 58.5 234t155 170.5t206.5 62.5q91 0 175 -45q7 75 42 139zM579 164q52 13 84 79.5t35 162.5t-26 210q-45 164 -140 268.5t-174 83.5q-52 -13 -84 -79.5t-35 -162t26 -209.5
q45 -164 140 -269t174 -84z" />
    <glyph glyph-name="Imacron" unicode="&#x12a;" 
d="M380 1329v-1232q0 -32 22.5 -54.5t53.5 -22.5h47v-21h-454v21h46q31 0 54 23t23 54v1232q0 31 -23 54t-54 23h-46v21h454v-21h-47q-31 0 -53.5 -22.5t-22.5 -54.5zM64 1584v111h424v-111h-424z" />
    <glyph glyph-name="imacron" unicode="&#x12b;" 
d="M456 20h47v-21h-454v21h46q31 0 54 23t23 54v763q0 29 -28.5 37.5t-59.5 2.5v23q60 6 157 39t117 70l22 1v-936q0 -32 22.5 -54.5t53.5 -22.5zM488 1191h-424v110h424v-110z" />
    <glyph glyph-name="Idot" unicode="&#x130;" 
d="M380 1329v-1232q0 -32 22.5 -54.5t53.5 -22.5h47v-21h-454v21h46q31 0 54 23t23 54v1232q0 31 -23 54t-54 23h-46v21h454v-21h-47q-31 0 -53.5 -22.5t-22.5 -54.5zM190 1670q0 35 25.5 60.5t60.5 25.5q36 0 61 -25.5t25 -60.5q0 -36 -25 -61t-61 -25q-35 0 -60.5 25
t-25.5 61z" />
    <glyph glyph-name="dotlessi" unicode="&#x131;" 
d="M456 20h47v-21h-454v21h46q31 0 54 23t23 54v763q0 29 -28.5 37.5t-59.5 2.5v23q60 6 157 39t117 70l22 1v-936q0 -32 22.5 -54.5t53.5 -22.5z" />
    <glyph glyph-name="Lslash" unicode="&#x141;" horiz-adv-x="1105" 
d="M1034 311h22l-19 -311h-931v21h46q32 0 54.5 22.5t22.5 54.5v307l-127 -101l-53 66l180 143v817q0 32 -22.5 54.5t-54.5 22.5h-46v20h454v-20h-46q-32 0 -54.5 -22.5t-22.5 -54.5v-651l225 180l53 -66l-278 -222v-473q0 -32 22.5 -54.5t54.5 -22.5h146q133 0 235.5 79
t137.5 207z" />
    <glyph glyph-name="lslash" unicode="&#x142;" horiz-adv-x="763" 
d="M486 97q0 -31 23 -54t54 -23h46v-20h-454v20h47q31 0 53.5 22.5t22.5 54.5v341l-176 -141l-53 66l229 183v726q0 29 -28 38t-59 3v22q60 6 156.5 39t116.5 70l22 1v-734l176 141l53 -66l-229 -183v-506z" />
    <glyph glyph-name="Nacute" unicode="&#x143;" horiz-adv-x="1224" 
d="M228 1053v-956q0 -31 23 -54t54 -23h46v-21h-302v21h46q31 0 54 23t23 54v1232q0 31 -23 54t-54 23h-46v21h159l788 -1054v956q0 31 -23 54t-54 23h-46v21h302v-21h-46q-31 0 -54 -23t-23 -54v-1330h-36zM602 1584h-102l54 254h170z" />
    <glyph glyph-name="nacute" unicode="&#x144;" horiz-adv-x="1107" 
d="M666 1445l-122 -254h-102l54 254h170zM1013 20h46v-20h-453v20h46q32 0 54.5 23t22.5 54v723q-3 82 -46.5 117t-108.5 7q-61 -27 -114.5 -99.5t-79.5 -160.5v-587q0 -32 22.5 -54.5t53.5 -22.5h47v-20h-454v20h46q31 0 54 23t23 54v764q0 29 -28.5 37.5t-59.5 2.5v22
q60 6 157 39.5t117 70.5l22 1v-224q44 74 107.5 129t137.5 79q50 17 104 15q92 -4 149.5 -69.5t57.5 -171.5v-695q0 -31 23 -54t54 -23z" />
    <glyph glyph-name="Ncaron" unicode="&#x147;" horiz-adv-x="1224" 
d="M228 1053v-956q0 -31 23 -54t54 -23h46v-21h-302v21h46q31 0 54 23t23 54v1232q0 31 -23 54t-54 23h-46v21h159l788 -1054v956q0 31 -23 54t-54 23h-46v21h302v-21h-46q-31 0 -54 -23t-23 -54v-1330h-36zM713 1838h142l-208 -254h-67l-210 254h141l102 -164z" />
    <glyph glyph-name="ncaron" unicode="&#x148;" horiz-adv-x="1107" 
d="M589 1191h-67l-211 254h142l102 -165l100 165h142zM1013 20h46v-20h-453v20h46q32 0 54.5 23t22.5 54v723q-3 82 -46.5 117t-108.5 7q-61 -27 -114.5 -99.5t-79.5 -160.5v-587q0 -32 22.5 -54.5t53.5 -22.5h47v-20h-454v20h46q31 0 54 23t23 54v764q0 29 -28.5 37.5
t-59.5 2.5v22q60 6 157 39.5t117 70.5l22 1v-224q44 74 107.5 129t137.5 79q50 17 104 15q92 -4 149.5 -69.5t57.5 -171.5v-695q0 -31 23 -54t54 -23z" />
    <glyph glyph-name="Omacron" unicode="&#x14c;" horiz-adv-x="1142" 
d="M572 1445q102 0 198 -58t167 -156t114 -234t43 -284t-43 -284t-114 -234t-167 -156t-198 -58q-136 0 -256.5 97.5t-193.5 267.5t-73 367t73 367t193.5 267.5t256.5 97.5zM360 1695h423v-111h-423v111zM868 784q-47 171 -130.5 309.5t-175 207t-166.5 49.5t-120 -122.5
t-46 -254t45 -331.5q47 -171 130.5 -309.5t175 -207t166.5 -49.5t120 122.5t46 254t-45 331.5z" />
    <glyph glyph-name="omacron" unicode="&#x14d;" horiz-adv-x="972" 
d="M699 1195h-424v111h424v-111zM487 1038q114 0 214.5 -70.5t161.5 -193t61 -265.5t-61 -265t-161.5 -192.5t-214.5 -70.5t-215 70.5t-162 192.5t-61 265t61 265.5t162 193t215 70.5zM609 64q53 14 84.5 86t32.5 177.5t-32 231.5q-50 182 -149.5 299.5t-180.5 96.5
q-53 -14 -84 -86.5t-32 -178t32 -231.5q50 -182 149 -299t180 -96z" />
    <glyph glyph-name="Ohungarumlaut" unicode="&#x150;" horiz-adv-x="1142" 
d="M572 1445q102 0 198 -58t167 -156t114 -234t43 -284t-43 -284t-114 -234t-167 -156t-198 -58q-136 0 -256.5 97.5t-193.5 267.5t-73 367t73 367t193.5 267.5t256.5 97.5zM575 1584l54 254h170l-122 -254h-102zM344 1584l54 254h170l-122 -254h-102zM868 784
q-47 171 -130.5 309.5t-175 207t-166.5 49.5t-120 -122.5t-46 -254t45 -331.5q47 -171 130.5 -309.5t175 -207t166.5 -49.5t120 122.5t46 254t-45 331.5z" />
    <glyph glyph-name="ohungarumlaut" unicode="&#x151;" horiz-adv-x="972" 
d="M715 1449l-122 -254h-103l54 254h171zM487 1038q114 0 214.5 -70.5t161.5 -193t61 -265.5t-61 -265t-161.5 -192.5t-214.5 -70.5t-215 70.5t-162 192.5t-61 265t61 265.5t162 193t215 70.5zM609 64q53 14 84.5 86t32.5 177.5t-32 231.5q-50 182 -149.5 299.5t-180.5 96.5
q-53 -14 -84 -86.5t-32 -178t32 -231.5q50 -182 149 -299t180 -96zM483 1449l-121 -254h-103l54 254h170z" />
    <glyph glyph-name="OE" unicode="&#x152;" horiz-adv-x="1822" 
d="M571 1445q94 0 182.5 -48.5t159.5 -135.5v68q0 31 -22.5 54t-54.5 23h-46v21h892l31 -312h-22l-1 5q-35 128 -138 207t-236 79h-119h-2h-2h-2h-2l-2 -1h-2h-2l-2 -1h-2h-1l-2 -1h-2l-2 -1l-2 -1h-1l-2 -1l-2 -1l-1 -1h-2l-2 -1l-1 -1q-1 0 -2 -1t-2 -1l-1 -1l-2 -1l-1 -1
l-2 -1l-1 -2l-1 -1l-2 -1l-1 -1l-1 -2l-2 -1l-1 -1l-1 -2l-1 -1l-2 -1l-1 -2l-1 -1l-1 -2l-1 -1q0 -1 -1 -2t-1 -2l-1 -1l-1 -2v-2l-1 -1l-1 -2l-1 -2v-1l-1 -2l-1 -2v-2l-1 -2v-1v-2l-1 -2v-2v-2l-1 -2v-2v-2v-2v-2v-518h149h1q88 1 151 64t64 151v2h24v-454h-24v2
q-1 88 -64 151t-151 64h-1h-1h-148v-694q0 -31 23 -54t54 -23h146q137 0 255.5 81t152.5 206l1 4h22l-20 -312h-964v21h46q32 0 54.5 23t22.5 54v68q-71 -87 -159 -135.5t-182 -48.5q-136 0 -256.5 97.5t-193.5 267.5t-73 367q0 148 43 284t114 234t167 156t198 58zM912 502
q-5 138 -44 282q-47 171 -130.5 310t-175 207.5t-166.5 49.5t-120 -122.5t-46 -254.5t45 -332q47 -171 130.5 -309.5t175 -207t166.5 -49.5q71 19 115.5 114.5t49.5 237.5v74z" />
    <glyph glyph-name="oe" unicode="&#x153;" horiz-adv-x="1521" 
d="M1411 133l13 -23l8 -14l-91 -53l-19 -11q-84 -45 -174 -45q-94 0 -180 49t-148 135q-62 -88 -150 -139t-183 -51q-114 0 -215 70.5t-162 192.5t-61 265t61 265.5t162 193t215 70.5q94 0 180 -49.5t149 -135.5q63 88 150 139t182 51q129 0 225.5 -81.5t99.5 -208.5
q3 -149 -171 -255q-26 -16 -66.5 -33t-67.5 -29.5t-54.5 -33t-41.5 -53t-14 -79.5q0 -67 43 -116l10 -10q30 -30 50 -44q34 -25 64 -33q27 -8 49 -2q14 4 32 13q30 11 55 28q39 21 50 27zM609 64q61 16 93 107t22 220q-9 45 -12 91q-8 39 -18 77q-50 182 -149.5 299.5
t-180.5 96.5q-53 -14 -84 -86.5t-32 -178t32 -231.5q50 -182 149 -299t180 -96zM1015 280v7q0 58 26 105q13 25 38.5 51.5t51.5 48.5t54 47.5t48.5 55t33.5 65t10 82.5t-23 102q-33 90 -108 120q-76 30 -142 -21q-90 -69 -94 -242q-1 -26 1 -55q0 -2 0.5 -6t0.5 -6
q8 -37 11 -88q8 -42 33 -131l15 -39q18 -48 44 -96z" />
    <glyph glyph-name="Racute" unicode="&#x154;" horiz-adv-x="1208" 
d="M1102 325q24 -23 38.5 -57t18 -70.5t-8 -73.5t-35 -66.5t-66.5 -48t-100 -18.5q-27 0 -63 9q-85 23 -163.5 101t-134 176t-101 212.5t-70.5 204t-37 157.5v-753q0 -32 22.5 -54.5t53.5 -22.5h47v-21h-454v21h46q31 0 53 21.5t24 53.5v2v1232v2q0 5 -2 17
q-7 25 -27.5 41.5t-47.5 16.5h-46v20h501l30 7.5t39.5 8.5t30.5 3q121 0 217.5 -42.5t154 -112t90.5 -159t35 -183.5t-20 -186t-68 -166q-71 -115 -166.5 -156t-190 -8.5t-174.5 125.5q90 -132 190.5 -217.5t192.5 -85.5q125 0 191 70zM383 1095q-1 -78 11 -154
q31 -190 131 -326t210 -138q109 -1 164.5 132t23.5 324q-31 190 -131.5 325.5t-210.5 137.5q-85 1 -139 -82.5t-59 -218.5zM716 1839l-122 -254h-102l54 254h170z" />
    <glyph glyph-name="racute" unicode="&#x155;" horiz-adv-x="956" 
d="M382 893q41 40 87.5 70.5t99 51t109 19.5t106.5 -26q22 -10 45 -28q52 -39 71 -95q7 -22 7 -51q0 -73 -51 -124t-124 -51q-20 0 -30 2q13 88 -17.5 174t-97.5 99q-30 6 -66 -7q-82 -29 -117 -119q-20 -50 -21 -121q0 -10 -0.5 -29t-0.5 -27v-533q0 -16 6 -30
q20 -47 71 -47h1q26 -14 45 -21h-456v21h46q31 0 54 22.5t23 54.5l3 600v220q0 32 -22.5 54.5t-54.5 22.5h-46v20h195q42 0 76.5 -23.5t49.5 -61.5q8 -18 9 -37zM469 1191h-103l54 255h170z" />
    <glyph glyph-name="Rcaron" unicode="&#x158;" horiz-adv-x="1208" 
d="M639 1585h-67l-210 254h141l102 -165l100 165h142zM1102 325q24 -23 38.5 -57t18 -70.5t-8 -73.5t-35 -66.5t-66.5 -48t-100 -18.5q-27 0 -63 9q-85 23 -163.5 101t-134 176t-101 212.5t-70.5 204t-37 157.5v-753q0 -32 22.5 -54.5t53.5 -22.5h47v-21h-454v21h46
q31 0 53 21.5t24 53.5v2v1232v2q0 3 -0.5 5.5t-1.5 6t-1 5.5q-7 25 -27.5 41.5t-46.5 16.5h-46v20h501l30 7.5t39.5 8.5t30.5 3q121 0 217.5 -42.5t154 -112t90.5 -159t35 -183.5t-20 -186t-68 -166q-71 -115 -166.5 -156t-190 -8.5t-174.5 125.5q90 -132 190.5 -217.5
t192.5 -85.5q125 0 191 70zM383 1095q-1 -78 11 -154q31 -190 131 -326t210 -138q109 -1 164.5 132t23.5 324q-31 190 -131.5 325.5t-210.5 137.5q-85 1 -139 -82.5t-59 -218.5z" />
    <glyph glyph-name="rcaron" unicode="&#x159;" horiz-adv-x="956" 
d="M382 893q41 40 87.5 70.5t99 51t109 19.5t106.5 -26q22 -10 45 -28q52 -39 71 -95q7 -22 7 -51q0 -73 -51 -124t-124 -51q-20 0 -30 2q13 88 -17.5 174t-97.5 99q-30 6 -66 -7q-82 -29 -117 -119q-20 -50 -21 -121q0 -10 -0.5 -29t-0.5 -27v-533q0 -16 6 -30
q20 -47 71 -47h1q26 -14 45 -21h-456v21h46q31 0 54 22.5t23 54.5l3 600v220q0 32 -22.5 54.5t-54.5 22.5h-46v20h195q42 0 76.5 -23.5t49.5 -61.5q8 -18 9 -37zM514 1191h-68l-210 255h141l102 -165l100 165h142z" />
    <glyph glyph-name="Sacute" unicode="&#x15a;" horiz-adv-x="1034" 
d="M939 518q92 -152 -6 -325q-12 -21 -15 -26q-23 -34 -48 -58q-46 -45 -109 -74q-91 -43 -215 -51q-96 -6 -181 9q-91 16 -161.5 53t-113.5 93.5t-40.5 137.5t59.5 175v1q83 -202 270 -308q145 -83 286 -76q118 6 159 73q51 84 -56 216q-16 20 -35 40q-64 67 -141.5 134.5
t-175.5 148t-149 124.5q-114 100 -146 183q-18 52 -15.5 107t21.5 104q36 91 111 149.5t161 79.5t186 17q110 -5 213 -73.5t130 -169.5q19 -70 -15 -132t-102 -86q-22 135 -106.5 242t-208.5 137q-71 17 -141 -1.5t-99.5 -69.5t19.5 -136q16 -26 38.5 -54t60 -64.5t61 -59.5
t78.5 -69t72.5 -61t82.5 -68t73 -59q50 -41 75.5 -63t62.5 -62t60 -78zM629 1839l-122 -254h-102l54 254h170z" />
    <glyph glyph-name="sacute" unicode="&#x15b;" horiz-adv-x="864" 
d="M544 1445l-121 -254h-103l54 254h170zM718 465q51 -44 75.5 -98.5t21.5 -107.5t-32.5 -103.5t-79.5 -89t-126 -62t-167 -23.5q-135 0 -250 61q-71 38 -98 107.5t-3 137.5t90 105q41 -77 127.5 -157t183.5 -117q47 -18 86 -22t62.5 4.5t38.5 24.5t13.5 40t-13.5 50
t-41 55.5t-70 55.5q-12 8 -61.5 38t-78 48t-75.5 50.5t-77 58t-59.5 57t-44.5 59.5q-43 81 -33.5 153.5t53.5 126t118.5 85.5t160.5 32q68 0 129 -14t116 -53.5t73 -101.5q15 -62 -24 -116.5t-104 -61.5q-69 171 -190 239q-82 46 -143 24q-50 -19 -45 -71q6 -66 99 -144
q58 -49 185.5 -136t182.5 -134z" />
    <glyph glyph-name="Scedilla" unicode="&#x15e;" horiz-adv-x="1034" 
d="M939 518q92 -152 -6 -325q-12 -21 -15 -26q-23 -34 -48 -58q-46 -45 -109 -74q-49 -23 -102 -35q80 -53 80 -127v-4q0 -1 -0.5 -4t-0.5 -4q-7 -67 -77.5 -114.5t-163.5 -47.5q-65 0 -128 28q-26 13 -29 15q-45 32 -45 83q0 36 24.5 64t62.5 38q-1 -25 11 -58l3 -8l1 -2
q18 -37 49 -66t64 -41q24 -9 45 -6q33 5 48.5 38t2.5 77l-3 8q-4 12 -7 18q-29 62 -87 95q-74 -1 -144 11q-91 16 -161.5 53t-113.5 93.5t-40.5 137.5t59.5 175v1q83 -202 270 -308q145 -83 286 -76q118 6 159 73q51 84 -56 216q-16 20 -35 40q-64 67 -141.5 134.5
t-175.5 148t-149 124.5q-114 100 -146 183q-18 52 -15.5 107t21.5 104q36 91 111 149.5t161 79.5t186 17q110 -5 213 -73.5t130 -169.5q19 -70 -15 -132t-102 -86q-22 135 -106.5 242t-208.5 137q-71 17 -141 -1.5t-99.5 -69.5t19.5 -136q16 -26 38.5 -54t60 -64.5t61 -59.5
t78.5 -69t72.5 -61t82.5 -68t73 -59q50 -41 75.5 -63t62.5 -62t60 -78z" />
    <glyph glyph-name="scedilla" unicode="&#x15f;" horiz-adv-x="864" 
d="M718 465q86 -74 96 -169.5t-56 -177t-188 -116.5q84 -53 84 -130v-4q0 -2 -0.5 -4t-0.5 -3q-7 -67 -77.5 -114.5t-163.5 -47.5q-68 0 -128 27q-26 13 -29 15q-45 32 -45 83q0 36 24.5 64t63.5 38q-2 -28 10 -58l4 -7l1 -3q18 -38 48.5 -67t63.5 -40q24 -9 46 -6
q33 5 48 38.5t2 77.5l-2 7q-3 9 -8 19q-29 62 -87 95q-2 0 -7 -0.5t-7 -0.5q-135 0 -250 61q-71 38 -98 107.5t-3 137.5t90 105q41 -77 127.5 -157t183.5 -117q47 -18 86 -22t62.5 4.5t38.5 24.5t13.5 40t-13.5 50t-41 55.5t-70 55.5q-12 8 -61.5 38t-78 48t-75.5 50.5
t-77 58t-59.5 57t-44.5 59.5q-43 81 -33.5 153.5t53.5 126t118.5 85.5t160.5 32q68 0 129 -14t116 -53.5t73 -101.5q15 -62 -24 -116.5t-104 -61.5q-69 171 -190 239q-82 46 -143 24q-50 -19 -45 -71q6 -66 99 -144q58 -49 185.5 -136t182.5 -134z" />
    <glyph glyph-name="Scaron" unicode="&#x160;" horiz-adv-x="1034" 
d="M552 1585h-68l-210 254h141l102 -165l101 165h141zM939 518q92 -152 -6 -325q-12 -21 -15 -26q-23 -34 -48 -58q-46 -45 -109 -74q-91 -43 -215 -51q-96 -6 -181 9q-91 16 -161.5 53t-113.5 93.5t-40.5 137.5t59.5 175v1q83 -202 270 -308q145 -83 286 -76q118 6 159 73
q51 84 -56 216q-16 20 -35 40q-64 67 -141.5 134.5t-175.5 148t-149 124.5q-114 100 -146 183q-18 52 -15.5 107t21.5 104q36 91 111 149.5t161 79.5t186 17q110 -5 213 -73.5t130 -169.5q19 -70 -15 -132t-102 -86q-22 135 -106.5 242t-208.5 137q-71 17 -141 -1.5
t-99.5 -69.5t19.5 -136q16 -26 38.5 -54t60 -64.5t61 -59.5t78.5 -69t72.5 -61t82.5 -68t73 -59q50 -41 75.5 -63t62.5 -62t60 -78z" />
    <glyph glyph-name="scaron" unicode="&#x161;" horiz-adv-x="864" 
d="M718 465q51 -44 75.5 -98.5t21.5 -107.5t-32.5 -103.5t-79.5 -89t-126 -62t-167 -23.5q-135 0 -250 61q-71 38 -98 107.5t-3 137.5t90 105q41 -77 127.5 -157t183.5 -117q47 -18 86 -22t62.5 4.5t38.5 24.5t13.5 40t-13.5 50t-41 55.5t-70 55.5q-12 8 -61.5 38t-78 48
t-75.5 50.5t-77 58t-59.5 57t-44.5 59.5q-43 81 -33.5 153.5t53.5 126t118.5 85.5t160.5 32q68 0 129 -14t116 -53.5t73 -101.5q15 -62 -24 -116.5t-104 -61.5q-69 171 -190 239q-82 46 -143 24q-50 -19 -45 -71q6 -66 99 -144q58 -49 185.5 -136t182.5 -134zM467 1191h-67
l-210 254h141l102 -165l100 165h142z" />
    <glyph glyph-name="Umacron" unicode="&#x16a;" horiz-adv-x="1267" 
d="M846 1585h-424v111h424v-111zM917 1427h303v-20h-47q-31 0 -53.5 -22.5t-22.5 -54.5v-984q0 -69 -26.5 -127.5t-70.5 -98t-102.5 -69.5t-122 -42.5t-128.5 -16.5t-123 8q-69 12 -130.5 40t-112 70t-80 103.5t-29.5 133.5v983q0 32 -23 54.5t-54 22.5h-46v20h454v-20h-47
q-31 0 -53.5 -22.5t-22.5 -54.5v-992q0 -71 36.5 -126t94.5 -83t128.5 -40.5t141 1.5t128.5 43.5t94.5 85.5t36.5 127v984q0 32 -23 54.5t-54 22.5h-46v20z" />
    <glyph glyph-name="umacron" unicode="&#x16b;" horiz-adv-x="1073" 
d="M748 1191h-423v111h423v-111zM978 20h46v-20h-195q-56 0 -96 39.5t-40 95.5v70q-44 -74 -107.5 -129t-137.5 -79q-126 -41 -218.5 23t-92.5 203v638q0 29 -28.5 37.5t-59.5 2.5v22q60 6 157 39.5t117 70.5l21 1v-839q3 -82 46.5 -117t108.5 -7q61 27 114.5 99.5
t79.5 160.5v530q0 29 -28 37.5t-59 2.5v22q59 6 156 39.5t117 70.5l22 1v-937q0 -31 22.5 -54t54.5 -23z" />
    <glyph glyph-name="Uring" unicode="&#x16e;" horiz-adv-x="1267" 
d="M917 1427h303v-20h-47q-31 0 -53.5 -22.5t-22.5 -54.5v-984q0 -69 -26.5 -127.5t-70.5 -98t-102.5 -69.5t-122 -42.5t-128.5 -16.5t-123 8q-69 12 -130.5 40t-112 70t-80 103.5t-29.5 133.5v983q0 32 -23 54.5t-54 22.5h-46v20h454v-20h-47q-31 0 -53.5 -22.5
t-22.5 -54.5v-992q0 -71 36.5 -126t94.5 -83t128.5 -40.5t141 1.5t128.5 43.5t94.5 85.5t36.5 127v984q0 32 -23 54.5t-54 22.5h-46v20zM717 1365q-79 0 -135 56t-56 135t56 134.5t135 55.5t135 -55.5t56 -134.5t-56 -135t-135 -56zM717 1684q-53 0 -90.5 -37.5t-37.5 -90.5
t37.5 -91t90.5 -38t90.5 38t37.5 91t-37.5 90.5t-90.5 37.5z" />
    <glyph glyph-name="uring" unicode="&#x16f;" horiz-adv-x="1073" 
d="M543 971q-79 0 -135 56t-56 135t56 134.5t135 55.5t135 -55.5t56 -134.5t-56 -135t-135 -56zM543 1290q-53 0 -90.5 -37.5t-37.5 -90.5t37.5 -90.5t90.5 -37.5t90.5 37.5t37.5 90.5t-37.5 90.5t-90.5 37.5zM978 20h46v-20h-195q-56 0 -96 39.5t-40 95.5v70
q-44 -74 -107.5 -129t-137.5 -79q-126 -41 -218.5 23t-92.5 203v638q0 29 -28.5 37.5t-59.5 2.5v22q60 6 157 39.5t117 70.5l21 1v-839q3 -82 46.5 -117t108.5 -7q61 27 114.5 99.5t79.5 160.5v530q0 29 -28 37.5t-59 2.5v22q59 6 156 39.5t117 70.5l22 1v-937
q0 -31 22.5 -54t54.5 -23z" />
    <glyph glyph-name="Uhungarumlaut" unicode="&#x170;" horiz-adv-x="1267" 
d="M917 1427h303v-20h-47q-31 0 -53.5 -22.5t-22.5 -54.5v-984q0 -69 -26.5 -127.5t-70.5 -98t-102.5 -69.5t-122 -42.5t-128.5 -16.5t-123 8q-69 12 -130.5 40t-112 70t-80 103.5t-29.5 133.5v983q0 32 -23 54.5t-54 22.5h-46v20h454v-20h-47q-31 0 -53.5 -22.5
t-22.5 -54.5v-992q0 -71 36.5 -126t94.5 -83t128.5 -40.5t141 1.5t128.5 43.5t94.5 85.5t36.5 127v984q0 32 -23 54.5t-54 22.5h-46v20zM862 1839l-122 -254h-102l54 254h170zM631 1839l-122 -254h-102l54 254h170z" />
    <glyph glyph-name="uhungarumlaut" unicode="&#x171;" horiz-adv-x="1073" 
d="M533 1445l-122 -254h-102l54 254h170zM764 1445l-122 -254h-102l54 254h170zM978 20h46v-20h-195q-56 0 -96 39.5t-40 95.5v70q-44 -74 -107.5 -129t-137.5 -79q-126 -41 -218.5 23t-92.5 203v638q0 29 -28.5 37.5t-59.5 2.5v22q60 6 157 39.5t117 70.5l21 1v-839
q3 -82 46.5 -117t108.5 -7q61 27 114.5 99.5t79.5 160.5v530q0 29 -28 37.5t-59 2.5v22q59 6 156 39.5t117 70.5l22 1v-937q0 -31 22.5 -54t54.5 -23z" />
    <glyph glyph-name="Uogonek" unicode="&#x172;" horiz-adv-x="1267" 
d="M917 1427h303v-20h-47q-31 0 -53.5 -22.5t-22.5 -54.5v-984q0 -83 -38 -150.5t-101 -109t-138 -65t-156 -28.5q-32 -12 -62 -40.5t-47 -65.5q-3 -6 -7 -18l-2 -8q-13 -44 2 -77t48 -38q22 -3 46 6q33 11 63.5 40t48.5 67l1 2l3 8q12 33 11 58q38 -10 62.5 -38t24.5 -64
q0 -51 -45 -83q-3 -2 -29 -15q-63 -28 -127 -28q-93 0 -164 47.5t-78 114.5v8l-1 4q0 79 88 132q-65 14 -122.5 42.5t-104.5 70.5t-74 101t-27 128v983q0 32 -23 54.5t-54 22.5h-46v20h454v-20h-47q-31 0 -53.5 -22.5t-22.5 -54.5v-992q0 -71 36.5 -126t94.5 -83
t128.5 -40.5t141 1.5t128.5 43.5t94.5 85.5t36.5 127v984q0 32 -23 54.5t-54 22.5h-46v20z" />
    <glyph glyph-name="uogonek" unicode="&#x173;" horiz-adv-x="1073" 
d="M716 -132l-3 -7q-13 -44 2 -77.5t48 -38.5q22 -3 46 6q33 11 63.5 40t48.5 67l2 3l3 7q12 33 11 58q38 -10 62.5 -38t24.5 -64q0 -51 -45 -83q-3 -2 -29 -15q-60 -27 -128 -27q-93 0 -163.5 47.5t-77.5 114.5q0 1 -0.5 3t-0.5 4v4q0 54 44.5 99t113.5 64q-45 42 -45 100
v70q-44 -74 -107.5 -129t-137.5 -79q-126 -41 -218.5 23t-92.5 203v638q0 29 -28.5 37.5t-59.5 2.5v22q60 6 157 39.5t117 70.5l21 1v-839q3 -82 46.5 -117t108.5 -7q61 27 114.5 99.5t79.5 160.5v530q0 29 -28 37.5t-59 2.5v22q59 6 156 39.5t117 70.5l22 1v-937
q0 -31 22.5 -54t54.5 -23h46v-20h-162q-38 -4 -78 -35.5t-61 -77.5q-2 -4 -7 -19z" />
    <glyph glyph-name="Ydieresis" unicode="&#x178;" horiz-adv-x="1146" 
d="M193 1292q-22 67 -55.5 90t-88.5 25v20h484v-20q-37 1 -61 -6t-42 -32q-27 -36 -13 -80l239 -683l240 683q15 47 -10 80q-28 38 -97 38v20h309v-21q-51 -2 -83 -27t-53 -94l-170 -496l-84 -245l-27 -78v-368q0 -32 22.5 -54.5t54.5 -22.5h46v-21h-453v21h46q31 0 54 22.5
t23 54.5v367zM461 1757q36 0 61 -25t25 -61q0 -35 -25 -60.5t-61 -25.5t-61 25.5t-25 60.5q0 36 25 61t61 25zM686 1757q36 0 61 -25t25 -61q0 -35 -25 -60.5t-61 -25.5q-35 0 -60.5 25.5t-25.5 60.5q0 36 25 61t61 25z" />
    <glyph glyph-name="Zacute" unicode="&#x179;" horiz-adv-x="946" 
d="M466 21q136 0 255 80.5t153 205.5l1 4h22l-20 -311h-828l591 1407h-175q-133 0 -236 -79.5t-138 -207.5l-1 -4h-22l31 311h775l-591 -1406h183zM463 1585h-102l54 254h170z" />
    <glyph glyph-name="zacute" unicode="&#x17a;" horiz-adv-x="837" 
d="M531 1445l-122 -254h-102l54 254h170zM411 20q289 0 355 245h22l-17 -265h-722l503 995h-61q-43 0 -81 0.5t-73 -4t-65 -12.5t-56.5 -24.5t-48.5 -41.5t-40.5 -62.5t-31.5 -87.5h-22l16 252h699l-502 -995h125z" />
    <glyph glyph-name="Zdot" unicode="&#x17b;" horiz-adv-x="946" 
d="M466 21q136 0 255 80.5t153 205.5l1 4h22l-20 -311h-828l591 1407h-175q-133 0 -236 -79.5t-138 -207.5l-1 -4h-22l31 311h775l-591 -1406h183zM387 1671q0 36 25 61t61 25q35 0 60.5 -25t25.5 -61q0 -35 -25.5 -60.5t-60.5 -25.5q-36 0 -61 25.5t-25 60.5z" />
    <glyph glyph-name="zdot" unicode="&#x17c;" horiz-adv-x="837" 
d="M419 1191q-35 0 -60.5 25t-25.5 61q0 35 25 60.5t61 25.5t61 -25.5t25 -60.5q0 -36 -25 -61t-61 -25zM411 20q289 0 355 245h22l-17 -265h-722l503 995h-61q-43 0 -81 0.5t-73 -4t-65 -12.5t-56.5 -24.5t-48.5 -41.5t-40.5 -62.5t-31.5 -87.5h-22l16 252h699l-502 -995
h125z" />
    <glyph glyph-name="Zcaron" unicode="&#x17d;" horiz-adv-x="946" 
d="M466 21q136 0 255 80.5t153 205.5l1 4h22l-20 -311h-828l591 1407h-175q-133 0 -236 -79.5t-138 -207.5l-1 -4h-22l31 311h775l-591 -1406h183zM574 1839h142l-208 -254h-67l-211 254h142l102 -165z" />
    <glyph glyph-name="zcaron" unicode="&#x17e;" horiz-adv-x="837" 
d="M454 1191h-68l-210 254h141l102 -165l101 165h141zM411 20q289 0 355 245h22l-17 -265h-722l503 995h-61q-43 0 -81 0.5t-73 -4t-65 -12.5t-56.5 -24.5t-48.5 -41.5t-40.5 -62.5t-31.5 -87.5h-22l16 252h699l-502 -995h125z" />
    <glyph glyph-name="florin" unicode="&#x192;" horiz-adv-x="1134" 
d="M1044 1651q37 -44 41.5 -104.5t-29.5 -106.5t-97 -46q-51 0 -87.5 36.5t-36.5 87.5q0 58 46 96q-5 10 -11 19q-36 52 -94 60t-102 -35t-41 -122q2 -58 25.5 -120t62.5 -109h98h109l-2 -51h-218q-16 -20 -17 -45q-15 -340 -36 -722q0 -8 -15 -311q-4 -103 -52.5 -178
t-127.5 -111q-52 -24 -118 -27.5t-127 11.5t-107.5 56.5t-56.5 101.5q-11 62 23 110q36 56 104 56q51 0 87.5 -36.5t36.5 -87.5q0 -57 -45 -95q2 -4 8 -12q27 -39 69 -53t79.5 -2.5t64 51.5t24.5 100q-3 100 -65 195l13 282q8 171 29 571l5 101q2 32 -20 54.5t-53 22.5h-47
l1 21h124l6 112q4 103 52 177.5t127 110.5q55 26 125.5 29.5t138 -19t106.5 -68.5z" />
    <glyph glyph-name="circumflex" unicode="&#x2c6;" horiz-adv-x="659" 
d="M611 1489h-150l-130 227l-132 -227h-150l211 350h144z" />
    <glyph glyph-name="caron" unicode="&#x2c7;" horiz-adv-x="659" 
d="M461 1839h150l-207 -350h-144l-211 350h150l132 -227z" />
    <glyph glyph-name="breve" unicode="&#x2d8;" horiz-adv-x="710" 
d="M538 1839h120q3 -21 3 -44q0 -127 -89.5 -216.5t-216.5 -89.5t-216.5 89.5t-89.5 216.5q0 23 3 44h121q-6 -28 -6 -44q0 -78 55 -133t133 -55t133 55t55 133q0 21 -5 44z" />
    <glyph glyph-name="dotaccent" unicode="&#x2d9;" horiz-adv-x="335" 
d="M168 1546q-49 0 -84 34.5t-35 83.5t35 84t84 35t83.5 -35t34.5 -84t-34.5 -83.5t-83.5 -34.5z" />
    <glyph glyph-name="ogonek" unicode="&#x2db;" horiz-adv-x="710" 
d="M302 -291q29 -5 63 8q46 16 89 56t66 91l1 4l5 11q16 40 14 80q53 -14 87 -53.5t34 -88.5q0 -69 -62 -113q-20 -14 -40 -22q-80 -37 -176 -37q-128 0 -226 65t-107 158q0 2 -0.5 5.5t-0.5 5.5v5q0 79 67.5 142t169.5 86q49 11 97 11q37 0 72 -6l-18 -58q-52 -5 -107 -49
t-84 -106q-3 -5 -10 -25l-4 -11q-17 -60 3.5 -106t66.5 -53z" />
    <glyph glyph-name="ilde" unicode="&#x2dc;" horiz-adv-x="739" 
d="M679 1444l11 -8q-20 -69 -45.5 -121t-50 -79t-49 -44t-45 -20t-37 -2.5t-25.5 4.5l-9 4l-153 86q-18 11 -47 17t-62.5 6t-63 -19t-41.5 -56l-13 8q20 71 46 124t50.5 80t49.5 43.5t46 18.5t37 0.5t26 -6.5l9 -4l153 -85q18 -11 47 -17.5t62 -5.5t62.5 20t41.5 56z" />
    <glyph glyph-name="Deltagreek" unicode="&#x394;" horiz-adv-x="1130" 
d="M631 1427l450 -1427h-1032l424 1427h158zM549 1274q-24 -153 -72 -336t-126 -438.5t-100 -331.5h614z" />
    <glyph glyph-name="Pi" unicode="&#x3a0;" horiz-adv-x="972" 
d="M921 0h-174l3 1308h-524l-3 -1308h-174l3 1427h872z" />
    <glyph glyph-name="Sigma" unicode="&#x3a3;" horiz-adv-x="903" 
d="M359 714l-310 713h773l31 -311h-22l-1 4q-35 128 -138 207.5t-236 79.5h-175l303 -693l-303 -693h175q133 0 236 79t138 207l1 4h22l-31 -311h-773z" />
    <glyph glyph-name="Omegagreek" unicode="&#x3a9;" horiz-adv-x="1165" 
d="M49 743q0 142 45 273t118.5 224.5t171 149.5t199.5 56t199.5 -56t171 -149.5t118.5 -224.5t45 -273q0 -237 -114 -425.5t-283 -251.5v-45q133 0 236.5 79t137.5 207l1 4h22l-31 -311h-457v74q107 35 183.5 223.5t75.5 437.5q-1 182 -45.5 341t-115.5 251t-148 92
t-147 -87.5t-112.5 -243t-41.5 -337.5q1 -245 77.5 -436.5t181.5 -236.5v-35l-1 -43h-456l-31 311h22l1 -4q34 -128 137.5 -207t236.5 -79v45q-169 63 -283 251.5t-114 425.5z" />
    <glyph glyph-name="mugreek" unicode="&#x3bc;" horiz-adv-x="1107" 
d="M380 600v-406q3 -82 46 -117t108 -7q61 27 114.5 99t79.5 160v530q0 29 -28 37.5t-59 2.5v23q60 6 156.5 39t116.5 70l22 1v-936q0 -32 23 -54.5t54 -22.5h46v-21h-195q-56 0 -95.5 39.5t-39.5 95.5v71q-44 -74 -108.5 -129.5t-137.5 -79.5q-50 -17 -103 -15v-294
q0 -32 22.5 -54.5t53.5 -22.5h47v-21h-454v21h46q31 0 54 22.5t23 54.5v1173q0 29 -28.5 37.5t-59.5 2.5v23q60 6 157 39t117 70l22 1v-432z" />
    <glyph glyph-name="pi" unicode="&#x3c0;" horiz-adv-x="1124" 
d="M1075 1016v-99h-136v-917h-162v917h-395v-917h-162v917h-171v99h1026z" />
    <glyph glyph-name="endash" unicode="&#x2013;" horiz-adv-x="872" 
d="M824 814v-112h-775v112h775z" />
    <glyph glyph-name="emdash" unicode="&#x2014;" horiz-adv-x="1011" 
d="M963 814v-112h-914v112h914z" />
    <glyph glyph-name="quoteleft" unicode="&#x2018;" horiz-adv-x="335" 
d="M168 1116q-49 0 -84 34.5t-35 83.5q0 64 28 116t74 77q33 19 71 19q23 0 47 -8q-5 -3 -15 -11q-42 -32 -59 -77q39 -9 65 -41.5t26 -74.5q0 -49 -34.5 -83.5t-83.5 -34.5z" />
    <glyph glyph-name="quoteright" unicode="&#x2019;" horiz-adv-x="335" 
d="M286 1327q0 -88 -50.5 -149.5t-121.5 -61.5q-24 0 -48 8q52 31 74 88q-39 9 -65 41t-26 74q0 65 55 100q28 19 64 19q34 0 63 -19q55 -35 55 -100z" />
    <glyph glyph-name="quotesinglbase" unicode="&#x201a;" horiz-adv-x="352" 
d="M192 0h-143l30 337h223z" />
    <glyph glyph-name="quoteleftreversed" unicode="&#x201b;" horiz-adv-x="352" 
d="M302 1106h-143l-110 337h223z" />
    <glyph glyph-name="quotedblleft" unicode="&#x201c;" horiz-adv-x="655" 
d="M488 1116q-49 0 -84 34.5t-35 83.5q0 88 51 150t122 62q23 0 47 -8q-52 -31 -74 -88q39 -9 65 -41.5t26 -74.5q0 -49 -34.5 -83.5t-83.5 -34.5zM286 1234q0 -49 -34.5 -83.5t-83.5 -34.5t-84 34.5t-35 83.5q0 88 51 150t122 62q23 0 47 -8q-52 -31 -74 -88
q39 -9 65 -41.5t26 -74.5z" />
    <glyph glyph-name="quotedblright" unicode="&#x201d;" horiz-adv-x="655" 
d="M168 1446q49 0 83.5 -35t34.5 -84q0 -88 -50.5 -149.5t-121.5 -61.5q-24 0 -48 8q52 31 74 88q-39 9 -65 41t-26 74q0 49 35 84t84 35zM369 1327q0 49 35 84t84 35t83.5 -35t34.5 -84q0 -88 -50.5 -149.5t-121.5 -61.5q-24 0 -48 8q52 31 74 88q-39 9 -65 41t-26 74z" />
    <glyph glyph-name="quotedblbase" unicode="&#x201e;" horiz-adv-x="655" 
d="M168 219q49 0 83.5 -35t34.5 -84q0 -88 -50.5 -149.5t-121.5 -61.5q-24 0 -48 8q52 31 74 88q-39 9 -65 41t-26 74q0 49 35 84t84 35zM369 100q0 49 35 84t84 35t83.5 -35t34.5 -84q0 -88 -50.5 -149.5t-121.5 -61.5q-24 0 -48 8q52 31 74 88q-39 9 -65 41t-26 74z" />
    <glyph glyph-name="dagger" unicode="&#x2020;" horiz-adv-x="937" 
d="M405 1427v412h127v-412h356v-127h-356v-1730h-127v1730h-356v127h356z" />
    <glyph glyph-name="daggerdbl" unicode="&#x2021;" horiz-adv-x="937" 
d="M405 1427v412h127v-412h356v-127h-356v-425h356v-127h-356v-1178h-127v1178h-356v127h356v425h-356v127h356z" />
    <glyph glyph-name="bullet" unicode="&#x2022;" horiz-adv-x="454" 
d="M49 792q0 74 52.5 126t125.5 52t125.5 -52t52.5 -126t-52.5 -126t-125.5 -52t-125.5 52t-52.5 126z" />
    <glyph glyph-name="ellipsis" unicode="&#x2026;" horiz-adv-x="944" 
d="M168 241q49 0 83.5 -34.5t34.5 -83.5t-34.5 -84t-83.5 -35t-84 35t-35 84t35 83.5t84 34.5zM473 4q-49 0 -83.5 35t-34.5 84t34.5 83.5t83.5 34.5t84 -34.5t35 -83.5t-35 -84t-84 -35zM777 237q49 0 84 -34.5t35 -83.5t-35 -84t-84 -35t-83.5 35t-34.5 84t34.5 83.5
t83.5 34.5z" />
    <glyph glyph-name="perthousand" unicode="&#x2030;" horiz-adv-x="2512" 
d="M716 1043q0 -165 -100 -284t-233 -119t-233.5 119t-100.5 284t100.5 284t233.5 119t233 -119t100 -284zM464 749q54 14 71.5 109t-15.5 218q-33 120 -99 197.5t-119 63.5q-54 -14 -71.5 -109t15.5 -218q33 -120 99 -197.5t119 -63.5zM1020 1427h178l-484 -1427h-178z
M1352 787q133 0 233.5 -119t100.5 -284t-100.5 -283.5t-233.5 -118.5t-233 118.5t-100 283.5t100 284t233 119zM1433 90q54 14 71.5 109t-15.5 218q-33 121 -99 198.5t-119 63.5q-54 -14 -71.5 -109.5t15.5 -218.5q33 -120 99 -197.5t119 -63.5zM2131 787q133 0 233.5 -119
t100.5 -284q0 -132 -67.5 -238.5t-169.5 -145.5q-46 -18 -97 -18t-97 18q-102 39 -169 145.5t-67 238.5q0 165 100 284t233 119zM2212 90q54 14 71.5 109t-15.5 218q-33 121 -99 198.5t-119 63.5q-54 -14 -71.5 -109.5t15.5 -218.5q33 -120 99 -197.5t119 -63.5z" />
    <glyph glyph-name="guilsinglleft" unicode="&#x2039;" horiz-adv-x="544" 
d="M271 1016h224l-221 -508l221 -508h-224l-222 508z" />
    <glyph glyph-name="guilsinglright" unicode="&#x203a;" horiz-adv-x="544" 
d="M49 1016h224l222 -508l-222 -508h-224l221 508z" />
    <glyph glyph-name="fraction" unicode="&#x2044;" horiz-adv-x="759" 
d="M711 1427l-484 -1427h-178l484 1427h178z" />
    <glyph glyph-name="Euro" unicode="&#x20ac;" horiz-adv-x="978" 
d="M224 930q53 224 196.5 370t312.5 146q101 0 196 -55v-158q-43 87 -95 135.5t-106 49.5q-95 1 -176.5 -137t-110.5 -351h258v-103h-268q-3 -51 -3 -105q0 -43 6 -121h265v-104h-253q34 -211 116 -349t175 -139q105 0 192 165v-137q-95 -55 -196 -55q-168 0 -312 145.5
t-197 369.5h-175v104h157q-7 65 -7 113t7 113h-157v103h175z" />
    <glyph glyph-name="trademark" unicode="&#x2122;" horiz-adv-x="1566" 
d="M60 2131h591l11 -176h-12l-1 2q-20 75 -69 118.5t-122 43.5q-18 0 -31 -12.5t-13 -30.5v-696q0 -18 13 -30.5t31 -12.5h26v-12h-256v12h26q18 0 30.5 12.5t12.5 30.5v696q0 18 -12.5 30.5t-30.5 12.5q-73 0 -122.5 -43.5t-69.5 -118.5v-2h-13zM1448 2076v-696
q0 -18 13 -30.5t31 -12.5h26v-12h-277v12h26q18 0 30.5 12.5t12.5 30.5v628l-208 -533l-2 -5l-51 -131l-52 131l-2 5h1l-5 11l-206 522v-628q0 -18 12.5 -30.5t30.5 -12.5h26v-12h-170v12h26q18 0 30.5 12.5t12.5 30.5v696q0 18 -12.5 30.5t-30.5 12.5h-26v12h201l44 -113h1
l48 -120l118 -308l8 -19l7 19l161 409l38 97l14 35h194v-12h-26q-18 0 -31 -12.5t-13 -30.5z" />
    <glyph glyph-name="partialdiff" unicode="&#x2202;" horiz-adv-x="1075" 
d="M189 1270q45 83 131.5 129t185.5 46q109 0 199.5 -41t152 -112t102 -164.5t56 -198.5t8.5 -214q-13 -197 -96.5 -367t-210 -267.5t-262.5 -97.5q-106 0 -195 60t-143 158q-48 87 -62 186t3.5 190t60 176.5t103 148t139 100t161.5 37.5q99 0 183.5 -52.5t139.5 -140.5
q22 132 13 244q-8 98 -49.5 170t-113 100t-169.5 -19q-123 -60 -238 -236l-33 -55q-60 22 -79 92.5t13 127.5zM284 561q-60 -175 -44.5 -324.5t97.5 -171.5q61 -16 141.5 52t146.5 190q39 74 67 154q40 120 46 230t-20.5 181t-78.5 85q-79 21 -186.5 -96.5t-168.5 -299.5z
" />
    <glyph glyph-name="minus" unicode="&#x2212;" horiz-adv-x="872" 
d="M824 755v-112h-775v112h775z" />
    <glyph glyph-name="radical" unicode="&#x221a;" horiz-adv-x="831" 
d="M783 1427l-359 -1427h-133l-242 714h133l166 -489l302 1202h133z" />
    <glyph glyph-name="infinity" unicode="&#x221e;" horiz-adv-x="1097" 
d="M459 738v2v1q2 48 -51.5 80t-129.5 20t-135 -60.5t-61 -96.5t52 -80t130 -20q74 12 132 59.5t63 94.5zM758 884q-104 -19 -183 -86.5t-80 -131.5q-1 -65 74.5 -104.5t179.5 -20.5t182.5 86t79.5 132t-74 104.5t-179 20.5zM271 995q64 0 119 -52t83 -125q31 108 103 175.5
t177 67.5q118 0 206.5 -95t88.5 -253t-88.5 -253.5t-206.5 -95.5q-105 0 -177 67.5t-103 175.5q-28 -73 -83 -125t-119 -52q-90 0 -156 87.5t-66 195.5t66 195t156 87z" />
    <glyph glyph-name="integral" unicode="&#x222b;" horiz-adv-x="1155" 
d="M655 197q-4 -82 -5.5 -121.5t-2.5 -53t-1 -19t-1.5 -33.5t-4.5 -83q-4 -103 -52.5 -178t-127.5 -111q-52 -24 -118 -27.5t-127 11.5t-107.5 56.5t-56.5 101.5q-11 62 23 110q36 56 104 56q51 0 87.5 -36.5t36.5 -87.5q0 -57 -45 -95q2 -4 8 -12q27 -39 69 -53t79.5 -2.5
t64 51.5t24.5 100q-3 100 -65 195l13 281q2 44 6.5 130t6.5 127v4q2 40 17.5 338t20.5 382q4 82 5.5 121.5t2.5 53t1 19t1.5 33.5t4.5 83q4 103 52 178t127 111q52 24 118 27.5t127 -11.5t107.5 -56.5t56.5 -101.5q11 -61 -23 -109q-37 -57 -103 -57q-51 0 -87.5 36.5
t-36.5 87.5q0 57 45 95q-4 7 -8 13q-36 52 -94 60t-102 -35t-41 -122q3 -100 65 -195l-14 -281q-3 -55 -13.5 -264.5t-14.5 -283.5q-14 -282 -22 -433z" />
    <glyph glyph-name="approxequal" unicode="&#x2248;" horiz-adv-x="739" 
d="M466 927q18 -11 47.5 -17.5t62 -5.5t62 20.5t41.5 56.5l11 -8q-20 -69 -45.5 -121t-50 -79t-49 -44t-45 -20t-37 -2.5t-25.5 4.5l-9 4l-153 85q-18 11 -47 17.5t-62.5 6t-63 -19t-41.5 -55.5l-13 7q20 71 46 124t50.5 80.5t49.5 43.5t46 18t37 1t26 -5l9 -5zM466 625
q18 -11 47 -17.5t62 -5.5t62.5 20t41.5 56l12 -7q-20 -69 -45.5 -121t-50 -79.5t-49.5 -44t-45.5 -19.5t-37 -2.5t-25.5 3.5l-9 4l-153 86q-18 11 -47 17t-62.5 6t-63 -19t-41.5 -56l-13 8q20 71 46 124t50.5 80t49.5 43.5t46 18.5t37 0.5t26 -6.5l9 -4z" />
    <glyph glyph-name="notequal" unicode="&#x2260;" horiz-adv-x="755" 
d="M366 493l-85 -251h-125l85 251h-192v112h230l74 218h-304v111h341l86 251h125l-85 -251h191v-111h-229l-74 -218h303v-112h-341z" />
    <glyph glyph-name="lessequal" unicode="&#x2264;" horiz-adv-x="866" 
d="M816 347v-103h-767v103h767zM816 1103l-551 -303l551 -303l-50 -91l-609 335l-108 59l108 59l609 335z" />
    <glyph glyph-name="greaterequal" unicode="&#x2265;" horiz-adv-x="866" 
d="M49 244v103h767v-103h-767zM601 800l-552 303l50 91l609 -335l108 -59l-108 -59l-609 -335l-50 91z" />
    <glyph glyph-name="lozenge" unicode="&#x25ca;" horiz-adv-x="931" 
d="M567 1427l316 -713l-316 -714h-221l-297 714l297 713h221zM188 714l264 -636l292 636l-292 635z" />
    <glyph glyph-name="Q.alt1" unicode="&#xf001;" horiz-adv-x="1144" 
d="M939 210q146 -102 154 -231q5 -68 -17.5 -117.5t-61 -73t-83.5 -30.5t-88.5 6t-72.5 40q118 125 35 268q-111 -81 -233 -81q-136 0 -256.5 97.5t-193.5 267.5t-73 367t73 367t193.5 267.5t256.5 97.5q102 0 198 -58t167 -156t114 -234t43 -284q0 -146 -41 -278.5
t-114 -234.5zM396 1361q-75 -19 -120 -122.5t-46 -254.5t45 -332q31 -116 90 -235q331 -66 516 -170q34 96 32 244t-45 304q-47 171 -130.5 309.5t-175 207t-166.5 49.5zM747 86q19 4 38 17q-60 82 -170 152t-223 110q82 -145 179.5 -222.5t175.5 -56.5z" />
    <glyph glyph-name="A.alt1" unicode="&#xf002;" horiz-adv-x="1277" 
d="M1085 135q22 -67 55 -89.5t88 -24.5v-21h-484v20q37 -1 61 6t42 32q28 37 14 80l-80 283h-327q-119 0 -151 -99l-5 -20l-46 -164q-15 -48 9 -80q28 -38 97 -38v-20h-309v21q51 2 83 27t53 94l320 1131q14 51 -15.5 92.5t-81.5 41.5h-71v20h377l7 -20zM750 515l-193 696
l-220 -770h359q29 0 45.5 23t8.5 51z" />
    <glyph glyph-name="K.alt1" unicode="&#xf003;" horiz-adv-x="1273" 
d="M804 1427h308v-20h-31q-43 0 -78 -21.5t-54 -59.5l-265 -522l360 -675q28 -52 75 -80t105 -28v-21h-496v21h29q37 0 56 32t2 65l-245 459l-294 -577h-227v21h46q31 0 54 22.5t23 54.5v1232q0 32 -23 54.5t-54 22.5h-46v20h454v-20h-47q-31 0 -53.5 -22.5t-22.5 -54.5
v-1002l506 998q14 27 -2 54t-47 27h-33v20z" />
    <glyph glyph-name="L.alt1" unicode="&#xf004;" horiz-adv-x="522" 
d="M380 98v-95q70 -22 163 -62t168 -77t163 -71t160 -50.5t147 -8t134 49.5q103 72 117 166q56 -9 97 -44.5t54.5 -83.5t7 -98.5t-46.5 -96t-105 -68.5q-135 -48 -338 32q-66 26 -174 86.5t-209 117.5t-212 109.5t-220 74.5t-197 1q-5 -1 -18.5 -4t-21.5 -5v37q17 6 51 14v0
q7 2 21 4q23 8 37 28t14 44v1233q0 31 -22.5 53.5t-54.5 22.5h-46v21h454v-21h-47q-32 0 -54 -22.5t-22 -53.5v-1233z" />
    <glyph glyph-name="S.alt1" unicode="&#xf005;" horiz-adv-x="1034" 
d="M834 1343q42 34 66 98q53 -52 72.5 -109t7.5 -105t-47 -86q-56 -61 -145 -67q-14 -1 -42 1q-38 4 -74 16t-73 34.5t-63 40.5t-67 50t-62 47q-66 43 -104.5 40t-53.5 -41l-2 3q-9 -47 28 -109q13 -20 30 -42.5t41.5 -48t45 -46.5t54.5 -51t55 -49t61.5 -52.5t59 -49
t62 -51t57.5 -46.5q50 -41 75.5 -63t62.5 -62t60 -78q92 -152 -6 -324q-12 -21 -15 -26q-23 -34 -48 -58q-46 -45 -109 -74q-93 -44 -215 -52q-96 -6 -181 9q-72 13 -132.5 38.5t-104.5 66.5t-65 92.5t-10.5 119t56.5 143.5q83 -202 270 -308q145 -83 286 -75q119 6 159 73
q51 85 -57 218q-15 19 -34 38q-64 67 -141.5 134.5t-175.5 148t-149 124.5q-114 100 -146 183q-18 52 -15.5 107t21.5 104q36 88 107 147q85 69 208 90l4 -5q45 -35 92 -61.5t100.5 -46t105 -15.5t90.5 35z" />
    <glyph glyph-name="O.alt1" unicode="&#xf006;" horiz-adv-x="1144" 
d="M572 1446q102 0 198 -58t167 -156t114 -234t43 -284t-43 -284t-114 -234t-167 -156t-198 -58q-99 0 -193 55.5t-165 149t-115.5 224.5t-48.5 274q0 4 -0.5 14t-0.5 15q0 32 1 48q16 111 97 157q-29 63 -15.5 141.5t60.5 149.5q59 88 137 148q116 88 243 88zM747 77
q75 19 120 122.5t46 254t-45 331.5q-47 171 -130.5 309.5t-175 207t-166.5 49.5q-52 -13 -83 -55.5t-38 -96.5t6 -114.5t42 -110.5t78.5 -84t107.5 -35q-55 -50 -130.5 -58t-139.5 29q11 -88 36 -183q13 -50 32 -100q81 -223 209 -358t231 -108z" />
    <glyph glyph-name="ct.dlig" unicode="&#xf007;" horiz-adv-x="1554" 
d="M537 1036q-45 61 -49 134.5t25.5 134t91.5 101.5t139 41q64 0 118 -27.5t86.5 -73.5t47 -100.5t1.5 -113.5t-53 -107q102 24 176 101.5t100 184.5h31l-1 -295h255v-49h-255l-2 -775q0 -70 45 -106.5t105 -32.5t107 40v-40q-47 -29 -106 -48t-122 -21.5t-115.5 14.5
t-86.5 68t-34 130v771h-160v54q57 46 73 113.5t-5 126.5t-76 101.5t-129 42.5q-67 0 -119 -35.5t-76.5 -87t-20 -113.5t43.5 -112q17 -23 36.5 -35.5t44.5 -24.5t42 -24q61 -43 83 -114t-3.5 -142.5t-92.5 -113.5q-32 98 -84.5 183.5t-116 135t-117.5 35.5
q-53 -14 -84 -86.5t-32 -178t32 -231.5q34 -123 93.5 -221t125.5 -144q68 -47 113 -35q38 10 137 68l22 -37q-9 -5 -44.5 -26t-47 -27.5t-41.5 -21t-48.5 -19.5t-46.5 -10t-56 -5q-114 0 -215 70.5t-162 192.5t-61 265q0 165 80.5 300t204.5 193q102 48 203 32z" />
    <glyph glyph-name="ft.dlig" unicode="&#xf008;" horiz-adv-x="1290" 
d="M177 977v153q0 102 45 177t122 111q50 24 116 27.5t128 -11.5t110 -56.5t61 -101.5q12 -56 -13.5 -102t-77.5 -58.5t-127 26.5q35 54 34 106.5t-32 93.5q-39 52 -97 60t-100 -35t-36 -122q5 -58 32 -120.5t70 -110.5h204q123 4 216 88t123 207h31v-34l-1 -261h255v-49
h-255l-2 -775q1 -86 64.5 -120.5t143.5 -5.5q27 10 49 27v-40q-113 -70 -260 -70q-33 0 -65.5 9.5t-65.5 31.5t-53.5 66.5t-20.5 105.5v771h-159h-236v-869q0 -32 22 -54t54 -22h47v-21h-454v21h46q32 0 54.5 22.5t22.5 53.5q0 146 5 881z" />
    <glyph glyph-name="tt.dlig" unicode="&#xf009;" horiz-adv-x="1327" 
d="M419 1276v-1l-1 -261h236q123 4 216 88t123 207h31v-34l-1 -261h255v-49h-255l-2 -775q1 -86 64 -120.5t143 -5.5q29 10 50 27v-40q-113 -70 -260 -70q-33 0 -65.5 9.5t-65.5 31.5t-53.5 66.5t-20.5 105.5v771h-395l-2 -775q1 -86 64.5 -120.5t143.5 -5.5q27 10 49 27
v-40q-113 -70 -260 -70q-33 0 -65.5 9.5t-65.5 31.5t-53.5 66.5t-20.5 105.5v771h-159v50q121 4 215 86.5t124 207.5h31v-33z" />
    <glyph glyph-name="LI.dlig" unicode="&#xf00a;" horiz-adv-x="1200" 
d="M1127 307l1 5h22l-19 -312h-1082v21h46q31 0 54 22.5t23 54.5v1232q0 32 -23 54.5t-54 22.5h-46v21h454v-21h-47q-31 0 -53.5 -22.5t-22.5 -54.5v-1232q0 -32 22.5 -54.5t53.5 -22.5h298q133 0 235.5 79t137.5 207zM1104 1407q-32 0 -54.5 -22.5t-22.5 -54.5v-848
q0 -32 22.5 -54.5t54.5 -22.5h46v-21h-453v21h46q31 0 54 22.5t23 54.5v848q0 32 -23 54.5t-54 22.5h-46v21h453v-21h-46z" />
    <glyph glyph-name="LN.dlig" unicode="&#xf00b;" horiz-adv-x="1873" 
d="M976 307l1 5h22l-19 -312h-931v21h46q31 0 54 22.5t23 54.5v1232q0 32 -23 54.5t-54 22.5h-46v21h454v-21h-47q-31 0 -53.5 -22.5t-22.5 -54.5v-1232q0 -32 22.5 -54.5t53.5 -22.5h146q133 0 236 79t138 207zM1521 1428h302v-21h-46q-31 0 -54 -22.5t-23 -54.5v-1330h-36
l-788 1054v-572q0 -32 23 -54.5t54 -22.5h46v-21h-302v21h46q31 0 54 22.5t23 54.5v848q0 32 -23 54.5t-54 22.5h-46v21h159l788 -1054v956q0 32 -23 54.5t-54 22.5h-46v21z" />
    <glyph glyph-name="LM.dlig" unicode="&#xf00c;" horiz-adv-x="2226" 
d="M976 307l1 5h22l-19 -312h-931v21h46q31 0 54 22.5t23 54.5v1232q0 32 -23 54.5t-54 22.5h-46v21h454v-21h-47q-31 0 -53.5 -22.5t-22.5 -54.5v-1232q0 -32 22.5 -54.5t53.5 -22.5h146q133 0 236 79t138 207zM2052 1330v-1232q0 -32 23 -54.5t54 -22.5h46v-21h-490v21h46
q31 0 54 22.5t23 54.5v1112l-369 -944l-4 -9l-90 -232l-92 232l-4 9h1l-8 19l-366 925v-728q0 -32 23 -54.5t54 -22.5h46v-21h-302v21h46q31 0 54 22.5t23 54.5v848q0 32 -23 54.5t-54 22.5h-46v21h357l78 -200h1l85 -212l210 -546l14 -35l13 35l286 724h-1l68 173l24 61
h343v-21h-46q-31 0 -54 -22.5t-23 -54.5z" />
    <glyph glyph-name="TU.dlig" unicode="&#xf00d;" horiz-adv-x="2209" 
d="M1858 1428h303v-21h-46q-31 0 -54 -22.5t-23 -54.5v-984q0 -69 -26.5 -127.5t-70.5 -98t-102.5 -69.5t-122 -42.5t-128.5 -16.5t-123 8q-69 12 -130.5 40t-112 70t-80 103.5t-29.5 133.5v771q0 125 -100 207t-240 82q-31 0 -54 -22.5t-23 -54.5v-1232q0 -32 23 -54.5
t54 -22.5h46v-21h-453v21h46q32 0 54.5 22.5t22.5 54.5v1232q0 32 -22.5 54.5t-54.5 22.5q-130 0 -217 -76.5t-123 -209.5l-1 -5h-22l20 312h970q116 0 199 -74.5t83 -180.5v-835q0 -71 36.5 -126t94.5 -83t128.5 -40.5t141 1.5t128.5 43.5t94.5 85.5t36.5 127v984
q0 32 -22.5 54.5t-54.5 22.5h-46v21z" />
    <glyph glyph-name="TY.dlig" unicode="&#xf00e;" horiz-adv-x="2009" 
d="M1651 1428h308v-21q-51 -2 -82.5 -27t-52.5 -94l-282 -820v-368q0 -32 23 -54.5t54 -22.5h46v-21h-453v21h46q32 0 54.5 22.5t22.5 54.5v367l-221 651q-23 68 -50 117t-66.5 90.5t-96 62.5t-128.5 21q-31 0 -54 -22.5t-23 -54.5v-1232q0 -32 23 -54.5t54 -22.5h46v-21
h-453v21h46q32 0 54.5 22.5t22.5 54.5v1232q0 32 -22.5 54.5t-54.5 22.5q-131 0 -217.5 -78t-123.5 -213h-22l20 312h966q89 0 157.5 -49t100.5 -134l224 -639l240 683q16 48 -9 81q-28 38 -97 38v20z" />
    <glyph glyph-name="TT.dlig" unicode="&#xf00f;" horiz-adv-x="1832" 
d="M1764 1428l20 -312h-22l-1 5q-36 133 -123 209.5t-217 76.5q-31 0 -54 -22.5t-23 -54.5v-1232q0 -32 23 -54.5t54 -22.5h46v-21h-453v21h46q32 0 54.5 22.5t22.5 54.5v1232q0 32 -22.5 54.5t-54.5 22.5h-287q-31 0 -54 -22.5t-23 -54.5v-1232q0 -32 23 -54.5t54 -22.5h46
v-21h-453v21h46q32 0 54.5 22.5t22.5 54.5v1232q0 32 -22.5 54.5t-54.5 22.5q-130 0 -217 -76.5t-123 -209.5l-1 -5h-22l20 312h1695z" />
    <glyph glyph-name="MH.dlig" unicode="&#xf010;" horiz-adv-x="2258" 
d="M49 1428h357l78 -199h1l86 -213l209 -546l14 -34l13 34l286 725l67 173l24 60h307v-20h-46h-2h-2l-2 -1h-2h-2h-2l-2 -1h-2h-2l-2 -1h-1l-2 -1h-2l-2 -1l-2 -1h-1l-2 -1l-2 -1l-1 -1l-2 -1l-2 -1q0 -1 -1 -1t-2 -1l-1 -1l-2 -1l-1 -1l-2 -1l-1 -1l-2 -1l-1 -1l-1 -2
l-2 -1l-1 -1l-1 -2l-1 -1l-2 -1l-1 -2l-1 -1l-1 -2l-1 -1l-1 -2l-1 -1q-1 -1 -1 -2l-1 -2l-1 -1l-1 -2v-2l-1 -1l-1 -2l-1 -2v-2l-1 -1v-2l-1 -2v-2l-1 -2v-2v-2l-1 -1v-2v-2v-2v-2v-2v-518h436q31 0 52 21t21 52v445q0 31 -22.5 54t-54.5 23h-46v20h454v-20h-46
q-32 0 -54.5 -23t-22.5 -54v-1232q0 -31 22.5 -54t54.5 -23h46v-21h-454v21h46q32 0 54.5 23t22.5 54v693h-436q-31 0 -52 -21t-21 -52v-621v-1v-2v-2v-2v-2l1 -2v-2v-2l1 -2v-2l1 -2v-1l1 -2v-2l1 -2l1 -1l1 -2v-2l1 -1l1 -2l1 -2l1 -1l1 -2l1 -1l1 -2l1 -1l1 -2l1 -1l2 -2
l1 -1l1 -1l1 -2l2 -1l1 -1l1 -2l2 -1l1 -1l2 -1l1 -1l2 -1l1 -1l2 -1l1 -1l2 -1l2 -1l1 -1h2l2 -1l2 -1l1 -1h2l2 -1h2l1 -1h2l2 -1h2h2l2 -1h2h2h2h2h2h46v-21h-454v21h46h2h2h2h2h2l2 1h2h2l2 1h2l1 1h2l2 1h2l2 1l1 1l2 1h2l1 1l2 1l2 1l1 1l2 1l1 1l2 1l1 1l2 1l1 1l2 1
l1 2l1 1l2 1l1 2l1 1l2 1l1 2l1 1l1 2l1 1l1 2l1 1l1 2l1 1l1 2l1 2l1 1v2l1 2l1 1l1 2v2l1 2v2l1 1v2l1 2v2v2l1 2v2v2v2v2v2v1111l-369 -944l-3 -8l-91 -233l-92 233l-4 8h2l-9 20l-366 924v-1112q0 -31 22.5 -53.5t54.5 -22.5h46v-21h-302v21h46q32 0 54.5 22.5
t22.5 53.5v1233q0 31 -23 54t-54 23h-46v20z" />
    <glyph glyph-name="MU.dlig" unicode="&#xf011;" horiz-adv-x="2256" 
d="M49 1420h357l78 -199h1l309 -793l299 759l91 233h307v-21h-46h-2h-2h-2h-2h-2h-2l-2 -1h-2l-2 -1h-2h-1l-2 -1l-2 -1h-2l-1 -1l-2 -1h-2l-2 -1q-1 0 -8 -5l-1 -1l-1 -1q-1 -1 -2 -1l-2 -1l-1 -1q-2 0 -2 -1t-1 -1l-1 -2l-1 -1q-1 -1 -2 -1t-1 -1t-1 -2l-3 -3l-1 -2
q-1 0 -1 -1t-1 -2l-1 -1q-5 -7 -5 -8v-2l-1 -2l-1 -1l-1 -2v-2l-1 -2v-1l-1 -2v-2l-1 -2v-2v-2l-1 -2v-2v-2v-1v-2v-2v-992q0 -55 22.5 -101.5t61 -76t88 -50t104 -24.5t109 1t104 26.5t88 52t61 77.5t22.5 102v985q0 31 -22 53.5t-54 22.5h-46v21h302v-21h-46
q-32 0 -54.5 -22.5t-22.5 -53.5v-985q0 -69 -26.5 -127.5t-70.5 -98t-102.5 -69.5t-122 -42t-128.5 -16t-123 8q-68 12 -129.5 39.5t-112 69t-80 102t-30.5 131.5v867l-463 -1185l-96 241h2l-9 20l-366 924v-1112q0 -32 23 -54.5t54 -22.5h46v-20h-302v20h46q31 0 54 22.5
t23 54.5v1233q0 31 -22.5 53.5t-54.5 22.5h-46v21z" />
    <glyph glyph-name="SS.dlig" unicode="&#xf012;" horiz-adv-x="2054" 
d="M1760 721q45 -37 74 -63t65.5 -64t55.5 -69.5t34.5 -74.5t14 -83.5t-17.5 -90.5t-50 -103q-55 -85 -148.5 -138t-192.5 -52q-46 0 -87 9t-73.5 22t-64.5 37.5t-54 45t-47 57.5t-40.5 61.5t-37 70t-32.5 71.5t-32 76t-31 74q-40 92 -115 273.5t-112 267.5q-27 57 -52 100
t-61 91.5t-80 83.5t-95 54q-56 21 -125.5 14t-121.5 -38.5t-71 -86t26 -128.5q14 -22 32.5 -45.5t46.5 -51.5t47.5 -46.5t61 -53.5t58.5 -49t68.5 -55.5t64.5 -52.5l72 -63q50 -41 75.5 -63t62.5 -62t60 -78q98 -164 -21 -350q-40 -62 -107 -105t-141 -59.5t-155.5 -21
t-149.5 10.5q-91 16 -161.5 53t-113 93.5t-40 138t58.5 175.5q83 -202 270 -308q145 -83 286 -75q119 6 159 73q51 85 -57 218q-15 19 -34 38q-61 63 -127.5 123t-173 148.5t-135.5 113.5q-70 59 -112 106t-64 103q-38 103 6 211q47 115 136 178t206 64q78 0 143.5 -25.5
t116 -75t88.5 -106.5t75 -135q57 -120 174 -403t189 -426q85 -168 238 -211q119 -33 223 17q86 42 106 115q9 33 2 67q-17 78 -104 169q-69 73 -241 214.5t-192 159.5q-114 100 -146 183q-18 52 -15.5 107t21.5 104q36 91 111 149.5t161 79.5t186 17q110 -5 212.5 -73.5
t129.5 -169.5q19 -70 -15 -132t-102 -86q-22 135 -106 242t-208 137q-71 17 -141 -1.5t-99.5 -69.5t19.5 -136q13 -20 30 -42.5t41.5 -48t45 -46.5t54.5 -51t55 -49t61.5 -52.5t59 -49t62 -51t57.5 -46.5z" />
    <glyph glyph-name="UN.dlig" unicode="&#xf013;" horiz-adv-x="2093" 
d="M1097 1046v-708q0 -69 -26.5 -127.5t-70.5 -98t-102.5 -69.5t-122 -42t-128.5 -16t-123 8q-69 12 -130.5 40t-112 70t-80 103.5t-29.5 133.5v983q0 31 -22.5 53.5t-54.5 22.5h-46v21h454v-21h-47q-32 0 -54 -22.5t-22 -53.5v-992q0 -55 22.5 -101.5t61 -76t88 -50
t104 -24.5t109 1t104 26.5t88 52t61 77.5t22.5 102v985q0 31 -22.5 53.5t-54.5 22.5h-46v21h159l788 -1054v957q0 31 -22.5 53.5t-54.5 22.5h-46v21h302v-21h-46q-32 0 -54.5 -22.5t-22.5 -53.5v-1330h-36z" />
    <glyph glyph-name="UM.dlig" unicode="&#xf014;" horiz-adv-x="2408" 
d="M917 1420h357l78 -199h1l309 -793l299 759l91 233h307v-21h-46q-32 0 -54.5 -22.5t-22.5 -53.5v-1233q0 -32 23 -54.5t54 -22.5h46v-20h-453v20h46q31 0 53.5 22.5t22.5 54.5v1112l-463 -1185l-95 241h1l-9 20l-365 924v-864q0 -69 -26.5 -127.5t-70.5 -98t-102.5 -69.5
t-122 -42t-128.5 -16t-123 8q-69 12 -130.5 40t-112 70t-80 103.5t-29.5 133.5v983q0 31 -22.5 53.5t-54.5 22.5h-46v21h454v-21h-47q-32 0 -54 -22.5t-22 -53.5v-992q0 -55 22.5 -101.5t61 -76t88 -50t104 -24.5t109 1t104 26.5t88 52t61 77.5t22.5 102v987q0 39 -34 61
q-7 5 -8 5l-1 1l-2 1h-2l-3 2h-2l-13 4h-58v21z" />
    <glyph glyph-name="MB.dlig" unicode="&#xf015;" horiz-adv-x="2136" 
d="M406 1420q358 -913 375 -958l13 -34l13 34q236 598 353 897l24 61h304q163 52 296 -37q102 -70 140 -192q42 -135 -22 -249q-69 -123 -240 -167q26 -10 61 -21q104 -32 169 -67q170 -93 192 -284q16 -133 -69.5 -247.5t-252.5 -158.5q-46 -12 -100 -13t-124 4t-104 5
h-397v20h47h2l1 1h2h2h2h2l2 1h2h2l2 1h2l1 1l2 1h2l2 1l1 1h2l2 1l1 1l2 1l2 1l1 1l2 1l1 1l2 1l1 1l2 1l1 1l2 1l1 1l1 2l2 1l1 1l1 2l2 1l1 2l1 1l1 1q1 1 1 2l1 1l1 2l1 2l1 1l1 2l1 1l1 2l1 2v1l1 2l1 2v2l1 2v1l1 2v2l1 2v2v2l1 2v1v2v2v2v2v956v156l-369 -944l-3 -9
l-91 -232l-92 232l-4 9h2l-9 20l-366 924v-1112q0 -32 23 -54.5t54 -22.5h46v-20h-302v20h46q31 0 54 22.5t23 54.5v1233q0 31 -22.5 53.5t-54.5 22.5h-46v21h357zM1368 1202v-1112v-2v-2v-2v-2v-1l1 -2v-2v-2l1 -2v-2l1 -2v-2l1 -1v-2l1 -2l1 -2l1 -1v-2l1 -2l1 -1l1 -2
l1 -1l1 -2l1 -2l1 -1l1 -2l1 -1l1 -1l2 -2l1 -1l1 -2l1 -1l2 -1l1 -1l1 -2l2 -1l1 -1l2 -1l1 -1l2 -1l1 -1l2 -1l1 -1l2 -1l2 -1l1 -1l2 -1h2l1 -1l2 -1h2l2 -1l2 -1h1h2l2 -1h2l2 -1h2h2h2h2h2h2h39q87 0 156.5 23.5t113.5 64t69 95.5t28.5 116t-12.5 126.5t-50.5 127
t-88.5 118.5t-123 99q-59 36 -84 64q-58 64 -91.5 162.5t-33.5 191.5zM1408 1060q24 -92 70 -160t97 -90q37 -14 66.5 -6t49.5 40t30 76t7 102t-19 118q-29 109 -86 181.5t-115 77.5q-52 4 -84 -45.5t-34.5 -126.5t18.5 -167z" />
    <glyph glyph-name="MD.dlig" unicode="&#xf016;" horiz-adv-x="2160" 
d="M406 1428l78 -199h1l309 -793l299 759l91 233h184q105 16 194 18t176.5 -30.5t162.5 -102.5q68 -63 115 -155.5t70 -195.5t23.5 -216t-20.5 -219t-67 -202t-110 -167.5t-156 -114t-199 -42.5h-520v21q6 0 18 -0.5t19.5 -0.5t18 1t17.5 4l32 22l7 11l2 3l9 36v1112
l-463 -1185l-96 241h2l-9 20l-366 924v-1112q0 -31 22.5 -53.5t54.5 -22.5h46v-21h-302v21h46q32 0 54.5 22.5t22.5 53.5v1233q0 31 -23 54t-54 23h-46v20h357zM1453 1404q-48 -3 -69 -26q-16 -21 -16 -47v-1233l1 -11q4 -28 25.5 -46.5t50.5 -18.5h81q104 1 188.5 109
t128.5 272t45 344q0 111 -11.5 206t-42.5 184t-79 149.5t-125 93t-177 24.5z" />
    <glyph glyph-name="ME.dlig" unicode="&#xf017;" horiz-adv-x="2072" 
d="M49 1428h357l78 -199h1l309 -793l299 759l91 233h746l31 -311h-22q-35 132 -137.5 211.5t-237.5 79.5q-118 0 -140 -3l-19 -9l-8 -5l-5 -5l-1 -1q-1 -1 -2 -1l-5 -6l-5 -7q-11 -22 -11 -40v-518h150q89 1 152 64t63 152h24v-453h-24q0 90 -64 153.5t-154 62.5h-147v-694
q0 -31 24 -55l1 -1l1 -2l2 -1l1 -1l3 -2l5 -3l1 -1l2 -1l2 -1q9 -5 19.5 -7t18 -2t22 0.5t21.5 0.5h100q90 0 174.5 35t148 102t86.5 153h22l-20 -311h-965v21q6 0 18 -0.5t19.5 -0.5t18 1t17.5 4l32 22l7 11l2 3l9 36v1112l-463 -1185l-96 241h2l-9 20l-366 924v-1112
q0 -31 22.5 -53.5t54.5 -22.5h46v-21h-302v21h46q32 0 54.5 22.5t22.5 53.5v1233q0 31 -23 54t-54 23h-46v20z" />
    <glyph glyph-name="MF.dlig" unicode="&#xf018;" horiz-adv-x="2011" 
d="M49 1428h357l78 -199h1l86 -213l209 -546l14 -34l13 34l286 725l67 173l24 60h746l31 -311h-22l-1 4q-35 128 -138 207.5t-236 79.5h-119h-2h-2l-2 -1h-2h-2h-2l-2 -1h-2h-2l-2 -1h-1l-2 -1h-2l-2 -1l-2 -1h-1l-2 -1l-2 -1l-1 -1q-1 -1 -2.5 -2t-2.5 -1h-1v0l-1 -1l-1 -1
l-2 -1l-1 -1l-2 -1l-1 -1l-2 -1q0 -1 -1 -1l-1 -2l-1 -1q-1 -1 -2 -1t-1 -1t-1 -2l-2 -1l-1 -2l-1 -1l-1 -2l-1 -1l-1 -2l-1 -1v-1l-2 -2t-1 -2l-1 -2v-2l-1 -1l-1 -2l-1 -2v-2l-1 -1v-2l-1 -2v-2l-1 -2v-2v-2l-1 -1v-2v-2v-2v-2v-2v-518h149h1q88 1 151 64t64 151v1h24
v-453h-24v1q-1 88 -64 151t-151 64h-1h-2h-147v-694q0 -31 22.5 -53.5t54.5 -22.5h46v-21h-454v21h46q31 0 53 21.5t24 53.5v1v1112l-369 -944l-3 -8l-91 -233l-92 233l-4 8h2l-9 20l-366 924v-1112q0 -31 22.5 -53.5t54.5 -22.5h46v-21h-302v21h46q32 0 54.5 22.5
t22.5 53.5v1233q0 31 -23 54t-54 23h-46v20z" />
    <glyph glyph-name="MP.dlig" unicode="&#xf019;" horiz-adv-x="2181" 
d="M406 1428l78 -199h1l86 -213l209 -546l14 -34l13 34l286 725l67 173l24 60h350q7 1 30 7t40.5 9t30.5 3q105 0 191 -31.5t143 -85.5t96 -124.5t53.5 -150t12 -160.5t-25.5 -158t-62 -140q-74 -119 -174.5 -158t-195 -1.5t-178 144t-127.5 261.5v-745q0 -31 22.5 -53.5
t54.5 -22.5h46v-21h-457v21h46q31 0 53 21.5t24 53.5v1v1103l-366 -935l-3 -8l-91 -233l-92 233l-4 8h2l-9 20l-366 924v-1112q0 -31 22.5 -53.5t54.5 -22.5h46v-21h-302v21h46q32 0 54.5 22.5t22.5 53.5v1233q0 31 -23 54t-54 23h-46v20h357zM1566 1397q-85 1 -139 -82.5
t-59 -218.5v-45q2 -63 10 -110q31 -190 131 -325.5t210 -137.5q109 -1 164.5 132t23.5 324q-31 190 -131 325.5t-210 137.5z" />
    <glyph glyph-name="NN.dlig" unicode="&#xf01a;" horiz-adv-x="2050" 
d="M228 98q0 -31 22.5 -53.5t54.5 -22.5h46v-21h-302v21h46q32 0 54.5 22.5t22.5 53.5v1233q0 31 -23 54t-54 23h-46v20h159l788 -1053v956q0 31 -23 54t-54 23h-46v20h159l788 -1053v956q0 31 -23 54t-54 23h-46v20h302v-20h-46q-31 0 -54 -23t-23 -54v-1330h-36l-788 1054
v-1054h-36l-788 1054v-957z" />
    <glyph glyph-name="NT.dlig" unicode="&#xf01b;" horiz-adv-x="2129" 
d="M228 98q0 -31 22.5 -53.5t54.5 -22.5h46v-21h-302v21h46q32 0 54.5 22.5t22.5 53.5v1233q0 31 -23 54t-54 23h-46v20h159l788 -1053v956q0 31 -23 54t-54 23h-46v20h1187l19 -311h-22q-37 136 -123 213.5t-217 77.5q-31 0 -54 -23t-23 -54v-1233q0 -31 22.5 -53.5
t54.5 -22.5h46v-21h-454v21h46q32 0 54.5 22.5t22.5 53.5v1233q0 31 -23 54t-54 23h-226q-31 0 -54 -23t-23 -54v-1330h-36l-788 1054v-957z" />
    <glyph glyph-name="ee.dlig" unicode="&#xf01c;" horiz-adv-x="1708" 
d="M487 1039q129 0 225 -81.5t99 -208.5q3 -150 -170 -256q-26 -16 -66.5 -33t-67.5 -29.5t-54.5 -33t-41.5 -53t-14 -79.5q0 -67 43 -116q2 -1 5 -4.5t4 -5.5q30 -30 50 -44q34 -24 65 -33q26 -8 48 -2q9 3 32 14q32 11 56 28l254 148q-59 123 -59 261q0 143 61 265
t162 192.5t215 70.5q129 0 225 -82t99 -209q1 -51 -19 -98q-38 -87 -152 -157q-41 -25 -137.5 -72.5t-139.5 -72.5l-36 -21q8 -18 26 -52q62 -103 91 -131l5 -5q30 -30 50 -44q34 -24 65 -33q26 -8 48 -2q14 4 34.5 13.5t33 16t38.5 21.5t31 18l14 -24l7 -13l-91 -53
l-19 -11q-86 -46 -173 -46q-106 0 -201 62t-157 167l-204 -119l-92 -53l-19 -11q-86 -46 -173 -46q-114 0 -215 70.5t-162 193t-61 265.5t61 265t162 192.5t215 70.5zM1439 839q-33 90 -108 120q-77 30 -143 -21q-90 -69 -94 -241q-1 -26 1 -55q6 -94 45 -231l15 -40l1 -2
q41 24 74.5 46t71 52t64.5 59t50 65.5t33.5 74t8.5 82.5t-19 91zM379 388q13 25 38.5 51t51.5 48t54.5 48t49 55t33.5 64.5t10 82.5t-23 102q-33 90 -108 120q-77 30 -143 -21q-90 -69 -94 -241q-1 -26 1 -55q5 -89 46 -231l14 -40q18 -48 44 -96v8q0 58 26 105z" />
    <glyph glyph-name="M.alt1" unicode="&#xf01d;" horiz-adv-x="1822" 
d="M767 1227l86 -212l210 -546l13 -35l13 35l286 724l67 173l24 60h307v-20h-46q-31 0 -54 -23t-23 -54v-1232q0 -31 23 -54t54 -23h46v-21h-454v21h47q31 0 53.5 22.5t22.5 54.5v1112l-369 -944l-3 -9l-91 -232l-92 232l-3 9h1l-9 19l-366 925v-1099q0 -13 -1 -53
t-2.5 -63.5t-3.5 -57.5t-6.5 -61.5t-10.5 -50.5q-39 -142 -150 -193q-90 -42 -177 -5q-82 34 -104 115q-16 62 10 137q76 -38 137 -42.5t101 15t69.5 66t44.5 95.5t24 118.5t11 119.5t2 114v965q0 31 -23 54t-54 23h-46v20h357l78 -199h1z" />
    <glyph glyph-name="N.alt1" unicode="&#xf01e;" horiz-adv-x="1507" 
d="M510 429v-319q0 -13 -1 -53.5t-2.5 -63.5t-3.5 -57.5t-6.5 -62t-10.5 -50.5q-39 -141 -148 -192q-91 -42 -178 -6q-81 33 -104 114q-18 63 9 139q76 -38 137 -42.5t101 15t69.5 66t44.5 95.5t24 118.5t11 119.5t2 114v965q0 31 -23 54t-54 23h-46v20h159l788 -1053v956
q0 31 -23 54t-54 23h-46v20h302v-20h-46q-31 0 -54 -23t-23 -54v-1330h-36l-788 1054v-624z" />
    <glyph glyph-name="a.alt1" unicode="&#xf01f;" horiz-adv-x="1103" 
d="M860 1q-49 0 -86 31t-46 78h-3q-43 -64 -105.5 -98t-132.5 -34q-114 0 -215 70.5t-162 193t-61 265.5t61 265t162 192.5t215 70.5q128 0 238 -102h10q15 37 49 60.5t76 23.5h73v-918q0 -32 22.5 -54.5t53.5 -22.5h47v-21h-196zM725 359q-3 97 -31 198q-50 182 -149.5 299
t-180.5 96q-53 -14 -84 -86t-32 -177.5t32 -231.5q50 -182 149 -299.5t180 -96.5q50 13 81 79.5t35 166.5v52z" />
    <glyph glyph-name="gi.dlig" unicode="&#xf020;" horiz-adv-x="1474" 
d="M1095 97v763q0 29 -28.5 37.5t-59.5 2.5v23q60 6 157 39t117 70l21 1v-936q0 -31 23 -54t54 -23h46v-21h-453v21h46q32 0 54.5 23t22.5 54zM469 1033q95 0 188 -53q41 79 92 145t115.5 119.5t144 75.5t162.5 4q102 -21 130 -90q10 -23 10 -48q0 -49 -35 -83.5t-84 -34.5
t-83.5 34.5t-34.5 83.5q0 11 1 17q-98 9 -207.5 -71.5t-163.5 -182.5q10 -8 32 -27q71 -66 111.5 -158.5t40.5 -197.5q0 -106 -45.5 -205t-121.5 -164t-175 -90t-206 16q-69 20 -99 1q-24 -15 14 -42q17 -12 45 -23q61 -26 228.5 -46t199.5 -27q53 -11 86 -28
q64 -34 74.5 -109.5t-31.5 -132.5q-35 -52 -92 -82q-64 -33 -144 -49t-143 -16q-33 0 -53.5 0.5t-64.5 3t-74 7.5t-70.5 15.5t-66.5 24.5t-51 37t-33.5 52t-4 69.5t27.5 88.5q37 -44 87.5 -80t103.5 -59t109.5 -39t107.5 -22t94.5 -5t74.5 9q62 17 60 50q-2 25 -27 41
t-51.5 22t-57.5 10q-8 1 -11 1q-26 4 -88.5 12.5t-103.5 14.5t-93 17t-87 24q-70 25 -105.5 71.5t-31.5 93.5t49 89t124 60q-88 65 -140.5 167.5t-52.5 221.5q0 126 58.5 234t155 170.5t206.5 62.5zM579 164q52 13 84 79.5t35 162.5t-26 210q-45 164 -140 268.5t-174 83.5
q-52 -13 -84 -79.5t-35 -162t26 -209.5q45 -164 140 -269t174 -84z" />
    <glyph glyph-name="W.alt1" unicode="&#xf021;" horiz-adv-x="1773" 
d="M1317 1425q9 56 44.5 97t83.5 54.5t98.5 6.5t96 -47t68.5 -105q16 -43 16.5 -97.5t-10 -108t-32.5 -116t-46.5 -117.5t-56.5 -118.5t-58.5 -111t-57 -103t-46.5 -88.5q-106 -210 -165 -417q-14 -50 16 -92t82 -42h70v-21h-377l-70 244l-88 309l-113 -398
q-14 -51 15.5 -92.5t81.5 -41.5h71v-21h-377l-7 21l-363 1272q-21 67 -55 89.5t-89 24.5v20h1179v-21q-52 -3 -83.5 -27t-52.5 -93l-94 -334l45 -156l159 -574q17 58 50 141t67.5 162.5t72 168.5t66.5 171.5t48 159t19 142t-23 109.5q-30 58 -79.5 100t-105.5 50zM850 672
l-177 620q-1 2 -10 27q-25 43 -65 63t-82 17q-52 -4 -82 -38t-14 -84l9 -34l28 -99l1 -1l34 -122h1l66 -226l161 -579zM897 1299l6 -22l35 -123l25 -86l20 70v1l38 133l4 16q23 74 -23 103q-34 20 -72 1q-45 -23 -37 -76q1 -8 4 -17z" />
    <glyph glyph-name="H.alt1" unicode="&#xf022;" horiz-adv-x="1267" 
d="M1097 97q0 -32 22.5 -54.5t53.5 -22.5h47v-21h-454v21h46q32 0 54.5 23t22.5 54v618q-37 -70 -120 -86q4 47 -10.5 78.5t-40 46t-62.5 18t-73.5 -1.5t-77.5 -15.5t-70 -20.5t-55 -21v-616q0 -32 22.5 -54.5t53.5 -22.5h47v-21h-454v21h46q31 0 54 23t23 54v1232
q0 31 -23 54t-54 23h-46v20h454v-20h-47q-31 0 -53.5 -22.5t-22.5 -54.5v-562q146 77 258 103.5t169 12t82 -54.5v501q0 31 -22.5 54t-54.5 23h-46v20h453v-20h-46q-31 0 -53.5 -22.5t-22.5 -54.5v-1232z" />
    <glyph glyph-name="U.alt1" unicode="&#xf023;" horiz-adv-x="1206" 
d="M1112 1404q-32 0 -54.5 -23t-22.5 -54v-994q0 -69 -26.5 -127.5t-70.5 -98t-102.5 -69.5t-122 -42.5t-128.5 -16.5t-123 8q-69 12 -130.5 40t-112 70t-80 103.5t-29.5 133.5q0 63 18.5 165t42.5 197.5t40.5 204t17 195t-32.5 159t-102 106.5q-20 10 -45 18q39 31 86 48
q93 33 181 2q15 -6 31 -13q29 -15 50 -35.5t32 -48t16.5 -55t3 -66t-7 -71t-16.5 -78.5t-22 -80t-26 -85q-16 -52 -63.5 -187t-69.5 -217.5t-24 -143.5q-3 -125 73.5 -205t188.5 -95t225 4.5t192 92.5t79 171v1010q0 31 -23 54t-54 23h-46v20h303v-20h-46z" />
    <glyph glyph-name="T.alt1" unicode="&#xf026;" horiz-adv-x="1243" 
d="M1006 1406h-204q-31 0 -53.5 -22.5t-22.5 -54.5v-1232q0 -32 22.5 -54.5t53.5 -22.5h47v-21h-454v21h46q31 0 54 23t23 54v1232q0 31 -23 54t-54 23h-203q2 -4 7 -13.5t8 -14.5q41 -74 64.5 -127.5t38 -110t0.5 -96t-57 -61.5q-11 -6 -23 -10q-63 -23 -149 3
q-43 13 -78 36q25 8 34 13q150 75 15 401h1048q-135 -326 15 -401q9 -5 34 -13q-35 -23 -78 -36q-87 -26 -150 -3q-10 3 -22 10q-43 22 -57 61.5t0 96t38 110t64 127.5q3 5 8 14t8 14z" />
    <glyph glyph-name="V.alt1" unicode="&#xf027;" horiz-adv-x="1292" 
d="M1022 1275q-30 58 -80 100t-106 50q9 56 44.5 97t83.5 54.5t98.5 6.5t96 -47t68.5 -105q16 -43 16.5 -97.5t-10 -108t-32 -116.5t-46 -117.5t-56.5 -118t-58.5 -111t-57 -103t-46.5 -88.5q-106 -210 -165 -417q-14 -51 16 -92.5t81 -41.5h71v-21h-377l-71 244l-299 1049
q-21 67 -55 89.5t-89 24.5v20h484v-20q-37 1 -61 -6t-42 -31q-27 -36 -13 -81l75 -267h1l227 -805q15 51 42 122t56.5 139t63 147.5t62.5 151.5t53 147t36.5 137.5t10.5 119t-22 95.5z" />
    <glyph glyph-name="Y.alt1" unicode="&#xf028;" horiz-adv-x="1126" 
d="M193 1292q-21 67 -55 89.5t-89 24.5v20h484v-20q-37 1 -61 -6t-42 -31q-27 -36 -13 -81l245 -701q13 29 45 97.5t48.5 104.5t43.5 100t40 103t27.5 92.5t16.5 90.5t-3 75.5t-22 66.5q-30 50 -80 86.5t-106 43.5q9 49 44.5 84t83.5 46.5t98.5 5.5t96 -40.5t68.5 -90.5
q18 -37 13 -95t-21.5 -117t-48 -132t-65.5 -140t-74 -141t-74 -135.5t-65 -123t-47 -103.5v-368q0 -31 22.5 -54t54.5 -23h46v-21h-453v21h46q31 0 54 23t23 54v367z" />
    <glyph glyph-name="E.alt1" unicode="&#xf029;" horiz-adv-x="1083" 
d="M380 689v-592q0 -32 22.5 -54.5t53.5 -22.5h146q136 0 255 80.5t153 205.5l1 4h22l-19 -311h-965v21h46q31 0 54 23t23 54v1232q0 31 -23 54t-54 23h-46v20h893l31 -311h-22l-1 4q-35 128 -138 207.5t-236 79.5h-120h-2h-2h-1l-2 -1h-2h-2h-2l-2 -1h-2l-2 -1h-2l-1 -1h-2
l-2 -1l-2 -1h-1l-2 -1l-2 -1l-1 -1l-2 -1h-2l-1 -1q-1 -1 -2 -1l-1 -1l-2 -1l-2 -2l-1 -1l-1 -1l-2 -1l-1 -1l-2 -1l-1 -2l-1 -1l-1 -1l-2 -2l-1 -1l-1 -2l-1 -1l-1 -2l-1 -1l-1 -2l-1 -1q-1 -1 -1 -2l-1 -1l-1 -2l-1 -2l-1 -1v-2l-1 -2l-1 -2v-1l-1 -2v-2l-1 -2v-2l-1 -2
v-1l-1 -2v-2v-2v-2v-2v-2v-2v-529l9 15q81 124 167 160q43 17 80.5 14t62.5 -26.5t36.5 -54.5t3.5 -70t-36 -73q-57 51 -112.5 56.5t-106 -28t-104.5 -104.5z" />
    <glyph glyph-name="F.alt1" unicode="&#xf02a;" horiz-adv-x="1021" 
d="M380 689v-592q0 -32 22.5 -54.5t53.5 -22.5h47v-21h-454v21h46q31 0 54 23t23 54v1232q0 31 -23 54t-54 23h-46v20h893l31 -311h-22l-1 4q-35 128 -138 207.5t-236 79.5h-120h-2h-2h-2l-1 -1h-2h-2h-2l-2 -1h-2l-2 -1h-2l-1 -1h-2l-2 -1l-2 -1h-1l-2 -1l-2 -1l-2 -1
l-1 -1h-2l-1 -1q-1 -1 -2 -1l-2 -1l-1 -1l-2 -2l-1 -1l-1 -1l-2 -1l-1 -1l-2 -1l-1 -2l-1 -1l-1 -1l-2 -2l-1 -1l-1 -2l-1 -1l-1 -2l-1 -1l-1 -2l-1 -1q-1 -1 -1 -2l-1 -1l-1 -2l-1 -2l-1 -1v-2l-1 -2l-1 -2v-1l-1 -2v-2l-1 -2v-2l-1 -2v-1l-1 -2v-2v-2v-2v-2v-2v-2v-529
l9 15q81 124 167 160q43 17 80.5 14t62.5 -26.5t36.5 -54.5t3.5 -70t-36 -73q-57 51 -112.5 56.5t-106 -28t-104.5 -104.5z" />
    <glyph glyph-name="CH.dlig" unicode="&#xf02b;" horiz-adv-x="2244" 
d="M1742 1427h454v-20h-46q-32 0 -54.5 -22.5t-22.5 -54.5v-1232q0 -32 22.5 -54.5t54.5 -22.5h46v-21h-454v21h46q32 0 54.5 22.5t22.5 54.5v492q-2 73 -28.5 125.5t-68 75.5t-90.5 26t-99.5 -18t-92.5 -61l-130 -127v-514q0 -31 22.5 -53.5t54.5 -22.5h46v-21h-454v21h46
q32 0 54.5 22.5t22.5 53.5v312l-77 -76l-215 -209l-39 -39q-112 -103 -245 -103q-136 0 -256.5 97.5t-193.5 267.5t-73 367t73 367t193.5 267.5t256.5 97.5q113 0 202 -67t125 -174t1 -218q-20 -64 -61 -111q-17 -19 -27 -27q-102 330 -252 449q-106 84 -197 33t-123 -208
q-42 -202 35 -481q61 -224 177.5 -384t227.5 -182q23 -4 48 2v1q16 4 33.5 14t29.5 18.5t33 27.5t28.5 26t31 31t26.5 28l238 231v875q0 32 -23 54.5t-54 22.5h-46v20h454v-20h-46q-31 0 -54 -22.5t-23 -54.5v-673l149 145q8 7 38 37.5t45 44.5t42 31t52 22
q59 13 114.5 -12.5t68.5 -81.5v487q0 32 -22.5 54.5t-54.5 22.5h-46v20z" />
    <glyph glyph-name="R.alt1" unicode="&#xf02c;" horiz-adv-x="1304" 
d="M380 855v-758q0 -31 22 -53.5t54 -22.5h47v-21h-454v21h46q31 0 53 21.5t24 53.5v1v1233v2q0 3 -0.5 5.5t-1.5 6t-1 5.5q-7 25 -27.5 41.5t-46.5 16.5h-46v20h501q109 20 201.5 8t164 -58.5t123.5 -111t79.5 -148.5t32 -171t-18.5 -178.5t-73 -171.5q-64 -104 -154 -149
l170 -318q28 -52 74.5 -80t105.5 -28v-21h-496v21h29q37 0 56 32t2 64l-175 329q-95 44 -172.5 150t-118.5 259zM394 940q31 -190 131 -325.5t210 -137.5q109 -1 164.5 132t23.5 324q-31 190 -131.5 325.5t-210.5 137.5q-85 1 -139 -82.5t-59 -218.5q-1 -79 11 -155z" />
    <glyph glyph-name="A.alt2" unicode="&#xf02d;" horiz-adv-x="1290" 
d="M269 152q30 -58 79.5 -100t105.5 -50q-9 -56 -44.5 -97t-83.5 -54.5t-98.5 -6.5t-96 47t-68.5 105q-20 48 -13 121t28.5 148t59 167t79 178t88 181t87 176t75 163.5t51.5 142.5q14 50 -15.5 91.5t-81.5 41.5h-71v21h377l71 -244l300 -1048q22 -67 55 -90t88 -25v-20h-484
v20q37 -1 61 6t42 32q28 37 14 80l-304 1073q-15 -51 -42 -122t-56.5 -139t-63 -147.5t-62.5 -151.5t-52.5 -147t-36 -137.5t-10.5 -119t22 -95.5z" />
    <glyph glyph-name="ff.dlig" unicode="&#xfb00;" horiz-adv-x="1460" 
d="M177 961v152q0 103 45 178t122 111q50 24 116 27.5t128 -11.5t110 -56.5t61 -101.5q12 -56 -13.5 -102t-77.5 -58.5t-127 26.5q35 54 34 106t-32 93q-29 39 -71.5 53t-79.5 2.5t-62 -51.5t-20 -100q5 -58 32 -120.5t70 -110.5h413v115q0 103 45 178t122 111
q50 24 116 27.5t128 -11.5t110 -56.5t61 -101.5q12 -56 -13.5 -102t-77.5 -58.5t-127 26.5q35 54 34 106t-32 93q-29 39 -71.5 53t-79.5 2.5t-62 -51.5t-20 -100q5 -58 32 -120.5t70 -110.5h204v-50h-237v-868q0 -32 22.5 -54.5t54.5 -22.5h46v-20h-453v20h46q31 0 54 22.5
t23 54.5q0 143 5 868h-445v-868q0 -32 22.5 -54.5t53.5 -22.5h47v-20h-454v20h46q31 0 54 22.5t23 54.5q0 146 5 881z" />
    <glyph glyph-name="st.dlig" unicode="&#xfb06;" horiz-adv-x="1544" 
d="M475 1187q0 107 75.5 182.5t182.5 75.5t182.5 -75.5t75.5 -182.5q0 -92 -59 -164q101 23 176 100.5t101 185.5h31v-34l-1 -261h255v-49h-255l-2 -775q1 -86 64.5 -120.5t143.5 -5.5q27 10 49 27v-40q-113 -70 -260 -70q-33 0 -65.5 9.5t-65.5 31.5t-53.5 66.5
t-20.5 105.5v771h-159v54q80 65 80 168q0 90 -63.5 153t-153.5 63t-153 -63t-63 -153t63 -153q8 -8 14 -13.5t14 -10t12 -7t15 -8t16 -8.5q82 -44 106 -123q15 -62 -24 -116.5t-104 -61.5q-69 171 -190 239q-82 46 -143 24q-50 -19 -45 -71q6 -66 99 -144
q58 -49 185.5 -135.5t182.5 -133.5q51 -44 75.5 -98.5t21.5 -107.5t-32.5 -103.5t-79.5 -89t-126 -62t-167 -23.5q-137 0 -250 60q-71 38 -98 107.5t-3 138t90 105.5q41 -77 128 -157.5t183 -117.5q47 -18 86 -22t62.5 4.5t38.5 24.5t13.5 40t-13.5 50t-41 55.5t-70 55.5
q-12 8 -61.5 38t-78 48t-75.5 50.5t-77 58t-59.5 57t-44.5 59.5q-43 81 -33.5 153.5t53.5 126t118.5 85.5t160.5 32q43 0 93 -8q-57 72 -57 162z" />
    </font>
</defs>
</svg>
