<svg width="347" height="168" viewBox="0 0 347 168" fill="none" xmlns="http://www.w3.org/2000/svg">
<g clip-path="url(#clip0_119_4596)">
<path d="M27.132 94.7917H30.208V96.1533H3.19481e-05V94.7917H3.07596C4.43316 94.7917 5.73517 94.2554 6.69757 93.3C7.65997 92.3446 8.20448 91.0478 8.21215 89.6929V7.76427C8.20453 6.40664 7.66092 5.10676 6.69934 4.14676C5.73776 3.18675 4.43582 2.64413 3.07596 2.63652H3.19481e-05V1.2749H59.4293L61.5186 21.9598H60.0388V21.6991C58.6043 16.2116 55.3759 11.3592 50.8657 7.9113C46.3555 4.46335 40.8215 2.61712 35.1411 2.66543H25.7972H25.536H25.3329L25.1878 2.86825V3.10006V38.9076H35.1991C38.9769 38.8551 42.5853 37.3335 45.2569 34.6663C47.9285 31.9991 49.4526 28.3967 49.5051 24.6251H51.1011V54.7544H49.5051C49.4526 50.9828 47.9285 47.3804 45.2569 44.7132C42.5853 42.0461 38.9769 40.5244 35.1991 40.472H25.1878V89.606C24.9771 90.5655 25.0486 91.5653 25.3935 92.4852C25.7384 93.4052 26.342 94.2061 27.132 94.7917Z" fill="#F2EFEB"/>
<path d="M67.0031 8.80717V7.30073C70.9496 6.89515 83.1953 3.70839 85.2266 0.0581055H86.6775V89.606C86.6775 90.9609 87.2146 92.2608 88.1715 93.2216C89.1285 94.1824 90.4274 94.7261 91.7846 94.7337H94.8606V96.0953H64.6236V94.7337H67.6995C69.0594 94.7261 70.3614 94.1835 71.323 93.2235C72.2846 92.2635 72.8281 90.9636 72.8357 89.606V11.3856C72.8647 8.48853 69.1505 8.48849 67.0031 8.80717Z" fill="#F2EFEB"/>
<path d="M107.571 54.204C91.8137 44.4409 103.508 27.9567 124.575 27.6091C128.845 27.4383 133.109 28.0773 137.14 29.4921C144.017 32.1864 150.953 38.3861 150.953 52.4368V89.606C150.953 90.9659 151.494 92.2702 152.457 93.2319C153.42 94.1935 154.727 94.7337 156.089 94.7337H159.136V96.0953H146.136C143.966 96.0953 141.87 95.3125 140.233 93.8911C138.596 92.4696 137.528 90.5054 137.227 88.3602C137.198 87.9455 137.198 87.5293 137.227 87.1145V76.5982C134.689 84.6478 129.096 91.3859 121.644 95.3711C119.117 96.6219 116.34 97.2856 113.519 97.3121C111.436 97.4603 109.346 97.1579 107.39 96.4254C105.435 95.6929 103.661 94.5476 102.19 93.0679C100.719 91.5881 99.5851 89.8087 98.8661 87.8513C98.147 85.8938 97.8596 83.8045 98.0236 81.726C98.0236 65.3287 115.667 59.1 124.807 47.5408C139.346 29.0866 116.276 27.4642 107.571 54.204ZM131.83 38.7627C131.017 45.6867 122.196 55.6525 119.468 58.8393C104.959 75.7581 114.39 86.2454 124.198 83.6959C130.611 82.0157 137.14 74.773 137.14 60.085V42.7027C137.14 33.6639 129.886 28.623 121.325 32.0416C126.142 31.665 132.555 32.3313 131.83 38.7627Z" fill="#F2EFEB"/>
<path d="M191.462 27.377C195.694 27.3982 199.846 28.527 203.505 30.6506L205.333 31.7805C207.234 33.1572 208.781 34.9651 209.846 37.0553C210.91 39.1456 211.462 41.4584 211.456 43.8033C211.453 46.3262 210.807 48.8069 209.578 51.0117C208.35 53.2164 206.579 55.0727 204.433 56.4055C200.313 43.8033 192.826 34.4458 186.558 32.8814C185.491 32.6211 184.376 32.6211 183.308 32.8814C176.257 34.7066 173.152 49.4815 177.679 65.8498C180.755 77.0614 186.645 86.1292 192.188 90.1271C193.204 91.0141 194.396 91.6786 195.685 92.0778C196.975 92.477 198.334 92.6021 199.674 92.4448C202.825 91.1456 205.879 89.6256 208.815 87.8964L209.744 89.4897L210.266 90.3589L204.172 93.8643L202.895 94.6176C199.33 96.5368 195.339 97.5328 191.288 97.5146C175.909 97.5146 162.27 81.7836 162.27 62.4023C162.27 43.021 176.083 27.377 191.462 27.377Z" fill="#F2EFEB"/>
<path d="M276.66 62.4893C276.66 81.8706 262.905 97.6015 247.642 97.6015C232.378 97.6015 218.623 81.8706 218.623 62.4893C218.623 43.108 232.349 27.377 247.642 27.377C262.934 27.377 276.66 43.079 276.66 62.4893ZM239.371 32.8524C232.32 34.6776 229.215 49.4525 233.568 65.8209C237.92 82.1892 248.512 93.9512 255.535 92.1261C262.557 90.3009 265.691 75.5259 261.164 59.1576C256.637 42.7893 246.394 31.0273 239.371 32.8524Z" fill="#F2EFEB"/>
<path d="M325.004 41.5726C324.714 34.4169 320.535 30.7955 314.732 33.3449C308.928 35.8943 304.024 42.9342 301.761 50.7272V89.6057C301.761 90.9607 302.298 92.2605 303.255 93.2214C304.212 94.1822 305.511 94.7258 306.868 94.7335H309.944V96.0951H279.765V94.7335H282.841C283.523 94.745 284.2 94.6209 284.833 94.3684C285.466 94.1159 286.043 93.74 286.529 93.2626C287.015 92.7853 287.401 92.2162 287.665 91.5883C287.928 90.9605 288.064 90.2865 288.064 89.6057V38.8494C288.064 35.9524 284.35 35.8075 282.26 36.1841V34.5617C286.207 34.1561 298.452 30.9694 300.484 27.3191H301.935V42.181C305.574 35.7812 311.375 30.8827 318.301 28.362C320.51 27.5969 322.841 27.2434 325.178 27.3191C333.216 27.6668 338.991 33.8665 338.991 43.3688V89.6057C338.991 90.9607 339.528 92.2605 340.485 93.2214C341.442 94.1822 342.741 94.7258 344.098 94.7335H347.174V96.0951H316.995V94.7335H319.984C321.346 94.7335 322.653 94.1933 323.616 93.2316C324.579 92.27 325.12 90.9657 325.12 89.6057L325.004 41.5726Z" fill="#F2EFEB"/>
<path d="M56.0922 166.291V167.102H48.1412C46.8227 167.101 45.5485 166.627 44.5519 165.765C43.5554 164.903 42.9032 163.711 42.7148 162.409C42.7004 162.148 42.7004 161.887 42.7148 161.626V155.195C41.1923 160.157 37.7727 164.321 33.1969 166.783C31.6516 167.542 29.9565 167.947 28.2347 167.971C26.9604 168.083 25.6769 167.914 24.4755 167.475C23.2742 167.036 22.1846 166.338 21.2841 165.431C20.3837 164.524 19.6945 163.429 19.2659 162.226C18.8372 161.023 18.6794 159.74 18.8038 158.468C18.8038 148.445 29.5405 144.65 35.141 137.581C44.0787 126.34 29.9758 125.326 24.6655 141.666C15.0314 135.698 22.1699 125.645 35.054 125.413C37.657 125.331 40.2532 125.723 42.7148 126.572C46.8935 128.223 51.1591 131.989 51.1591 140.594V163.278C51.159 164.102 51.4853 164.894 52.0668 165.48C52.6482 166.066 53.4379 166.399 54.264 166.406L56.0922 166.291ZM42.6567 145.142V134.51C42.7687 133.324 42.559 132.13 42.0495 131.054C41.5401 129.977 40.7497 129.057 39.7613 128.39C38.7729 127.723 37.623 127.334 36.4322 127.264C35.2414 127.194 34.0538 127.445 32.9937 127.992C35.8955 127.731 39.871 128.194 39.4067 132.105C38.9424 136.016 33.6031 142.448 31.862 144.36C22.9824 154.702 28.786 161.105 34.7638 159.54C38.6812 158.527 42.6567 154.094 42.6567 145.142Z" fill="#BBA17E"/>
<path d="M110.531 131.99C110.706 132.806 110.708 133.65 110.536 134.468C110.364 135.285 110.022 136.057 109.533 136.734C109.043 137.412 108.417 137.979 107.694 138.399C106.971 138.819 106.168 139.083 105.336 139.174C98.633 122.487 82.4408 127.586 93.9901 137.233C98.7491 141.26 104.553 144.36 108.963 148.184C117.466 155.543 111.662 167.826 96.4566 167.826C92.9096 167.891 89.4043 167.054 86.2712 165.393C84.9569 164.743 83.8442 163.748 83.0519 162.516C82.2596 161.284 81.8175 159.86 81.7728 158.396C81.7281 156.932 82.0825 155.484 82.7981 154.206C83.5138 152.928 84.5638 151.868 85.836 151.139C88.7282 156.112 93.1572 160.015 98.4589 162.264C107.658 165.74 109.631 158.903 101.564 153.862C97.0661 150.965 87.9253 145.982 85.4297 141.231C80.8449 132.54 88.1864 125.153 97.6174 125.124C102.638 125.124 108.934 126.688 110.531 131.99Z" fill="#BBA17E"/>
<path d="M147.471 136.886C147.344 139.078 146.632 141.197 145.407 143.021C144.182 144.845 142.49 146.308 140.506 147.257C136.066 149.98 130.611 149.864 130.611 156.499C130.615 158.229 131.232 159.901 132.352 161.221L132.729 161.626C133.355 162.281 134.034 162.882 134.761 163.423C135.563 164 136.455 164.441 137.401 164.726C138.036 164.912 138.711 164.912 139.346 164.726C139.805 164.593 140.252 164.418 140.68 164.205C141.472 163.928 142.223 163.548 142.915 163.075L144.946 161.974L145.497 162.93L145.817 163.481L142.102 165.595L141.319 166.059C139.16 167.255 136.736 167.892 134.267 167.913C124.865 167.913 116.479 158.295 116.479 146.475C116.479 134.655 124.865 125.037 134.267 125.037C137.589 124.871 140.842 126.024 143.316 128.243C145.79 130.463 147.283 133.57 147.471 136.886ZM138.562 133.206C135.457 124.718 123.705 125.79 124.604 141.231C124.839 144.414 125.462 147.557 126.461 150.589L127.042 152.182C127.542 153.529 128.144 154.836 128.841 156.093V155.803C128.839 154.32 129.197 152.859 129.886 151.545C132.729 146.301 142.596 144.07 138.562 133.206Z" fill="#BBA17E"/>
<path d="M176.982 133.786C176.808 129.411 174.254 127.21 170.714 128.774C168.758 129.911 167.05 131.427 165.689 133.233C164.329 135.039 163.344 137.099 162.792 139.29V163.104C162.792 163.934 163.122 164.73 163.71 165.316C164.298 165.903 165.095 166.233 165.926 166.233H167.783V167.073H149.357V166.233H151.243C152.072 166.225 152.865 165.893 153.451 165.308C154.037 164.723 154.369 163.931 154.377 163.104V132.135C154.377 130.338 152.085 130.251 150.779 130.512V129.585C153.187 129.324 160.674 127.383 161.922 125.153H162.792V134.22C165.022 130.325 168.557 127.34 172.775 125.79C174.126 125.32 175.552 125.104 176.982 125.153C178.191 125.213 179.375 125.519 180.461 126.05C181.548 126.581 182.516 127.327 183.306 128.242C184.095 129.158 184.69 130.224 185.055 131.376C185.419 132.528 185.546 133.742 185.427 134.945V163.133C185.426 163.958 185.753 164.749 186.334 165.335C186.916 165.921 187.705 166.254 188.531 166.262H190.418V167.102H171.991V166.262H173.848C174.679 166.262 175.477 165.932 176.064 165.345C176.652 164.759 176.982 163.963 176.982 163.133V133.786Z" fill="#BBA17E"/>
<path d="M203.911 115.303V125.906H214.271V127.934H203.911V159.367C203.911 164.205 208.206 165.972 212.355 164.466C213.075 164.202 213.75 163.831 214.358 163.365V164.929C211.19 166.89 207.522 167.896 203.795 167.826C202.653 167.886 201.512 167.699 200.449 167.278C199.386 166.857 198.426 166.211 197.636 165.387C196.845 164.562 196.242 163.576 195.868 162.497C195.493 161.418 195.357 160.272 195.467 159.135V127.934H188.996V125.906C192.279 125.678 195.399 124.39 197.885 122.237C200.371 120.084 202.089 117.183 202.779 113.97H204.027V115.303H203.911Z" fill="#BBA17E"/>
<path d="M246.191 136.886C246.076 139.077 245.372 141.198 244.151 143.023C242.93 144.848 241.239 146.311 239.255 147.257C234.815 149.98 229.36 149.864 229.36 156.499C229.364 158.228 229.981 159.901 231.101 161.221L231.478 161.626C232.104 162.281 232.783 162.882 233.51 163.423C234.309 164.004 235.202 164.445 236.15 164.726C236.785 164.912 237.46 164.912 238.095 164.726C238.554 164.593 239.001 164.418 239.429 164.205C240.218 163.922 240.969 163.543 241.664 163.075L243.695 161.974L244.246 162.93L244.566 163.481L240.851 165.595L240.068 166.059C237.909 167.254 235.485 167.892 233.016 167.913C223.614 167.913 215.228 158.295 215.228 146.475C215.228 134.655 223.614 125.037 233.016 125.037C236.335 124.871 239.585 126.025 242.054 128.245C244.523 130.466 246.011 133.573 246.191 136.886ZM237.311 133.206C234.206 124.718 222.454 125.79 223.353 141.231C223.588 144.414 224.211 147.557 225.21 150.589L225.791 152.182C226.291 153.529 226.893 154.836 227.59 156.093V155.803C227.598 154.318 227.966 152.857 228.664 151.545C231.478 146.301 241.345 144.07 237.311 133.206Z" fill="#BBA17E"/>
<path d="M260.119 142.68V159.135C260.293 163.48 262.847 165.711 266.387 164.147C268.341 163 270.048 161.477 271.408 159.667C272.767 157.857 273.754 155.795 274.309 153.601V132.134C274.309 130.309 272.017 130.251 270.74 130.483V129.585C273.149 129.324 280.606 127.383 281.854 125.152H282.725V163.162C282.732 163.989 283.065 164.781 283.651 165.366C284.237 165.951 285.03 166.283 285.859 166.291H287.745V167.131H279.794C279.071 167.131 278.356 166.988 277.688 166.711C277.021 166.434 276.415 166.028 275.905 165.517C275.396 165.005 274.992 164.398 274.718 163.73C274.445 163.063 274.306 162.348 274.309 161.626V158.729C272.079 162.625 268.545 165.61 264.327 167.16C262.881 167.794 261.293 168.039 259.722 167.871C258.151 167.704 256.652 167.128 255.373 166.203C254.094 165.277 253.079 164.034 252.431 162.595C251.782 161.157 251.521 159.575 251.675 158.005V132.134C251.675 130.309 249.412 130.251 248.106 130.483V129.585C250.514 129.324 258.001 127.383 259.22 125.152H260.119V142.708V142.68Z" fill="#BBA17E"/>
<path d="M303.182 130.831C307.361 126.746 313.832 123.356 319.549 126.166C320.186 126.496 320.797 126.873 321.377 127.296C322.721 128.249 323.735 129.596 324.279 131.149C324.49 131.815 324.598 132.508 324.598 133.206C324.598 135.096 323.846 136.909 322.507 138.246C321.168 139.582 319.353 140.333 317.459 140.333C317.063 140.363 316.666 140.363 316.27 140.333C316.937 136.045 315.486 129.991 311.598 129.266C310.682 129.102 309.738 129.192 308.87 129.527C307.771 129.933 306.777 130.577 305.959 131.414C305.141 132.251 304.519 133.259 304.14 134.365C303.571 135.945 303.276 137.611 303.27 139.29V163.191C303.271 163.598 303.35 164.001 303.502 164.378C303.738 164.953 304.14 165.444 304.657 165.79C305.173 166.136 305.781 166.32 306.404 166.32C307.013 166.638 307.622 166.899 308.261 167.16H289.718V166.32H291.575C292.406 166.32 293.203 165.99 293.791 165.403C294.379 164.816 294.709 164.021 294.709 163.191C294.709 154.992 294.709 146.909 294.709 138.798V129.904C294.713 129.494 294.635 129.088 294.481 128.708C294.327 128.329 294.099 127.984 293.81 127.693C293.521 127.402 293.178 127.171 292.799 127.013C292.421 126.856 292.014 126.775 291.604 126.775H289.718V125.935H297.64C298.747 125.933 299.828 126.263 300.744 126.883C301.661 127.503 302.368 128.384 302.776 129.411C302.964 129.868 303.1 130.344 303.182 130.831Z" fill="#BBA17E"/>
<path d="M37.7817 118.779L32.8486 108.466H39.755L41.9604 118.779H37.7817Z" fill="#BBA17E"/>
</g>
<defs>
<clipPath id="clip0_119_4596">
<rect width="347" height="168" fill="white"/>
</clipPath>
</defs>
</svg>
