<svg id="Layer_1" data-name="Layer 1" xmlns="http://www.w3.org/2000/svg" viewBox="0 0 1080 1080"><defs><style>.cls-1{fill:#fff;}</style></defs><path class="cls-1" d="M774,319.29a1584.2,1584.2,0,0,0-35-180c-.74-3-5-24.14-9.73-43q-10.14-5.5-20.63-10.28a355.64,355.64,0,0,0-94.59-27.63A413.91,413.91,0,0,0,553,54c-9.74,0-19.49.34-29.19,1a516.89,516.89,0,0,0-78.3,11.19A548.68,548.68,0,0,0,386.84,82.5q-9.91,3.38-19.67,7.16c-4.7,1.84-9.53,3.37-14.11,5.55a2.49,2.49,0,0,0-1,.7,2.68,2.68,0,0,0-.38,1c-3.64,14.06-6.12,28.37-9.68,42.46a1584.2,1584.2,0,0,0-35,180C280.93,516.13,331.56,694,413.85,871.77c23,49.67,52.34,121.18,103.53,148.47a53.67,53.67,0,0,0,25.45,6.76c60.33,0,105-113.59,124.32-155.23C749.44,694.06,800.07,516.13,774,319.29ZM638.31,858.42c-1.89,4.05-4,8.71-6.19,13.67-10.19,22.75-25.6,57.12-44,84.24-16.82,24.71-33.31,38.89-45.26,38.89a22.42,22.42,0,0,1-10.49-3c-37.65-20.07-64.41-78.64-84-121.42-1.95-4.23-3.84-8.37-5.68-12.35-94.12-203.29-126.26-368.27-104.21-535,7.44-56.3,19-115.63,34.31-176.36,1.86-7.35,3.41-14.62,4.91-21.63.47-2.14.92-4.24,1.38-6.33,5.7-2.21,11.76-4.41,18-6.55A519.47,519.47,0,0,1,452.4,97.18a487.89,487.89,0,0,1,73.46-10.51c9.11-.59,18.26-.89,27.18-.89h0a384.11,384.11,0,0,1,56.29,4.07A322.66,322.66,0,0,1,695.5,115c2.07,1,4.17,1.93,6.27,3,1.91,8.35,3.58,16.14,4.75,21.57,1,4.36,1.33,6.19,1.65,7.46l0,.06,0,.06c15.32,60.73,26.87,120.06,34.31,176.36C764.57,490.18,732.43,655.15,638.31,858.42Z"/></svg>