<svg width="193" height="60" viewBox="0 0 193 60" fill="none" xmlns="http://www.w3.org/2000/svg">
<path d="M175.199 57.4892C175.149 57.8643 174.984 58.2147 174.727 58.4919C174.469 58.7691 174.132 58.9595 173.761 59.0366C173.677 59.0508 173.591 59.0584 173.506 59.0594C173.186 59.0618 172.878 58.939 172.648 58.7171C172.344 58.3909 172.156 57.9738 172.113 57.5302H172.068V57.0738C172.068 57.0236 172.068 56.946 172.068 56.8684C172.027 56.5534 171.899 56.5534 171.812 56.5534H171.689C171.442 56.6493 171.178 56.7634 170.876 56.9003C169.089 57.6425 167.164 57.9927 165.23 57.9274C163.075 57.9274 160.939 57.9274 158.798 57.8954C156.658 57.8635 154.503 57.8954 152.335 57.8954H150.509C148.564 57.8954 149.998 57.8954 148.053 57.9228H147.14C145.202 57.9228 143.26 57.9137 141.316 57.8954H82.1622C67.4001 57.8954 36.7484 57.8954 34.6487 57.8954C32.5489 57.8954 29.1711 57.9228 27.0348 57.9274C25.0997 57.9941 23.1728 57.6455 21.3838 56.9049C21.0734 56.7634 20.8086 56.6493 20.5667 56.5534H20.4389C20.3521 56.5534 20.2289 56.5534 20.1833 56.8684V57.1057C20.2007 57.6982 19.9936 58.2753 19.6036 58.7216C19.3738 58.9444 19.0654 59.0674 18.7454 59.064C18.6612 59.063 18.5773 59.0553 18.4943 59.0411C18.1237 58.9651 17.7858 58.7758 17.5274 58.4994C17.269 58.2231 17.1029 57.8732 17.0519 57.4983C16.8967 56.6584 17.1295 55.5446 17.8005 55.1292C18.1621 54.891 18.5863 54.7655 19.0193 54.7686C19.7085 54.7686 20.585 55.0379 21.9589 55.6815C23.5671 56.342 25.2973 56.6532 27.0348 56.5945C29.1848 56.5945 32.5124 56.5945 34.6487 56.5625C36.7849 56.5306 67.4184 56.5625 82.1759 56.5625H141.288C143.379 56.5625 145.474 56.5625 147.56 56.5899C149.646 56.6173 148.377 56.5899 150.468 56.5625H152.321C154.489 56.5625 156.671 56.5625 158.798 56.5625C160.925 56.5625 163.066 56.5899 165.189 56.5945C166.931 56.656 168.666 56.3448 170.278 55.6815C171.648 55.0516 172.524 54.7686 173.214 54.7686C173.649 54.7654 174.075 54.8926 174.437 55.1338C175.122 55.54 175.354 56.6538 175.199 57.4892Z" fill="#BBA17E"/>
<path d="M174.455 4.96323C174.092 5.20108 173.666 5.32651 173.232 5.32384C172.543 5.32384 171.666 5.05452 170.297 4.4109C168.685 3.7477 166.949 3.43644 165.207 3.49797C163.077 3.49797 160.947 3.50862 158.817 3.52992C156.69 3.52992 154.508 3.55731 152.339 3.55731H150.486C148.396 3.55731 149.669 3.55731 147.578 3.52992C145.488 3.50254 143.397 3.55275 141.307 3.55731H82.1623C67.4047 3.55731 36.7439 3.55731 34.635 3.52992C32.5261 3.50254 29.1574 3.50254 27.0212 3.49797C25.2835 3.43685 23.5528 3.74813 21.9453 4.4109C20.5759 5.04083 19.6949 5.32384 19.0056 5.32384C18.5726 5.32697 18.1484 5.20146 17.7869 4.96323C17.1159 4.54784 16.8739 3.43863 17.0383 2.59873C17.0883 2.22298 17.2541 1.87213 17.5125 1.59484C17.771 1.31756 18.1094 1.1276 18.4807 1.05131C18.5643 1.04475 18.6482 1.04475 18.7317 1.05131C19.0517 1.04788 19.3601 1.17092 19.5899 1.39366C19.9791 1.84041 20.1861 2.41725 20.1696 3.00955V3.24691C20.2152 3.56188 20.3385 3.56188 20.4252 3.56188H20.553C20.7949 3.46602 21.0597 3.3519 21.3701 3.21496C23.1581 2.47061 25.0856 2.1203 27.0212 2.18791C29.162 2.18791 32.4987 2.18791 34.635 2.21986C36.7713 2.25182 67.3865 2.24725 82.1486 2.24725H141.266C143.21 2.24725 145.152 2.23812 147.09 2.21986H148.003C149.948 2.21986 148.514 2.24269 150.459 2.24725H152.285C154.453 2.24725 156.63 2.24725 158.748 2.21986C160.866 2.19248 163.025 2.19248 165.18 2.18791C167.114 2.12253 169.039 2.47276 170.826 3.21496C171.128 3.3519 171.392 3.46602 171.639 3.56188H171.762C171.849 3.56188 171.977 3.56188 172.018 3.24691C172.018 3.16931 172.018 3.09172 172.018 3.0415V2.58504H172.063C172.106 2.14148 172.294 1.72436 172.597 1.39823C172.828 1.17632 173.136 1.05343 173.456 1.05588C173.541 1.04931 173.626 1.04931 173.711 1.05588C174.082 1.133 174.419 1.32334 174.677 1.60055C174.934 1.87776 175.099 2.22816 175.149 2.6033C175.354 3.43863 175.122 4.54784 174.455 4.96323Z" fill="#BBA17E"/>
<path d="M174.455 55.129C174.093 54.8878 173.667 54.7606 173.232 54.7638C172.543 54.7638 171.666 55.0332 170.297 55.6768C168.685 56.34 166.949 56.6512 165.207 56.5897C163.077 56.5897 160.947 56.5791 158.817 56.5578C156.689 56.5578 154.508 56.5578 152.339 56.5578H150.486C148.395 56.5578 149.669 56.5578 147.578 56.5851C145.488 56.6125 143.397 56.5851 141.307 56.5578H82.1622C67.4046 56.5578 36.7438 56.5578 34.6349 56.5578C32.526 56.5578 29.1574 56.5851 27.0211 56.5897C25.2835 56.6484 23.5534 56.3373 21.9452 55.6768C20.5758 55.0423 19.6948 54.7638 19.0055 54.7638C18.5725 54.7607 18.1484 54.8862 17.7868 55.1245C17.1158 55.5398 16.8738 56.6536 17.0382 57.4935C17.0891 57.8684 17.2552 58.2183 17.5136 58.4947C17.772 58.7711 18.11 58.9603 18.4806 59.0364C18.5636 59.0505 18.6475 59.0582 18.7316 59.0592C19.0516 59.0626 19.36 58.9396 19.5898 58.7168C19.9798 58.2705 20.1869 57.6934 20.1695 57.1009V56.8636C20.2152 56.5486 20.3384 56.5486 20.4251 56.5486H20.5529C20.7949 56.6445 21.0596 56.7586 21.37 56.9001C23.159 57.6407 25.086 57.9894 27.0211 57.9226C29.1619 57.9226 32.4987 57.9226 34.6349 57.8906C36.7712 57.8587 67.3864 57.8906 82.1485 57.8906H141.265C143.21 57.8906 145.152 57.8998 147.09 57.918H148.003C149.947 57.918 148.514 57.918 150.459 57.8906H152.285C154.453 57.8906 156.63 57.8906 158.748 57.8906C160.866 57.8906 163.025 57.918 165.18 57.9226C167.114 57.988 169.039 57.6377 170.826 56.8955C171.128 56.7586 171.392 56.6445 171.639 56.5486H171.762C171.849 56.5486 171.977 56.5486 172.018 56.8636C172.018 56.9412 172.018 57.0188 172.018 57.069V57.5255H172.063C172.106 57.969 172.294 58.3861 172.597 58.7123C172.828 58.9342 173.136 59.0571 173.455 59.0546C173.541 59.0536 173.627 59.046 173.711 59.0318C174.082 58.9547 174.419 58.7643 174.677 58.4871C174.934 58.2099 175.099 57.8595 175.149 57.4844C175.354 56.6536 175.122 55.5398 174.455 55.129ZM175.199 2.59887C175.149 2.22374 174.984 1.87334 174.727 1.59612C174.469 1.31891 174.132 1.12858 173.761 1.05145C173.676 1.04489 173.591 1.04489 173.506 1.05145C173.186 1.04901 172.878 1.1719 172.648 1.3938C172.344 1.71993 172.156 2.13705 172.113 2.58061H172.068V3.03708C172.068 3.08729 172.068 3.16489 172.068 3.24249C172.027 3.55745 171.899 3.55745 171.812 3.55745H171.689C171.442 3.46159 171.178 3.34748 170.876 3.21054C169.085 2.45417 167.151 2.09297 165.207 2.15153C163.053 2.15153 160.916 2.15153 158.776 2.18349C156.635 2.21544 154.48 2.21087 152.312 2.21087H150.486C148.542 2.21087 149.975 2.21087 148.03 2.18349H147.117C145.179 2.18349 143.237 2.19262 141.293 2.21087H82.1622C67.4001 2.21087 36.7484 2.21087 34.6486 2.18349C32.5489 2.1561 29.1711 2.1561 27.0348 2.15153C25.0992 2.08393 23.1718 2.43423 21.3837 3.17858C21.0733 3.31552 20.8086 3.42964 20.5666 3.5255H20.4388C20.3521 3.5255 20.2289 3.5255 20.1832 3.21054V2.97317C20.1997 2.38087 19.9928 1.80403 19.6035 1.35728C19.3737 1.13454 19.0653 1.0115 18.7454 1.01493C18.6618 1.00837 18.5778 1.00837 18.4943 1.01493C18.123 1.09122 17.7846 1.28118 17.5261 1.55846C17.2676 1.83575 17.1019 2.1866 17.0519 2.56235C16.8967 3.40225 17.1294 4.51146 17.8004 4.92685C18.162 5.16508 18.5862 5.29059 19.0192 5.28746C19.7085 5.28746 20.5849 5.01814 21.9589 4.37452C23.5664 3.71175 25.2971 3.40047 27.0348 3.46159C29.1848 3.46159 32.5124 3.46159 34.6486 3.49354C36.7849 3.5255 67.4183 3.52093 82.1759 3.52093H141.288C143.379 3.52093 145.474 3.52093 147.56 3.49354C149.646 3.46616 148.377 3.51637 150.468 3.52093H152.321C154.489 3.52093 156.671 3.52093 158.798 3.49354C160.925 3.46616 163.066 3.46616 165.189 3.46159C166.931 3.40006 168.666 3.71132 170.278 4.37452C171.648 5.00445 172.524 5.28746 173.214 5.28746C173.648 5.29013 174.073 5.1647 174.437 4.92685C175.122 4.54798 175.354 3.43877 175.199 2.59887ZM191.76 49.9572C191.185 48.7476 189.281 44.644 188.934 42.7268L188.861 42.3616C188.476 40.0528 188.242 37.7215 188.158 35.3823V24.6279C188.242 22.2918 188.477 19.9635 188.861 17.6577L188.93 17.2834C189.277 15.3662 191.18 11.2626 191.755 10.053C192.253 9.00294 192.544 7.86704 192.613 6.70707C192.837 2.69473 191.276 0.31654 188.222 0.0426599C187.994 0.0426599 187.766 0.00614178 187.556 0.00614178C186.409 -0.0241969 185.294 0.383928 184.438 1.14731C182.402 2.97317 182.379 6.35102 182.379 6.50166V6.55187C182.411 6.96269 182.576 7.96691 183.365 8.41425C183.6 8.5427 183.864 8.6087 184.132 8.60597C184.193 8.86587 184.236 9.12975 184.26 9.39565C184.266 9.60522 184.224 9.81339 184.137 10.0041C184.05 10.1948 183.92 10.363 183.758 10.4957L183.703 10.5368C183.61 10.5854 183.522 10.6419 183.438 10.7057L183.292 10.7879C182.905 10.1912 182.465 9.63053 181.978 9.11264L182.019 9.08069L181.594 8.71095L181.494 8.6151C181.412 8.52989 181.325 8.44316 181.234 8.35491L181.056 8.16776L181.033 8.14494C180.651 7.645 180.369 7.07624 180.202 6.4697C180.051 5.60698 180.202 5.05466 180.325 4.92228C180.385 4.90126 180.449 4.89046 180.512 4.89033C180.67 4.89634 180.826 4.93357 180.969 4.99988L181.48 5.26463L181.617 4.70318C181.651 4.4641 181.63 4.22053 181.556 3.99057C181.483 3.7606 181.359 3.55016 181.193 3.37486C181.084 3.22236 180.962 3.08025 180.827 2.95035L180.563 2.69016H180.531C180.144 2.38963 179.68 2.20449 179.193 2.1561C179.128 2.15155 179.062 2.15155 178.997 2.1561C178.458 2.15446 177.936 2.34035 177.52 2.68185C177.103 3.02334 176.819 3.49915 176.715 4.02761C176.659 4.67006 176.82 5.31257 177.171 5.85348C178.084 7.48306 179.495 8.71095 180.823 9.89777L180.882 9.94341C181.269 10.3531 181.624 10.791 181.946 11.2535C181.644 11.3051 181.339 11.3311 181.033 11.3311C180.653 11.33 180.275 11.2964 179.901 11.2306C179.593 11.175 179.303 11.051 179.05 10.8676C178.797 10.6843 178.589 10.4464 178.44 10.1716L177.326 8.19058C177.266 8.0837 177.179 7.99478 177.073 7.93299C176.967 7.87121 176.846 7.8388 176.724 7.8391H176.651L175.386 8.03995C174.847 8.12725 174.295 8.00474 173.843 7.6976C172.241 6.57274 170.357 5.91818 168.402 5.80783H24.2869C22.318 5.91683 20.4197 6.57808 18.8093 7.71586C18.3576 8.023 17.8055 8.14551 17.2664 8.05821L16.0293 7.86193H15.9289C15.8073 7.86054 15.6875 7.89204 15.5822 7.9531C15.477 8.01417 15.3902 8.10252 15.331 8.20884L14.2126 10.1945C14.063 10.4706 13.8532 10.7095 13.5988 10.8936C13.3444 11.0777 13.0518 11.2022 12.7428 11.258C12.3717 11.3205 11.9962 11.3526 11.6199 11.3539C11.314 11.3536 11.0086 11.3276 10.707 11.2763C11.0249 10.8275 11.3726 10.4005 11.7477 9.99819L11.8299 9.92059C13.1993 8.73378 14.5687 7.50588 15.4816 5.8763C15.8336 5.33582 15.9943 4.69297 15.9381 4.05043C15.8342 3.52198 15.5496 3.04617 15.1331 2.70467C14.7167 2.36317 14.1943 2.17729 13.6557 2.17892C13.5889 2.17437 13.5218 2.17437 13.4549 2.17892C12.9681 2.229 12.5049 2.41396 12.1175 2.71299H12.0855L11.8344 2.94122C11.6994 3.06903 11.5771 3.20967 11.4692 3.36117C11.2987 3.53629 11.1694 3.74715 11.0904 3.97848C11.0115 4.2098 10.9849 4.45579 11.0128 4.69861L11.1543 5.25094L11.6656 4.99532C11.809 4.929 11.9641 4.89177 12.122 4.88577C12.1926 4.88514 12.2625 4.89912 12.3274 4.92685C12.4233 5.01358 12.5876 5.57047 12.437 6.43775C12.2752 7.04278 11.9995 7.61137 11.6245 8.11298L11.5788 8.16319L11.4008 8.35034L11.136 8.61053L11.0493 8.69726L10.6294 9.02592L10.6841 9.08069C10.1858 9.6061 9.73661 10.176 9.34216 10.7833L9.19606 10.7011C9.11107 10.6362 9.02102 10.5782 8.92676 10.5277L8.86741 10.4866C8.71081 10.3573 8.58493 10.1948 8.49887 10.0109C8.41282 9.82691 8.36876 9.62612 8.36988 9.42304C8.39472 9.1464 8.43892 8.87185 8.50222 8.6014C8.77003 8.60414 9.03409 8.53813 9.26911 8.40969C10.0862 7.95322 10.2323 6.86227 10.2551 6.54274V6.48796C10.2551 6.34646 10.2323 2.97774 8.19642 1.14274C7.34035 0.379364 6.22532 -0.0287608 5.07872 0.00157788C4.85762 0.00261847 4.63674 0.0148055 4.41687 0.0380943C1.35854 0.325668 -0.202575 2.69016 0.0210938 6.7025C0.0901698 7.86248 0.381507 8.99837 0.879253 10.0484C1.61873 11.6004 3.36697 15.4119 3.70475 17.2788L3.7778 17.6394C4.16245 19.9498 4.39727 22.2827 4.48078 24.6234V35.3503C4.3973 37.6865 4.16247 40.0148 3.7778 42.3206L3.70932 42.6949C3.36241 44.612 1.45897 48.7157 0.883822 49.9253C0.386076 50.9753 0.094739 52.1112 0.0256629 53.2712C-0.198006 57.2835 1.36311 59.6617 4.41687 59.9356C4.63809 59.961 4.86061 59.9732 5.08329 59.9721C6.22989 60.0025 7.34492 59.5943 8.20099 58.831C10.2368 57.0051 10.2597 53.6272 10.2597 53.4857V53.431C10.2368 53.1114 10.0907 52.025 9.27367 51.5686C9.03979 51.4368 8.77523 51.3691 8.50679 51.3723C8.44647 51.1122 8.40381 50.8484 8.37902 50.5826C8.37346 50.3727 8.41625 50.1643 8.50411 49.9735C8.59197 49.7828 8.72253 49.6148 8.88569 49.4825L8.93589 49.4414C9.02883 49.3928 9.11739 49.3363 9.20062 49.2725L9.34673 49.1904C9.75077 49.8053 10.2091 50.3827 10.7161 50.9158L10.6887 50.9478L11.0539 51.2673L11.136 51.3495L11.4145 51.6233L11.5925 51.8105V51.8333C11.9726 52.3343 12.2545 52.9027 12.4233 53.5086C12.5739 54.3758 12.4233 54.9282 12.3 55.056C12.24 55.0774 12.1766 55.0882 12.1129 55.0879C11.955 55.0819 11.7998 55.0447 11.6564 54.9784L11.1452 54.7136L11.0037 55.2751C10.9726 55.5151 10.9949 55.7591 11.0691 55.9895C11.1433 56.2199 11.2675 56.4311 11.4328 56.608C11.5409 56.7579 11.6615 56.8983 11.7934 57.0279L11.8619 57.0918L12.0672 57.2881C12.456 57.5879 12.9208 57.7729 13.4092 57.8222C13.4746 57.8269 13.5402 57.8269 13.6055 57.8222C14.1441 57.8238 14.6665 57.6379 15.0829 57.2964C15.4994 56.9549 15.784 56.4791 15.8879 55.9507C15.9423 55.3083 15.7818 54.666 15.4314 54.1248C14.5185 52.4998 13.108 51.2673 11.7797 50.0805L11.7249 50.0348C11.3383 49.624 10.9814 49.1862 10.6568 48.7248C10.9584 48.6737 11.2638 48.6477 11.5697 48.6472C11.9477 48.6484 12.3249 48.682 12.6972 48.7476C13.0045 48.8032 13.2953 48.9273 13.5482 49.1106C13.8011 49.294 14.0094 49.5318 14.1578 49.8066L15.2716 51.7877C15.331 51.8952 15.4183 51.9847 15.5244 52.0466C15.6305 52.1084 15.7514 52.1404 15.8742 52.1392H15.9472L17.2116 51.9383C17.3233 51.9203 17.4363 51.9112 17.5494 51.9109C17.9799 51.9095 18.4005 52.0401 18.7545 52.2852C20.3747 53.4234 22.2823 54.0829 24.2594 54.1887H168.402C170.37 54.0781 172.268 53.4187 173.88 52.2852C174.234 52.0401 174.655 51.9095 175.085 51.9109C175.198 51.9112 175.311 51.9203 175.423 51.9383L176.66 52.1346H176.76C176.882 52.1355 177.001 52.1038 177.107 52.0428C177.212 51.9818 177.299 51.8937 177.358 51.7877L178.477 49.8021C178.627 49.5266 178.837 49.2881 179.091 49.1041C179.346 48.9201 179.638 48.7952 179.946 48.7385C180.316 48.6762 180.69 48.6441 181.065 48.6426C181.371 48.6427 181.676 48.6686 181.978 48.7202C181.664 49.171 181.318 49.5981 180.941 49.9983L180.859 50.0759C179.49 51.2627 178.121 52.4952 177.208 54.1202C176.856 54.6607 176.695 55.3035 176.751 55.9461C176.855 56.4745 177.14 56.9504 177.556 57.2919C177.973 57.6333 178.495 57.8192 179.034 57.8176C179.1 57.8221 179.167 57.8221 179.234 57.8176C179.72 57.7684 180.182 57.5833 180.567 57.2835H180.599L180.859 57.0279C180.993 56.9005 181.115 56.7615 181.225 56.6125C181.391 56.4348 181.516 56.2222 181.591 55.99C181.665 55.7578 181.686 55.512 181.654 55.2705L181.517 54.7182L181.005 54.9738C180.862 55.0401 180.707 55.0774 180.549 55.0834C180.478 55.0858 180.408 55.0717 180.344 55.0423C180.248 54.9556 180.083 54.3987 180.234 53.5314C180.393 52.9255 180.669 52.3565 181.046 51.8562L181.092 51.8059L181.27 51.6188L181.544 51.3495L181.617 51.2719L182.106 50.893L182.033 50.8382C182.512 50.3259 182.945 49.7731 183.329 49.1858L183.475 49.268C183.549 49.3238 183.627 49.3741 183.708 49.4186L183.804 49.4871C183.96 49.6164 184.086 49.7789 184.172 49.9628C184.258 50.1468 184.302 50.3476 184.301 50.5507C184.275 50.8256 184.231 51.0985 184.169 51.3677C183.9 51.3645 183.636 51.4322 183.402 51.564C182.612 52.0205 182.448 53.011 182.416 53.4218V53.4812C182.416 53.6227 182.416 56.9914 184.475 58.8264C185.321 59.597 186.429 60.0164 187.574 59.9995C187.795 60 188.016 59.9894 188.236 59.9675C191.294 59.6754 192.855 57.3109 192.632 53.2986C192.558 52.1393 192.262 51.0049 191.76 49.9572ZM6.69006 49.6423C5.64019 50.7789 5.56718 51.7055 5.69043 52.2761C5.71932 52.4721 5.79609 52.6579 5.91392 52.8171C6.03176 52.9764 6.18702 53.1041 6.36599 53.189C6.53572 53.2634 6.7193 53.3007 6.90459 53.2986C7.27883 53.2854 7.64412 53.1804 7.96819 52.9927L8.00925 52.9699C8.16727 52.869 8.3474 52.8079 8.5342 52.7919C8.56711 52.7832 8.6017 52.7832 8.63461 52.7919C8.65717 52.8051 8.67726 52.822 8.69395 52.8421C8.76602 53.0533 8.7854 53.2789 8.7504 53.4992C8.71539 53.7196 8.62709 53.9281 8.49314 54.1065C8.03829 54.842 7.37599 55.4265 6.58965 55.7863C6.31562 55.8911 6.02486 55.9452 5.73149 55.9461C5.28974 55.9383 4.85503 55.8339 4.45793 55.6403C4.08326 55.4449 3.75265 55.1748 3.48649 54.8466C3.22034 54.5184 3.02429 54.1392 2.91051 53.7322C2.42665 52.2031 2.64121 50.0166 3.50393 47.7206L3.57242 47.6521V47.5471L3.62719 47.4056C3.62719 47.3554 3.66824 47.3006 3.70932 47.2048L3.75044 47.0998C4.24895 45.8687 4.67567 44.6098 5.02852 43.3294C5.02852 43.3294 5.05593 43.1924 5.05593 43.1696C5.05593 43.1468 5.08787 43.0281 5.097 42.9688C5.48188 40.7763 5.73796 38.5632 5.86388 36.3409C5.86388 35.8844 5.89581 35.5694 5.89581 35.3823V24.6279C5.89581 24.4408 5.89584 24.1076 5.86388 23.6694C5.73867 21.4515 5.48258 19.2429 5.097 17.0552C5.09003 16.9952 5.07939 16.9358 5.06507 16.8771L5.02395 16.6717C4.6747 15.3937 4.24946 14.1377 3.75044 12.9104C3.75044 12.9104 3.71392 12.8283 3.6911 12.7644C3.66828 12.7005 3.64544 12.6594 3.61805 12.5818L3.56785 12.4585V12.3536L3.50393 12.2896C2.64121 10.0073 2.42665 7.80715 2.91051 6.27799C3.07217 5.65069 3.43624 5.09422 3.94625 4.6948C4.45625 4.29538 5.08373 4.07531 5.73149 4.06869C6.0251 4.06692 6.31635 4.12114 6.58965 4.22846C7.37364 4.58353 8.03455 5.1634 8.48857 5.89456C8.62479 6.07363 8.7148 6.2835 8.75062 6.50563C8.78645 6.72775 8.76697 6.95528 8.69395 7.1681C8.67726 7.18817 8.65717 7.20516 8.63461 7.21831C8.60163 7.22643 8.56718 7.22643 8.5342 7.21831C8.33876 7.1998 8.15073 7.134 7.98641 7.02659C7.65733 6.83391 7.28567 6.7257 6.90459 6.71163C6.7193 6.70951 6.53572 6.74685 6.36599 6.82118C6.18773 6.90708 6.03308 7.03509 5.91537 7.19415C5.79767 7.35321 5.72046 7.53854 5.69043 7.73412C5.56718 8.30926 5.64019 9.23589 6.69006 10.3725C7.25945 10.9966 7.91777 11.5334 8.64375 11.9656C8.36987 12.349 8.00924 12.7096 7.76731 12.7096C7.74783 12.7144 7.72746 12.7144 7.70797 12.7096C7.5619 12.5681 7.37477 12.3581 7.15566 12.1162C6.24273 11.0891 5.68584 10.5003 5.10157 10.4775H5.03309C4.9223 10.4791 4.81309 10.5039 4.71247 10.5503C4.61184 10.5967 4.52201 10.6636 4.44879 10.7468C4.03341 11.2033 4.26168 11.7601 5.1107 13.7914L5.13806 13.8553C5.94144 15.7771 7.03699 18.42 6.99591 19.8989C6.93674 21.0154 6.94892 22.1345 7.03241 23.2494V36.7654C6.94868 37.8803 6.9365 38.9994 6.99591 40.1158C7.03699 41.5948 5.94145 44.224 5.14263 46.1503L5.1107 46.2188C4.26168 48.2501 4.03342 48.7978 4.45793 49.268C4.52957 49.3507 4.61778 49.4174 4.71687 49.4638C4.81595 49.5102 4.9237 49.5352 5.03309 49.5373H5.11527C5.69499 49.5053 6.2473 48.9165 7.15566 47.9032L7.2013 47.8529C7.38845 47.643 7.56647 47.4421 7.70797 47.3052H7.76731C8.00924 47.3052 8.36987 47.6704 8.64375 48.0492C7.91869 48.4772 7.26042 49.0093 6.69006 49.6286V49.6423ZM182.754 47.5106C182.206 47.3651 181.641 47.293 181.074 47.2961C180.624 47.2968 180.175 47.335 179.732 47.4102C179.269 47.486 178.811 47.5927 178.362 47.7297L175.532 47.8621C175.409 47.8681 175.29 47.9073 175.187 47.9756C175.084 48.0439 175.001 48.1387 174.948 48.2501L173.789 50.6511C173.382 50.9843 171.096 52.7691 168.37 52.833H24.3142C21.5754 52.7691 19.2931 50.9843 18.8868 50.6511L17.7274 48.2546C17.6751 48.1421 17.593 48.0461 17.49 47.9769C17.387 47.9077 17.2671 47.868 17.1432 47.8621L14.3131 47.7297C13.8644 47.5922 13.4069 47.4855 12.9437 47.4102C12.5003 47.335 12.0514 47.2968 11.6016 47.2961C11.0347 47.293 10.4699 47.3651 9.92188 47.5106C9.09567 45.9951 8.31053 43.9091 8.35617 40.2071V40.093C8.35617 39.7735 8.35615 39.4357 8.39267 39.0614V20.9123C8.39267 20.5608 8.36074 20.2276 8.35617 19.9081V19.7848C8.31053 16.1011 9.09567 14.0151 9.92188 12.4814C10.4699 12.6268 11.0347 12.699 11.6016 12.6959C12.0514 12.6951 12.5003 12.6569 12.9437 12.5818C13.4064 12.506 13.8638 12.4008 14.3131 12.2668L17.1477 12.1299C17.271 12.1239 17.3904 12.0847 17.4933 12.0164C17.5962 11.9481 17.6787 11.8532 17.732 11.7419L18.8914 9.34088C19.2977 9.00766 21.5845 7.22287 24.3096 7.15897H168.375C171.114 7.22287 173.396 8.98483 173.802 9.34088L174.962 11.7373C175.014 11.8498 175.096 11.9459 175.199 12.0151C175.302 12.0843 175.422 12.124 175.546 12.1299L178.376 12.2623C178.825 12.3993 179.283 12.506 179.746 12.5818C180.189 12.6569 180.638 12.6951 181.088 12.6959C181.655 12.699 182.219 12.6268 182.767 12.4814C183.594 13.9968 184.379 16.0829 184.333 19.7848V19.8989C184.333 20.223 184.333 20.5563 184.297 20.9306V39.0797C184.297 39.4311 184.328 39.7689 184.333 40.0839V40.2071C184.379 43.8954 183.58 45.9814 182.754 47.4969V47.5106ZM189.774 53.7322C189.662 54.1366 189.467 54.5137 189.204 54.8403C188.94 55.1669 188.612 55.436 188.24 55.6311C187.84 55.8303 187.4 55.9379 186.953 55.9461C186.659 55.9459 186.368 55.8901 186.095 55.7818C185.312 55.427 184.652 54.849 184.196 54.1202C184.05 53.8874 183.74 53.3032 183.991 52.8421C184.007 52.822 184.028 52.8051 184.05 52.7919C184.083 52.7832 184.118 52.7832 184.15 52.7919C184.346 52.8104 184.534 52.8762 184.698 52.9836C185.027 53.1763 185.399 53.2845 185.78 53.2986C185.964 53.3012 186.146 53.2638 186.314 53.189C186.491 53.1071 186.646 52.9833 186.764 52.8282C186.883 52.6731 186.962 52.4914 186.994 52.2989C187.117 51.7238 187.044 50.7971 185.995 49.6605C185.425 49.0364 184.767 48.4996 184.041 48.0675C184.315 47.6886 184.671 47.3234 184.917 47.3234H184.977C185.118 47.4604 185.296 47.6612 185.483 47.8712L185.529 47.9214C186.442 48.9439 186.999 49.5327 187.583 49.5556H187.652C187.763 49.5528 187.872 49.527 187.972 49.4799C188.073 49.4327 188.163 49.3652 188.236 49.2817C188.651 48.8252 188.423 48.2683 187.574 46.2416L187.542 46.1686C186.743 44.2469 185.648 41.6039 185.689 40.1341C185.745 39.0176 185.733 37.8986 185.652 36.7836V23.2357C185.733 22.1192 185.745 20.9987 185.689 19.8807C185.648 18.4017 186.743 15.7725 187.547 13.8416V13.7777C188.4 11.7465 188.628 11.1987 188.204 10.7285C188.132 10.6462 188.044 10.5801 187.945 10.5344C187.846 10.4888 187.738 10.4647 187.629 10.4638H187.574C186.999 10.4957 186.446 11.08 185.511 12.1253C185.314 12.3444 185.132 12.5498 184.986 12.6913C184.966 12.6962 184.946 12.6962 184.926 12.6913C184.68 12.6913 184.324 12.3307 184.05 11.9473C184.776 11.5152 185.434 10.9784 186.004 10.3542C187.054 9.21763 187.127 8.29101 187.003 7.72042C186.973 7.52484 186.896 7.33951 186.778 7.18046C186.661 7.0214 186.506 6.89339 186.328 6.80749C186.158 6.73316 185.975 6.69582 185.789 6.69794C185.399 6.71356 185.02 6.82655 184.685 7.02659C184.526 7.1275 184.346 7.18859 184.16 7.20462C184.125 7.21277 184.089 7.21277 184.055 7.20462C184.035 7.18974 184.016 7.17292 184 7.1544C183.928 6.94323 183.908 6.71765 183.943 6.49728C183.978 6.27691 184.067 6.06844 184.201 5.88999C184.655 5.15477 185.317 4.57152 186.104 4.21476C186.377 4.10745 186.669 4.05322 186.962 4.055C187.611 4.05956 188.24 4.27942 188.751 4.68009C189.261 5.08076 189.625 5.63957 189.783 6.26886C190.267 7.79346 190.053 9.97993 189.19 12.276L189.121 12.3444V12.4494L189.067 12.5909C189.067 12.6457 189.021 12.7005 188.984 12.7963L188.943 12.8968C188.446 14.1245 188.02 15.3805 187.67 16.658L187.633 16.8315C187.633 16.9 187.601 16.9776 187.592 17.0323C187.205 19.2244 186.949 21.4376 186.825 23.6602C186.825 24.1167 186.793 24.4317 186.793 24.6188V35.3503C186.793 35.5375 186.793 35.8707 186.825 36.3089C186.949 38.5267 187.203 40.7353 187.588 42.9231C187.588 42.9961 187.615 43.0692 187.624 43.1011L187.656 43.2563L188.113 43.1468L187.679 43.3065C188.03 44.5856 188.455 45.8431 188.953 47.0724L189.007 47.2139C189.038 47.2725 189.064 47.3336 189.085 47.3965L189.135 47.5197V47.6247L189.199 47.6886C190.043 50.0029 190.258 52.1894 189.774 53.7185V53.7322Z" fill="#BBA17E"/>
<path d="M191.76 49.9572C191.185 48.7476 189.281 44.644 188.934 42.7268L188.861 42.3616C188.476 40.0528 188.242 37.7215 188.158 35.3823V24.6279C188.242 22.2918 188.477 19.9635 188.861 17.6577L188.93 17.2834C189.277 15.3662 191.18 11.2626 191.755 10.053C192.253 9.00294 192.544 7.86704 192.613 6.70707C192.837 2.69473 191.276 0.31654 188.222 0.0426599C187.994 0.0426599 187.766 0.00614178 187.556 0.00614178C186.409 -0.0241969 185.294 0.383928 184.438 1.14731C182.402 2.97317 182.379 6.35102 182.379 6.50166V6.55187C182.411 6.96269 182.576 7.96691 183.365 8.41425C183.6 8.5427 183.864 8.6087 184.132 8.60597C184.193 8.86587 184.236 9.12975 184.26 9.39565C184.266 9.60522 184.224 9.81339 184.137 10.0041C184.05 10.1948 183.92 10.363 183.758 10.4957L183.703 10.5368C183.61 10.5854 183.522 10.6419 183.438 10.7057L183.292 10.7879C182.905 10.1912 182.465 9.63053 181.978 9.11264L182.019 9.08069L181.594 8.71095L181.494 8.6151C181.412 8.52989 181.325 8.44316 181.234 8.35491L181.056 8.16776L181.033 8.14494C180.651 7.645 180.369 7.07624 180.202 6.4697C180.051 5.60698 180.202 5.05466 180.325 4.92228C180.385 4.90126 180.449 4.89046 180.512 4.89033C180.67 4.89634 180.826 4.93357 180.969 4.99988L181.48 5.26463L181.617 4.70318C181.651 4.4641 181.63 4.22053 181.556 3.99057C181.483 3.7606 181.359 3.55016 181.193 3.37486C181.084 3.22236 180.962 3.08025 180.827 2.95035L180.563 2.69016H180.531C180.144 2.38963 179.68 2.20449 179.193 2.1561C179.128 2.15155 179.062 2.15155 178.997 2.1561C178.458 2.15446 177.936 2.34035 177.52 2.68185C177.103 3.02334 176.819 3.49915 176.715 4.02761C176.659 4.67006 176.82 5.31257 177.171 5.85348C178.084 7.48306 179.495 8.71095 180.823 9.89777L180.882 9.94341C181.269 10.3531 181.624 10.791 181.946 11.2535C181.644 11.3051 181.339 11.3311 181.033 11.3311C180.653 11.33 180.275 11.2964 179.901 11.2306C179.593 11.175 179.303 11.051 179.05 10.8676C178.797 10.6843 178.589 10.4464 178.44 10.1716L177.326 8.19058C177.266 8.0837 177.179 7.99478 177.073 7.93299C176.967 7.87121 176.846 7.8388 176.724 7.8391H176.651L175.386 8.03995C174.847 8.12725 174.295 8.00474 173.843 7.6976C172.241 6.57274 170.357 5.91818 168.402 5.80783H24.2869C22.318 5.91683 20.4197 6.57808 18.8093 7.71586C18.3576 8.023 17.8055 8.14551 17.2664 8.05821L16.0293 7.86193H15.9289C15.8073 7.86054 15.6875 7.89204 15.5822 7.9531C15.477 8.01417 15.3902 8.10252 15.331 8.20884L14.2126 10.1945C14.063 10.4706 13.8532 10.7095 13.5988 10.8936C13.3444 11.0777 13.0518 11.2022 12.7428 11.258C12.3717 11.3205 11.9962 11.3526 11.6199 11.3539C11.314 11.3536 11.0086 11.3276 10.707 11.2763C11.0249 10.8275 11.3726 10.4005 11.7477 9.99819L11.8299 9.92059C13.1993 8.73378 14.5687 7.50588 15.4816 5.8763C15.8336 5.33582 15.9943 4.69297 15.9381 4.05043C15.8342 3.52198 15.5496 3.04617 15.1331 2.70467C14.7167 2.36317 14.1943 2.17729 13.6557 2.17892C13.5889 2.17437 13.5218 2.17437 13.4549 2.17892C12.9681 2.229 12.5049 2.41396 12.1175 2.71299H12.0855L11.8344 2.94122C11.6994 3.06903 11.5771 3.20967 11.4692 3.36117C11.2987 3.53629 11.1694 3.74715 11.0904 3.97848C11.0115 4.2098 10.9849 4.45579 11.0128 4.69861L11.1543 5.25094L11.6656 4.99532C11.809 4.929 11.9641 4.89177 12.122 4.88577C12.1926 4.88514 12.2625 4.89912 12.3274 4.92685C12.4233 5.01358 12.5876 5.57047 12.437 6.43775C12.2752 7.04278 11.9995 7.61137 11.6245 8.11298L11.5788 8.16319L11.4008 8.35034L11.136 8.61053L11.0493 8.69726L10.6294 9.02592L10.6841 9.08069C10.1858 9.6061 9.73661 10.176 9.34216 10.7833L9.19606 10.7011C9.11107 10.6362 9.02102 10.5782 8.92676 10.5277L8.86741 10.4866C8.71081 10.3573 8.58493 10.1948 8.49887 10.0109C8.41282 9.82691 8.36876 9.62612 8.36988 9.42304C8.39472 9.1464 8.43892 8.87185 8.50222 8.6014C8.77003 8.60414 9.03409 8.53813 9.26911 8.40969C10.0862 7.95322 10.2323 6.86227 10.2551 6.54274V6.48796C10.2551 6.34646 10.2323 2.97774 8.19642 1.14274C7.34035 0.379364 6.22532 -0.0287608 5.07872 0.00157788C4.85762 0.00261847 4.63674 0.0148055 4.41687 0.0380943C1.35854 0.325668 -0.202575 2.69016 0.0210938 6.7025C0.0901698 7.86248 0.381507 8.99837 0.879253 10.0484C1.61873 11.6004 3.36697 15.4119 3.70475 17.2788L3.7778 17.6394C4.16245 19.9498 4.39727 22.2827 4.48078 24.6234V35.3503C4.3973 37.6865 4.16247 40.0148 3.7778 42.3206L3.70932 42.6949C3.36241 44.612 1.45897 48.7157 0.883822 49.9253C0.386076 50.9753 0.094739 52.1112 0.0256629 53.2712C-0.198006 57.2835 1.36311 59.6617 4.41687 59.9356C4.63809 59.961 4.86061 59.9732 5.08329 59.9721C6.22989 60.0025 7.34492 59.5943 8.20099 58.831C10.2368 57.0051 10.2597 53.6272 10.2597 53.4857V53.431C10.2368 53.1114 10.0907 52.025 9.27367 51.5686C9.03979 51.4368 8.77523 51.3691 8.50679 51.3723C8.44647 51.1122 8.40381 50.8484 8.37902 50.5826C8.37346 50.3727 8.41625 50.1643 8.50411 49.9735C8.59197 49.7828 8.72253 49.6148 8.88569 49.4825L8.93589 49.4414C9.02883 49.3928 9.11739 49.3363 9.20062 49.2725L9.34673 49.1904C9.75077 49.8053 10.2091 50.3827 10.7161 50.9158L10.6887 50.9478L11.0539 51.2673L11.136 51.3495L11.4145 51.6233L11.5925 51.8105V51.8333C11.9726 52.3343 12.2545 52.9027 12.4233 53.5086C12.5739 54.3758 12.4233 54.9282 12.3 55.056C12.24 55.0774 12.1766 55.0882 12.1129 55.0879C11.955 55.0819 11.7998 55.0447 11.6564 54.9784L11.1452 54.7136L11.0037 55.2751C10.9726 55.5151 10.9949 55.7591 11.0691 55.9895C11.1433 56.2199 11.2675 56.4311 11.4328 56.608C11.5409 56.7579 11.6615 56.8983 11.7934 57.0279L11.8619 57.0918L12.0672 57.2881C12.456 57.5879 12.9208 57.7729 13.4092 57.8222C13.4746 57.8269 13.5402 57.8269 13.6055 57.8222C14.1441 57.8238 14.6665 57.6379 15.0829 57.2964C15.4994 56.9549 15.784 56.4791 15.8879 55.9507C15.9423 55.3083 15.7818 54.666 15.4314 54.1248C14.5185 52.4998 13.108 51.2673 11.7797 50.0805L11.7249 50.0348C11.3383 49.624 10.9814 49.1862 10.6568 48.7248C10.9584 48.6737 11.2638 48.6477 11.5697 48.6472C11.9477 48.6484 12.3249 48.682 12.6972 48.7476C13.0045 48.8032 13.2953 48.9273 13.5482 49.1106C13.8011 49.294 14.0094 49.5318 14.1578 49.8066L15.2716 51.7877C15.331 51.8952 15.4183 51.9847 15.5244 52.0466C15.6305 52.1084 15.7514 52.1404 15.8742 52.1392H15.9472L17.2116 51.9383C17.3233 51.9203 17.4363 51.9112 17.5494 51.9109C17.9799 51.9095 18.4005 52.0401 18.7545 52.2852C20.3747 53.4234 22.2823 54.0829 24.2594 54.1887H168.402C170.37 54.0781 172.268 53.4187 173.88 52.2852C174.234 52.0401 174.655 51.9095 175.085 51.9109C175.198 51.9112 175.311 51.9203 175.423 51.9383L176.66 52.1346H176.76C176.882 52.1355 177.001 52.1038 177.107 52.0428C177.212 51.9818 177.299 51.8937 177.358 51.7877L178.477 49.8021C178.627 49.5266 178.837 49.2881 179.091 49.1041C179.346 48.9201 179.638 48.7952 179.946 48.7385C180.316 48.6762 180.69 48.6441 181.065 48.6426C181.371 48.6427 181.676 48.6686 181.978 48.7202C181.664 49.171 181.318 49.5981 180.941 49.9983L180.859 50.0759C179.49 51.2627 178.121 52.4952 177.208 54.1202C176.856 54.6607 176.695 55.3035 176.751 55.9461C176.855 56.4745 177.14 56.9504 177.556 57.2919C177.973 57.6333 178.495 57.8192 179.034 57.8176C179.1 57.8221 179.167 57.8221 179.234 57.8176C179.72 57.7684 180.182 57.5833 180.567 57.2835H180.599L180.859 57.0279C180.993 56.9005 181.115 56.7615 181.225 56.6125C181.391 56.4348 181.516 56.2222 181.591 55.99C181.665 55.7578 181.686 55.512 181.654 55.2705L181.517 54.7182L181.005 54.9738C180.862 55.0401 180.707 55.0774 180.549 55.0834C180.478 55.0858 180.408 55.0717 180.344 55.0423C180.248 54.9556 180.083 54.3987 180.234 53.5314C180.393 52.9255 180.669 52.3565 181.046 51.8562L181.092 51.8059L181.27 51.6188L181.544 51.3495L181.617 51.2719L182.106 50.893L182.033 50.8382C182.512 50.3259 182.945 49.7731 183.329 49.1858L183.475 49.268C183.549 49.3238 183.627 49.3741 183.708 49.4186L183.804 49.4871C183.96 49.6164 184.086 49.7789 184.172 49.9628C184.258 50.1468 184.302 50.3476 184.301 50.5507C184.275 50.8256 184.231 51.0985 184.169 51.3677C183.9 51.3645 183.636 51.4322 183.402 51.564C182.612 52.0205 182.448 53.011 182.416 53.4218V53.4812C182.416 53.6227 182.416 56.9914 184.475 58.8264C185.321 59.597 186.429 60.0164 187.574 59.9995C187.795 60 188.016 59.9894 188.236 59.9675C191.294 59.6754 192.855 57.3109 192.632 53.2986C192.558 52.1393 192.262 51.0049 191.76 49.9572ZM6.69006 49.6423C5.64019 50.7789 5.56718 51.7055 5.69043 52.2761C5.71932 52.4721 5.79609 52.6579 5.91392 52.8171C6.03176 52.9764 6.18702 53.1041 6.36599 53.189C6.53572 53.2634 6.7193 53.3007 6.90459 53.2986C7.27883 53.2854 7.64412 53.1804 7.96819 52.9927L8.00925 52.9699C8.16727 52.869 8.3474 52.8079 8.5342 52.7919C8.56711 52.7832 8.6017 52.7832 8.63461 52.7919C8.65717 52.8051 8.67726 52.822 8.69395 52.8421C8.76602 53.0533 8.7854 53.2789 8.7504 53.4992C8.71539 53.7196 8.62709 53.9281 8.49314 54.1065C8.03829 54.842 7.37599 55.4265 6.58965 55.7863C6.31562 55.8911 6.02486 55.9452 5.73149 55.9461C5.28974 55.9383 4.85503 55.8339 4.45793 55.6403C4.08326 55.4449 3.75265 55.1748 3.48649 54.8466C3.22034 54.5184 3.02429 54.1392 2.91051 53.7322C2.42665 52.2031 2.64121 50.0166 3.50393 47.7206L3.57242 47.6521V47.5471L3.62719 47.4056C3.62719 47.3554 3.66824 47.3006 3.70932 47.2048L3.75044 47.0998C4.24895 45.8687 4.67567 44.6098 5.02852 43.3294C5.02852 43.3294 5.05593 43.1924 5.05593 43.1696C5.05593 43.1468 5.08787 43.0281 5.097 42.9688C5.48188 40.7763 5.73796 38.5632 5.86388 36.3409C5.86388 35.8844 5.89581 35.5694 5.89581 35.3823V24.6279C5.89581 24.4408 5.89584 24.1076 5.86388 23.6694C5.73867 21.4515 5.48258 19.2429 5.097 17.0552C5.09003 16.9952 5.07939 16.9358 5.06507 16.8771L5.02395 16.6717C4.6747 15.3937 4.24946 14.1377 3.75044 12.9104C3.75044 12.9104 3.71392 12.8283 3.6911 12.7644C3.66828 12.7005 3.64544 12.6594 3.61805 12.5818L3.56785 12.4585V12.3536L3.50393 12.2896C2.64121 10.0073 2.42665 7.80715 2.91051 6.27799C3.07217 5.65069 3.43624 5.09422 3.94625 4.6948C4.45625 4.29538 5.08373 4.07531 5.73149 4.06869C6.0251 4.06692 6.31635 4.12114 6.58965 4.22846C7.37364 4.58353 8.03455 5.1634 8.48857 5.89456C8.62479 6.07363 8.7148 6.2835 8.75062 6.50563C8.78645 6.72775 8.76697 6.95528 8.69395 7.1681C8.67726 7.18817 8.65717 7.20516 8.63461 7.21831C8.60163 7.22643 8.56718 7.22643 8.5342 7.21831C8.33876 7.1998 8.15073 7.134 7.98641 7.02659C7.65733 6.83391 7.28567 6.7257 6.90459 6.71163C6.7193 6.70951 6.53572 6.74685 6.36599 6.82118C6.18773 6.90708 6.03308 7.03509 5.91537 7.19415C5.79767 7.35321 5.72046 7.53854 5.69043 7.73412C5.56718 8.30926 5.64019 9.23589 6.69006 10.3725C7.25945 10.9966 7.91777 11.5334 8.64375 11.9656C8.36987 12.349 8.00924 12.7096 7.76731 12.7096C7.74783 12.7144 7.72746 12.7144 7.70797 12.7096C7.5619 12.5681 7.37477 12.3581 7.15566 12.1162C6.24273 11.0891 5.68584 10.5003 5.10157 10.4775H5.03309C4.9223 10.4791 4.81309 10.5039 4.71247 10.5503C4.61184 10.5967 4.52201 10.6636 4.44879 10.7468C4.03341 11.2033 4.26168 11.7601 5.1107 13.7914L5.13806 13.8553C5.94144 15.7771 7.03699 18.42 6.99591 19.8989C6.93674 21.0154 6.94892 22.1345 7.03241 23.2494V36.7654C6.94868 37.8803 6.9365 38.9994 6.99591 40.1158C7.03699 41.5948 5.94145 44.224 5.14263 46.1503L5.1107 46.2188C4.26168 48.2501 4.03342 48.7978 4.45793 49.268C4.52957 49.3507 4.61778 49.4174 4.71687 49.4638C4.81595 49.5102 4.9237 49.5352 5.03309 49.5373H5.11527C5.69499 49.5053 6.2473 48.9165 7.15566 47.9032L7.2013 47.8529C7.38845 47.643 7.56647 47.4421 7.70797 47.3052H7.76731C8.00924 47.3052 8.36987 47.6704 8.64375 48.0492C7.91869 48.4772 7.26042 49.0093 6.69006 49.6286V49.6423ZM182.754 47.5106C182.206 47.3651 181.641 47.293 181.074 47.2961C180.624 47.2968 180.175 47.335 179.732 47.4102C179.269 47.486 178.811 47.5927 178.362 47.7297L175.532 47.8621C175.409 47.8681 175.29 47.9073 175.187 47.9756C175.084 48.0439 175.001 48.1387 174.948 48.2501L173.789 50.6511C173.382 50.9843 171.096 52.7691 168.37 52.833H24.3142C21.5754 52.7691 19.2931 50.9843 18.8868 50.6511L17.7274 48.2546C17.6751 48.1421 17.593 48.0461 17.49 47.9769C17.387 47.9077 17.2671 47.868 17.1432 47.8621L14.3131 47.7297C13.8644 47.5922 13.4069 47.4855 12.9437 47.4102C12.5003 47.335 12.0514 47.2968 11.6016 47.2961C11.0347 47.293 10.4699 47.3651 9.92188 47.5106C9.09567 45.9951 8.31053 43.9091 8.35617 40.2071V40.093C8.35617 39.7735 8.35615 39.4357 8.39267 39.0614V20.9123C8.39267 20.5608 8.36074 20.2276 8.35617 19.9081V19.7848C8.31053 16.1011 9.09567 14.0151 9.92188 12.4814C10.4699 12.6268 11.0347 12.699 11.6016 12.6959C12.0514 12.6951 12.5003 12.6569 12.9437 12.5818C13.4064 12.506 13.8638 12.4008 14.3131 12.2668L17.1477 12.1299C17.271 12.1239 17.3904 12.0847 17.4933 12.0164C17.5962 11.9481 17.6787 11.8532 17.732 11.7419L18.8914 9.34088C19.2977 9.00766 21.5845 7.22287 24.3096 7.15897H168.375C171.114 7.22287 173.396 8.98483 173.802 9.34088L174.962 11.7373C175.014 11.8498 175.096 11.9459 175.199 12.0151C175.302 12.0843 175.422 12.124 175.546 12.1299L178.376 12.2623C178.825 12.3993 179.283 12.506 179.746 12.5818C180.189 12.6569 180.638 12.6951 181.088 12.6959C181.655 12.699 182.219 12.6268 182.767 12.4814C183.594 13.9968 184.379 16.0829 184.333 19.7848V19.8989C184.333 20.223 184.333 20.5563 184.297 20.9306V39.0797C184.297 39.4311 184.328 39.7689 184.333 40.0839V40.2071C184.379 43.8954 183.58 45.9814 182.754 47.4969V47.5106ZM189.774 53.7322C189.662 54.1366 189.467 54.5137 189.204 54.8403C188.94 55.1669 188.612 55.436 188.24 55.6311C187.84 55.8303 187.4 55.9379 186.953 55.9461C186.659 55.9459 186.368 55.8901 186.095 55.7818C185.312 55.427 184.652 54.849 184.196 54.1202C184.05 53.8874 183.74 53.3032 183.991 52.8421C184.007 52.822 184.028 52.8051 184.05 52.7919C184.083 52.7832 184.118 52.7832 184.15 52.7919C184.346 52.8104 184.534 52.8762 184.698 52.9836C185.027 53.1763 185.399 53.2845 185.78 53.2986C185.964 53.3012 186.146 53.2638 186.314 53.189C186.491 53.1071 186.646 52.9833 186.764 52.8282C186.883 52.6731 186.962 52.4914 186.994 52.2989C187.117 51.7238 187.044 50.7971 185.995 49.6605C185.425 49.0364 184.767 48.4996 184.041 48.0675C184.315 47.6886 184.671 47.3234 184.917 47.3234H184.977C185.118 47.4604 185.296 47.6612 185.483 47.8712L185.529 47.9214C186.442 48.9439 186.999 49.5327 187.583 49.5556H187.652C187.763 49.5528 187.872 49.527 187.972 49.4799C188.073 49.4327 188.163 49.3652 188.236 49.2817C188.651 48.8252 188.423 48.2683 187.574 46.2416L187.542 46.1686C186.743 44.2469 185.648 41.6039 185.689 40.1341C185.745 39.0176 185.733 37.8986 185.652 36.7836V23.2357C185.733 22.1192 185.745 20.9987 185.689 19.8807C185.648 18.4017 186.743 15.7725 187.547 13.8416V13.7777C188.4 11.7465 188.628 11.1987 188.204 10.7285C188.132 10.6462 188.044 10.5801 187.945 10.5344C187.846 10.4888 187.738 10.4647 187.629 10.4638H187.574C186.999 10.4957 186.446 11.08 185.511 12.1253C185.314 12.3444 185.132 12.5498 184.986 12.6913C184.966 12.6962 184.946 12.6962 184.926 12.6913C184.68 12.6913 184.324 12.3307 184.05 11.9473C184.776 11.5152 185.434 10.9784 186.004 10.3542C187.054 9.21763 187.127 8.29101 187.003 7.72042C186.973 7.52484 186.896 7.33951 186.778 7.18046C186.661 7.0214 186.506 6.89339 186.328 6.80749C186.158 6.73316 185.975 6.69582 185.789 6.69794C185.399 6.71356 185.02 6.82655 184.685 7.02659C184.526 7.1275 184.346 7.18859 184.16 7.20462C184.125 7.21277 184.089 7.21277 184.055 7.20462C184.035 7.18974 184.016 7.17292 184 7.1544C183.928 6.94323 183.908 6.71765 183.943 6.49728C183.978 6.27691 184.067 6.06844 184.201 5.88999C184.655 5.15477 185.317 4.57152 186.104 4.21476C186.377 4.10745 186.669 4.05322 186.962 4.055C187.611 4.05956 188.24 4.27942 188.751 4.68009C189.261 5.08076 189.625 5.63957 189.783 6.26886C190.267 7.79346 190.053 9.97993 189.19 12.276L189.121 12.3444V12.4494L189.067 12.5909C189.067 12.6457 189.021 12.7005 188.984 12.7963L188.943 12.8968C188.446 14.1245 188.02 15.3805 187.67 16.658L187.633 16.8315C187.633 16.9 187.601 16.9776 187.592 17.0323C187.205 19.2244 186.949 21.4376 186.825 23.6602C186.825 24.1167 186.793 24.4317 186.793 24.6188V35.3503C186.793 35.5375 186.793 35.8707 186.825 36.3089C186.949 38.5267 187.203 40.7353 187.588 42.9231C187.588 42.9961 187.615 43.0692 187.624 43.1011L187.656 43.2563L188.113 43.1468L187.679 43.3065C188.03 44.5856 188.455 45.8431 188.953 47.0724L189.007 47.2139C189.038 47.2725 189.064 47.3336 189.085 47.3965L189.135 47.5197V47.6247L189.199 47.6886C190.043 50.0029 190.258 52.1894 189.774 53.7185V53.7322Z" fill="#BBA17E"/>
</svg>
