<svg id="Layer_1" data-name="Layer 1" xmlns="http://www.w3.org/2000/svg" viewBox="0 0 193 70"><defs><style>.cls-1,.cls-2{fill:#bba17e;}.cls-2{opacity:0.2;}</style></defs><path class="cls-1" d="M175.2,65.57a1.89,1.89,0,0,1-.47,1,1.91,1.91,0,0,1-1,.54l-.25,0a1.2,1.2,0,0,1-.86-.34,2,2,0,0,1-.54-1.19h0V65c0-.31-.17-.31-.26-.31h-.12c-.25.09-.51.21-.81.34a13.37,13.37,0,0,1-5.65,1c-2.16,0-4.29,0-6.43,0s-4.3,0-6.46,0h-1.83c-1.95,0-.51,0-2.46,0h-.91q-2.91,0-5.82,0H34.65L27,66a13.52,13.52,0,0,1-5.65-1c-.31-.14-.57-.26-.81-.35h-.13c-.09,0-.21,0-.26.31v.24a2.36,2.36,0,0,1-.58,1.62,1.22,1.22,0,0,1-.85.34,1.15,1.15,0,0,1-.26,0,1.75,1.75,0,0,1-1-.54,1.78,1.78,0,0,1-.48-1,2.43,2.43,0,0,1,.75-2.37A2.2,2.2,0,0,1,19,62.85a7.39,7.39,0,0,1,2.94.92,12.25,12.25,0,0,0,5.07.91c2.15,0,5.48,0,7.62,0s32.77,0,47.53,0h59.11c2.09,0,4.18,0,6.27,0s.82,0,2.91,0h8.33c2.13,0,4.27,0,6.39,0a12.32,12.32,0,0,0,5.09-.91,7.66,7.66,0,0,1,2.93-.92,2.25,2.25,0,0,1,1.23.37A2.37,2.37,0,0,1,175.2,65.57Z"/><path class="cls-1" d="M174.46,6.78a2.24,2.24,0,0,1-1.23.36,7.42,7.42,0,0,1-2.93-.91,12.2,12.2,0,0,0-5.09-.92l-6.39,0c-2.13,0-4.31,0-6.48,0h-1.85c-2.09,0-.82,0-2.91,0s-4.18,0-6.27,0H82.16c-14.76,0-45.42,0-47.53,0s-5.47,0-7.61,0A12,12,0,0,0,22,6.23,7.68,7.68,0,0,1,19,7.14a2.18,2.18,0,0,1-1.22-.36A2.39,2.39,0,0,1,17,4.41a1.83,1.83,0,0,1,.47-1,1.78,1.78,0,0,1,1-.54,1,1,0,0,1,.25,0,1.2,1.2,0,0,1,.86.34,2.33,2.33,0,0,1,.58,1.61v.24c0,.32.17.32.26.32h.12L21.37,5A13.69,13.69,0,0,1,27,4c2.14,0,5.48,0,7.61,0s32.76,0,47.52,0h59.12l5.82,0H148c1.95,0,.51,0,2.46,0h1.83c2.16,0,4.34,0,6.46,0s4.27,0,6.43,0a13.69,13.69,0,0,1,5.65,1c.3.14.56.25.81.35h.12c.09,0,.22,0,.26-.32V4.4h0a2.07,2.07,0,0,1,.54-1.19,1.24,1.24,0,0,1,.86-.34,1,1,0,0,1,.25,0,1.86,1.86,0,0,1,1,.55,1.83,1.83,0,0,1,.47,1A2.32,2.32,0,0,1,174.46,6.78Z"/><path class="cls-1" d="M188.93,47.73l-.07-.37a52,52,0,0,1-.62-5.42c0-.52-.06-1-.08-1.56V29.63c0-.52,0-1,.08-1.56a51.47,51.47,0,0,1,.62-5.41l.07-.38a42.77,42.77,0,0,1,2.83-7.23,9.2,9.2,0,0,0,.85-3.34,9.1,9.1,0,0,0-.39-3.52,4.35,4.35,0,0,0-4-3.15c-.23,0-.45,0-.66,0a4.47,4.47,0,0,0-3.12,1.14,4.9,4.9,0,0,0-.84,1,6.58,6.58,0,0,0-.55,1,9.52,9.52,0,0,0-.67,3.31v.05a2.34,2.34,0,0,0,1,1.86,1.54,1.54,0,0,0,.76.2,5.21,5.21,0,0,1,.13.79,1.37,1.37,0,0,1-.12.6,1.55,1.55,0,0,1-.38.5l-.06,0a1.45,1.45,0,0,0-.26.17l-.15.08A12.61,12.61,0,0,0,182,14.11l0,0-.43-.37-.1-.09-.26-.27-.17-.18,0,0a4.85,4.85,0,0,1-.83-1.67,2.26,2.26,0,0,1,.12-1.55.63.63,0,0,1,.19,0A1.2,1.2,0,0,1,181,10l.51.26.14-.56a1.59,1.59,0,0,0-.43-1.33c-.05-.06-.09-.12-.15-.18a2.25,2.25,0,0,0-.21-.24l-.27-.26h0a2.54,2.54,0,0,0-1.34-.53H179a2.29,2.29,0,0,0-1.48.52,2.22,2.22,0,0,0-.46.51,2.31,2.31,0,0,0-.35.84,2.93,2.93,0,0,0,.46,1.82,16.45,16.45,0,0,0,3.65,4.05l.06,0A12.23,12.23,0,0,1,182,16.25a4.77,4.77,0,0,1-.92.08,6.09,6.09,0,0,1-1.13-.1,2,2,0,0,1-.85-.36,2.16,2.16,0,0,1-.61-.7l-1.11-2a.65.65,0,0,0-.26-.26.68.68,0,0,0-.35-.09h-.07l-1.26.2a2.17,2.17,0,0,1-1.55-.34,10.42,10.42,0,0,0-5.44-1.89H24.29a10.49,10.49,0,0,0-5.48,1.91,2.15,2.15,0,0,1-1.54.34L16,12.86h-.1a.73.73,0,0,0-.35.09.69.69,0,0,0-.25.26l-1.12,2a2.06,2.06,0,0,1-.61.7,2.13,2.13,0,0,1-.86.37,7,7,0,0,1-1.12.09,5.49,5.49,0,0,1-.91-.07,10.58,10.58,0,0,1,1-1.28l.08-.08a15.65,15.65,0,0,0,3.65-4,3,3,0,0,0,.46-1.83,2.21,2.21,0,0,0-.37-.86,2.27,2.27,0,0,0-.44-.49,2.32,2.32,0,0,0-1.47-.52h-.21a2.59,2.59,0,0,0-1.33.53h0l-.26.23a1.21,1.21,0,0,0-.21.25,1.14,1.14,0,0,0-.15.17,1.73,1.73,0,0,0-.38.62A1.6,1.6,0,0,0,11,9.7l.14.55.52-.25a1,1,0,0,1,.45-.11.52.52,0,0,1,.21,0,2.27,2.27,0,0,1,.11,1.51,4.82,4.82,0,0,1-.82,1.67l0,.05-.18.19-.35.35-.42.33,0,.05a13.72,13.72,0,0,0-1.34,1.7L9.2,15.7l-.27-.17-.06,0A1.32,1.32,0,0,1,8.5,15a1.31,1.31,0,0,1-.13-.59,5.82,5.82,0,0,1,.13-.82,1.6,1.6,0,0,0,.77-.19,2.41,2.41,0,0,0,1-1.87v0a9.52,9.52,0,0,0-.67-3.3,6.58,6.58,0,0,0-.55-1,5,5,0,0,0-.84-1A4.53,4.53,0,0,0,5.08,5a4.87,4.87,0,0,0-.66,0,4.38,4.38,0,0,0-4,3.15A9.44,9.44,0,0,0,0,11.7a9.07,9.07,0,0,0,.86,3.35A40.38,40.38,0,0,1,3.7,22.28l.08.36a54.46,54.46,0,0,1,.7,7V40.35a54.31,54.31,0,0,1-.7,7l-.07.37A42.57,42.57,0,0,1,.88,54.93,9,9,0,0,0,0,58.27c-.23,4,1.33,6.39,4.39,6.67q.33,0,.66,0A4.53,4.53,0,0,0,8.2,63.83,6.23,6.23,0,0,0,10,60.63a10,10,0,0,0,.29-2.14v-.06a2.37,2.37,0,0,0-1-1.86,1.54,1.54,0,0,0-.76-.2,5.21,5.21,0,0,1-.13-.79A1.42,1.42,0,0,1,8.5,55a1.33,1.33,0,0,1,.39-.49l0,0a1.45,1.45,0,0,0,.26-.17l.15-.08a12,12,0,0,0,1.37,1.73l0,0,.36.32.09.08.27.27.18.19v0a5,5,0,0,1,.83,1.68,2.25,2.25,0,0,1-.12,1.55.58.58,0,0,1-.19,0,1.35,1.35,0,0,1-.45-.11l-.51-.27-.15.57a1.37,1.37,0,0,0,0,.35,1.15,1.15,0,0,0,.07.36,1.68,1.68,0,0,0,.36.62,3.62,3.62,0,0,0,.36.42l.07.06.21.2a2.62,2.62,0,0,0,1.34.53h.2a2.32,2.32,0,0,0,1.47-.52A2.37,2.37,0,0,0,15.89,61a1.71,1.71,0,0,0,0-.32,2.91,2.91,0,0,0-.46-1.51,16.58,16.58,0,0,0-3.65-4l-.06,0a11.23,11.23,0,0,1-1.06-1.31,5.49,5.49,0,0,1,.91-.07,6.17,6.17,0,0,1,1.13.1,2.06,2.06,0,0,1,1.46,1.06l1.11,2a.78.78,0,0,0,.25.26.73.73,0,0,0,.35.09H16l1.26-.2a2,2,0,0,1,.34,0,2.06,2.06,0,0,1,1.2.38,10.67,10.67,0,0,0,5.51,1.9H168.4a10.57,10.57,0,0,0,5.48-1.9,2.07,2.07,0,0,1,1.21-.38l.33,0,1.24.19h.1a.63.63,0,0,0,.35-.09.75.75,0,0,0,.25-.25l1.12-2A2.05,2.05,0,0,1,180,53.74a7,7,0,0,1,1.12-.1,5.59,5.59,0,0,1,.91.08,11.62,11.62,0,0,1-1,1.28l-.08.08a15.65,15.65,0,0,0-3.65,4,2.88,2.88,0,0,0-.46,1.51,1.71,1.71,0,0,0,0,.32A2.34,2.34,0,0,0,179,62.82h.2a2.63,2.63,0,0,0,1.34-.54h0l.26-.25a3.7,3.7,0,0,0,.37-.42,1.68,1.68,0,0,0,.36-.62,1.53,1.53,0,0,0,.07-.36,1.45,1.45,0,0,0,0-.36l-.13-.55L181,60a1.07,1.07,0,0,1-.46.11.39.39,0,0,1-.21,0,2.27,2.27,0,0,1-.11-1.51,4.82,4.82,0,0,1,.82-1.67l0,0,.18-.19.27-.27.08-.08.49-.38-.08,0a12.09,12.09,0,0,0,1.3-1.65l.15.08.23.15.09.07a1.29,1.29,0,0,1,.37.47,1.37,1.37,0,0,1,.13.59,7.37,7.37,0,0,1-.13.82,1.49,1.49,0,0,0-.77.19,2.35,2.35,0,0,0-1,1.86v.06a9.33,9.33,0,0,0,.29,2.15,6.23,6.23,0,0,0,1.77,3.2,4.47,4.47,0,0,0,3,1.17h.08c.22,0,.45,0,.67,0,3-.29,4.61-2.66,4.39-6.67a9,9,0,0,0-.87-3.34A42.77,42.77,0,0,1,188.93,47.73ZM6.69,54.63h0a3.71,3.71,0,0,0-1,1.72,2.06,2.06,0,0,0,0,.92.19.19,0,0,0,0,.07,1.16,1.16,0,0,0,.2.47,1.28,1.28,0,0,0,.46.37,1.4,1.4,0,0,0,.53.11A2.25,2.25,0,0,0,8,58l0,0a1.24,1.24,0,0,1,.52-.18h.1s0,0,.06.05a1.24,1.24,0,0,1,.06.66,1.28,1.28,0,0,1-.26.61A4.37,4.37,0,0,1,6.9,60.63l-.31.16a2.52,2.52,0,0,1-.86.16,3.12,3.12,0,0,1-1.27-.31,3.12,3.12,0,0,1-1-.79,3,3,0,0,1-.58-1.12,9.78,9.78,0,0,1,.59-6l.07-.07v-.1l.06-.14a.83.83,0,0,1,.08-.21l0-.1A33.45,33.45,0,0,0,5,48.33s0-.14,0-.16,0-.14,0-.2c.27-1.54.48-3.1.61-4.66.07-.65.11-1.31.15-2,0-.46,0-.77,0-1V29.63c0-.19,0-.52,0-1,0-.66-.08-1.32-.15-2-.13-1.56-.34-3.11-.61-4.64l0-.18L5,21.67a33.23,33.23,0,0,0-1.27-3.76,1,1,0,0,1-.06-.15l-.07-.18-.05-.12v-.11l-.07-.06a9.77,9.77,0,0,1-.59-6,2.94,2.94,0,0,1,2.8-2.21h0a2.27,2.27,0,0,1,.86.16,4.36,4.36,0,0,1,1.9,1.66,1.49,1.49,0,0,1,.26.62,1.24,1.24,0,0,1-.06.66.1.1,0,0,1-.06.05h-.1A1.29,1.29,0,0,1,8,12a2.3,2.3,0,0,0-1.09-.32,1.4,1.4,0,0,0-.53.11,1.26,1.26,0,0,0-.45.37,1.17,1.17,0,0,0-.21.47.19.19,0,0,0,0,.07,2.11,2.11,0,0,0,0,.93,3.64,3.64,0,0,0,1,1.71,8.81,8.81,0,0,0,2,1.6c-.27.38-.63.74-.87.74H7.71c-.15-.14-.34-.35-.55-.59A8.38,8.38,0,0,0,5.71,15.7a1.2,1.2,0,0,0-.61-.22H5a.71.71,0,0,0-.32.07.73.73,0,0,0-.26.2c-.42.45-.19,1,.66,3l0,.07c.18.43.38.9.57,1.39A14.37,14.37,0,0,1,7,24.9a26.75,26.75,0,0,0,0,3.35V41.77a26.73,26.73,0,0,0,0,3.35,14.45,14.45,0,0,1-1.29,4.64c-.19.48-.39,1-.57,1.39l0,.07c-.85,2-1.08,2.58-.65,3.05a.7.7,0,0,0,.26.19.68.68,0,0,0,.31.08h.09a1.17,1.17,0,0,0,.59-.22A8.38,8.38,0,0,0,7.16,52.9l0,0c.19-.21.37-.41.51-.54h.06c.24,0,.6.36.87.74A8.72,8.72,0,0,0,6.69,54.63ZM182.75,52.5h0a6.29,6.29,0,0,0-1.68-.21,8.65,8.65,0,0,0-1.34.11,10.88,10.88,0,0,0-1.37.32l-2.83.13a.7.7,0,0,0-.34.12.57.57,0,0,0-.24.27l-1.16,2.4a9.72,9.72,0,0,1-5.42,2.18H24.31a9.69,9.69,0,0,1-5.42-2.18l-1.16-2.4a.72.72,0,0,0-.59-.39l-2.83-.13a10.49,10.49,0,0,0-1.37-.32,8.55,8.55,0,0,0-1.34-.11,6.34,6.34,0,0,0-1.68.21,13.91,13.91,0,0,1-1.56-7.3v-.12c0-.32,0-.65,0-1V25.91c0-.35,0-.68,0-1v-.13a14,14,0,0,1,1.56-7.3,6.35,6.35,0,0,0,1.68.22,7.5,7.5,0,0,0,1.34-.12,10.46,10.46,0,0,0,1.37-.31l2.84-.14a.8.8,0,0,0,.34-.11.65.65,0,0,0,.24-.28l1.16-2.4a9.72,9.72,0,0,1,5.42-2.18H168.38a9.47,9.47,0,0,1,5.42,2.18l1.16,2.4a.72.72,0,0,0,.24.28.8.8,0,0,0,.35.11l2.83.13a8.81,8.81,0,0,0,1.37.32,7.5,7.5,0,0,0,1.34.12,6.41,6.41,0,0,0,1.68-.22,13.94,13.94,0,0,1,1.56,7.3v.12c0,.32,0,.66,0,1V44.08c0,.35,0,.69,0,1v.13A13.79,13.79,0,0,1,182.75,52.5Zm7,6.22h0a3.08,3.08,0,0,1-1.53,1.9A3,3,0,0,1,187,61a2.26,2.26,0,0,1-.85-.17l-.31-.15a4.35,4.35,0,0,1-1.59-1.51,1.37,1.37,0,0,1-.21-1.28l.06-.05h.1a1.34,1.34,0,0,1,.55.19,2.3,2.3,0,0,0,1.08.32,1.36,1.36,0,0,0,.53-.11,1.14,1.14,0,0,0,.45-.36,1.19,1.19,0,0,0,.23-.53,2.94,2.94,0,0,0-1-2.64,8.33,8.33,0,0,0-2-1.59c.28-.38.63-.75.88-.75H185c.14.14.32.34.5.55l.05.05c.91,1,1.47,1.61,2.05,1.64h.07a.89.89,0,0,0,.32-.08.86.86,0,0,0,.27-.2c.26-.29.26-.63,0-1.37-.14-.41-.37-.95-.67-1.67l0-.07c-.8-1.92-1.89-4.57-1.85-6a28.83,28.83,0,0,0,0-3.35V28.24a29,29,0,0,0,0-3.36c0-1.48,1.05-4.11,1.86-6v-.06c.32-.76.55-1.32.69-1.74.23-.66.23-1,0-1.26l0,0a1,1,0,0,0-.25-.2.88.88,0,0,0-.32-.07h-.06c-.57,0-1.12.62-2.06,1.67-.2.21-.38.42-.52.56h-.06c-.25,0-.61-.36-.88-.74a8.33,8.33,0,0,0,1.95-1.6,2.93,2.93,0,0,0,1-2.63,1.17,1.17,0,0,0-.22-.54,1.15,1.15,0,0,0-.45-.37,1.24,1.24,0,0,0-.54-.11,2.31,2.31,0,0,0-1.11.33,1,1,0,0,1-.52.17.21.21,0,0,1-.11,0l-.05,0a1.43,1.43,0,0,1-.06-.65,1.51,1.51,0,0,1,.26-.61,4.35,4.35,0,0,1,1.9-1.68,2.33,2.33,0,0,1,.86-.15,2.83,2.83,0,0,1,1.28.3,3.36,3.36,0,0,1,.51.32,2.94,2.94,0,0,1,1,1.59,9.71,9.71,0,0,1-.59,6l-.07.06v.11l-.05.14c0,.06,0,.11-.09.21l0,.1c-.25.62-.48,1.25-.7,1.89s-.4,1.24-.57,1.87l0,.17a1,1,0,0,1,0,.2,59,59,0,0,0-.77,6.63c0,.46,0,.77,0,1V40.35c0,.19,0,.52,0,1a56.2,56.2,0,0,0,.77,6.61,1.3,1.3,0,0,0,0,.18l0,.16.45-.11-.43.16c.17.62.36,1.23.56,1.84s.46,1.29.71,1.92l.06.14c0,.06.05.12.08.19l0,.12v.1l.07.07A9.9,9.9,0,0,1,189.77,58.72Z"/><path class="cls-2" d="M184.3,25.93V44.08c0,.35,0,.69,0,1v.13a13.79,13.79,0,0,1-1.58,7.29h0a6.29,6.29,0,0,0-1.68-.21,8.65,8.65,0,0,0-1.34.11,10.88,10.88,0,0,0-1.37.32l-2.83.13a.7.7,0,0,0-.34.12.57.57,0,0,0-.24.27l-1.16,2.4a9.72,9.72,0,0,1-5.42,2.18H24.31a9.69,9.69,0,0,1-5.42-2.18l-1.16-2.4a.72.72,0,0,0-.59-.39l-2.83-.13a10.49,10.49,0,0,0-1.37-.32,8.55,8.55,0,0,0-1.34-.11,6.34,6.34,0,0,0-1.68.21,13.91,13.91,0,0,1-1.56-7.3v-.12c0-.32,0-.65,0-1V25.91c0-.35,0-.68,0-1v-.13a14,14,0,0,1,1.56-7.3,6.35,6.35,0,0,0,1.68.22,7.5,7.5,0,0,0,1.34-.12,10.46,10.46,0,0,0,1.37-.31l2.84-.14a.8.8,0,0,0,.34-.11.65.65,0,0,0,.24-.28l1.16-2.4a9.72,9.72,0,0,1,5.42-2.18H168.38a9.47,9.47,0,0,1,5.42,2.18l1.16,2.4a.72.72,0,0,0,.24.28.8.8,0,0,0,.35.11l2.83.13a8.81,8.81,0,0,0,1.37.32,7.5,7.5,0,0,0,1.34.12,6.41,6.41,0,0,0,1.68-.22,13.94,13.94,0,0,1,1.56,7.3v.12C184.33,25.22,184.33,25.56,184.3,25.93Z"/><path class="cls-2" d="M189.2,52.69a9.9,9.9,0,0,1,.57,6h0a3.08,3.08,0,0,1-1.53,1.9A3,3,0,0,1,187,61a2.26,2.26,0,0,1-.85-.17l-.31-.15a4.35,4.35,0,0,1-1.59-1.51,1.37,1.37,0,0,1-.21-1.28l.06-.05h.1a1.34,1.34,0,0,1,.55.19,2.3,2.3,0,0,0,1.08.32,1.36,1.36,0,0,0,.53-.11,1.14,1.14,0,0,0,.45-.36,1.19,1.19,0,0,0,.23-.53,2.94,2.94,0,0,0-1-2.64,8.33,8.33,0,0,0-2-1.59c.28-.38.63-.75.88-.75H185c.14.14.32.34.5.55l.05.05c.91,1,1.47,1.61,2.05,1.64h.07a.89.89,0,0,0,.32-.08.86.86,0,0,0,.27-.2c.26-.29.26-.63,0-1.37-.14-.41-.37-.95-.67-1.67l0-.07c-.8-1.92-1.89-4.57-1.85-6a28.83,28.83,0,0,0,0-3.35V28.24a29,29,0,0,0,0-3.36c0-1.48,1.05-4.11,1.86-6v-.06c.32-.76.55-1.32.69-1.74.23-.66.23-1,0-1.26l0,0a1,1,0,0,0-.25-.2.88.88,0,0,0-.32-.07h-.06c-.57,0-1.12.62-2.06,1.67-.2.21-.38.42-.52.56h-.06c-.25,0-.61-.36-.88-.74a8.33,8.33,0,0,0,1.95-1.6,2.93,2.93,0,0,0,1-2.63,1.17,1.17,0,0,0-.22-.54,1.15,1.15,0,0,0-.45-.37,1.24,1.24,0,0,0-.54-.11,2.31,2.31,0,0,0-1.11.33,1,1,0,0,1-.52.17.21.21,0,0,1-.11,0l-.05,0a1.43,1.43,0,0,1-.06-.65,1.51,1.51,0,0,1,.26-.61,4.35,4.35,0,0,1,1.9-1.68,2.33,2.33,0,0,1,.86-.15,2.83,2.83,0,0,1,1.28.3,3.36,3.36,0,0,1,.51.32,2.94,2.94,0,0,1,1,1.59,9.71,9.71,0,0,1-.59,6l-.07.06v.11l-.05.14c0,.06,0,.11-.09.21l0,.1c-.25.62-.48,1.25-.7,1.89s-.4,1.24-.57,1.87l0,.17a1,1,0,0,1,0,.2,59,59,0,0,0-.77,6.63c0,.46,0,.77,0,1V40.35c0,.19,0,.52,0,1a56.2,56.2,0,0,0,.77,6.61,1.3,1.3,0,0,0,0,.18l0,.16.45-.11-.43.16c.17.62.36,1.23.56,1.84s.46,1.29.71,1.92l.06.14c0,.06.05.12.08.19l0,.12v.1Z"/><path class="cls-2" d="M8.69,57.84a1.24,1.24,0,0,1,.06.66,1.28,1.28,0,0,1-.26.61A4.37,4.37,0,0,1,6.9,60.63l-.31.16a2.52,2.52,0,0,1-.86.16,3.12,3.12,0,0,1-1.27-.31,3.12,3.12,0,0,1-1-.79,3,3,0,0,1-.58-1.12,9.78,9.78,0,0,1,.59-6l.07-.07v-.1l.06-.14a.83.83,0,0,1,.08-.21l0-.1A33.45,33.45,0,0,0,5,48.33s0-.14,0-.16,0-.14,0-.2c.27-1.54.48-3.1.61-4.66.07-.65.11-1.31.15-2,0-.46,0-.77,0-1V29.63c0-.19,0-.52,0-1,0-.66-.08-1.32-.15-2-.13-1.56-.34-3.11-.61-4.64l0-.18L5,21.67a33.23,33.23,0,0,0-1.27-3.76,1,1,0,0,1-.06-.15l-.07-.18-.05-.12v-.11l-.07-.06a9.77,9.77,0,0,1-.59-6,2.94,2.94,0,0,1,2.8-2.21h0a2.27,2.27,0,0,1,.86.16,4.36,4.36,0,0,1,1.9,1.66,1.49,1.49,0,0,1,.26.62,1.24,1.24,0,0,1-.06.66.1.1,0,0,1-.06.05h-.1A1.29,1.29,0,0,1,8,12a2.3,2.3,0,0,0-1.09-.32,1.4,1.4,0,0,0-.53.11,1.26,1.26,0,0,0-.45.37,1.17,1.17,0,0,0-.21.47.19.19,0,0,0,0,.07,2.11,2.11,0,0,0,0,.93,3.64,3.64,0,0,0,1,1.71,8.81,8.81,0,0,0,2,1.6c-.27.38-.63.74-.87.74H7.71c-.15-.14-.34-.35-.55-.59A8.38,8.38,0,0,0,5.71,15.7a1.2,1.2,0,0,0-.61-.22H5a.71.71,0,0,0-.32.07.73.73,0,0,0-.26.2c-.42.45-.19,1,.66,3l0,.07c.18.43.38.9.57,1.39A14.37,14.37,0,0,1,7,24.9a26.75,26.75,0,0,0,0,3.35V41.77a26.73,26.73,0,0,0,0,3.35,14.45,14.45,0,0,1-1.29,4.64c-.19.48-.39,1-.57,1.39l0,.07c-.85,2-1.08,2.58-.65,3.05a.7.7,0,0,0,.26.19.68.68,0,0,0,.31.08h.09a1.17,1.17,0,0,0,.59-.22A8.38,8.38,0,0,0,7.16,52.9l0,0c.19-.21.37-.41.51-.54h.06c.24,0,.6.36.87.74a8.72,8.72,0,0,0-1.95,1.58h0a3.71,3.71,0,0,0-1,1.72,2.06,2.06,0,0,0,0,.92.19.19,0,0,0,0,.07,1.16,1.16,0,0,0,.2.47,1.28,1.28,0,0,0,.46.37,1.4,1.4,0,0,0,.53.11A2.25,2.25,0,0,0,8,58l0,0a1.24,1.24,0,0,1,.52-.18h.1S8.68,57.82,8.69,57.84Z"/></svg>