<svg width="193" height="69" viewBox="0 0 193 69" fill="none" xmlns="http://www.w3.org/2000/svg">
<path d="M191.76 53.9572C191.185 52.7476 189.281 48.644 188.934 46.7268L188.861 46.3616C188.476 44.0528 188.242 41.7215 188.158 39.3823V28.6279C188.242 26.2918 188.477 23.9635 188.861 21.6577L188.93 21.2834C189.277 19.3662 191.18 15.2626 191.755 14.053C192.253 13.0029 192.544 11.867 192.613 10.7071C192.837 6.69473 191.276 4.31654 188.222 4.04266C187.994 4.04266 187.766 4.00614 187.556 4.00614C186.409 3.9758 185.294 4.38393 184.438 5.14731C182.402 6.97317 182.379 10.351 182.379 10.5017V10.5519C182.411 10.9627 182.576 11.9669 183.365 12.4143C183.6 12.5427 183.864 12.6087 184.132 12.606C184.193 12.8659 184.236 13.1298 184.26 13.3957C184.266 13.6052 184.224 13.8134 184.137 14.0041C184.05 14.1948 183.92 14.363 183.758 14.4957L183.703 14.5368C183.61 14.5854 183.522 14.6419 183.438 14.7057L183.292 14.7879C182.905 14.1912 182.465 13.6305 181.978 13.1126L182.019 13.0807L181.594 12.711L181.494 12.6151C181.412 12.5299 181.325 12.4432 181.234 12.3549L181.056 12.1678L181.033 12.1449C180.651 11.645 180.369 11.0762 180.202 10.4697C180.051 9.60698 180.202 9.05466 180.325 8.92228C180.385 8.90126 180.449 8.89046 180.512 8.89033C180.67 8.89634 180.826 8.93357 180.969 8.99988L181.48 9.26463L181.617 8.70318C181.651 8.4641 181.63 8.22053 181.556 7.99057C181.483 7.7606 181.359 7.55016 181.193 7.37486C181.084 7.22236 180.962 7.08025 180.827 6.95035L180.563 6.69016H180.531C180.144 6.38963 179.68 6.20449 179.193 6.1561C179.128 6.15155 179.062 6.15155 178.997 6.1561C178.458 6.15446 177.936 6.34035 177.52 6.68185C177.103 7.02334 176.819 7.49915 176.715 8.02761C176.659 8.67006 176.82 9.31257 177.171 9.85348C178.084 11.4831 179.495 12.711 180.823 13.8978L180.882 13.9434C181.269 14.3531 181.624 14.791 181.946 15.2535C181.644 15.3051 181.339 15.3311 181.033 15.3311C180.653 15.33 180.275 15.2964 179.901 15.2306C179.593 15.175 179.303 15.051 179.05 14.8676C178.797 14.6843 178.589 14.4464 178.44 14.1716L177.326 12.1906C177.266 12.0837 177.179 11.9948 177.073 11.933C176.967 11.8712 176.846 11.8388 176.724 11.8391H176.651L175.386 12.0399C174.847 12.1273 174.295 12.0047 173.843 11.6976C172.241 10.5727 170.357 9.91818 168.402 9.80783H24.2869C22.318 9.91683 20.4197 10.5781 18.8093 11.7159C18.3576 12.023 17.8055 12.1455 17.2664 12.0582L16.0293 11.8619H15.9289C15.8073 11.8605 15.6875 11.892 15.5822 11.9531C15.477 12.0142 15.3902 12.1025 15.331 12.2088L14.2126 14.1945C14.063 14.4706 13.8532 14.7095 13.5988 14.8936C13.3444 15.0777 13.0518 15.2022 12.7428 15.258C12.3717 15.3205 11.9962 15.3526 11.6199 15.3539C11.314 15.3536 11.0086 15.3276 10.707 15.2763C11.0249 14.8275 11.3726 14.4005 11.7477 13.9982L11.8299 13.9206C13.1993 12.7338 14.5687 11.5059 15.4816 9.8763C15.8336 9.33582 15.9943 8.69297 15.9381 8.05043C15.8342 7.52198 15.5496 7.04617 15.1331 6.70467C14.7167 6.36317 14.1943 6.17729 13.6557 6.17892C13.5889 6.17437 13.5218 6.17437 13.4549 6.17892C12.9681 6.229 12.5049 6.41396 12.1175 6.71299H12.0855L11.8344 6.94122C11.6994 7.06903 11.5771 7.20967 11.4692 7.36117C11.2987 7.53629 11.1694 7.74715 11.0904 7.97848C11.0115 8.2098 10.9849 8.45579 11.0128 8.69861L11.1543 9.25094L11.6656 8.99532C11.809 8.929 11.9641 8.89177 12.122 8.88577C12.1926 8.88514 12.2625 8.89912 12.3274 8.92685C12.4233 9.01358 12.5876 9.57047 12.437 10.4378C12.2752 11.0428 11.9995 11.6114 11.6245 12.113L11.5788 12.1632L11.4008 12.3503L11.136 12.6105L11.0493 12.6973L10.6294 13.0259L10.6841 13.0807C10.1858 13.6061 9.73661 14.176 9.34216 14.7833L9.19606 14.7011C9.11107 14.6362 9.02102 14.5782 8.92676 14.5277L8.86741 14.4866C8.71081 14.3573 8.58493 14.1948 8.49887 14.0109C8.41282 13.8269 8.36876 13.6261 8.36988 13.423C8.39472 13.1464 8.43892 12.8718 8.50222 12.6014C8.77003 12.6041 9.03409 12.5381 9.26911 12.4097C10.0862 11.9532 10.2323 10.8623 10.2551 10.5427V10.488C10.2551 10.3465 10.2323 6.97774 8.19642 5.14274C7.34035 4.37936 6.22532 3.97124 5.07872 4.00158C4.85762 4.00262 4.63674 4.01481 4.41687 4.03809C1.35854 4.32567 -0.202575 6.69016 0.0210938 10.7025C0.0901698 11.8625 0.381507 12.9984 0.879253 14.0484C1.61873 15.6004 3.36697 19.4119 3.70475 21.2788L3.7778 21.6394C4.16245 23.9498 4.39727 26.2827 4.48078 28.6234V39.3503C4.3973 41.6865 4.16247 44.0148 3.7778 46.3206L3.70932 46.6949C3.36241 48.612 1.45897 52.7157 0.883822 53.9253C0.386076 54.9753 0.094739 56.1112 0.0256629 57.2712C-0.198006 61.2835 1.36311 63.6617 4.41687 63.9356C4.63809 63.961 4.86061 63.9732 5.08329 63.9721C6.22989 64.0025 7.34492 63.5943 8.20099 62.831C10.2368 61.0051 10.2597 57.6272 10.2597 57.4857V57.431C10.2368 57.1114 10.0907 56.025 9.27367 55.5686C9.03979 55.4368 8.77523 55.3691 8.50679 55.3723C8.44647 55.1122 8.40381 54.8484 8.37902 54.5826C8.37346 54.3727 8.41625 54.1643 8.50411 53.9735C8.59197 53.7828 8.72253 53.6148 8.88569 53.4825L8.93589 53.4414C9.02883 53.3928 9.11739 53.3363 9.20062 53.2725L9.34673 53.1904C9.75077 53.8053 10.2091 54.3827 10.7161 54.9158L10.6887 54.9478L11.0539 55.2673L11.136 55.3495L11.4145 55.6233L11.5925 55.8105V55.8333C11.9726 56.3343 12.2545 56.9027 12.4233 57.5086C12.5739 58.3758 12.4233 58.9282 12.3 59.056C12.24 59.0774 12.1766 59.0882 12.1129 59.0879C11.955 59.0819 11.7998 59.0447 11.6564 58.9784L11.1452 58.7136L11.0037 59.2751C10.9726 59.5151 10.9949 59.7591 11.0691 59.9895C11.1433 60.2199 11.2675 60.4311 11.4328 60.608C11.5409 60.7579 11.6615 60.8983 11.7934 61.0279L11.8619 61.0918L12.0672 61.2881C12.456 61.5879 12.9208 61.7729 13.4092 61.8222C13.4746 61.8269 13.5402 61.8269 13.6055 61.8222C14.1441 61.8238 14.6665 61.6379 15.0829 61.2964C15.4994 60.9549 15.784 60.4791 15.8879 59.9507C15.9423 59.3083 15.7818 58.666 15.4314 58.1248C14.5185 56.4998 13.108 55.2673 11.7797 54.0805L11.7249 54.0348C11.3383 53.624 10.9814 53.1862 10.6568 52.7248C10.9584 52.6737 11.2638 52.6477 11.5697 52.6472C11.9477 52.6484 12.3249 52.682 12.6972 52.7476C13.0045 52.8032 13.2953 52.9273 13.5482 53.1106C13.8011 53.294 14.0094 53.5318 14.1578 53.8066L15.2716 55.7877C15.331 55.8952 15.4183 55.9847 15.5244 56.0466C15.6305 56.1084 15.7514 56.1404 15.8742 56.1392H15.9472L17.2116 55.9383C17.3233 55.9203 17.4363 55.9112 17.5494 55.9109C17.9799 55.9095 18.4005 56.0401 18.7545 56.2852C20.3747 57.4234 22.2823 58.0829 24.2594 58.1887H168.402C170.37 58.0781 172.268 57.4187 173.88 56.2852C174.234 56.0401 174.655 55.9095 175.085 55.9109C175.198 55.9112 175.311 55.9203 175.423 55.9383L176.66 56.1346H176.76C176.882 56.1355 177.001 56.1038 177.107 56.0428C177.212 55.9818 177.299 55.8937 177.358 55.7877L178.477 53.8021C178.627 53.5266 178.837 53.2881 179.091 53.1041C179.346 52.9201 179.638 52.7952 179.946 52.7385C180.316 52.6762 180.69 52.6441 181.065 52.6426C181.371 52.6427 181.676 52.6686 181.978 52.7202C181.664 53.171 181.318 53.5981 180.941 53.9983L180.859 54.0759C179.49 55.2627 178.121 56.4952 177.208 58.1202C176.856 58.6607 176.695 59.3035 176.751 59.9461C176.855 60.4745 177.14 60.9504 177.556 61.2919C177.973 61.6333 178.495 61.8192 179.034 61.8176C179.1 61.8221 179.167 61.8221 179.234 61.8176C179.72 61.7684 180.182 61.5833 180.567 61.2835H180.599L180.859 61.0279C180.993 60.9005 181.115 60.7615 181.225 60.6125C181.391 60.4348 181.516 60.2222 181.591 59.99C181.665 59.7578 181.686 59.512 181.654 59.2705L181.517 58.7182L181.005 58.9738C180.862 59.0401 180.707 59.0774 180.549 59.0834C180.478 59.0858 180.408 59.0717 180.344 59.0423C180.248 58.9556 180.083 58.3987 180.234 57.5314C180.393 56.9255 180.669 56.3565 181.046 55.8562L181.092 55.8059L181.27 55.6188L181.544 55.3495L181.617 55.2719L182.106 54.893L182.033 54.8382C182.512 54.3259 182.945 53.7731 183.329 53.1858L183.475 53.268C183.549 53.3238 183.627 53.3741 183.708 53.4186L183.804 53.4871C183.96 53.6164 184.086 53.7789 184.172 53.9628C184.258 54.1468 184.302 54.3476 184.301 54.5507C184.275 54.8256 184.231 55.0985 184.169 55.3677C183.9 55.3645 183.636 55.4322 183.402 55.564C182.612 56.0205 182.448 57.011 182.416 57.4218V57.4812C182.416 57.6227 182.416 60.9914 184.475 62.8264C185.321 63.597 186.429 64.0164 187.574 63.9995C187.795 64 188.016 63.9894 188.236 63.9675C191.294 63.6754 192.855 61.3109 192.632 57.2986C192.558 56.1393 192.262 55.0049 191.76 53.9572ZM6.69006 53.6423C5.64019 54.7789 5.56718 55.7055 5.69043 56.2761C5.71932 56.4721 5.79609 56.6579 5.91392 56.8171C6.03176 56.9764 6.18702 57.1041 6.36599 57.189C6.53572 57.2634 6.7193 57.3007 6.90459 57.2986C7.27883 57.2854 7.64412 57.1804 7.96819 56.9927L8.00925 56.9699C8.16727 56.869 8.3474 56.8079 8.5342 56.7919C8.56711 56.7832 8.6017 56.7832 8.63461 56.7919C8.65717 56.8051 8.67726 56.822 8.69395 56.8421C8.76602 57.0533 8.7854 57.2789 8.7504 57.4992C8.71539 57.7196 8.62709 57.9281 8.49314 58.1065C8.03829 58.842 7.37599 59.4265 6.58965 59.7863C6.31562 59.8911 6.02486 59.9452 5.73149 59.9461C5.28974 59.9383 4.85503 59.8339 4.45793 59.6403C4.08326 59.4449 3.75265 59.1748 3.48649 58.8466C3.22034 58.5184 3.02429 58.1392 2.91051 57.7322C2.42665 56.2031 2.64121 54.0166 3.50393 51.7206L3.57242 51.6521V51.5471L3.62719 51.4056C3.62719 51.3554 3.66824 51.3006 3.70932 51.2048L3.75044 51.0998C4.24895 49.8687 4.67567 48.6098 5.02852 47.3294C5.02852 47.3294 5.05593 47.1924 5.05593 47.1696C5.05593 47.1468 5.08787 47.0281 5.097 46.9688C5.48188 44.7763 5.73796 42.5632 5.86388 40.3409C5.86388 39.8844 5.89581 39.5694 5.89581 39.3823V28.6279C5.89581 28.4408 5.89584 28.1076 5.86388 27.6694C5.73867 25.4515 5.48258 23.2429 5.097 21.0552C5.09003 20.9952 5.07939 20.9358 5.06507 20.8771L5.02395 20.6717C4.6747 19.3937 4.24946 18.1377 3.75044 16.9104C3.75044 16.9104 3.71392 16.8283 3.6911 16.7644C3.66828 16.7005 3.64544 16.6594 3.61805 16.5818L3.56785 16.4585V16.3536L3.50393 16.2896C2.64121 14.0073 2.42665 11.8072 2.91051 10.278C3.07217 9.65069 3.43624 9.09422 3.94625 8.6948C4.45625 8.29538 5.08373 8.07531 5.73149 8.06869C6.0251 8.06692 6.31635 8.12114 6.58965 8.22846C7.37364 8.58353 8.03455 9.1634 8.48857 9.89456C8.62479 10.0736 8.7148 10.2835 8.75062 10.5056C8.78645 10.7278 8.76697 10.9553 8.69395 11.1681C8.67726 11.1882 8.65717 11.2052 8.63461 11.2183C8.60163 11.2264 8.56718 11.2264 8.5342 11.2183C8.33876 11.1998 8.15073 11.134 7.98641 11.0266C7.65733 10.8339 7.28567 10.7257 6.90459 10.7116C6.7193 10.7095 6.53572 10.7469 6.36599 10.8212C6.18773 10.9071 6.03308 11.0351 5.91537 11.1942C5.79767 11.3532 5.72046 11.5385 5.69043 11.7341C5.56718 12.3093 5.64019 13.2359 6.69006 14.3725C7.25945 14.9966 7.91777 15.5334 8.64375 15.9656C8.36987 16.349 8.00924 16.7096 7.76731 16.7096C7.74783 16.7144 7.72746 16.7144 7.70797 16.7096C7.5619 16.5681 7.37477 16.3581 7.15566 16.1162C6.24273 15.0891 5.68584 14.5003 5.10157 14.4775H5.03309C4.9223 14.4791 4.81309 14.5039 4.71247 14.5503C4.61184 14.5967 4.52201 14.6636 4.44879 14.7468C4.03341 15.2033 4.26168 15.7601 5.1107 17.7914L5.13806 17.8553C5.94144 19.7771 7.03699 22.42 6.99591 23.8989C6.93674 25.0154 6.94892 26.1345 7.03241 27.2494V40.7654C6.94868 41.8803 6.9365 42.9994 6.99591 44.1158C7.03699 45.5948 5.94145 48.224 5.14263 50.1503L5.1107 50.2188C4.26168 52.2501 4.03342 52.7978 4.45793 53.268C4.52957 53.3507 4.61778 53.4174 4.71687 53.4638C4.81595 53.5102 4.9237 53.5352 5.03309 53.5373H5.11527C5.69499 53.5053 6.2473 52.9165 7.15566 51.9032L7.2013 51.8529C7.38845 51.643 7.56647 51.4421 7.70797 51.3052H7.76731C8.00924 51.3052 8.36987 51.6704 8.64375 52.0492C7.91869 52.4772 7.26042 53.0093 6.69006 53.6286V53.6423ZM182.754 51.5106C182.206 51.3651 181.641 51.293 181.074 51.2961C180.624 51.2968 180.175 51.335 179.732 51.4102C179.269 51.486 178.811 51.5927 178.362 51.7297L175.532 51.8621C175.409 51.8681 175.29 51.9073 175.187 51.9756C175.084 52.0439 175.001 52.1387 174.948 52.2501L173.789 54.6511C173.382 54.9843 171.096 56.7691 168.37 56.833H24.3142C21.5754 56.7691 19.2931 54.9843 18.8868 54.6511L17.7274 52.2546C17.6751 52.1421 17.593 52.0461 17.49 51.9769C17.387 51.9077 17.2671 51.868 17.1432 51.8621L14.3131 51.7297C13.8644 51.5922 13.4069 51.4855 12.9437 51.4102C12.5003 51.335 12.0514 51.2968 11.6016 51.2961C11.0347 51.293 10.4699 51.3651 9.92188 51.5106C9.09567 49.9951 8.31053 47.9091 8.35617 44.2071V44.093C8.35617 43.7735 8.35615 43.4357 8.39267 43.0614V24.9123C8.39267 24.5608 8.36074 24.2276 8.35617 23.9081V23.7848C8.31053 20.1011 9.09567 18.0151 9.92188 16.4814C10.4699 16.6268 11.0347 16.699 11.6016 16.6959C12.0514 16.6951 12.5003 16.6569 12.9437 16.5818C13.4064 16.506 13.8638 16.4008 14.3131 16.2668L17.1477 16.1299C17.271 16.1239 17.3904 16.0847 17.4933 16.0164C17.5962 15.9481 17.6787 15.8532 17.732 15.7419L18.8914 13.3409C19.2977 13.0077 21.5845 11.2229 24.3096 11.159H168.375C171.114 11.2229 173.396 12.9848 173.802 13.3409L174.962 15.7373C175.014 15.8498 175.096 15.9459 175.199 16.0151C175.302 16.0843 175.422 16.124 175.546 16.1299L178.376 16.2623C178.825 16.3993 179.283 16.506 179.746 16.5818C180.189 16.6569 180.638 16.6951 181.088 16.6959C181.655 16.699 182.219 16.6268 182.767 16.4814C183.594 17.9968 184.379 20.0829 184.333 23.7848V23.8989C184.333 24.223 184.333 24.5563 184.297 24.9306V43.0797C184.297 43.4311 184.328 43.7689 184.333 44.0839V44.2071C184.379 47.8954 183.58 49.9814 182.754 51.4969V51.5106ZM189.774 57.7322C189.662 58.1366 189.467 58.5137 189.204 58.8403C188.94 59.1669 188.612 59.436 188.24 59.6311C187.84 59.8303 187.4 59.9379 186.953 59.9461C186.659 59.9459 186.368 59.8901 186.095 59.7818C185.312 59.427 184.652 58.849 184.196 58.1202C184.05 57.8874 183.74 57.3032 183.991 56.8421C184.007 56.822 184.028 56.8051 184.05 56.7919C184.083 56.7832 184.118 56.7832 184.15 56.7919C184.346 56.8104 184.534 56.8762 184.698 56.9836C185.027 57.1763 185.399 57.2845 185.78 57.2986C185.964 57.3012 186.146 57.2638 186.314 57.189C186.491 57.1071 186.646 56.9833 186.764 56.8282C186.883 56.6731 186.962 56.4914 186.994 56.2989C187.117 55.7238 187.044 54.7971 185.995 53.6605C185.425 53.0364 184.767 52.4996 184.041 52.0675C184.315 51.6886 184.671 51.3234 184.917 51.3234H184.977C185.118 51.4604 185.296 51.6612 185.483 51.8712L185.529 51.9214C186.442 52.9439 186.999 53.5327 187.583 53.5556H187.652C187.763 53.5528 187.872 53.527 187.972 53.4799C188.073 53.4327 188.163 53.3652 188.236 53.2817C188.651 52.8252 188.423 52.2683 187.574 50.2416L187.542 50.1686C186.743 48.2469 185.648 45.6039 185.689 44.1341C185.745 43.0176 185.733 41.8986 185.652 40.7836V27.2357C185.733 26.1192 185.745 24.9987 185.689 23.8807C185.648 22.4017 186.743 19.7725 187.547 17.8416V17.7777C188.4 15.7465 188.628 15.1987 188.204 14.7285C188.132 14.6462 188.044 14.5801 187.945 14.5344C187.846 14.4888 187.738 14.4647 187.629 14.4638H187.574C186.999 14.4957 186.446 15.08 185.511 16.1253C185.314 16.3444 185.132 16.5498 184.986 16.6913C184.966 16.6962 184.946 16.6962 184.926 16.6913C184.68 16.6913 184.324 16.3307 184.05 15.9473C184.776 15.5152 185.434 14.9784 186.004 14.3542C187.054 13.2176 187.127 12.291 187.003 11.7204C186.973 11.5248 186.896 11.3395 186.778 11.1805C186.661 11.0214 186.506 10.8934 186.328 10.8075C186.158 10.7332 185.975 10.6958 185.789 10.6979C185.399 10.7136 185.02 10.8265 184.685 11.0266C184.526 11.1275 184.346 11.1886 184.16 11.2046C184.125 11.2128 184.089 11.2128 184.055 11.2046C184.035 11.1897 184.016 11.1729 184 11.1544C183.928 10.9432 183.908 10.7176 183.943 10.4973C183.978 10.2769 184.067 10.0684 184.201 9.88999C184.655 9.15477 185.317 8.57152 186.104 8.21476C186.377 8.10745 186.669 8.05322 186.962 8.055C187.611 8.05956 188.24 8.27942 188.751 8.68009C189.261 9.08076 189.625 9.63957 189.783 10.2689C190.267 11.7935 190.053 13.9799 189.19 16.276L189.121 16.3444V16.4494L189.067 16.5909C189.067 16.6457 189.021 16.7005 188.984 16.7963L188.943 16.8968C188.446 18.1245 188.02 19.3805 187.67 20.658L187.633 20.8315C187.633 20.9 187.601 20.9776 187.592 21.0323C187.205 23.2244 186.949 25.4376 186.825 27.6602C186.825 28.1167 186.793 28.4317 186.793 28.6188V39.3503C186.793 39.5375 186.793 39.8707 186.825 40.3089C186.949 42.5267 187.203 44.7353 187.588 46.9231C187.588 46.9961 187.615 47.0692 187.624 47.1011L187.656 47.2563L188.113 47.1468L187.679 47.3065C188.03 48.5856 188.455 49.8431 188.953 51.0724L189.007 51.2139C189.038 51.2725 189.064 51.3336 189.085 51.3965L189.135 51.5197V51.6247L189.199 51.6886C190.043 54.0029 190.258 56.1894 189.774 57.7185V57.7322Z" fill="#BBA17E"/>
<path d="M17.0382 1.59873C17.0883 1.22298 17.2541 0.872126 17.5125 0.594842C17.771 0.317559 18.1094 0.127597 18.4807 0.0513117C18.5642 0.0447451 18.6481 0.0447451 18.7317 0.0513117C19.0517 0.047884 19.3601 0.170918 19.5899 0.393661C19.9791 0.840414 20.1861 1.41725 20.1696 2.00955V2.24691C20.2152 2.56188 20.3384 2.56188 20.4252 2.56188H20.553C20.7949 2.46602 21.0597 2.3519 21.3701 2.21496C23.1581 1.47061 25.0856 1.1203 27.0211 1.18791C29.162 1.18791 32.4987 1.18791 34.635 1.21986C36.7712 1.25182 67.3865 1.24725 82.1486 1.24725H141.266C143.21 1.24725 145.152 1.23812 147.09 1.21986H148.003C149.948 1.21986 148.514 1.24269 150.459 1.24725H152.285C154.453 1.24725 156.63 1.24725 158.748 1.21986C160.866 1.19248 163.025 1.19248 165.18 1.18791C167.114 1.12253 169.039 1.47276 170.826 2.21496C171.128 2.3519 171.392 2.46602 171.639 2.56188H171.762C171.849 2.56188 171.977 2.56188 172.018 2.24691C172.018 2.16931 172.018 2.09172 172.018 2.04151V1.58504H172.063C172.106 1.14148 172.294 0.72436 172.597 0.398225C172.828 0.176322 173.136 0.0534312 173.455 0.0558756C173.541 0.0493115 173.626 0.0493115 173.711 0.0558756C174.082 0.133003 174.419 0.323335 174.677 0.60055C174.934 0.877765 175.099 1.22816 175.149 1.6033C175.304 2.44319 175.071 3.55241 174.405 3.96779C174.042 4.20564 173.616 4.33107 173.182 4.3284C172.492 4.3284 171.616 4.05909 170.247 3.41547C168.634 2.75226 166.899 2.44101 165.157 2.50254C163.027 2.50254 160.897 2.51319 158.766 2.53449C156.639 2.53449 154.457 2.56188 152.289 2.56188H150.436C148.345 2.56188 149.619 2.56188 147.528 2.53449C145.438 2.5071 143.347 2.55731 141.256 2.56188H82.1622C67.4047 2.56188 36.7438 2.56188 34.635 2.53449C32.5261 2.5071 29.1574 2.5071 27.0211 2.50254C25.2834 2.44142 23.5528 2.75269 21.9452 3.41547C20.5758 4.04539 19.6948 4.3284 19.0056 4.3284C18.5726 4.33153 18.1484 4.20603 17.7868 3.96779C17.1158 3.54784 16.883 2.43863 17.0382 1.59873Z" fill="#BBA17E"/>
<path d="M175.199 66.4892C175.149 66.8643 174.984 67.2147 174.727 67.4919C174.469 67.7691 174.132 67.9595 173.761 68.0366C173.677 68.0508 173.591 68.0584 173.506 68.0594C173.186 68.0618 172.878 67.939 172.648 67.7171C172.344 67.3909 172.156 66.9738 172.113 66.5302H172.068V66.0738C172.068 66.0236 172.068 65.946 172.068 65.8684C172.027 65.5534 171.899 65.5534 171.812 65.5534H171.689C171.442 65.6493 171.178 65.7634 170.876 65.9003C169.089 66.6425 167.164 66.9927 165.23 66.9274C163.075 66.9274 160.939 66.9274 158.798 66.8954C156.658 66.8635 154.503 66.8954 152.335 66.8954H150.509C148.564 66.8954 149.998 66.8954 148.053 66.9228H147.14C145.202 66.9228 143.26 66.9137 141.316 66.8954H82.1622C67.4001 66.8954 36.7484 66.8954 34.6486 66.8954C32.5489 66.8954 29.1711 66.9228 27.0348 66.9274C25.0997 66.9941 23.1728 66.6455 21.3838 65.9049C21.0734 65.7634 20.8086 65.6493 20.5667 65.5534H20.4389C20.3521 65.5534 20.2289 65.5534 20.1833 65.8684V66.1057C20.2006 66.6982 19.9936 67.2753 19.6035 67.7216C19.3738 67.9444 19.0654 68.0674 18.7454 68.064C18.6612 68.063 18.5773 68.0553 18.4943 68.0411C18.1236 67.9651 17.7858 67.7758 17.5274 67.4994C17.269 67.2231 17.1028 66.8732 17.0519 66.4983C16.8967 65.6584 17.1295 64.5446 17.8005 64.1292C18.162 63.891 18.5862 63.7655 19.0192 63.7686C19.7085 63.7686 20.585 64.0379 21.9589 64.6815C23.5671 65.342 25.2973 65.6532 27.0348 65.5945C29.1848 65.5945 32.5124 65.5945 34.6486 65.5625C36.7849 65.5306 67.4184 65.5625 82.1759 65.5625H141.288C143.379 65.5625 145.474 65.5625 147.56 65.5899C149.646 65.6173 148.377 65.5899 150.468 65.5625H152.321C154.489 65.5625 156.671 65.5625 158.798 65.5625C160.925 65.5625 163.066 65.5899 165.189 65.5945C166.931 65.656 168.666 65.3448 170.278 64.6815C171.648 64.0516 172.524 63.7686 173.214 63.7686C173.649 63.7654 174.075 63.8926 174.437 64.1338C175.122 64.54 175.354 65.6538 175.199 66.4892Z" fill="#BBA17E"/>
<path d="M184.283 24.9348V43.0839C184.283 43.4354 184.315 43.7732 184.32 44.0882V44.2114C184.365 47.8951 183.58 49.9811 182.754 51.5149C182.206 51.3694 181.641 51.2973 181.074 51.3003C180.624 51.3011 180.175 51.3393 179.732 51.4144C179.269 51.4902 178.811 51.597 178.363 51.734L175.532 51.8664C175.409 51.8723 175.29 51.9116 175.187 51.9799C175.084 52.0482 175.002 52.143 174.948 52.2544L173.789 54.6554C173.383 54.9886 171.096 56.7734 168.371 56.8373H24.3143C21.5755 56.7734 19.2932 54.9886 18.8869 54.6554L17.7275 52.2589C17.6752 52.1464 17.5931 52.0504 17.4901 51.9812C17.3871 51.912 17.2672 51.8723 17.1432 51.8664L14.3132 51.734C13.8645 51.5965 13.407 51.4898 12.9438 51.4144C12.5004 51.3393 12.0515 51.3011 11.6017 51.3003C11.0348 51.2973 10.47 51.3694 9.92197 51.5149C9.09577 49.9994 8.31062 47.9134 8.35627 44.2114V44.0973C8.35627 43.7778 8.35625 43.44 8.39277 43.0657V24.912C8.39277 24.5605 8.36083 24.2273 8.35627 23.9078V23.7845C8.31062 20.1009 9.09577 18.0148 9.92197 16.4811C10.47 16.6265 11.0348 16.6987 11.6017 16.6956C12.0515 16.6948 12.5004 16.6567 12.9438 16.5815C13.4065 16.5057 13.8639 16.4005 14.3132 16.2665L17.1478 16.1296C17.2711 16.1236 17.3905 16.0844 17.4934 16.0161C17.5963 15.9478 17.6787 15.853 17.7321 15.7416L18.8915 13.3406C19.2977 13.0074 21.5846 11.2226 24.3097 11.1587H168.375C171.114 11.2226 173.396 12.9846 173.802 13.3406L174.962 15.737C175.014 15.8496 175.096 15.9456 175.199 16.0148C175.302 16.084 175.422 16.1237 175.546 16.1296L178.376 16.262C178.825 16.399 179.283 16.5057 179.746 16.5815C180.189 16.6567 180.638 16.6948 181.088 16.6956C181.655 16.6987 182.219 16.6265 182.767 16.4811C183.594 17.9966 184.379 20.0826 184.333 23.7845V23.8987C184.315 24.2273 184.301 24.5605 184.283 24.9348Z" fill="#BBA17E" fill-opacity="0.2"/>
<path d="M191.76 53.9572C191.185 52.7476 189.281 48.644 188.934 46.7268L188.861 46.3616C188.476 44.0528 188.242 41.7215 188.158 39.3823V28.6279C188.242 26.2918 188.477 23.9635 188.861 21.6577L188.93 21.2834C189.277 19.3662 191.18 15.2626 191.755 14.053C192.253 13.0029 192.544 11.867 192.613 10.7071C192.837 6.69473 191.276 4.31654 188.222 4.04266C187.994 4.04266 187.766 4.00614 187.556 4.00614C186.409 3.9758 185.294 4.38393 184.438 5.14731C182.402 6.97317 182.379 10.351 182.379 10.5017V10.5519C182.411 10.9627 182.576 11.9669 183.365 12.4143C183.6 12.5427 183.864 12.6087 184.132 12.606C184.193 12.8659 184.236 13.1298 184.26 13.3957C184.266 13.6052 184.224 13.8134 184.137 14.0041C184.05 14.1948 183.92 14.363 183.758 14.4957L183.703 14.5368C183.61 14.5854 183.522 14.6419 183.438 14.7057L183.292 14.7879C182.905 14.1912 182.465 13.6305 181.978 13.1126L182.019 13.0807L181.594 12.711L181.494 12.6151C181.412 12.5299 181.325 12.4432 181.234 12.3549L181.056 12.1678L181.033 12.1449C180.651 11.645 180.369 11.0762 180.202 10.4697C180.051 9.60698 180.202 9.05466 180.325 8.92228C180.385 8.90126 180.449 8.89046 180.512 8.89033C180.67 8.89634 180.826 8.93357 180.969 8.99988L181.48 9.26463L181.617 8.70318C181.651 8.4641 181.63 8.22053 181.556 7.99057C181.483 7.7606 181.359 7.55016 181.193 7.37486C181.084 7.22236 180.962 7.08025 180.827 6.95035L180.563 6.69016H180.531C180.144 6.38963 179.68 6.20449 179.193 6.1561C179.128 6.15155 179.062 6.15155 178.997 6.1561C178.458 6.15446 177.936 6.34035 177.52 6.68185C177.103 7.02334 176.819 7.49915 176.715 8.02761C176.659 8.67006 176.82 9.31257 177.171 9.85348C178.084 11.4831 179.495 12.711 180.823 13.8978L180.882 13.9434C181.269 14.3531 181.624 14.791 181.946 15.2535C181.644 15.3051 181.339 15.3311 181.033 15.3311C180.653 15.33 180.275 15.2964 179.901 15.2306C179.593 15.175 179.303 15.051 179.05 14.8676C178.797 14.6843 178.589 14.4464 178.44 14.1716L177.326 12.1906C177.266 12.0837 177.179 11.9948 177.073 11.933C176.967 11.8712 176.846 11.8388 176.724 11.8391H176.651L175.386 12.0399C174.847 12.1273 174.295 12.0047 173.843 11.6976C172.241 10.5727 170.357 9.91818 168.402 9.80783H24.2869C22.318 9.91683 20.4197 10.5781 18.8093 11.7159C18.3576 12.023 17.8055 12.1455 17.2664 12.0582L16.0293 11.8619H15.9289C15.8073 11.8605 15.6875 11.892 15.5822 11.9531C15.477 12.0142 15.3902 12.1025 15.331 12.2088L14.2126 14.1945C14.063 14.4706 13.8532 14.7095 13.5988 14.8936C13.3444 15.0777 13.0518 15.2022 12.7428 15.258C12.3717 15.3205 11.9962 15.3526 11.6199 15.3539C11.314 15.3536 11.0086 15.3276 10.707 15.2763C11.0249 14.8275 11.3726 14.4005 11.7477 13.9982L11.8299 13.9206C13.1993 12.7338 14.5687 11.5059 15.4816 9.8763C15.8336 9.33582 15.9943 8.69297 15.9381 8.05043C15.8342 7.52198 15.5496 7.04617 15.1331 6.70467C14.7167 6.36317 14.1943 6.17729 13.6557 6.17892C13.5889 6.17437 13.5218 6.17437 13.4549 6.17892C12.9681 6.229 12.5049 6.41396 12.1175 6.71299H12.0855L11.8344 6.94122C11.6994 7.06903 11.5771 7.20967 11.4692 7.36117C11.2987 7.53629 11.1694 7.74715 11.0904 7.97848C11.0115 8.2098 10.9849 8.45579 11.0128 8.69861L11.1543 9.25094L11.6656 8.99532C11.809 8.929 11.9641 8.89177 12.122 8.88577C12.1926 8.88514 12.2625 8.89912 12.3274 8.92685C12.4233 9.01358 12.5876 9.57047 12.437 10.4378C12.2752 11.0428 11.9995 11.6114 11.6245 12.113L11.5788 12.1632L11.4008 12.3503L11.136 12.6105L11.0493 12.6973L10.6294 13.0259L10.6841 13.0807C10.1858 13.6061 9.73661 14.176 9.34216 14.7833L9.19606 14.7011C9.11107 14.6362 9.02102 14.5782 8.92676 14.5277L8.86741 14.4866C8.71081 14.3573 8.58493 14.1948 8.49887 14.0109C8.41282 13.8269 8.36876 13.6261 8.36988 13.423C8.39472 13.1464 8.43892 12.8718 8.50222 12.6014C8.77003 12.6041 9.03409 12.5381 9.26911 12.4097C10.0862 11.9532 10.2323 10.8623 10.2551 10.5427V10.488C10.2551 10.3465 10.2323 6.97774 8.19642 5.14274C7.34035 4.37936 6.22532 3.97124 5.07872 4.00158C4.85762 4.00262 4.63674 4.01481 4.41687 4.03809C1.35854 4.32567 -0.202575 6.69016 0.0210938 10.7025C0.0901698 11.8625 0.381507 12.9984 0.879253 14.0484C1.61873 15.6004 3.36697 19.4119 3.70475 21.2788L3.7778 21.6394C4.16245 23.9498 4.39727 26.2827 4.48078 28.6234V39.3503C4.3973 41.6865 4.16247 44.0148 3.7778 46.3206L3.70932 46.6949C3.36241 48.612 1.45897 52.7157 0.883822 53.9253C0.386076 54.9753 0.094739 56.1112 0.0256629 57.2712C-0.198006 61.2835 1.36311 63.6617 4.41687 63.9356C4.63809 63.961 4.86061 63.9732 5.08329 63.9721C6.22989 64.0025 7.34492 63.5943 8.20099 62.831C10.2368 61.0051 10.2597 57.6272 10.2597 57.4857V57.431C10.2368 57.1114 10.0907 56.025 9.27367 55.5686C9.03979 55.4368 8.77523 55.3691 8.50679 55.3723C8.44647 55.1122 8.40381 54.8484 8.37902 54.5826C8.37346 54.3727 8.41625 54.1643 8.50411 53.9735C8.59197 53.7828 8.72253 53.6148 8.88569 53.4825L8.93589 53.4414C9.02883 53.3928 9.11739 53.3363 9.20062 53.2725L9.34673 53.1904C9.75077 53.8053 10.2091 54.3827 10.7161 54.9158L10.6887 54.9478L11.0539 55.2673L11.136 55.3495L11.4145 55.6233L11.5925 55.8105V55.8333C11.9726 56.3343 12.2545 56.9027 12.4233 57.5086C12.5739 58.3758 12.4233 58.9282 12.3 59.056C12.24 59.0774 12.1766 59.0882 12.1129 59.0879C11.955 59.0819 11.7998 59.0447 11.6564 58.9784L11.1452 58.7136L11.0037 59.2751C10.9726 59.5151 10.9949 59.7591 11.0691 59.9895C11.1433 60.2199 11.2675 60.4311 11.4328 60.608C11.5409 60.7579 11.6615 60.8983 11.7934 61.0279L11.8619 61.0918L12.0672 61.2881C12.456 61.5879 12.9208 61.7729 13.4092 61.8222C13.4746 61.8269 13.5402 61.8269 13.6055 61.8222C14.1441 61.8238 14.6665 61.6379 15.0829 61.2964C15.4994 60.9549 15.784 60.4791 15.8879 59.9507C15.9423 59.3083 15.7818 58.666 15.4314 58.1248C14.5185 56.4998 13.108 55.2673 11.7797 54.0805L11.7249 54.0348C11.3383 53.624 10.9814 53.1862 10.6568 52.7248C10.9584 52.6737 11.2638 52.6477 11.5697 52.6472C11.9477 52.6484 12.3249 52.682 12.6972 52.7476C13.0045 52.8032 13.2953 52.9273 13.5482 53.1106C13.8011 53.294 14.0094 53.5318 14.1578 53.8066L15.2716 55.7877C15.331 55.8952 15.4183 55.9847 15.5244 56.0466C15.6305 56.1084 15.7514 56.1404 15.8742 56.1392H15.9472L17.2116 55.9383C17.3233 55.9203 17.4363 55.9112 17.5494 55.9109C17.9799 55.9095 18.4005 56.0401 18.7545 56.2852C20.3747 57.4234 22.2823 58.0829 24.2594 58.1887H168.402C170.37 58.0781 172.268 57.4187 173.88 56.2852C174.234 56.0401 174.655 55.9095 175.085 55.9109C175.198 55.9112 175.311 55.9203 175.423 55.9383L176.66 56.1346H176.76C176.882 56.1355 177.001 56.1038 177.107 56.0428C177.212 55.9818 177.299 55.8937 177.358 55.7877L178.477 53.8021C178.627 53.5266 178.837 53.2881 179.091 53.1041C179.346 52.9201 179.638 52.7952 179.946 52.7385C180.316 52.6762 180.69 52.6441 181.065 52.6426C181.371 52.6427 181.676 52.6686 181.978 52.7202C181.664 53.171 181.318 53.5981 180.941 53.9983L180.859 54.0759C179.49 55.2627 178.121 56.4952 177.208 58.1202C176.856 58.6607 176.695 59.3035 176.751 59.9461C176.855 60.4745 177.14 60.9504 177.556 61.2919C177.973 61.6333 178.495 61.8192 179.034 61.8176C179.1 61.8221 179.167 61.8221 179.234 61.8176C179.72 61.7684 180.182 61.5833 180.567 61.2835H180.599L180.859 61.0279C180.993 60.9005 181.115 60.7615 181.225 60.6125C181.391 60.4348 181.516 60.2222 181.591 59.99C181.665 59.7578 181.686 59.512 181.654 59.2705L181.517 58.7182L181.005 58.9738C180.862 59.0401 180.707 59.0774 180.549 59.0834C180.478 59.0858 180.408 59.0717 180.344 59.0423C180.248 58.9556 180.083 58.3987 180.234 57.5314C180.393 56.9255 180.669 56.3565 181.046 55.8562L181.092 55.8059L181.27 55.6188L181.544 55.3495L181.617 55.2719L182.106 54.893L182.033 54.8382C182.512 54.3259 182.945 53.7731 183.329 53.1858L183.475 53.268C183.549 53.3238 183.627 53.3741 183.708 53.4186L183.804 53.4871C183.96 53.6164 184.086 53.7789 184.172 53.9628C184.258 54.1468 184.302 54.3476 184.301 54.5507C184.275 54.8256 184.231 55.0985 184.169 55.3677C183.9 55.3645 183.636 55.4322 183.402 55.564C182.612 56.0205 182.448 57.011 182.416 57.4218V57.4812C182.416 57.6227 182.416 60.9914 184.475 62.8264C185.321 63.597 186.429 64.0164 187.574 63.9995C187.795 64 188.016 63.9894 188.236 63.9675C191.294 63.6754 192.855 61.3109 192.632 57.2986C192.558 56.1393 192.262 55.0049 191.76 53.9572ZM6.69006 53.6423C5.64019 54.7789 5.56718 55.7055 5.69043 56.2761C5.71932 56.4721 5.79609 56.6579 5.91392 56.8171C6.03176 56.9764 6.18702 57.1041 6.36599 57.189C6.53572 57.2634 6.7193 57.3007 6.90459 57.2986C7.27883 57.2854 7.64412 57.1804 7.96819 56.9927L8.00925 56.9699C8.16727 56.869 8.3474 56.8079 8.5342 56.7919C8.56711 56.7832 8.6017 56.7832 8.63461 56.7919C8.65717 56.8051 8.67726 56.822 8.69395 56.8421C8.76602 57.0533 8.7854 57.2789 8.7504 57.4992C8.71539 57.7196 8.62709 57.9281 8.49314 58.1065C8.03829 58.842 7.37599 59.4265 6.58965 59.7863C6.31562 59.8911 6.02486 59.9452 5.73149 59.9461C5.28974 59.9383 4.85503 59.8339 4.45793 59.6403C4.08326 59.4449 3.75265 59.1748 3.48649 58.8466C3.22034 58.5184 3.02429 58.1392 2.91051 57.7322C2.42665 56.2031 2.64121 54.0166 3.50393 51.7206L3.57242 51.6521V51.5471L3.62719 51.4056C3.62719 51.3554 3.66824 51.3006 3.70932 51.2048L3.75044 51.0998C4.24895 49.8687 4.67567 48.6098 5.02852 47.3294C5.02852 47.3294 5.05593 47.1924 5.05593 47.1696C5.05593 47.1468 5.08787 47.0281 5.097 46.9688C5.48188 44.7763 5.73796 42.5632 5.86388 40.3409C5.86388 39.8844 5.89581 39.5694 5.89581 39.3823V28.6279C5.89581 28.4408 5.89584 28.1076 5.86388 27.6694C5.73867 25.4515 5.48258 23.2429 5.097 21.0552C5.09003 20.9952 5.07939 20.9358 5.06507 20.8771L5.02395 20.6717C4.6747 19.3937 4.24946 18.1377 3.75044 16.9104C3.75044 16.9104 3.71392 16.8283 3.6911 16.7644C3.66828 16.7005 3.64544 16.6594 3.61805 16.5818L3.56785 16.4585V16.3536L3.50393 16.2896C2.64121 14.0073 2.42665 11.8072 2.91051 10.278C3.07217 9.65069 3.43624 9.09422 3.94625 8.6948C4.45625 8.29538 5.08373 8.07531 5.73149 8.06869C6.0251 8.06692 6.31635 8.12114 6.58965 8.22846C7.37364 8.58353 8.03455 9.1634 8.48857 9.89456C8.62479 10.0736 8.7148 10.2835 8.75062 10.5056C8.78645 10.7278 8.76697 10.9553 8.69395 11.1681C8.67726 11.1882 8.65717 11.2052 8.63461 11.2183C8.60163 11.2264 8.56718 11.2264 8.5342 11.2183C8.33876 11.1998 8.15073 11.134 7.98641 11.0266C7.65733 10.8339 7.28567 10.7257 6.90459 10.7116C6.7193 10.7095 6.53572 10.7469 6.36599 10.8212C6.18773 10.9071 6.03308 11.0351 5.91537 11.1942C5.79767 11.3532 5.72046 11.5385 5.69043 11.7341C5.56718 12.3093 5.64019 13.2359 6.69006 14.3725C7.25945 14.9966 7.91777 15.5334 8.64375 15.9656C8.36987 16.349 8.00924 16.7096 7.76731 16.7096C7.74783 16.7144 7.72746 16.7144 7.70797 16.7096C7.5619 16.5681 7.37477 16.3581 7.15566 16.1162C6.24273 15.0891 5.68584 14.5003 5.10157 14.4775H5.03309C4.9223 14.4791 4.81309 14.5039 4.71247 14.5503C4.61184 14.5967 4.52201 14.6636 4.44879 14.7468C4.03341 15.2033 4.26168 15.7601 5.1107 17.7914L5.13806 17.8553C5.94144 19.7771 7.03699 22.42 6.99591 23.8989C6.93674 25.0154 6.94892 26.1345 7.03241 27.2494V40.7654C6.94868 41.8803 6.9365 42.9994 6.99591 44.1158C7.03699 45.5948 5.94145 48.224 5.14263 50.1503L5.1107 50.2188C4.26168 52.2501 4.03342 52.7978 4.45793 53.268C4.52957 53.3507 4.61778 53.4174 4.71687 53.4638C4.81595 53.5102 4.9237 53.5352 5.03309 53.5373H5.11527C5.69499 53.5053 6.2473 52.9165 7.15566 51.9032L7.2013 51.8529C7.38845 51.643 7.56647 51.4421 7.70797 51.3052H7.76731C8.00924 51.3052 8.36987 51.6704 8.64375 52.0492C7.91869 52.4772 7.26042 53.0093 6.69006 53.6286V53.6423ZM182.754 51.5106C182.206 51.3651 181.641 51.293 181.074 51.2961C180.624 51.2968 180.175 51.335 179.732 51.4102C179.269 51.486 178.811 51.5927 178.362 51.7297L175.532 51.8621C175.409 51.8681 175.29 51.9073 175.187 51.9756C175.084 52.0439 175.001 52.1387 174.948 52.2501L173.789 54.6511C173.382 54.9843 171.096 56.7691 168.37 56.833H24.3142C21.5754 56.7691 19.2931 54.9843 18.8868 54.6511L17.7274 52.2546C17.6751 52.1421 17.593 52.0461 17.49 51.9769C17.387 51.9077 17.2671 51.868 17.1432 51.8621L14.3131 51.7297C13.8644 51.5922 13.4069 51.4855 12.9437 51.4102C12.5003 51.335 12.0514 51.2968 11.6016 51.2961C11.0347 51.293 10.4699 51.3651 9.92188 51.5106C9.09567 49.9951 8.31053 47.9091 8.35617 44.2071V44.093C8.35617 43.7735 8.35615 43.4357 8.39267 43.0614V24.9123C8.39267 24.5608 8.36074 24.2276 8.35617 23.9081V23.7848C8.31053 20.1011 9.09567 18.0151 9.92188 16.4814C10.4699 16.6268 11.0347 16.699 11.6016 16.6959C12.0514 16.6951 12.5003 16.6569 12.9437 16.5818C13.4064 16.506 13.8638 16.4008 14.3131 16.2668L17.1477 16.1299C17.271 16.1239 17.3904 16.0847 17.4933 16.0164C17.5962 15.9481 17.6787 15.8532 17.732 15.7419L18.8914 13.3409C19.2977 13.0077 21.5845 11.2229 24.3096 11.159H168.375C171.114 11.2229 173.396 12.9848 173.802 13.3409L174.962 15.7373C175.014 15.8498 175.096 15.9459 175.199 16.0151C175.302 16.0843 175.422 16.124 175.546 16.1299L178.376 16.2623C178.825 16.3993 179.283 16.506 179.746 16.5818C180.189 16.6569 180.638 16.6951 181.088 16.6959C181.655 16.699 182.219 16.6268 182.767 16.4814C183.594 17.9968 184.379 20.0829 184.333 23.7848V23.8989C184.333 24.223 184.333 24.5563 184.297 24.9306V43.0797C184.297 43.4311 184.328 43.7689 184.333 44.0839V44.2071C184.379 47.8954 183.58 49.9814 182.754 51.4969V51.5106ZM189.774 57.7322C189.662 58.1366 189.467 58.5137 189.204 58.8403C188.94 59.1669 188.612 59.436 188.24 59.6311C187.84 59.8303 187.4 59.9379 186.953 59.9461C186.659 59.9459 186.368 59.8901 186.095 59.7818C185.312 59.427 184.652 58.849 184.196 58.1202C184.05 57.8874 183.74 57.3032 183.991 56.8421C184.007 56.822 184.028 56.8051 184.05 56.7919C184.083 56.7832 184.118 56.7832 184.15 56.7919C184.346 56.8104 184.534 56.8762 184.698 56.9836C185.027 57.1763 185.399 57.2845 185.78 57.2986C185.964 57.3012 186.146 57.2638 186.314 57.189C186.491 57.1071 186.646 56.9833 186.764 56.8282C186.883 56.6731 186.962 56.4914 186.994 56.2989C187.117 55.7238 187.044 54.7971 185.995 53.6605C185.425 53.0364 184.767 52.4996 184.041 52.0675C184.315 51.6886 184.671 51.3234 184.917 51.3234H184.977C185.118 51.4604 185.296 51.6612 185.483 51.8712L185.529 51.9214C186.442 52.9439 186.999 53.5327 187.583 53.5556H187.652C187.763 53.5528 187.872 53.527 187.972 53.4799C188.073 53.4327 188.163 53.3652 188.236 53.2817C188.651 52.8252 188.423 52.2683 187.574 50.2416L187.542 50.1686C186.743 48.2469 185.648 45.6039 185.689 44.1341C185.745 43.0176 185.733 41.8986 185.652 40.7836V27.2357C185.733 26.1192 185.745 24.9987 185.689 23.8807C185.648 22.4017 186.743 19.7725 187.547 17.8416V17.7777C188.4 15.7465 188.628 15.1987 188.204 14.7285C188.132 14.6462 188.044 14.5801 187.945 14.5344C187.846 14.4888 187.738 14.4647 187.629 14.4638H187.574C186.999 14.4957 186.446 15.08 185.511 16.1253C185.314 16.3444 185.132 16.5498 184.986 16.6913C184.966 16.6962 184.946 16.6962 184.926 16.6913C184.68 16.6913 184.324 16.3307 184.05 15.9473C184.776 15.5152 185.434 14.9784 186.004 14.3542C187.054 13.2176 187.127 12.291 187.003 11.7204C186.973 11.5248 186.896 11.3395 186.778 11.1805C186.661 11.0214 186.506 10.8934 186.328 10.8075C186.158 10.7332 185.975 10.6958 185.789 10.6979C185.399 10.7136 185.02 10.8265 184.685 11.0266C184.526 11.1275 184.346 11.1886 184.16 11.2046C184.125 11.2128 184.089 11.2128 184.055 11.2046C184.035 11.1897 184.016 11.1729 184 11.1544C183.928 10.9432 183.908 10.7176 183.943 10.4973C183.978 10.2769 184.067 10.0684 184.201 9.88999C184.655 9.15477 185.317 8.57152 186.104 8.21476C186.377 8.10745 186.669 8.05322 186.962 8.055C187.611 8.05956 188.24 8.27942 188.751 8.68009C189.261 9.08076 189.625 9.63957 189.783 10.2689C190.267 11.7935 190.053 13.9799 189.19 16.276L189.121 16.3444V16.4494L189.067 16.5909C189.067 16.6457 189.021 16.7005 188.984 16.7963L188.943 16.8968C188.446 18.1245 188.02 19.3805 187.67 20.658L187.633 20.8315C187.633 20.9 187.601 20.9776 187.592 21.0323C187.205 23.2244 186.949 25.4376 186.825 27.6602C186.825 28.1167 186.793 28.4317 186.793 28.6188V39.3503C186.793 39.5375 186.793 39.8707 186.825 40.3089C186.949 42.5267 187.203 44.7353 187.588 46.9231C187.588 46.9961 187.615 47.0692 187.624 47.1011L187.656 47.2563L188.113 47.1468L187.679 47.3065C188.03 48.5856 188.455 49.8431 188.953 51.0724L189.007 51.2139C189.038 51.2725 189.064 51.3336 189.085 51.3965L189.135 51.5197V51.6247L189.199 51.6886C190.043 54.0029 190.258 56.1894 189.774 57.7185V57.7322Z" fill="#BBA17E"/>
<path d="M189.181 51.7066C190.044 53.9889 190.258 56.1891 189.774 57.7183C189.662 58.1227 189.468 58.4998 189.204 58.8263C188.94 59.1529 188.612 59.422 188.24 59.6172C187.84 59.8164 187.4 59.924 186.953 59.9321C186.659 59.9319 186.368 59.8761 186.095 59.7678C185.312 59.413 184.652 58.835 184.196 58.1063C184.05 57.8735 183.74 57.2892 183.991 56.8282C184.007 56.8081 184.028 56.7911 184.05 56.7779C184.083 56.7692 184.118 56.7692 184.151 56.7779C184.346 56.7965 184.534 56.8623 184.698 56.9697C185.027 57.1623 185.399 57.2705 185.78 57.2846C185.964 57.2872 186.146 57.2499 186.314 57.1751C186.491 57.0932 186.646 56.9693 186.764 56.8142C186.883 56.6591 186.962 56.4774 186.994 56.285C187.118 55.7098 187.045 54.7832 185.995 53.6466C185.425 53.0224 184.767 52.4856 184.041 52.0535C184.315 51.6747 184.671 51.3095 184.917 51.3095H184.977C185.118 51.4464 185.296 51.6473 185.483 51.8572L185.529 51.9074C186.442 52.9299 186.999 53.5188 187.583 53.5416H187.652C187.763 53.5388 187.872 53.513 187.972 53.4659C188.073 53.4188 188.163 53.3513 188.236 53.2677C188.651 52.8113 188.423 52.2544 187.574 50.2277L187.542 50.1546C186.743 48.2329 185.648 45.59 185.689 44.1201C185.745 43.0036 185.733 41.8847 185.652 40.7697V27.2354C185.733 26.1189 185.745 24.9985 185.689 23.8804C185.648 22.4015 186.743 19.7722 187.547 17.8414V17.7775C188.4 15.7462 188.628 15.1984 188.204 14.7283C188.132 14.646 188.044 14.5798 187.945 14.5342C187.846 14.4885 187.738 14.4644 187.629 14.4635H187.574C186.999 14.4955 186.447 15.0797 185.511 16.1251C185.314 16.3442 185.132 16.5496 184.986 16.6911C184.966 16.6959 184.946 16.6959 184.926 16.6911C184.68 16.6911 184.324 16.3305 184.05 15.947C184.776 15.5149 185.434 14.9781 186.004 14.354C187.054 13.2174 187.127 12.2907 187.003 11.7202C186.973 11.5246 186.896 11.3392 186.778 11.1802C186.661 11.0211 186.506 10.8931 186.328 10.8072C186.158 10.7329 185.975 10.6955 185.789 10.6977C185.399 10.7133 185.02 10.8263 184.685 11.0263C184.527 11.1272 184.346 11.1883 184.16 11.2043C184.125 11.2125 184.089 11.2125 184.055 11.2043C184.035 11.1895 184.016 11.1726 184 11.1541C183.928 10.943 183.908 10.7174 183.943 10.497C183.978 10.2766 184.067 10.0682 184.201 9.88972C184.655 9.1545 185.317 8.57126 186.104 8.21449C186.378 8.10718 186.669 8.05296 186.962 8.05473C187.611 8.05929 188.24 8.27915 188.751 8.67982C189.261 9.08049 189.625 9.6393 189.783 10.2686C190.267 11.7932 190.053 13.9797 189.19 16.2757L189.121 16.3442V16.4491L189.067 16.5906C189.067 16.6454 189.021 16.7002 188.985 16.7961L188.943 16.8965C188.446 18.1243 188.02 19.3802 187.67 20.6578L187.633 20.8312C187.633 20.8997 187.601 20.9773 187.592 21.0321C187.205 23.2242 186.949 25.4374 186.825 27.66C186.825 28.1164 186.793 28.4314 186.793 28.6185V39.3501C186.793 39.5372 186.794 39.8704 186.825 40.3086C186.949 42.5265 187.203 44.7351 187.588 46.9228C187.588 46.9959 187.615 47.0689 187.624 47.1009L187.656 47.2561L188.113 47.1465L187.679 47.3063C188.03 48.5854 188.455 49.8428 188.953 51.0721L189.007 51.2136C189.038 51.2723 189.064 51.3333 189.085 51.3962L189.135 51.5195V51.6244L189.181 51.7066Z" fill="#BBA17E" fill-opacity="0.2"/>
<path d="M8.49315 58.093C8.0383 58.8285 7.376 59.413 6.58966 59.7728C6.31564 59.8776 6.02487 59.9317 5.7315 59.9326C5.28976 59.9248 4.85505 59.8204 4.45795 59.6268C4.08327 59.4314 3.75266 59.1613 3.48651 58.8331C3.22035 58.5049 3.0243 58.1257 2.91052 57.7187C2.42666 56.1896 2.64122 54.0031 3.50395 51.7071L3.57243 51.6386V51.5336L3.6272 51.3921C3.6272 51.3419 3.66825 51.2871 3.70933 51.1913L3.75046 51.0863C4.24896 49.8552 4.67568 48.5963 5.02853 47.3159C5.02853 47.3159 5.05594 47.1789 5.05594 47.1561C5.05594 47.1333 5.08788 47.0146 5.09701 46.9553C5.48189 44.7628 5.73798 42.5497 5.8639 40.3274C5.8639 39.8709 5.89583 39.5559 5.89583 39.3688V28.6281C5.89583 28.441 5.89585 28.1078 5.8639 27.6696C5.73868 25.4516 5.48259 23.2431 5.09701 21.0554C5.09005 20.9954 5.0794 20.936 5.06508 20.8773L5.02396 20.6719C4.67471 19.3939 4.24948 18.1379 3.75046 16.9106C3.75046 16.9106 3.71394 16.8285 3.69111 16.7646C3.66829 16.7007 3.64545 16.6596 3.61806 16.582L3.56786 16.4587V16.3538L3.50395 16.2898C2.64122 14.0075 2.42666 11.8073 2.91052 10.2782C3.07218 9.65089 3.43626 9.09442 3.94626 8.695C4.45626 8.29558 5.08374 8.07551 5.7315 8.06889C6.02511 8.06712 6.31637 8.12134 6.58966 8.22865C7.37365 8.58373 8.03456 9.1636 8.48858 9.89476C8.6248 10.0738 8.71481 10.2837 8.75063 10.5058C8.78646 10.7279 8.76698 10.9555 8.69397 11.1683C8.67727 11.1884 8.65718 11.2054 8.63462 11.2185C8.60164 11.2266 8.56719 11.2266 8.53421 11.2185C8.33878 11.2 8.15074 11.1342 7.98642 11.0268C7.65734 10.8341 7.28568 10.7259 6.9046 10.7118C6.71931 10.7097 6.53573 10.7471 6.366 10.8214C6.18774 10.9073 6.03309 11.0353 5.91538 11.1943C5.79768 11.3534 5.72047 11.5387 5.69044 11.7343C5.56719 12.3095 5.6402 13.2361 6.69007 14.3727C7.25946 14.9968 7.91778 15.5336 8.64376 15.9658C8.36988 16.3492 8.00925 16.7098 7.76733 16.7098C7.74784 16.7146 7.72747 16.7146 7.70798 16.7098C7.56191 16.5683 7.37478 16.3583 7.15568 16.1164C6.24274 15.0893 5.68585 14.5005 5.10158 14.4777H5.0331C4.92231 14.4793 4.8131 14.5041 4.71248 14.5505C4.61185 14.5969 4.52202 14.6638 4.44881 14.747C4.03342 15.2035 4.26169 15.7603 5.11072 17.7916L5.13808 17.8555C5.94146 19.7773 7.03701 22.4202 6.99592 23.8991C6.93675 25.0156 6.94893 26.1347 7.03242 27.2496V40.7656C6.94869 41.8805 6.93651 42.9996 6.99592 44.116C7.03701 45.595 5.94146 48.2242 5.14264 50.1505L5.11072 50.219C4.26169 52.2503 4.03343 52.798 4.45795 53.2682C4.52958 53.3509 4.6178 53.4176 4.71688 53.464C4.81596 53.5104 4.92371 53.5354 5.0331 53.5375H5.11529C5.695 53.5055 6.24731 52.9167 7.15568 51.9033L7.20131 51.8531C7.38846 51.6432 7.56648 51.4423 7.70798 51.3054H7.76733C8.00925 51.3054 8.36988 51.6706 8.64376 52.0494C7.91778 52.4815 7.25946 53.0183 6.69007 53.6425C5.6402 54.7791 5.56719 55.7057 5.69044 56.2763C5.71933 56.4723 5.7961 56.6581 5.91393 56.8173C6.03177 56.9766 6.18703 57.1043 6.366 57.1892C6.53573 57.2636 6.71931 57.3009 6.9046 57.2988C7.27884 57.2856 7.64414 57.1806 7.9682 56.9929L8.00927 56.9701C8.16728 56.8692 8.34741 56.8081 8.53421 56.7921C8.56712 56.7834 8.60172 56.7834 8.63462 56.7921C8.65718 56.8052 8.67727 56.8222 8.69397 56.8423C8.76368 57.0516 8.78181 57.2745 8.74684 57.4923C8.71188 57.7101 8.62487 57.9161 8.49315 58.093Z" fill="#BBA17E" fill-opacity="0.2"/>
</svg>
