<svg xmlns="http://www.w3.org/2000/svg" viewBox="0 0 186.76 150.2"><defs><style>.cls-1,.cls-2{fill:#bba17e;fill-rule:evenodd;}.cls-2{opacity:0.2;}</style></defs><g id="Calque_2" data-name="Calque 2"><g id="Calque_1-2" data-name="Calque 1"><path class="cls-1" d="M185.61,2.78a3.89,3.89,0,0,0-2.77-1.15c-16.88.08-71.41.15-84.47,0A20.21,20.21,0,0,0,84,6.87a28,28,0,0,0-4.92,5.87l-.21.33c-.44.69-.94,1.48-1.46,1.6-3,.63-6,1.11-9,1.58l-2.65.43-.08-.91L66.77,15A25.91,25.91,0,0,0,69,13.41c2.45-2,3-4.27,1.77-6.58a9.12,9.12,0,0,0-1.6-2.06,12.61,12.61,0,0,0-8.74-3.61,37.5,37.5,0,0,0-18.19,4,4.71,4.71,0,0,1-2.38.57A4.72,4.72,0,0,1,37.52,5a45.32,45.32,0,0,0-8.66-3.86C23.25-.67,17.66-.62,12.41,3.47s-6.17,9.71-2.42,16c.27.4.56.78.85,1.17l.57.76a92,92,0,0,0,7.11,8.89,10.89,10.89,0,0,0,1.06,1.1c.23.21.47.44.72.7a20.52,20.52,0,0,0-8.91,7.74A16.58,16.58,0,0,0,13.24,60a92.51,92.51,0,0,0-6.69,36c-.21,17.38-.34,29.1-.43,36.77,0,.91,0,1.75,0,2.55a12.24,12.24,0,0,1-2.2,2.07,12.11,12.11,0,0,0-2.82,3.18,4.62,4.62,0,0,0-1,3.31A4.87,4.87,0,0,0,1.62,147c.82.76,1.65,1.49,2.49,2.21a4.42,4.42,0,0,0,1.85.92,4.94,4.94,0,0,0,2.13,0,4.47,4.47,0,0,0,1.86-.89,3.6,3.6,0,0,0,1.12-1.57l0-.11c.31-.91.59-1.75.83-2.69a136.3,136.3,0,0,0,2.87-22.18c.22-2,.5-6,.66-19.33a59.88,59.88,0,0,1,1-9.82,13.44,13.44,0,0,1,5.3-8.72,28.69,28.69,0,0,0,6.66-6.58c4.9-7.14,3.82-16.67-2.19-21.66-.91-.76-1.85-1.42-2.86-2.14l-1-.71-1.06-.76c1-.78,1.91-1.54,2.81-2.28.71-.59,1.41-1.16,2.13-1.73.46-.32,1.34,0,2,.51a32.13,32.13,0,0,0,6.6,4.21,20.54,20.54,0,0,0,13.57,1.68,1.3,1.3,0,0,0,.33-.07l.16,0a4,4,0,0,0,1.42,1.72,3.84,3.84,0,0,0,2.13.65h120.6a13.73,13.73,0,0,0,13.7-13.71V5.56A3.93,3.93,0,0,0,185.61,2.78ZM98.43,7.38c3-.12,5.92-.08,8.88,0,1.48,0,3,0,4.44,0,6.67.08,35.13,0,54.69,0l16.36,0v3l-4.51,0c-8.22.09-15.39.16-53.58.16H106.58a145,145,0,0,0-15.16.8h-.3c-1.74.22-3.56.45-5.39.81A20,20,0,0,1,98.43,7.38Zm-28,11.82,2.09,0c-.31.34-.62.68-.91,1.06A14.78,14.78,0,0,1,68,23a2.6,2.6,0,0,0-.45.28A17,17,0,0,1,58,26.5a6.55,6.55,0,0,1-5.28-3.71A8.63,8.63,0,0,1,59,19.23C62.68,19.06,66.42,19.13,70.41,19.2Zm-12-11c-1.92,4.63-7.92,5.07-13.72,1.11C48,6.7,56,6,58.45,8.15ZM23,11A13.36,13.36,0,0,1,34.37,9.53l-.19.16-.28.19c-.21.14-.41.28-.62.45A34.16,34.16,0,0,0,21.51,25.12l-.06.16C17.9,20.39,18.51,14.21,23,11Zm.14,58.19a5.81,5.81,0,0,1,1.56,3.58,5.91,5.91,0,0,1-1,3.78,13.38,13.38,0,0,1-2.76,3.62c-6,5-7.69,13.08-8.25,22.09,0,1.39,0,2.79-.07,4.19l-.06,2.34c0,1.41,0,2.65,0,3.76-.14,3.17-.2,5-.2,6.73a35.93,35.93,0,0,1-2.08,8.46c.08-7.17.19-16.82.35-29.56A119.87,119.87,0,0,1,13,71.61c.52-2.14,1.17-4.23,1.85-6.41.33-1,.66-2.12,1-3.23.87.86,1.7,1.67,2.51,2.45C20,66,21.56,67.55,23.09,69.21ZM18.76,50.88c-3.36-3.71-2.53-9.2,1.83-13l3.65,7.72Zm6.49-11.82a37.71,37.71,0,0,1-1.34-4l10.86,6.28-1.16.29c-.93.23-1.81.44-2.68.71C27.57,43.48,27,43.23,25.25,39.06Zm25.27,3.15c-.16,2.91-1.26,5.29-3.2,5.84a18.86,18.86,0,0,1-7.42.9,43,43,0,0,1-7.79-2.21v-1l1.39-.3c1.52-.33,3-.66,4.66-.92.75-.13,1.53-.24,2.32-.35,1.45-.2,2.94-.41,4.38-.73.39-.08.74-.59,1.09-1.07.12-.18.24-.35.36-.5L46,41.4c-.3-.49-.63-1-1-1.18a50.12,50.12,0,0,0-5.26-1.36,25.67,25.67,0,0,1-10.26-5.13l.05-.31a34,34,0,0,1,4.4-.46c3.37.44,6.73.89,10.08,1.48a10.41,10.41,0,0,1,3.88,2A6.36,6.36,0,0,1,50,39,6.17,6.17,0,0,1,50.52,42.21Zm132.32,1.64a9.82,9.82,0,0,1-9.78,9.83H52.41A10.71,10.71,0,0,0,57,46.58a11.65,11.65,0,0,0-2.7-11.2,18.79,18.79,0,0,0-10.47-5.52c-.7-.16-1.4-.29-2.11-.4a2.38,2.38,0,0,1-.45-.05l-.21,0-1.45-.2-1.54-.09L36.61,29H34.13c-.41,0-1.82.1-2.25.14l-.9.08c-.49.06-2,.27-2.18.32-.73.12-1.45.28-2.17.45a4.43,4.43,0,0,1-.51.06,2.29,2.29,0,0,1-.69-.14l-.16-.07a2.08,2.08,0,0,1-.59-.43,4.68,4.68,0,0,1,.45-2.7,30.39,30.39,0,0,1,10.5-13.24c.32-.25.64-.48.95-.69l.3-.18a6.6,6.6,0,0,1,.64-.36l.24-.1.12-.05a5.37,5.37,0,0,1,.56-.21l.38-.09a3.7,3.7,0,0,1,.57-.07h.75a3.1,3.1,0,0,1,.51.11l.32.1a4,4,0,0,1,.56.26l.27.14a5.78,5.78,0,0,1,.85.62,17.72,17.72,0,0,0,3.45,1.87c-.36.6-.72,1.17-1.07,1.74-.63,1-1.25,2-1.82,3A4.53,4.53,0,0,0,43.8,25,15.16,15.16,0,0,0,48,28.18a16.91,16.91,0,0,0,2.52,1.08,5.6,5.6,0,0,0,.54.17l.31.09c.58.18,1.17.36,1.75.49l.61.11.39.07c.55.09,1.1.17,1.66.21l1.05.07h.72A13.39,13.39,0,0,0,59,30.41h.06a22.24,22.24,0,0,0,2.58-.36l.38-.08a21.78,21.78,0,0,0,2.39-.69l.44-.16a21.31,21.31,0,0,0,2.3-1l.34-.19a21.8,21.8,0,0,0,2.3-1.41,18.54,18.54,0,0,0,4.73-3.62c4.91-6.13,11-6.88,17-7.64l.28,0c2.27-.25,7.36-.59,7.64-.6,2.16-.11,4.32-.16,6.48-.17h7.81l69.06-.19Z"/><path class="cls-2" d="M24.65,72.79a5.91,5.91,0,0,1-1,3.78,13.38,13.38,0,0,1-2.76,3.62c-6,5-7.69,13.08-8.25,22.09,0,1.39,0,2.79-.07,4.19l-.06,2.34c0,1.41,0,2.65,0,3.76-.14,3.17-.2,5-.2,6.73a35.93,35.93,0,0,1-2.08,8.46c.08-7.17.19-16.82.35-29.56A119.87,119.87,0,0,1,13,71.61c.52-2.14,1.17-4.23,1.85-6.41.33-1,.66-2.12,1-3.23.87.86,1.7,1.67,2.51,2.45C20,66,21.56,67.55,23.09,69.21A5.81,5.81,0,0,1,24.65,72.79Z"/><path class="cls-2" d="M24.24,45.59l-5.48,5.29c-3.36-3.71-2.53-9.2,1.83-13Z"/><path class="cls-2" d="M34.77,41.33l-1.16.29c-.93.23-1.81.44-2.68.71-3.36,1.15-3.93.9-5.68-3.27a37.71,37.71,0,0,1-1.34-4Z"/><path class="cls-2" d="M50.52,42.21c-.16,2.91-1.26,5.29-3.2,5.84a18.86,18.86,0,0,1-7.42.9,43,43,0,0,1-7.79-2.21v-1l1.39-.3c1.52-.33,3-.66,4.66-.92.75-.13,1.53-.24,2.32-.35,1.45-.2,2.94-.41,4.38-.73.39-.08.74-.59,1.09-1.07.12-.18.24-.35.36-.5L46,41.4c-.3-.49-.63-1-1-1.18a50.12,50.12,0,0,0-5.26-1.36,25.67,25.67,0,0,1-10.26-5.13l.05-.31a34,34,0,0,1,4.4-.46c3.37.44,6.73.89,10.08,1.48a10.41,10.41,0,0,1,3.88,2A6.36,6.36,0,0,1,50,39,6.17,6.17,0,0,1,50.52,42.21Z"/><path class="cls-2" d="M34.37,9.53l-.19.16-.28.19c-.21.14-.41.28-.62.45A34.16,34.16,0,0,0,21.51,25.12l-.06.16C17.9,20.39,18.51,14.21,23,11A13.36,13.36,0,0,1,34.37,9.53Z"/><path class="cls-2" d="M58.45,8.15c-1.92,4.63-7.92,5.07-13.72,1.11C48,6.7,56,6,58.45,8.15Z"/><path class="cls-2" d="M72.5,19.24c-.31.34-.62.68-.91,1.06A14.78,14.78,0,0,1,68,23a2.6,2.6,0,0,0-.45.28A17,17,0,0,1,58,26.5a6.55,6.55,0,0,1-5.28-3.71A8.63,8.63,0,0,1,59,19.23c3.7-.17,7.44-.1,11.43,0Z"/><path class="cls-2" d="M182.8,7.38v3l-4.51,0c-8.22.09-15.39.16-53.58.16H106.58a145,145,0,0,0-15.16.8h-.3c-1.74.22-3.56.45-5.39.81a20,20,0,0,1,12.7-4.82c3-.12,5.92-.08,8.88,0,1.48,0,3,0,4.44,0,6.67.08,35.13,0,54.69,0Z"/><path class="cls-2" d="M182.88,14.27l0,29.58a9.82,9.82,0,0,1-9.78,9.83H52.41A10.71,10.71,0,0,0,57,46.58a11.65,11.65,0,0,0-2.7-11.2,18.79,18.79,0,0,0-10.47-5.52c-.7-.16-1.4-.29-2.11-.4a2.38,2.38,0,0,1-.45-.05l-.21,0-1.45-.2-1.54-.09L36.61,29H34.13c-.41,0-1.82.1-2.25.14l-.9.08c-.49.06-2,.27-2.18.32-.73.12-1.45.28-2.17.45a4.43,4.43,0,0,1-.51.06,2.29,2.29,0,0,1-.69-.14l-.16-.07a2.08,2.08,0,0,1-.59-.43,4.68,4.68,0,0,1,.45-2.7,30.39,30.39,0,0,1,10.5-13.24c.32-.25.64-.48.95-.69l.3-.18a6.6,6.6,0,0,1,.64-.36l.24-.1.12-.05a5.37,5.37,0,0,1,.56-.21l.38-.09a3.7,3.7,0,0,1,.57-.07h.75a3.1,3.1,0,0,1,.51.11l.32.1a4,4,0,0,1,.56.26l.27.14a5.78,5.78,0,0,1,.85.62,17.72,17.72,0,0,0,3.45,1.87c-.36.6-.72,1.17-1.07,1.74-.63,1-1.25,2-1.82,3A4.53,4.53,0,0,0,43.8,25,15.16,15.16,0,0,0,48,28.18a16.91,16.91,0,0,0,2.52,1.08,5.6,5.6,0,0,0,.54.17l.31.09c.58.18,1.17.36,1.75.49l.61.11.39.07c.55.09,1.1.17,1.66.21l1.05.07h.72A13.39,13.39,0,0,0,59,30.41h.06a22.24,22.24,0,0,0,2.58-.36l.38-.08a21.78,21.78,0,0,0,2.39-.69l.44-.16a21.31,21.31,0,0,0,2.3-1l.34-.19a21.8,21.8,0,0,0,2.3-1.41,18.54,18.54,0,0,0,4.73-3.62c4.91-6.13,11-6.88,17-7.64l.28,0c2.27-.25,7.36-.59,7.64-.6,2.16-.11,4.32-.16,6.48-.17h7.81Z"/></g></g></svg>