<svg xmlns="http://www.w3.org/2000/svg" width="540.22" height="540.22" viewBox="0 0 540.22 540.22">
  <g id="b1ee2995-8f07-4d39-8bed-71b333cd6774" data-name="Calque 2">
    <g id="b1e4c9cc-8c3b-4c8a-a385-ac44f4868943" data-name="Calque 1">
      <g>
        <path d="M270.61,540.22A269.6118,269.6118,0,0,1,79.9659,79.9659,269.611,269.611,0,0,1,461.2535,461.2535,267.8414,267.8414,0,0,1,270.61,540.22Zm.45-497.11A227.4982,227.4982,0,0,0,110.1964,431.4772a227.4994,227.4994,0,0,0,321.731-321.7344A226.01,226.01,0,0,0,271.06,43.11Z
        M270.61,1.5a269.1812,269.1812,0,0,1,104.75,517.0727A269.1806,269.1806,0,0,1,165.86,22.6473,267.43,267.43,0,0,1,270.61,1.5m.45,497.11A228.06,228.06,0,0,0,359.8087,60.5276,228.0583,228.0583,0,0,0,182.3154,480.6924,226.5639,226.5639,0,0,0,271.06,498.61M270.61.5C121.43.5.5,121.43.5,270.61S121.43,540.72,270.61,540.72,540.72,419.79,540.72,270.61,419.79.5,270.61.5Zm.45,497.11c-125.36,0-227-101.63-227-227s101.64-227,227-227c125.37,0,227,101.63,227,227s-101.63,227-227,227Z" transform="translate(-0.5 -0.5)" fill="#fff"/> 
      </g>
    </g>
  </g>
</svg>
